<svg width="398" height="315" viewBox="0 0 398 315" fill="none" xmlns="http://www.w3.org/2000/svg">
<rect x="0.5" y="0.5" width="397" height="314" rx="9.5" stroke="#E4E4E7"/>
<mask id="path-2-inside-1_929_57314" fill="white">
<path d="M20 20H378V92H20V20Z"/>
</mask>
<path d="M378 91H20V93H378V91Z" fill="#E4E4E7" mask="url(#path-2-inside-1_929_57314)"/>
<path d="M21.48 50V36H26.4C27.3867 36 28.2 36.16 28.84 36.48C29.4933 36.7867 29.98 37.2133 30.3 37.76C30.62 38.2933 30.78 38.8933 30.78 39.56C30.78 40.4667 30.5333 41.18 30.04 41.7C29.56 42.22 28.98 42.58 28.3 42.78C28.82 42.8733 29.2933 43.08 29.72 43.4C30.1467 43.72 30.48 44.12 30.72 44.6C30.9733 45.08 31.1 45.6067 31.1 46.18C31.1 46.8867 30.9267 47.5333 30.58 48.12C30.2333 48.6933 29.72 49.1533 29.04 49.5C28.36 49.8333 27.5333 50 26.56 50H21.48ZM23.16 42.12H26.28C27.1733 42.12 27.86 41.9133 28.34 41.5C28.82 41.0733 29.06 40.4867 29.06 39.74C29.06 39.0333 28.82 38.4667 28.34 38.04C27.8733 37.6133 27.1667 37.4 26.22 37.4H23.16V42.12ZM23.16 48.6H26.38C27.34 48.6 28.08 48.38 28.6 47.94C29.12 47.4867 29.38 46.86 29.38 46.06C29.38 45.2733 29.1067 44.6467 28.56 44.18C28.0133 43.7 27.2733 43.46 26.34 43.46H23.16V48.6ZM37.9313 50.24C36.9979 50.24 36.1579 50.0267 35.4113 49.6C34.6646 49.1733 34.0713 48.5733 33.6313 47.8C33.2046 47.0133 32.9913 46.0933 32.9913 45.04C32.9913 43.9867 33.2113 43.0733 33.6513 42.3C34.0913 41.5133 34.6846 40.9067 35.4313 40.48C36.1913 40.0533 37.0379 39.84 37.9713 39.84C38.9046 39.84 39.7446 40.0533 40.4913 40.48C41.2379 40.9067 41.8246 41.5133 42.2513 42.3C42.6913 43.0733 42.9113 43.9867 42.9113 45.04C42.9113 46.0933 42.6913 47.0133 42.2513 47.8C41.8113 48.5733 41.2113 49.1733 40.4513 49.6C39.7046 50.0267 38.8646 50.24 37.9313 50.24ZM37.9313 48.8C38.5046 48.8 39.0379 48.66 39.5313 48.38C40.0246 48.1 40.4246 47.68 40.7313 47.12C41.0379 46.56 41.1913 45.8667 41.1913 45.04C41.1913 44.2133 41.0379 43.52 40.7313 42.96C40.4379 42.4 40.0446 41.98 39.5513 41.7C39.0579 41.42 38.5313 41.28 37.9713 41.28C37.3979 41.28 36.8646 41.42 36.3713 41.7C35.8779 41.98 35.4779 42.4 35.1713 42.96C34.8646 43.52 34.7113 44.2133 34.7113 45.04C34.7113 45.8667 34.8646 46.56 35.1713 47.12C35.4779 47.68 35.8713 48.1 36.3513 48.38C36.8446 48.66 37.3713 48.8 37.9313 48.8ZM49.7672 50.24C48.8339 50.24 47.9939 50.0267 47.2472 49.6C46.5005 49.1733 45.9072 48.5733 45.4672 47.8C45.0405 47.0133 44.8272 46.0933 44.8272 45.04C44.8272 43.9867 45.0472 43.0733 45.4872 42.3C45.9272 41.5133 46.5205 40.9067 47.2672 40.48C48.0272 40.0533 48.8739 39.84 49.8072 39.84C50.7405 39.84 51.5805 40.0533 52.3272 40.48C53.0739 40.9067 53.6605 41.5133 54.0872 42.3C54.5272 43.0733 54.7472 43.9867 54.7472 45.04C54.7472 46.0933 54.5272 47.0133 54.0872 47.8C53.6472 48.5733 53.0472 49.1733 52.2872 49.6C51.5405 50.0267 50.7005 50.24 49.7672 50.24ZM49.7672 48.8C50.3405 48.8 50.8739 48.66 51.3672 48.38C51.8605 48.1 52.2605 47.68 52.5672 47.12C52.8739 46.56 53.0272 45.8667 53.0272 45.04C53.0272 44.2133 52.8739 43.52 52.5672 42.96C52.2739 42.4 51.8805 41.98 51.3872 41.7C50.8939 41.42 50.3672 41.28 49.8072 41.28C49.2339 41.28 48.7005 41.42 48.2072 41.7C47.7139 41.98 47.3139 42.4 47.0072 42.96C46.7005 43.52 46.5472 44.2133 46.5472 45.04C46.5472 45.8667 46.7005 46.56 47.0072 47.12C47.3139 47.68 47.7072 48.1 48.1872 48.38C48.6805 48.66 49.2072 48.8 49.7672 48.8ZM60.8831 50.24C59.6965 50.24 58.7098 49.94 57.9231 49.34C57.1365 48.74 56.6765 47.9267 56.5431 46.9H58.2631C58.3698 47.42 58.6431 47.8733 59.0831 48.26C59.5365 48.6333 60.1431 48.82 60.9031 48.82C61.6098 48.82 62.1298 48.6733 62.4631 48.38C62.7965 48.0733 62.9631 47.7133 62.9631 47.3C62.9631 46.7 62.7431 46.3 62.3031 46.1C61.8765 45.9 61.2698 45.72 60.4831 45.56C59.9498 45.4533 59.4165 45.3 58.8831 45.1C58.3498 44.9 57.9031 44.62 57.5431 44.26C57.1831 43.8867 57.0031 43.4 57.0031 42.8C57.0031 41.9333 57.3231 41.2267 57.9631 40.68C58.6165 40.12 59.4965 39.84 60.6031 39.84C61.6565 39.84 62.5165 40.1067 63.1831 40.64C63.8631 41.16 64.2565 41.9067 64.3631 42.88H62.7031C62.6365 42.3733 62.4165 41.98 62.0431 41.7C61.6831 41.4067 61.1965 41.26 60.5831 41.26C59.9831 41.26 59.5165 41.3867 59.1831 41.64C58.8631 41.8933 58.7031 42.2267 58.7031 42.64C58.7031 43.04 58.9098 43.3533 59.3231 43.58C59.7498 43.8067 60.3231 44 61.0431 44.16C61.6565 44.2933 62.2365 44.46 62.7831 44.66C63.3431 44.8467 63.7965 45.1333 64.1431 45.52C64.5031 45.8933 64.6831 46.44 64.6831 47.16C64.6965 48.0533 64.3565 48.7933 63.6631 49.38C62.9831 49.9533 62.0565 50.24 60.8831 50.24ZM70.5539 50C69.6472 50 68.9339 49.78 68.4139 49.34C67.8939 48.9 67.6339 48.1067 67.6339 46.96V41.5H65.9139V40.08H67.6339L67.8539 37.7H69.3139V40.08H72.2339V41.5H69.3139V46.96C69.3139 47.5867 69.4406 48.0133 69.6939 48.24C69.9472 48.4533 70.3939 48.56 71.0339 48.56H72.0739V50H70.5539ZM79.7613 50V36H88.4213V37.38H81.4413V42.26H87.8213V43.62H81.4413V48.62H88.4213V50H79.7613ZM91.4903 50V41.5H89.9903V40.08H91.4903V38.36C91.4903 37.4 91.7303 36.7 92.2103 36.26C92.6903 35.82 93.3903 35.6 94.3103 35.6H95.3103V37.04H94.5703C94.0636 37.04 93.7036 37.1467 93.4903 37.36C93.277 37.56 93.1703 37.9067 93.1703 38.4V40.08H95.6103V41.5H93.1703V50H91.4903ZM98.1505 50V41.5H96.6505V40.08H98.1505V38.36C98.1505 37.4 98.3905 36.7 98.8705 36.26C99.3505 35.82 100.05 35.6 100.97 35.6H101.97V37.04H101.23C100.724 37.04 100.364 37.1467 100.15 37.36C99.9371 37.56 99.8305 37.9067 99.8305 38.4V40.08H105.99V50H104.31V41.5H99.8305V50H98.1505ZM105.17 38.18C104.85 38.18 104.577 38.0733 104.35 37.86C104.124 37.6333 104.01 37.3533 104.01 37.02C104.01 36.7 104.124 36.4333 104.35 36.22C104.577 36.0067 104.85 35.9 105.17 35.9C105.504 35.9 105.777 36.0067 105.99 36.22C106.217 36.4333 106.33 36.7 106.33 37.02C106.33 37.3533 106.217 37.6333 105.99 37.86C105.777 38.0733 105.504 38.18 105.17 38.18ZM113.518 50.24C112.571 50.24 111.718 50.0267 110.958 49.6C110.211 49.16 109.618 48.5533 109.178 47.78C108.751 46.9933 108.538 46.08 108.538 45.04C108.538 44 108.751 43.0933 109.178 42.32C109.618 41.5333 110.211 40.9267 110.958 40.5C111.718 40.06 112.571 39.84 113.518 39.84C114.691 39.84 115.678 40.1467 116.478 40.76C117.291 41.3733 117.805 42.1933 118.018 43.22H116.298C116.165 42.6067 115.838 42.1333 115.318 41.8C114.798 41.4533 114.191 41.28 113.498 41.28C112.938 41.28 112.411 41.42 111.918 41.7C111.425 41.98 111.025 42.4 110.718 42.96C110.411 43.52 110.258 44.2133 110.258 45.04C110.258 45.8667 110.411 46.56 110.718 47.12C111.025 47.68 111.425 48.1067 111.918 48.4C112.411 48.68 112.938 48.82 113.498 48.82C114.191 48.82 114.798 48.6533 115.318 48.32C115.838 47.9733 116.165 47.4867 116.298 46.86H118.018C117.818 47.86 117.311 48.6733 116.498 49.3C115.685 49.9267 114.691 50.24 113.518 50.24ZM121.384 37.88C121.051 37.88 120.771 37.7733 120.544 37.56C120.331 37.3333 120.224 37.0533 120.224 36.72C120.224 36.4 120.331 36.1333 120.544 35.92C120.771 35.7067 121.051 35.6 121.384 35.6C121.704 35.6 121.978 35.7067 122.204 35.92C122.431 36.1333 122.544 36.4 122.544 36.72C122.544 37.0533 122.431 37.3333 122.204 37.56C121.978 37.7733 121.704 37.88 121.384 37.88ZM120.544 50V40.08H122.224V50H120.544ZM129.61 50.24C128.663 50.24 127.823 50.0267 127.09 49.6C126.356 49.16 125.776 48.5533 125.35 47.78C124.936 47.0067 124.73 46.0933 124.73 45.04C124.73 44 124.936 43.0933 125.35 42.32C125.763 41.5333 126.336 40.9267 127.07 40.5C127.816 40.06 128.676 39.84 129.65 39.84C130.61 39.84 131.436 40.06 132.13 40.5C132.836 40.9267 133.376 41.4933 133.75 42.2C134.123 42.9067 134.31 43.6667 134.31 44.48C134.31 44.6267 134.303 44.7733 134.29 44.92C134.29 45.0667 134.29 45.2333 134.29 45.42H126.39C126.43 46.18 126.603 46.8133 126.91 47.32C127.23 47.8133 127.623 48.1867 128.09 48.44C128.57 48.6933 129.076 48.82 129.61 48.82C130.303 48.82 130.883 48.66 131.35 48.34C131.816 48.02 132.156 47.5867 132.37 47.04H134.03C133.763 47.96 133.25 48.7267 132.49 49.34C131.743 49.94 130.783 50.24 129.61 50.24ZM129.61 41.26C128.81 41.26 128.096 41.5067 127.47 42C126.856 42.48 126.503 43.1867 126.41 44.12H132.65C132.61 43.2267 132.303 42.5267 131.73 42.02C131.156 41.5133 130.45 41.26 129.61 41.26ZM136.536 50V40.08H138.056L138.156 41.86C138.476 41.2333 138.936 40.74 139.536 40.38C140.136 40.02 140.816 39.84 141.576 39.84C142.75 39.84 143.683 40.2 144.376 40.92C145.083 41.6267 145.436 42.72 145.436 44.2V50H143.756V44.38C143.756 42.3133 142.903 41.28 141.196 41.28C140.343 41.28 139.63 41.5933 139.056 42.22C138.496 42.8333 138.216 43.7133 138.216 44.86V50H136.536ZM152.542 50.24C151.595 50.24 150.742 50.0267 149.982 49.6C149.235 49.16 148.642 48.5533 148.202 47.78C147.775 46.9933 147.562 46.08 147.562 45.04C147.562 44 147.775 43.0933 148.202 42.32C148.642 41.5333 149.235 40.9267 149.982 40.5C150.742 40.06 151.595 39.84 152.542 39.84C153.715 39.84 154.702 40.1467 155.502 40.76C156.315 41.3733 156.828 42.1933 157.042 43.22H155.322C155.188 42.6067 154.862 42.1333 154.342 41.8C153.822 41.4533 153.215 41.28 152.522 41.28C151.962 41.28 151.435 41.42 150.942 41.7C150.448 41.98 150.048 42.4 149.742 42.96C149.435 43.52 149.282 44.2133 149.282 45.04C149.282 45.8667 149.435 46.56 149.742 47.12C150.048 47.68 150.448 48.1067 150.942 48.4C151.435 48.68 151.962 48.82 152.522 48.82C153.215 48.82 153.822 48.6533 154.342 48.32C154.862 47.9733 155.188 47.4867 155.322 46.86H157.042C156.842 47.86 156.335 48.6733 155.522 49.3C154.708 49.9267 153.715 50.24 152.542 50.24ZM160.468 54.4L162.928 49.04H162.348L158.408 40.08H160.228L163.508 47.8L166.988 40.08H168.728L162.228 54.4H160.468ZM179.094 50.24C178.267 50.24 177.581 50.1 177.034 49.82C176.487 49.54 176.081 49.1667 175.814 48.7C175.547 48.2333 175.414 47.7267 175.414 47.18C175.414 46.1667 175.801 45.3867 176.574 44.84C177.347 44.2933 178.401 44.02 179.734 44.02H182.414V43.9C182.414 43.0333 182.187 42.38 181.734 41.94C181.281 41.4867 180.674 41.26 179.914 41.26C179.261 41.26 178.694 41.4267 178.214 41.76C177.747 42.08 177.454 42.5533 177.334 43.18H175.614C175.681 42.46 175.921 41.8533 176.334 41.36C176.761 40.8667 177.287 40.4933 177.914 40.24C178.541 39.9733 179.207 39.84 179.914 39.84C181.301 39.84 182.341 40.2133 183.034 40.96C183.741 41.6933 184.094 42.6733 184.094 43.9V50H182.594L182.494 48.22C182.214 48.78 181.801 49.26 181.254 49.66C180.721 50.0467 180.001 50.24 179.094 50.24ZM179.354 48.82C179.994 48.82 180.541 48.6533 180.994 48.32C181.461 47.9867 181.814 47.5533 182.054 47.02C182.294 46.4867 182.414 45.9267 182.414 45.34V45.32H179.874C178.887 45.32 178.187 45.4933 177.774 45.84C177.374 46.1733 177.174 46.5933 177.174 47.1C177.174 47.62 177.361 48.04 177.734 48.36C178.121 48.6667 178.661 48.82 179.354 48.82ZM186.614 50V40.08H188.134L188.234 41.86C188.554 41.2333 189.014 40.74 189.614 40.38C190.214 40.02 190.894 39.84 191.654 39.84C192.828 39.84 193.761 40.2 194.454 40.92C195.161 41.6267 195.514 42.72 195.514 44.2V50H193.834V44.38C193.834 42.3133 192.981 41.28 191.274 41.28C190.421 41.28 189.708 41.5933 189.134 42.22C188.574 42.8333 188.294 43.7133 188.294 44.86V50H186.614ZM202.56 50.24C201.573 50.24 200.706 50.0133 199.96 49.56C199.226 49.1067 198.653 48.4867 198.24 47.7C197.84 46.9133 197.64 46.02 197.64 45.02C197.64 44.02 197.846 43.1333 198.26 42.36C198.673 41.5733 199.246 40.96 199.98 40.52C200.713 40.0667 201.58 39.84 202.58 39.84C203.393 39.84 204.113 40.0067 204.74 40.34C205.366 40.6733 205.853 41.14 206.2 41.74V35.6H207.88V50H206.36L206.2 48.36C205.88 48.84 205.42 49.2733 204.82 49.66C204.22 50.0467 203.466 50.24 202.56 50.24ZM202.74 48.78C203.406 48.78 203.993 48.6267 204.5 48.32C205.02 48 205.42 47.56 205.7 47C205.993 46.44 206.14 45.7867 206.14 45.04C206.14 44.2933 205.993 43.64 205.7 43.08C205.42 42.52 205.02 42.0867 204.5 41.78C203.993 41.46 203.406 41.3 202.74 41.3C202.086 41.3 201.5 41.46 200.98 41.78C200.473 42.0867 200.073 42.52 199.78 43.08C199.5 43.64 199.36 44.2933 199.36 45.04C199.36 45.7867 199.5 46.44 199.78 47C200.073 47.56 200.473 48 200.98 48.32C201.5 48.6267 202.086 48.78 202.74 48.78ZM216.011 50V36H224.671V37.38H217.691V42.26H224.071V43.62H217.691V48.62H224.671V50H216.011ZM227.2 50V40.08H228.72L228.84 41.52C229.16 40.9867 229.587 40.5733 230.12 40.28C230.654 39.9867 231.254 39.84 231.92 39.84C232.707 39.84 233.38 40 233.94 40.32C234.514 40.64 234.954 41.1267 235.26 41.78C235.607 41.18 236.08 40.7067 236.68 40.36C237.294 40.0133 237.954 39.84 238.66 39.84C239.847 39.84 240.794 40.2 241.5 40.92C242.207 41.6267 242.56 42.72 242.56 44.2V50H240.9V44.38C240.9 43.3533 240.694 42.58 240.28 42.06C239.867 41.54 239.274 41.28 238.5 41.28C237.7 41.28 237.034 41.5933 236.5 42.22C235.98 42.8333 235.72 43.7133 235.72 44.86V50H234.04V44.38C234.04 43.3533 233.834 42.58 233.42 42.06C233.007 41.54 232.414 41.28 231.64 41.28C230.854 41.28 230.194 41.5933 229.66 42.22C229.14 42.8333 228.88 43.7133 228.88 44.86V50H227.2ZM245.091 54.4V40.08H246.611L246.771 41.72C247.091 41.24 247.544 40.8067 248.131 40.42C248.731 40.0333 249.491 39.84 250.411 39.84C251.398 39.84 252.258 40.0667 252.991 40.52C253.724 40.9733 254.291 41.5933 254.691 42.38C255.104 43.1667 255.311 44.06 255.311 45.06C255.311 46.06 255.104 46.9533 254.691 47.74C254.291 48.5133 253.718 49.1267 252.971 49.58C252.238 50.02 251.378 50.24 250.391 50.24C249.578 50.24 248.851 50.0733 248.211 49.74C247.584 49.4067 247.104 48.94 246.771 48.34V54.4H245.091ZM250.211 48.78C250.878 48.78 251.464 48.6267 251.971 48.32C252.478 48 252.878 47.56 253.171 47C253.464 46.44 253.611 45.7867 253.611 45.04C253.611 44.2933 253.464 43.64 253.171 43.08C252.878 42.52 252.478 42.0867 251.971 41.78C251.464 41.46 250.878 41.3 250.211 41.3C249.544 41.3 248.958 41.46 248.451 41.78C247.944 42.0867 247.544 42.52 247.251 43.08C246.958 43.64 246.811 44.2933 246.811 45.04C246.811 45.7867 246.958 46.44 247.251 47C247.544 47.56 247.944 48 248.451 48.32C248.958 48.6267 249.544 48.78 250.211 48.78ZM257.65 50V35.6H259.33V50H257.65ZM266.603 50.24C265.67 50.24 264.83 50.0267 264.083 49.6C263.336 49.1733 262.743 48.5733 262.303 47.8C261.876 47.0133 261.663 46.0933 261.663 45.04C261.663 43.9867 261.883 43.0733 262.323 42.3C262.763 41.5133 263.356 40.9067 264.103 40.48C264.863 40.0533 265.71 39.84 266.643 39.84C267.576 39.84 268.416 40.0533 269.163 40.48C269.91 40.9067 270.496 41.5133 270.923 42.3C271.363 43.0733 271.583 43.9867 271.583 45.04C271.583 46.0933 271.363 47.0133 270.923 47.8C270.483 48.5733 269.883 49.1733 269.123 49.6C268.376 50.0267 267.536 50.24 266.603 50.24ZM266.603 48.8C267.176 48.8 267.71 48.66 268.203 48.38C268.696 48.1 269.096 47.68 269.403 47.12C269.71 46.56 269.863 45.8667 269.863 45.04C269.863 44.2133 269.71 43.52 269.403 42.96C269.11 42.4 268.716 41.98 268.223 41.7C267.73 41.42 267.203 41.28 266.643 41.28C266.07 41.28 265.536 41.42 265.043 41.7C264.55 41.98 264.15 42.4 263.843 42.96C263.536 43.52 263.383 44.2133 263.383 45.04C263.383 45.8667 263.536 46.56 263.843 47.12C264.15 47.68 264.543 48.1 265.023 48.38C265.516 48.66 266.043 48.8 266.603 48.8ZM274.198 54.4L276.658 49.04H276.078L272.138 40.08H273.958L277.238 47.8L280.718 40.08H282.458L275.958 54.4H274.198ZM287.754 50.24C286.807 50.24 285.967 50.0267 285.234 49.6C284.501 49.16 283.921 48.5533 283.494 47.78C283.081 47.0067 282.874 46.0933 282.874 45.04C282.874 44 283.081 43.0933 283.494 42.32C283.907 41.5333 284.481 40.9267 285.214 40.5C285.961 40.06 286.821 39.84 287.794 39.84C288.754 39.84 289.581 40.06 290.274 40.5C290.981 40.9267 291.521 41.4933 291.894 42.2C292.267 42.9067 292.454 43.6667 292.454 44.48C292.454 44.6267 292.447 44.7733 292.434 44.92C292.434 45.0667 292.434 45.2333 292.434 45.42H284.534C284.574 46.18 284.747 46.8133 285.054 47.32C285.374 47.8133 285.767 48.1867 286.234 48.44C286.714 48.6933 287.221 48.82 287.754 48.82C288.447 48.82 289.027 48.66 289.494 48.34C289.961 48.02 290.301 47.5867 290.514 47.04H292.174C291.907 47.96 291.394 48.7267 290.634 49.34C289.887 49.94 288.927 50.24 287.754 50.24ZM287.754 41.26C286.954 41.26 286.241 41.5067 285.614 42C285.001 42.48 284.647 43.1867 284.554 44.12H290.794C290.754 43.2267 290.447 42.5267 289.874 42.02C289.301 41.5133 288.594 41.26 287.754 41.26ZM299.141 50.24C298.194 50.24 297.354 50.0267 296.621 49.6C295.887 49.16 295.307 48.5533 294.881 47.78C294.467 47.0067 294.261 46.0933 294.261 45.04C294.261 44 294.467 43.0933 294.881 42.32C295.294 41.5333 295.867 40.9267 296.601 40.5C297.347 40.06 298.207 39.84 299.181 39.84C300.141 39.84 300.967 40.06 301.661 40.5C302.367 40.9267 302.907 41.4933 303.281 42.2C303.654 42.9067 303.841 43.6667 303.841 44.48C303.841 44.6267 303.834 44.7733 303.821 44.92C303.821 45.0667 303.821 45.2333 303.821 45.42H295.921C295.961 46.18 296.134 46.8133 296.441 47.32C296.761 47.8133 297.154 48.1867 297.621 48.44C298.101 48.6933 298.607 48.82 299.141 48.82C299.834 48.82 300.414 48.66 300.881 48.34C301.347 48.02 301.687 47.5867 301.901 47.04H303.561C303.294 47.96 302.781 48.7267 302.021 49.34C301.274 49.94 300.314 50.24 299.141 50.24ZM299.141 41.26C298.341 41.26 297.627 41.5067 297.001 42C296.387 42.48 296.034 43.1867 295.941 44.12H302.181C302.141 43.2267 301.834 42.5267 301.261 42.02C300.687 41.5133 299.981 41.26 299.141 41.26ZM25.94 76.24C24.9133 76.24 24.02 76.0533 23.26 75.68C22.5 75.3067 21.9133 74.7867 21.5 74.12C21.0867 73.4533 20.88 72.68 20.88 71.8H22.64C22.64 72.3467 22.7667 72.8533 23.02 73.32C23.2733 73.7733 23.64 74.14 24.12 74.42C24.6133 74.6867 25.22 74.82 25.94 74.82C26.8867 74.82 27.62 74.5933 28.14 74.14C28.66 73.6867 28.92 73.12 28.92 72.44C28.92 71.88 28.8 71.4333 28.56 71.1C28.32 70.7533 27.9933 70.4733 27.58 70.26C27.18 70.0467 26.7133 69.86 26.18 69.7C25.66 69.54 25.1133 69.36 24.54 69.16C23.46 68.7867 22.66 68.3267 22.14 67.78C21.62 67.22 21.36 66.4933 21.36 65.6C21.3467 64.8533 21.52 64.1933 21.88 63.62C22.24 63.0333 22.7467 62.58 23.4 62.26C24.0667 61.9267 24.8533 61.76 25.76 61.76C26.6533 61.76 27.4267 61.9267 28.08 62.26C28.7467 62.5933 29.26 63.0533 29.62 63.64C29.9933 64.2267 30.1867 64.8933 30.2 65.64H28.44C28.44 65.2533 28.34 64.8733 28.14 64.5C27.94 64.1133 27.6333 63.8 27.22 63.56C26.82 63.32 26.3133 63.2 25.7 63.2C24.94 63.1867 24.3133 63.38 23.82 63.78C23.34 64.18 23.1 64.7333 23.1 65.44C23.1 66.04 23.2667 66.5 23.6 66.82C23.9467 67.14 24.4267 67.4067 25.04 67.62C25.6533 67.82 26.36 68.0533 27.16 68.32C27.8267 68.56 28.4267 68.84 28.96 69.16C29.4933 69.48 29.9067 69.8933 30.2 70.4C30.5067 70.9067 30.66 71.5533 30.66 72.34C30.66 73.0067 30.4867 73.64 30.14 74.24C29.7933 74.8267 29.2667 75.3067 28.56 75.68C27.8667 76.0533 26.9933 76.24 25.94 76.24ZM36.2425 76.24C35.4158 76.24 34.7292 76.1 34.1825 75.82C33.6358 75.54 33.2292 75.1667 32.9625 74.7C32.6958 74.2333 32.5625 73.7267 32.5625 73.18C32.5625 72.1667 32.9492 71.3867 33.7225 70.84C34.4958 70.2933 35.5492 70.02 36.8825 70.02H39.5625V69.9C39.5625 69.0333 39.3358 68.38 38.8825 67.94C38.4292 67.4867 37.8225 67.26 37.0625 67.26C36.4092 67.26 35.8425 67.4267 35.3625 67.76C34.8958 68.08 34.6025 68.5533 34.4825 69.18H32.7625C32.8292 68.46 33.0692 67.8533 33.4825 67.36C33.9092 66.8667 34.4358 66.4933 35.0625 66.24C35.6892 65.9733 36.3558 65.84 37.0625 65.84C38.4492 65.84 39.4892 66.2133 40.1825 66.96C40.8892 67.6933 41.2425 68.6733 41.2425 69.9V76H39.7425L39.6425 74.22C39.3625 74.78 38.9492 75.26 38.4025 75.66C37.8692 76.0467 37.1492 76.24 36.2425 76.24ZM36.5025 74.82C37.1425 74.82 37.6892 74.6533 38.1425 74.32C38.6092 73.9867 38.9625 73.5533 39.2025 73.02C39.4425 72.4867 39.5625 71.9267 39.5625 71.34V71.32H37.0225C36.0358 71.32 35.3358 71.4933 34.9225 71.84C34.5225 72.1733 34.3225 72.5933 34.3225 73.1C34.3225 73.62 34.5092 74.04 34.8825 74.36C35.2692 74.6667 35.8092 74.82 36.5025 74.82ZM47.4094 76C46.5027 76 45.7894 75.78 45.2694 75.34C44.7494 74.9 44.4894 74.1067 44.4894 72.96V67.5H42.7694V66.08H44.4894L44.7094 63.7H46.1694V66.08H49.0894V67.5H46.1694V72.96C46.1694 73.5867 46.296 74.0133 46.5494 74.24C46.8027 74.4533 47.2494 74.56 47.8894 74.56H48.9294V76H47.4094ZM52.2438 63.88C51.9104 63.88 51.6304 63.7733 51.4038 63.56C51.1904 63.3333 51.0838 63.0533 51.0838 62.72C51.0838 62.4 51.1904 62.1333 51.4038 61.92C51.6304 61.7067 51.9104 61.6 52.2438 61.6C52.5638 61.6 52.8371 61.7067 53.0638 61.92C53.2904 62.1333 53.4038 62.4 53.4038 62.72C53.4038 63.0533 53.2904 63.3333 53.0638 63.56C52.8371 63.7733 52.5638 63.88 52.2438 63.88ZM51.4038 76V66.08H53.0838V76H51.4038ZM59.8089 76.24C58.6222 76.24 57.6356 75.94 56.8489 75.34C56.0622 74.74 55.6022 73.9267 55.4689 72.9H57.1889C57.2956 73.42 57.5689 73.8733 58.0089 74.26C58.4622 74.6333 59.0689 74.82 59.8289 74.82C60.5356 74.82 61.0556 74.6733 61.3889 74.38C61.7222 74.0733 61.8889 73.7133 61.8889 73.3C61.8889 72.7 61.6689 72.3 61.2289 72.1C60.8022 71.9 60.1956 71.72 59.4089 71.56C58.8756 71.4533 58.3422 71.3 57.8089 71.1C57.2756 70.9 56.8289 70.62 56.4689 70.26C56.1089 69.8867 55.9289 69.4 55.9289 68.8C55.9289 67.9333 56.2489 67.2267 56.8889 66.68C57.5422 66.12 58.4222 65.84 59.5289 65.84C60.5822 65.84 61.4422 66.1067 62.1089 66.64C62.7889 67.16 63.1822 67.9067 63.2889 68.88H61.6289C61.5622 68.3733 61.3422 67.98 60.9689 67.7C60.6089 67.4067 60.1222 67.26 59.5089 67.26C58.9089 67.26 58.4422 67.3867 58.1089 67.64C57.7889 67.8933 57.6289 68.2267 57.6289 68.64C57.6289 69.04 57.8356 69.3533 58.2489 69.58C58.6756 69.8067 59.2489 70 59.9689 70.16C60.5822 70.2933 61.1622 70.46 61.7089 70.66C62.2689 70.8467 62.7222 71.1333 63.0689 71.52C63.4289 71.8933 63.6089 72.44 63.6089 73.16C63.6222 74.0533 63.2822 74.7933 62.5889 75.38C61.9089 75.9533 60.9822 76.24 59.8089 76.24ZM66.5489 76V67.5H65.0489V66.08H66.5489V64.36C66.5489 63.4 66.7889 62.7 67.2689 62.26C67.7489 61.82 68.4489 61.6 69.3689 61.6H70.3689V63.04H69.6289C69.1222 63.04 68.7622 63.1467 68.5489 63.36C68.3356 63.56 68.2289 63.9067 68.2289 64.4V66.08H70.6689V67.5H68.2289V76H66.5489ZM75.5784 76.24C74.7518 76.24 74.0651 76.1 73.5184 75.82C72.9718 75.54 72.5651 75.1667 72.2984 74.7C72.0318 74.2333 71.8984 73.7267 71.8984 73.18C71.8984 72.1667 72.2851 71.3867 73.0584 70.84C73.8318 70.2933 74.8851 70.02 76.2184 70.02H78.8984V69.9C78.8984 69.0333 78.6718 68.38 78.2184 67.94C77.7651 67.4867 77.1584 67.26 76.3984 67.26C75.7451 67.26 75.1784 67.4267 74.6984 67.76C74.2318 68.08 73.9384 68.5533 73.8184 69.18H72.0984C72.1651 68.46 72.4051 67.8533 72.8184 67.36C73.2451 66.8667 73.7718 66.4933 74.3984 66.24C75.0251 65.9733 75.6918 65.84 76.3984 65.84C77.7851 65.84 78.8251 66.2133 79.5184 66.96C80.2251 67.6933 80.5784 68.6733 80.5784 69.9V76H79.0784L78.9784 74.22C78.6984 74.78 78.2851 75.26 77.7384 75.66C77.2051 76.0467 76.4851 76.24 75.5784 76.24ZM75.8384 74.82C76.4784 74.82 77.0251 74.6533 77.4784 74.32C77.9451 73.9867 78.2984 73.5533 78.5384 73.02C78.7784 72.4867 78.8984 71.9267 78.8984 71.34V71.32H76.3584C75.3718 71.32 74.6718 71.4933 74.2584 71.84C73.8584 72.1733 73.6584 72.5933 73.6584 73.1C73.6584 73.62 73.8451 74.04 74.2184 74.36C74.6051 74.6667 75.1451 74.82 75.8384 74.82ZM87.6588 76.24C86.7121 76.24 85.8588 76.0267 85.0988 75.6C84.3521 75.16 83.7588 74.5533 83.3188 73.78C82.8921 72.9933 82.6788 72.08 82.6788 71.04C82.6788 70 82.8921 69.0933 83.3188 68.32C83.7588 67.5333 84.3521 66.9267 85.0988 66.5C85.8588 66.06 86.7121 65.84 87.6588 65.84C88.8321 65.84 89.8188 66.1467 90.6188 66.76C91.4321 67.3733 91.9454 68.1933 92.1588 69.22H90.4388C90.3054 68.6067 89.9788 68.1333 89.4588 67.8C88.9388 67.4533 88.3321 67.28 87.6388 67.28C87.0788 67.28 86.5521 67.42 86.0588 67.7C85.5654 67.98 85.1654 68.4 84.8588 68.96C84.5521 69.52 84.3988 70.2133 84.3988 71.04C84.3988 71.8667 84.5521 72.56 84.8588 73.12C85.1654 73.68 85.5654 74.1067 86.0588 74.4C86.5521 74.68 87.0788 74.82 87.6388 74.82C88.3321 74.82 88.9388 74.6533 89.4588 74.32C89.9788 73.9733 90.3054 73.4867 90.4388 72.86H92.1588C91.9588 73.86 91.4521 74.6733 90.6388 75.3C89.8254 75.9267 88.8321 76.24 87.6588 76.24ZM98.1516 76C97.2449 76 96.5316 75.78 96.0116 75.34C95.4916 74.9 95.2316 74.1067 95.2316 72.96V67.5H93.5116V66.08H95.2316L95.4516 63.7H96.9116V66.08H99.8316V67.5H96.9116V72.96C96.9116 73.5867 97.0382 74.0133 97.2916 74.24C97.5449 74.4533 97.9916 74.56 98.6316 74.56H99.6716V76H98.1516ZM102.986 63.88C102.653 63.88 102.373 63.7733 102.146 63.56C101.933 63.3333 101.826 63.0533 101.826 62.72C101.826 62.4 101.933 62.1333 102.146 61.92C102.373 61.7067 102.653 61.6 102.986 61.6C103.306 61.6 103.579 61.7067 103.806 61.92C104.033 62.1333 104.146 62.4 104.146 62.72C104.146 63.0533 104.033 63.3333 103.806 63.56C103.579 63.7733 103.306 63.88 102.986 63.88ZM102.146 76V66.08H103.826V76H102.146ZM111.271 76.24C110.338 76.24 109.498 76.0267 108.751 75.6C108.004 75.1733 107.411 74.5733 106.971 73.8C106.544 73.0133 106.331 72.0933 106.331 71.04C106.331 69.9867 106.551 69.0733 106.991 68.3C107.431 67.5133 108.024 66.9067 108.771 66.48C109.531 66.0533 110.378 65.84 111.311 65.84C112.244 65.84 113.084 66.0533 113.831 66.48C114.578 66.9067 115.164 67.5133 115.591 68.3C116.031 69.0733 116.251 69.9867 116.251 71.04C116.251 72.0933 116.031 73.0133 115.591 73.8C115.151 74.5733 114.551 75.1733 113.791 75.6C113.044 76.0267 112.204 76.24 111.271 76.24ZM111.271 74.8C111.844 74.8 112.378 74.66 112.871 74.38C113.364 74.1 113.764 73.68 114.071 73.12C114.378 72.56 114.531 71.8667 114.531 71.04C114.531 70.2133 114.378 69.52 114.071 68.96C113.778 68.4 113.384 67.98 112.891 67.7C112.398 67.42 111.871 67.28 111.311 67.28C110.738 67.28 110.204 67.42 109.711 67.7C109.218 67.98 108.818 68.4 108.511 68.96C108.204 69.52 108.051 70.2133 108.051 71.04C108.051 71.8667 108.204 72.56 108.511 73.12C108.818 73.68 109.211 74.1 109.691 74.38C110.184 74.66 110.711 74.8 111.271 74.8ZM118.587 76V66.08H120.107L120.207 67.86C120.527 67.2333 120.987 66.74 121.587 66.38C122.187 66.02 122.867 65.84 123.627 65.84C124.8 65.84 125.734 66.2 126.427 66.92C127.134 67.6267 127.487 68.72 127.487 70.2V76H125.807V70.38C125.807 68.3133 124.954 67.28 123.247 67.28C122.394 67.28 121.68 67.5933 121.107 68.22C120.547 68.8333 120.267 69.7133 120.267 70.86V76H118.587Z" fill="#042F12"/>
<rect x="221.927" y="120.579" width="133" height="50" rx="25" transform="rotate(10.001 221.927 120.579)" fill="#9C42E2" fill-opacity="0.15"/>
<rect x="221.927" y="120.579" width="133" height="50" rx="25" transform="rotate(10.001 221.927 120.579)" stroke="#9C42E2"/>
<path d="M245.404 155.885C244.595 155.742 243.917 155.471 243.37 155.071C242.823 154.672 242.433 154.18 242.2 153.598C241.967 153.015 241.912 152.377 242.034 151.684L243.421 151.928C243.345 152.359 243.374 152.776 243.509 153.179C243.646 153.571 243.884 153.911 244.223 154.198C244.575 154.477 245.034 154.666 245.601 154.766C246.347 154.898 246.956 154.821 247.429 154.536C247.902 154.251 248.185 153.841 248.28 153.305C248.357 152.864 248.325 152.495 248.182 152.199C248.041 151.893 247.823 151.627 247.527 151.401C247.241 151.178 246.9 150.966 246.502 150.766C246.114 150.567 245.709 150.35 245.285 150.112C244.486 149.668 243.919 149.195 243.585 148.692C243.254 148.178 243.15 147.57 243.274 146.866C243.367 146.276 243.595 145.78 243.959 145.378C244.324 144.966 244.786 144.679 245.345 144.518C245.917 144.348 246.56 144.326 247.274 144.452C247.978 144.576 248.564 144.815 249.032 145.168C249.511 145.523 249.852 145.957 250.054 146.469C250.266 146.983 250.326 147.536 250.233 148.126L248.846 147.881C248.9 147.576 248.874 147.263 248.768 146.941C248.664 146.609 248.466 146.319 248.174 146.073C247.892 145.828 247.51 145.663 247.027 145.578C246.43 145.462 245.909 145.527 245.465 145.774C245.031 146.022 244.765 146.425 244.667 146.982C244.584 147.454 244.651 147.84 244.869 148.138C245.098 148.439 245.439 148.715 245.892 148.969C246.348 149.211 246.872 149.493 247.465 149.815C247.957 150.096 248.391 150.4 248.767 150.727C249.143 151.053 249.411 151.436 249.572 151.876C249.743 152.318 249.774 152.848 249.664 153.468C249.572 153.993 249.347 154.468 248.991 154.893C248.636 155.307 248.155 155.612 247.546 155.808C246.948 156.006 246.234 156.031 245.404 155.885ZM253.521 157.316C252.869 157.201 252.348 156.996 251.956 156.699C251.564 156.403 251.296 156.052 251.151 155.647C251.005 155.243 250.971 154.825 251.047 154.394C251.187 153.596 251.6 153.035 252.286 152.712C252.971 152.389 253.839 152.32 254.889 152.505L257.001 152.877L257.017 152.783C257.138 152.1 257.05 151.554 256.754 151.144C256.46 150.724 256.013 150.461 255.414 150.355C254.9 150.265 254.43 150.317 254.006 150.513C253.593 150.7 253.297 151.033 253.115 151.51L251.76 151.271C251.912 150.713 252.186 150.268 252.58 149.937C252.985 149.607 253.451 149.386 253.98 149.274C254.511 149.151 255.055 149.138 255.612 149.237C256.704 149.429 257.472 149.868 257.914 150.552C258.369 151.228 258.511 152.05 258.341 153.016L257.493 157.822L256.312 157.613L256.48 156.197C256.182 156.599 255.789 156.92 255.303 157.159C254.829 157.39 254.235 157.442 253.521 157.316ZM253.923 156.234C254.427 156.323 254.881 156.267 255.284 156.068C255.698 155.87 256.037 155.577 256.3 155.191C256.563 154.804 256.736 154.379 256.817 153.917L256.82 153.901L254.819 153.548C254.041 153.411 253.466 153.451 253.092 153.666C252.731 153.873 252.515 154.177 252.444 154.576C252.372 154.985 252.461 155.342 252.71 155.646C252.972 155.942 253.377 156.137 253.923 156.234ZM261.44 158.518L259.856 150.18L261.242 150.425L262.437 157.378L265.954 151.255L267.309 151.494L262.968 158.787L261.44 158.518ZM270.484 160.308C269.738 160.176 269.106 159.891 268.587 159.453C268.071 159.005 267.698 158.446 267.469 157.778C267.251 157.111 267.215 156.363 267.362 155.533C267.506 154.713 267.795 154.028 268.228 153.476C268.663 152.914 269.199 152.515 269.836 152.281C270.485 152.038 271.193 151.984 271.96 152.12C272.717 152.253 273.337 152.541 273.822 152.984C274.32 153.418 274.667 153.94 274.863 154.549C275.058 155.157 275.1 155.782 274.987 156.423C274.967 156.538 274.941 156.653 274.91 156.767C274.89 156.882 274.867 157.013 274.841 157.16L268.617 156.063C268.543 156.667 268.591 157.19 268.762 157.632C268.946 158.065 269.204 158.414 269.536 158.678C269.879 158.945 270.261 159.115 270.681 159.189C271.227 159.285 271.707 159.24 272.119 159.052C272.531 158.865 272.859 158.571 273.103 158.17L274.411 158.401C274.073 159.088 273.562 159.621 272.878 159.999C272.206 160.368 271.408 160.471 270.484 160.308ZM271.731 153.233C271.101 153.122 270.505 153.217 269.943 153.518C269.393 153.811 269.016 154.319 268.813 155.041L273.729 155.908C273.822 155.199 273.677 154.605 273.296 154.126C272.915 153.647 272.393 153.349 271.731 153.233ZM278.935 161.798C278 161.633 277.264 161.26 276.728 160.678C276.191 160.096 275.942 159.391 275.98 158.564L277.335 158.803C277.346 159.227 277.499 159.622 277.792 159.988C278.097 160.345 278.549 160.576 279.148 160.682C279.705 160.78 280.135 160.737 280.438 160.552C280.743 160.357 280.925 160.096 280.982 159.771C281.065 159.298 280.948 158.952 280.629 158.734C280.32 158.517 279.867 158.291 279.27 158.055C278.865 157.897 278.466 157.702 278.073 157.471C277.681 157.239 277.368 156.956 277.134 156.623C276.902 156.278 276.828 155.87 276.912 155.397C277.032 154.715 277.382 154.202 277.963 153.86C278.555 153.51 279.287 153.412 280.159 153.565C280.989 153.712 281.629 154.041 282.081 154.554C282.544 155.058 282.75 155.701 282.699 156.483L281.391 156.252C281.409 155.844 281.29 155.503 281.035 155.231C280.792 154.95 280.429 154.767 279.946 154.681C279.473 154.598 279.088 154.633 278.79 154.786C278.503 154.941 278.331 155.182 278.273 155.507C278.218 155.823 278.337 156.098 278.631 156.334C278.936 156.572 279.361 156.804 279.906 157.03C280.37 157.22 280.804 157.432 281.207 157.666C281.622 157.891 281.94 158.179 282.159 158.532C282.391 158.876 282.457 159.332 282.357 159.899C282.243 160.605 281.872 161.141 281.245 161.507C280.629 161.864 279.859 161.961 278.935 161.798ZM290.686 163.675L292.439 153.733L289.146 153.152L289.338 152.065L297.248 153.459L297.056 154.547L293.763 153.966L292.009 163.909L290.686 163.675ZM299.327 155.353C299.065 155.307 298.859 155.184 298.71 154.985C298.573 154.776 298.528 154.541 298.575 154.278C298.619 154.026 298.74 153.831 298.938 153.693C299.146 153.556 299.382 153.511 299.644 153.557C299.896 153.602 300.097 153.724 300.246 153.923C300.395 154.123 300.447 154.349 300.402 154.601C300.356 154.863 300.228 155.068 300.018 155.215C299.81 155.352 299.579 155.398 299.327 155.353ZM296.982 164.785L298.36 156.97L299.684 157.203L298.305 165.019L296.982 164.785ZM300.61 165.425L301.988 157.61L303.186 157.821L303.08 158.972C303.406 158.596 303.8 158.33 304.261 158.173C304.722 158.016 305.215 157.984 305.74 158.076C306.36 158.186 306.868 158.405 307.265 158.735C307.672 159.067 307.951 159.512 308.102 160.069C308.458 159.644 308.897 159.337 309.418 159.147C309.949 158.96 310.493 158.915 311.05 159.013C311.985 159.178 312.681 159.593 313.138 160.258C313.596 160.913 313.723 161.824 313.517 162.99L312.711 167.559L311.403 167.329L312.184 162.901C312.327 162.092 312.271 161.454 312.018 160.987C311.765 160.52 311.333 160.233 310.724 160.125C310.094 160.014 309.525 160.168 309.018 160.588C308.523 160.999 308.196 161.656 308.036 162.559L307.322 166.609L305.999 166.376L306.78 161.948C306.922 161.139 306.867 160.501 306.613 160.034C306.36 159.567 305.929 159.28 305.319 159.172C304.7 159.063 304.136 159.218 303.629 159.638C303.134 160.049 302.807 160.706 302.648 161.609L301.933 165.659L300.61 165.425ZM318.185 168.72C317.44 168.588 316.807 168.303 316.289 167.865C315.772 167.417 315.4 166.858 315.171 166.19C314.953 165.523 314.917 164.775 315.063 163.945C315.208 163.125 315.496 162.44 315.929 161.888C316.364 161.326 316.9 160.927 317.537 160.693C318.187 160.45 318.895 160.396 319.662 160.532C320.418 160.665 321.039 160.953 321.524 161.396C322.021 161.83 322.368 162.352 322.564 162.96C322.76 163.569 322.801 164.194 322.688 164.835C322.668 164.95 322.642 165.065 322.612 165.178C322.591 165.294 322.568 165.425 322.542 165.572L316.318 164.475C316.244 165.079 316.293 165.602 316.464 166.044C316.647 166.477 316.905 166.826 317.238 167.09C317.581 167.357 317.962 167.527 318.383 167.601C318.929 167.697 319.408 167.652 319.82 167.464C320.232 167.277 320.56 166.983 320.804 166.582L322.112 166.813C321.774 167.5 321.263 168.033 320.579 168.411C319.908 168.78 319.11 168.883 318.185 168.72ZM319.433 161.645C318.803 161.534 318.206 161.629 317.644 161.93C317.094 162.223 316.718 162.731 316.514 163.453L321.431 164.32C321.523 163.611 321.379 163.017 320.998 162.538C320.616 162.059 320.095 161.761 319.433 161.645Z" fill="#042F12"/>
<rect x="101.496" y="167.785" width="267" height="50" rx="25" transform="rotate(9.8852 101.496 167.785)" fill="#F0FDF3"/>
<rect x="101.496" y="167.785" width="267" height="50" rx="25" transform="rotate(9.8852 101.496 167.785)" stroke="#42E26F"/>
<path d="M121.562 202.242L123.485 191.208L127.363 191.884C128.14 192.019 128.759 192.257 129.22 192.597C129.692 192.929 130.017 193.332 130.194 193.807C130.373 194.271 130.417 194.766 130.326 195.291C130.201 196.006 129.909 196.534 129.448 196.876C128.999 197.22 128.492 197.424 127.929 197.488C128.326 197.633 128.67 197.861 128.963 198.172C129.255 198.483 129.463 198.844 129.586 199.255C129.72 199.668 129.747 200.101 129.669 200.553C129.572 201.109 129.346 201.595 128.992 202.01C128.64 202.414 128.173 202.706 127.589 202.886C127.007 203.055 126.333 203.073 125.566 202.94L121.562 202.242ZM123.968 196.262L126.427 196.691C127.131 196.813 127.701 196.745 128.136 196.485C128.573 196.215 128.843 195.785 128.945 195.197C129.042 194.64 128.931 194.16 128.611 193.758C128.302 193.358 127.774 193.093 127.028 192.963L124.617 192.542L123.968 196.262ZM123.079 201.369L125.616 201.812C126.373 201.943 126.986 201.872 127.457 201.596C127.929 201.31 128.22 200.852 128.329 200.222C128.438 199.602 128.308 199.07 127.941 198.627C127.577 198.174 127.026 197.883 126.291 197.755L123.784 197.318L123.079 201.369ZM134.495 204.69C133.759 204.562 133.127 204.279 132.597 203.84C132.067 203.401 131.682 202.847 131.441 202.177C131.213 201.498 131.171 200.744 131.316 199.914C131.46 199.084 131.759 198.394 132.212 197.845C132.667 197.285 133.218 196.889 133.865 196.655C134.523 196.423 135.219 196.371 135.955 196.5C136.69 196.628 137.323 196.911 137.853 197.35C138.383 197.789 138.762 198.348 138.99 199.026C139.231 199.696 139.279 200.446 139.134 201.276C138.989 202.106 138.689 202.801 138.235 203.361C137.782 203.91 137.226 204.3 136.569 204.532C135.922 204.766 135.23 204.819 134.495 204.69ZM134.693 203.556C135.144 203.634 135.584 203.597 136.011 203.444C136.439 203.291 136.811 203.015 137.13 202.616C137.449 202.217 137.665 201.691 137.778 201.04C137.892 200.388 137.866 199.821 137.701 199.338C137.547 198.856 137.295 198.471 136.944 198.182C136.594 197.894 136.198 197.711 135.757 197.634C135.305 197.556 134.866 197.593 134.438 197.746C134.011 197.899 133.638 198.175 133.319 198.574C133.001 198.973 132.785 199.499 132.671 200.15C132.558 200.802 132.583 201.369 132.748 201.852C132.913 202.336 133.165 202.721 133.505 203.008C133.855 203.296 134.251 203.479 134.693 203.556ZM143.823 206.316C143.087 206.188 142.455 205.904 141.925 205.466C141.395 205.027 141.01 204.472 140.769 203.802C140.541 203.124 140.499 202.369 140.644 201.539C140.789 200.709 141.087 200.02 141.54 199.471C141.995 198.911 142.546 198.514 143.193 198.281C143.851 198.049 144.547 197.997 145.283 198.125C146.018 198.253 146.651 198.537 147.181 198.976C147.711 199.414 148.09 199.973 148.318 200.652C148.559 201.322 148.607 202.072 148.462 202.902C148.317 203.732 148.018 204.427 147.563 204.986C147.11 205.535 146.555 205.926 145.897 206.158C145.25 206.391 144.559 206.444 143.823 206.316ZM144.021 205.181C144.473 205.26 144.912 205.223 145.339 205.07C145.767 204.917 146.14 204.641 146.458 204.242C146.777 203.842 146.993 203.317 147.106 202.666C147.22 202.014 147.194 201.447 147.03 200.963C146.875 200.481 146.623 200.096 146.273 199.808C145.922 199.52 145.526 199.337 145.085 199.26C144.633 199.181 144.194 199.218 143.766 199.371C143.339 199.524 142.966 199.8 142.648 200.199C142.329 200.599 142.113 201.124 141.999 201.776C141.886 202.427 141.912 202.995 142.076 203.478C142.241 203.962 142.493 204.347 142.833 204.633C143.184 204.922 143.579 205.104 144.021 205.181ZM152.584 207.843C151.649 207.68 150.912 207.308 150.375 206.727C149.837 206.146 149.586 205.442 149.622 204.614L150.978 204.851C150.99 205.275 151.143 205.67 151.437 206.035C151.743 206.391 152.196 206.622 152.795 206.726C153.351 206.823 153.781 206.779 154.084 206.594C154.389 206.398 154.57 206.137 154.627 205.811C154.709 205.338 154.591 204.993 154.271 204.775C153.963 204.559 153.509 204.333 152.911 204.099C152.506 203.942 152.106 203.748 151.713 203.517C151.321 203.286 151.007 203.004 150.773 202.671C150.54 202.327 150.465 201.919 150.548 201.446C150.667 200.763 151.016 200.25 151.595 199.907C152.187 199.556 152.919 199.456 153.791 199.608C154.622 199.752 155.263 200.081 155.715 200.593C156.179 201.096 156.387 201.738 156.337 202.52L155.029 202.292C155.046 201.884 154.927 201.543 154.671 201.271C154.427 200.991 154.064 200.808 153.581 200.724C153.108 200.642 152.723 200.677 152.425 200.831C152.138 200.987 151.966 201.228 151.909 201.554C151.854 201.869 151.974 202.144 152.269 202.38C152.574 202.617 152.999 202.848 153.545 203.073C154.01 203.262 154.444 203.473 154.848 203.706C155.263 203.93 155.581 204.218 155.801 204.57C156.034 204.914 156.101 205.37 156.002 205.937C155.889 206.643 155.52 207.18 154.893 207.547C154.278 207.905 153.508 208.004 152.584 207.843ZM160.238 208.982C159.524 208.857 158.992 208.586 158.643 208.168C158.293 207.749 158.197 207.089 158.355 206.185L159.105 201.882L157.749 201.645L157.944 200.526L159.3 200.763L159.8 198.917L160.95 199.118L160.624 200.993L162.925 201.394L162.73 202.513L160.429 202.112L159.679 206.416C159.593 206.909 159.634 207.263 159.802 207.477C159.973 207.679 160.31 207.825 160.815 207.913L161.634 208.056L161.436 209.19L160.238 208.982ZM166.207 210.217C165.271 210.054 164.535 209.682 163.997 209.101C163.46 208.52 163.209 207.816 163.245 206.988L164.6 207.224C164.613 207.649 164.766 208.044 165.06 208.409C165.366 208.765 165.818 208.996 166.417 209.1C166.974 209.197 167.404 209.153 167.707 208.968C168.012 208.772 168.193 208.511 168.25 208.185C168.332 207.712 168.214 207.367 167.894 207.149C167.586 206.933 167.132 206.707 166.534 206.473C166.128 206.316 165.729 206.122 165.336 205.891C164.943 205.66 164.63 205.378 164.396 205.045C164.163 204.701 164.088 204.293 164.17 203.82C164.289 203.137 164.639 202.624 165.218 202.281C165.81 201.93 166.542 201.83 167.414 201.982C168.244 202.126 168.886 202.455 169.338 202.967C169.802 203.47 170.01 204.112 169.96 204.894L168.652 204.666C168.669 204.258 168.549 203.917 168.294 203.645C168.05 203.365 167.687 203.182 167.203 203.098C166.731 203.016 166.345 203.051 166.048 203.205C165.761 203.361 165.589 203.602 165.532 203.928C165.477 204.243 165.597 204.518 165.892 204.753C166.197 204.991 166.622 205.222 167.168 205.447C167.633 205.636 168.067 205.847 168.47 206.08C168.886 206.304 169.204 206.592 169.424 206.944C169.657 207.288 169.723 207.744 169.624 208.311C169.512 209.017 169.143 209.554 168.516 209.921C167.901 210.279 167.131 210.378 166.207 210.217ZM175.376 211.62L177.299 200.586L184.124 201.775L183.935 202.863L178.433 201.904L177.763 205.75L182.792 206.627L182.605 207.698L177.576 206.822L176.89 210.763L182.391 211.721L182.201 212.809L175.376 211.62ZM184.195 213.156L185.557 205.338L186.755 205.547L186.652 206.698C186.977 206.322 187.37 206.055 187.831 205.897C188.291 205.739 188.784 205.706 189.31 205.797C189.93 205.905 190.439 206.124 190.836 206.453C191.244 206.784 191.524 207.228 191.676 207.785C192.031 207.36 192.469 207.052 192.99 206.861C193.521 206.672 194.065 206.626 194.622 206.723C195.557 206.886 196.254 207.3 196.712 207.964C197.172 208.618 197.3 209.528 197.097 210.695L196.3 215.266L194.992 215.038L195.764 210.609C195.905 209.8 195.848 209.162 195.594 208.695C195.339 208.228 194.907 207.942 194.298 207.836C193.667 207.726 193.099 207.881 192.593 208.302C192.099 208.714 191.773 209.372 191.615 210.276L190.909 214.327L189.585 214.096L190.357 209.667C190.498 208.857 190.442 208.22 190.187 207.753C189.933 207.286 189.501 207 188.891 206.894C188.271 206.786 187.708 206.942 187.202 207.363C186.708 207.775 186.382 208.432 186.225 209.336L185.519 213.387L184.195 213.156ZM197.69 219.081L199.657 207.795L200.855 208.004L200.756 209.319C201.074 208.984 201.491 208.705 202.006 208.481C202.532 208.258 203.158 208.21 203.883 208.337C204.66 208.472 205.307 208.769 205.823 209.227C206.338 209.685 206.7 210.252 206.907 210.926C207.125 211.603 207.165 212.336 207.028 213.124C206.89 213.912 206.605 214.588 206.171 215.151C205.75 215.705 205.213 216.11 204.563 216.365C203.924 216.611 203.216 216.666 202.439 216.531C201.798 216.419 201.248 216.188 200.789 215.837C200.341 215.488 200.027 215.055 199.847 214.536L199.014 219.312L197.69 219.081ZM202.497 215.355C203.023 215.447 203.506 215.406 203.948 215.234C204.391 215.052 204.767 214.76 205.075 214.359C205.383 213.958 205.588 213.463 205.691 212.875C205.793 212.286 205.767 211.751 205.613 211.269C205.459 210.788 205.203 210.391 204.846 210.08C204.49 209.758 204.05 209.552 203.525 209.46C202.999 209.368 202.515 209.414 202.072 209.597C201.63 209.769 201.255 210.055 200.947 210.456C200.639 210.857 200.434 211.352 200.331 211.941C200.229 212.529 200.255 213.064 200.409 213.546C200.563 214.027 200.818 214.429 201.173 214.751C201.531 215.062 201.972 215.264 202.497 215.355ZM208.192 217.338L210.17 205.989L211.494 206.22L209.516 217.569L208.192 217.338ZM215.216 218.757C214.48 218.629 213.848 218.345 213.318 217.907C212.788 217.468 212.403 216.913 212.162 216.244C211.934 215.565 211.892 214.811 212.037 213.98C212.181 213.15 212.48 212.461 212.933 211.912C213.388 211.352 213.939 210.955 214.586 210.722C215.244 210.49 215.94 210.438 216.676 210.566C217.411 210.694 218.044 210.978 218.574 211.417C219.104 211.855 219.483 212.414 219.711 213.093C219.952 213.763 220 214.513 219.855 215.343C219.71 216.173 219.41 216.868 218.956 217.427C218.503 217.976 217.947 218.367 217.29 218.599C216.643 218.833 215.951 218.885 215.216 218.757ZM215.414 217.622C215.866 217.701 216.305 217.664 216.732 217.511C217.16 217.358 217.533 217.082 217.851 216.683C218.17 216.283 218.386 215.758 218.499 215.107C218.613 214.455 218.587 213.888 218.422 213.404C218.268 212.922 218.016 212.537 217.666 212.249C217.315 211.961 216.919 211.778 216.478 211.701C216.026 211.622 215.587 211.659 215.159 211.812C214.732 211.965 214.359 212.241 214.04 212.64C213.722 213.04 213.506 213.565 213.392 214.217C213.279 214.868 213.304 215.436 213.469 215.919C213.634 216.403 213.886 216.788 214.226 217.074C214.576 217.363 214.972 217.545 215.414 217.622ZM220.63 223.079L223.305 219.192L222.848 219.113L220.974 211.51L222.408 211.76L223.933 218.295L227.736 212.688L229.107 212.927L222.018 223.321L220.63 223.079ZM231.885 221.662C231.139 221.532 230.507 221.248 229.987 220.811C229.47 220.364 229.096 219.806 228.866 219.138C228.646 218.472 228.609 217.724 228.754 216.893C228.896 216.074 229.184 215.388 229.616 214.835C230.05 214.272 230.585 213.872 231.221 213.637C231.87 213.393 232.578 213.337 233.345 213.471C234.102 213.603 234.723 213.89 235.209 214.332C235.708 214.765 236.055 215.286 236.252 215.894C236.45 216.502 236.492 217.127 236.381 217.768C236.361 217.883 236.335 217.998 236.304 218.112C236.284 218.227 236.261 218.359 236.236 218.506L230.01 217.421C229.937 218.025 229.986 218.548 230.159 218.99C230.343 219.423 230.602 219.771 230.935 220.035C231.278 220.3 231.66 220.47 232.08 220.543C232.627 220.638 233.106 220.592 233.518 220.403C233.929 220.215 234.257 219.921 234.5 219.519L235.808 219.747C235.472 220.435 234.962 220.969 234.279 221.348C233.608 221.719 232.81 221.823 231.885 221.662ZM233.119 214.585C232.488 214.475 231.892 214.571 231.331 214.874C230.781 215.168 230.406 215.676 230.204 216.399L235.122 217.256C235.213 216.547 235.067 215.953 234.685 215.475C234.303 214.997 233.781 214.7 233.119 214.585ZM240.86 223.226C240.113 223.096 239.481 222.812 238.961 222.375C238.444 221.928 238.07 221.37 237.84 220.702C237.62 220.036 237.583 219.288 237.728 218.457C237.871 217.638 238.158 216.952 238.59 216.399C239.024 215.836 239.559 215.436 240.195 215.201C240.844 214.956 241.552 214.901 242.319 215.035C243.076 215.167 243.697 215.454 244.183 215.896C244.682 216.329 245.029 216.85 245.227 217.458C245.424 218.066 245.467 218.691 245.355 219.332C245.335 219.447 245.309 219.562 245.279 219.676C245.258 219.791 245.236 219.923 245.21 220.07L238.984 218.985C238.911 219.589 238.961 220.112 239.133 220.554C239.317 220.986 239.576 221.335 239.909 221.598C240.252 221.864 240.634 222.033 241.055 222.107C241.601 222.202 242.08 222.155 242.492 221.967C242.904 221.779 243.231 221.484 243.474 221.083L244.783 221.311C244.446 221.999 243.936 222.533 243.253 222.912C242.582 223.282 241.784 223.387 240.86 223.226ZM242.093 216.148C241.462 216.039 240.866 216.135 240.305 216.438C239.755 216.732 239.38 217.24 239.178 217.963L244.096 218.82C244.187 218.11 244.042 217.517 243.659 217.039C243.277 216.561 242.755 216.264 242.093 216.148ZM254.084 225.53C253.275 225.389 252.596 225.12 252.049 224.721C251.501 224.322 251.11 223.832 250.876 223.25C250.642 222.668 250.585 222.03 250.706 221.336L252.093 221.578C252.018 222.009 252.048 222.425 252.184 222.828C252.321 223.22 252.56 223.559 252.9 223.846C253.252 224.124 253.712 224.312 254.279 224.411C255.025 224.541 255.634 224.463 256.106 224.177C256.578 223.892 256.861 223.481 256.955 222.945C257.031 222.503 256.998 222.135 256.855 221.839C256.713 221.533 256.494 221.267 256.198 221.043C255.912 220.82 255.57 220.608 255.171 220.409C254.784 220.211 254.377 219.995 253.953 219.758C253.153 219.316 252.586 218.843 252.251 218.341C251.918 217.828 251.813 217.22 251.936 216.516C252.028 215.925 252.255 215.429 252.617 215.027C252.982 214.614 253.443 214.326 254.002 214.164C254.573 213.992 255.216 213.969 255.931 214.094C256.635 214.216 257.221 214.454 257.691 214.806C258.17 215.161 258.512 215.594 258.715 216.105C258.928 216.619 258.989 217.171 258.897 217.761L257.51 217.52C257.563 217.215 257.537 216.902 257.43 216.58C257.326 216.248 257.127 215.959 256.834 215.713C256.552 215.469 256.169 215.304 255.686 215.22C255.089 215.105 254.568 215.172 254.124 215.419C253.691 215.668 253.426 216.072 253.329 216.629C253.247 217.101 253.315 217.487 253.534 217.785C253.763 218.085 254.104 218.361 254.559 218.613C255.014 218.855 255.539 219.136 256.133 219.456C256.626 219.737 257.06 220.04 257.437 220.365C257.813 220.691 258.082 221.073 258.243 221.513C258.416 221.954 258.448 222.485 258.34 223.105C258.248 223.63 258.024 224.106 257.669 224.531C257.315 224.946 256.834 225.252 256.226 225.449C255.628 225.648 254.914 225.675 254.084 225.53ZM262.204 226.945C261.552 226.832 261.03 226.627 260.638 226.331C260.245 226.036 259.976 225.685 259.83 225.281C259.684 224.877 259.649 224.459 259.724 224.028C259.863 223.23 260.275 222.668 260.959 222.343C261.644 222.019 262.511 221.948 263.562 222.131L265.674 222.499L265.691 222.405C265.81 221.721 265.721 221.175 265.424 220.766C265.129 220.347 264.682 220.085 264.083 219.981C263.568 219.891 263.099 219.944 262.675 220.141C262.263 220.329 261.967 220.662 261.786 221.139L260.431 220.903C260.582 220.345 260.854 219.9 261.248 219.568C261.652 219.237 262.118 219.016 262.647 218.902C263.178 218.778 263.721 218.764 264.278 218.861C265.371 219.052 266.139 219.489 266.583 220.173C267.04 220.848 267.183 221.669 267.015 222.635L266.177 227.443L264.995 227.237L265.161 225.82C264.863 226.223 264.471 226.545 263.986 226.785C263.512 227.016 262.918 227.07 262.204 226.945ZM262.604 225.862C263.108 225.95 263.562 225.893 263.965 225.693C264.378 225.494 264.716 225.201 264.979 224.814C265.241 224.427 265.413 224.002 265.493 223.539L265.496 223.524L263.494 223.175C262.716 223.039 262.141 223.08 261.768 223.296C261.407 223.504 261.191 223.808 261.122 224.207C261.05 224.617 261.14 224.973 261.39 225.277C261.653 225.572 262.057 225.767 262.604 225.862ZM271.037 228.29C270.323 228.165 269.791 227.894 269.442 227.476C269.092 227.058 268.996 226.397 269.154 225.493L269.904 221.19L268.548 220.953L268.743 219.834L270.099 220.071L270.599 218.225L271.749 218.426L271.423 220.301L273.724 220.702L273.529 221.821L271.228 221.42L270.478 225.724C270.392 226.217 270.433 226.571 270.601 226.785C270.772 226.987 271.109 227.133 271.614 227.221L272.433 227.364L272.235 228.499L271.037 228.29ZM276.512 219.402C276.249 219.356 276.043 219.233 275.894 219.034C275.757 218.826 275.711 218.591 275.757 218.328C275.801 218.076 275.922 217.88 276.119 217.742C276.327 217.605 276.563 217.559 276.825 217.605C277.077 217.649 277.278 217.77 277.428 217.97C277.577 218.169 277.63 218.395 277.586 218.647C277.54 218.909 277.412 219.115 277.202 219.262C276.994 219.399 276.764 219.446 276.512 219.402ZM274.186 228.838L275.548 221.02L276.872 221.251L275.51 229.069L274.186 228.838ZM280.777 230.182C279.842 230.019 279.105 229.647 278.568 229.066C278.03 228.485 277.779 227.781 277.815 226.953L279.171 227.19C279.183 227.614 279.337 228.009 279.63 228.374C279.936 228.731 280.389 228.961 280.988 229.065C281.545 229.163 281.975 229.118 282.278 228.933C282.582 228.737 282.763 228.476 282.82 228.15C282.902 227.678 282.784 227.332 282.465 227.114C282.156 226.898 281.702 226.673 281.104 226.439C280.699 226.281 280.299 226.087 279.907 225.856C279.514 225.625 279.2 225.343 278.966 225.01C278.733 224.667 278.658 224.258 278.741 223.785C278.86 223.102 279.209 222.589 279.789 222.246C280.38 221.895 281.112 221.795 281.985 221.947C282.815 222.092 283.456 222.42 283.908 222.932C284.373 223.435 284.58 224.077 284.53 224.859L283.222 224.631C283.239 224.223 283.12 223.883 282.864 223.611C282.621 223.33 282.257 223.148 281.774 223.063C281.301 222.981 280.916 223.017 280.618 223.171C280.331 223.326 280.159 223.567 280.103 223.893C280.048 224.208 280.167 224.483 280.462 224.719C280.767 224.956 281.193 225.187 281.738 225.412C282.203 225.601 282.637 225.812 283.041 226.045C283.456 226.269 283.774 226.557 283.994 226.91C284.227 227.253 284.294 227.709 284.195 228.276C284.083 228.982 283.713 229.519 283.086 229.886C282.471 230.244 281.702 230.343 280.777 230.182ZM286.122 230.918L287.289 224.219L286.107 224.013L286.302 222.894L287.484 223.1L287.72 221.745C287.852 220.988 288.138 220.469 288.576 220.188C289.015 219.908 289.597 219.83 290.322 219.957L291.11 220.094L290.912 221.229L290.329 221.127C289.93 221.058 289.631 221.092 289.434 221.231C289.238 221.36 289.107 221.618 289.039 222.007L288.808 223.331L290.731 223.666L290.536 224.785L288.613 224.45L287.446 231.149L286.122 230.918ZM293.205 232.348C292.554 232.234 292.032 232.029 291.639 231.734C291.247 231.438 290.978 231.088 290.832 230.683C290.686 230.279 290.65 229.861 290.725 229.431C290.864 228.632 291.276 228.07 291.961 227.746C292.645 227.421 293.513 227.35 294.564 227.533L296.676 227.901L296.693 227.807C296.812 227.124 296.723 226.578 296.426 226.169C296.131 225.749 295.684 225.487 295.085 225.383C294.57 225.293 294.1 225.347 293.676 225.544C293.265 225.732 292.968 226.064 292.788 226.542L291.432 226.306C291.584 225.747 291.856 225.302 292.25 224.97C292.654 224.64 293.12 224.418 293.649 224.304C294.179 224.18 294.723 224.167 295.28 224.264C296.373 224.454 297.141 224.891 297.585 225.575C298.041 226.25 298.185 227.071 298.017 228.038L297.179 232.845L295.997 232.639L296.162 231.223C295.865 231.625 295.473 231.947 294.987 232.187C294.514 232.419 293.92 232.472 293.205 232.348ZM293.605 231.264C294.11 231.352 294.563 231.296 294.966 231.095C295.38 230.897 295.718 230.604 295.98 230.216C296.243 229.829 296.414 229.404 296.495 228.942L296.497 228.926L294.496 228.577C293.718 228.442 293.143 228.482 292.769 228.699C292.408 228.906 292.193 229.21 292.123 229.609C292.052 230.019 292.141 230.376 292.392 230.679C292.654 230.974 293.059 231.169 293.605 231.264ZM302.726 234.007C301.98 233.877 301.337 233.591 300.796 233.151C300.268 232.701 299.884 232.142 299.643 231.472C299.415 230.793 299.372 230.044 299.515 229.225C299.658 228.405 299.951 227.72 300.393 227.169C300.848 226.609 301.399 226.213 302.046 225.979C302.705 225.736 303.408 225.68 304.154 225.81C305.079 225.971 305.815 226.349 306.361 226.942C306.918 227.537 307.21 228.254 307.237 229.092L305.881 228.856C305.86 228.354 305.668 227.936 305.304 227.602C304.942 227.258 304.487 227.038 303.941 226.942C303.499 226.866 303.065 226.904 302.638 227.056C302.211 227.209 301.838 227.485 301.519 227.885C301.2 228.284 300.984 228.809 300.871 229.461C300.757 230.112 300.783 230.68 300.948 231.163C301.113 231.647 301.369 232.038 301.718 232.337C302.068 232.625 302.464 232.808 302.905 232.885C303.452 232.98 303.953 232.932 304.408 232.741C304.866 232.539 305.19 232.2 305.381 231.725L306.737 231.961C306.442 232.722 305.931 233.293 305.204 233.675C304.477 234.057 303.651 234.168 302.726 234.007ZM311.029 235.259C310.314 235.134 309.782 234.863 309.433 234.445C309.083 234.026 308.987 233.365 309.145 232.462L309.895 228.159L308.539 227.922L308.734 226.803L310.09 227.039L310.59 225.194L311.741 225.394L311.414 227.27L313.715 227.671L313.52 228.79L311.219 228.389L310.469 232.692C310.383 233.186 310.424 233.54 310.592 233.753C310.763 233.956 311.1 234.102 311.605 234.19L312.424 234.333L312.227 235.467L311.029 235.259ZM316.503 226.371C316.24 226.325 316.034 226.202 315.885 226.003C315.748 225.795 315.703 225.56 315.748 225.297C315.792 225.045 315.913 224.849 316.11 224.711C316.318 224.574 316.554 224.528 316.816 224.574C317.069 224.618 317.269 224.739 317.419 224.938C317.568 225.138 317.621 225.363 317.577 225.616C317.531 225.878 317.403 226.084 317.193 226.231C316.985 226.368 316.755 226.415 316.503 226.371ZM314.177 235.807L315.539 227.989L316.863 228.22L315.501 236.038L314.177 235.807ZM321.335 237.25C320.6 237.121 319.967 236.838 319.437 236.399C318.907 235.96 318.522 235.406 318.282 234.736C318.053 234.058 318.012 233.303 318.156 232.473C318.301 231.643 318.6 230.953 319.053 230.404C319.508 229.845 320.058 229.448 320.706 229.214C321.363 228.982 322.06 228.931 322.795 229.059C323.531 229.187 324.164 229.47 324.693 229.909C325.223 230.348 325.602 230.907 325.831 231.585C326.071 232.255 326.119 233.005 325.974 233.835C325.83 234.666 325.53 235.36 325.075 235.92C324.622 236.469 324.067 236.859 323.409 237.091C322.762 237.325 322.071 237.378 321.335 237.25ZM321.533 236.115C321.985 236.194 322.425 236.156 322.852 236.004C323.279 235.851 323.652 235.575 323.971 235.175C324.289 234.776 324.505 234.251 324.619 233.599C324.732 232.948 324.707 232.38 324.542 231.897C324.388 231.415 324.135 231.03 323.785 230.742C323.435 230.453 323.039 230.27 322.597 230.194C322.146 230.115 321.706 230.152 321.279 230.305C320.852 230.458 320.479 230.734 320.16 231.133C319.841 231.532 319.625 232.058 319.512 232.709C319.398 233.361 319.424 233.928 319.589 234.412C319.753 234.895 320.006 235.28 320.346 235.567C320.696 235.855 321.092 236.038 321.533 236.115ZM327.134 238.065L328.497 230.247L329.695 230.456L329.529 231.872C329.867 231.423 330.297 231.097 330.82 230.896C331.342 230.694 331.903 230.646 332.502 230.75C333.426 230.911 334.113 231.323 334.56 231.986C335.02 232.64 335.148 233.55 334.945 234.717L334.149 239.288L332.824 239.057L333.596 234.628C333.88 232.999 333.35 232.067 332.004 231.833C331.332 231.716 330.727 231.865 330.189 232.28C329.663 232.686 329.322 233.341 329.164 234.245L328.458 238.296L327.134 238.065Z" fill="#042F12"/>
<rect x="22.8335" y="246.707" width="182" height="50" rx="25" fill="#F6F6F9"/>
<rect x="22.8335" y="246.707" width="182" height="50" rx="25" stroke="#B0AECB"/>
<path d="M48.5175 277.207V266.007H55.4455V267.111H49.8615V271.015H54.9655V272.103H49.8615V276.103H55.4455V277.207H48.5175ZM57.4687 277.207V269.271H58.6847L58.7647 270.695C59.0207 270.194 59.3887 269.799 59.8687 269.511C60.3487 269.223 60.8927 269.079 61.5007 269.079C62.4394 269.079 63.1861 269.367 63.7407 269.943C64.3061 270.508 64.5887 271.383 64.5887 272.567V277.207H63.2447V272.711C63.2447 271.058 62.5621 270.231 61.1967 270.231C60.5141 270.231 59.9434 270.482 59.4847 270.983C59.0367 271.474 58.8127 272.178 58.8127 273.095V277.207H57.4687ZM69.665 277.399C68.7157 277.399 67.9263 277.159 67.297 276.679C66.6677 276.199 66.2997 275.548 66.193 274.727H67.569C67.6543 275.143 67.873 275.506 68.225 275.815C68.5877 276.114 69.073 276.263 69.681 276.263C70.2463 276.263 70.6623 276.146 70.929 275.911C71.1957 275.666 71.329 275.378 71.329 275.047C71.329 274.567 71.153 274.247 70.801 274.087C70.4597 273.927 69.9743 273.783 69.345 273.655C68.9183 273.57 68.4917 273.447 68.065 273.287C67.6383 273.127 67.281 272.903 66.993 272.615C66.705 272.316 66.561 271.927 66.561 271.447C66.561 270.754 66.817 270.188 67.329 269.751C67.8517 269.303 68.5557 269.079 69.441 269.079C70.2837 269.079 70.9717 269.292 71.505 269.719C72.049 270.135 72.3637 270.732 72.449 271.511H71.121C71.0677 271.106 70.8917 270.791 70.593 270.567C70.305 270.332 69.9157 270.215 69.425 270.215C68.945 270.215 68.5717 270.316 68.305 270.519C68.049 270.722 67.921 270.988 67.921 271.319C67.921 271.639 68.0863 271.89 68.417 272.071C68.7583 272.252 69.217 272.407 69.793 272.535C70.2837 272.642 70.7477 272.775 71.185 272.935C71.633 273.084 71.9957 273.314 72.273 273.623C72.561 273.922 72.705 274.359 72.705 274.935C72.7157 275.65 72.4437 276.242 71.889 276.711C71.345 277.17 70.6037 277.399 69.665 277.399ZM77.521 277.399C76.5823 277.399 75.8357 277.116 75.281 276.551C74.7263 275.975 74.449 275.095 74.449 273.911V269.271H75.793V273.767C75.793 275.42 76.4703 276.247 77.825 276.247C78.5183 276.247 79.089 276.002 79.537 275.511C79.9957 275.01 80.225 274.3 80.225 273.383V269.271H81.569V277.207H80.353L80.257 275.783C80.0117 276.284 79.6437 276.679 79.153 276.967C78.673 277.255 78.129 277.399 77.521 277.399ZM83.7812 277.207V269.271H84.9972L85.1092 270.791C85.3546 270.268 85.7279 269.852 86.2292 269.543C86.7306 269.234 87.3492 269.079 88.0852 269.079V270.487H87.7172C87.2479 270.487 86.8159 270.572 86.4212 270.743C86.0266 270.903 85.7119 271.18 85.4772 271.575C85.2426 271.97 85.1252 272.514 85.1252 273.207V277.207H83.7812ZM92.8649 277.399C92.1075 277.399 91.4355 277.228 90.8489 276.887C90.2622 276.535 89.7982 276.05 89.4569 275.431C89.1262 274.812 88.9609 274.082 88.9609 273.239C88.9609 272.407 89.1262 271.682 89.4569 271.063C89.7875 270.434 90.2462 269.948 90.8329 269.607C91.4302 269.255 92.1182 269.079 92.8969 269.079C93.6649 269.079 94.3262 269.255 94.8809 269.607C95.4462 269.948 95.8782 270.402 96.1769 270.967C96.4755 271.532 96.6249 272.14 96.6249 272.791C96.6249 272.908 96.6195 273.026 96.6089 273.143C96.6089 273.26 96.6089 273.394 96.6089 273.543H90.2889C90.3209 274.151 90.4595 274.658 90.7049 275.063C90.9609 275.458 91.2755 275.756 91.6489 275.959C92.0329 276.162 92.4382 276.263 92.8649 276.263C93.4195 276.263 93.8835 276.135 94.2569 275.879C94.6302 275.623 94.9022 275.276 95.0729 274.839H96.4009C96.1875 275.575 95.7769 276.188 95.1689 276.679C94.5715 277.159 93.8035 277.399 92.8649 277.399ZM92.8649 270.215C92.2249 270.215 91.6542 270.412 91.1529 270.807C90.6622 271.191 90.3795 271.756 90.3049 272.503H95.2969C95.2649 271.788 95.0195 271.228 94.5609 270.823C94.1022 270.418 93.5369 270.215 92.8649 270.215ZM101.446 277.399C100.497 277.399 99.7076 277.159 99.0782 276.679C98.4489 276.199 98.0809 275.548 97.9742 274.727H99.3502C99.4356 275.143 99.6542 275.506 100.006 275.815C100.369 276.114 100.854 276.263 101.462 276.263C102.028 276.263 102.444 276.146 102.71 275.911C102.977 275.666 103.11 275.378 103.11 275.047C103.11 274.567 102.934 274.247 102.582 274.087C102.241 273.927 101.756 273.783 101.126 273.655C100.7 273.57 100.273 273.447 99.8462 273.287C99.4196 273.127 99.0622 272.903 98.7742 272.615C98.4862 272.316 98.3422 271.927 98.3422 271.447C98.3422 270.754 98.5982 270.188 99.1102 269.751C99.6329 269.303 100.337 269.079 101.222 269.079C102.065 269.079 102.753 269.292 103.286 269.719C103.83 270.135 104.145 270.732 104.23 271.511H102.902C102.849 271.106 102.673 270.791 102.374 270.567C102.086 270.332 101.697 270.215 101.206 270.215C100.726 270.215 100.353 270.316 100.086 270.519C99.8302 270.722 99.7022 270.988 99.7022 271.319C99.7022 271.639 99.8676 271.89 100.198 272.071C100.54 272.252 100.998 272.407 101.574 272.535C102.065 272.642 102.529 272.775 102.966 272.935C103.414 273.084 103.777 273.314 104.054 273.623C104.342 273.922 104.486 274.359 104.486 274.935C104.497 275.65 104.225 276.242 103.67 276.711C103.126 277.17 102.385 277.399 101.446 277.399ZM110.017 277.207L114.145 266.007H115.569L119.681 277.207H118.257L117.233 274.327H112.465L111.425 277.207H110.017ZM112.865 273.239H116.833L114.849 267.703L112.865 273.239ZM124.476 277.399C123.719 277.399 123.036 277.228 122.428 276.887C121.831 276.535 121.356 276.05 121.004 275.431C120.663 274.802 120.492 274.071 120.492 273.239C120.492 272.407 120.663 271.682 121.004 271.063C121.356 270.434 121.831 269.948 122.428 269.607C123.036 269.255 123.719 269.079 124.476 269.079C125.415 269.079 126.204 269.324 126.844 269.815C127.495 270.306 127.905 270.962 128.076 271.783H126.7C126.593 271.292 126.332 270.914 125.916 270.647C125.5 270.37 125.015 270.231 124.46 270.231C124.012 270.231 123.591 270.343 123.196 270.567C122.801 270.791 122.481 271.127 122.236 271.575C121.991 272.023 121.868 272.578 121.868 273.239C121.868 273.9 121.991 274.455 122.236 274.903C122.481 275.351 122.801 275.692 123.196 275.927C123.591 276.151 124.012 276.263 124.46 276.263C125.015 276.263 125.5 276.13 125.916 275.863C126.332 275.586 126.593 275.196 126.7 274.695H128.076C127.916 275.495 127.511 276.146 126.86 276.647C126.209 277.148 125.415 277.399 124.476 277.399ZM133.601 277.399C132.844 277.399 132.161 277.228 131.553 276.887C130.956 276.535 130.481 276.05 130.129 275.431C129.788 274.802 129.617 274.071 129.617 273.239C129.617 272.407 129.788 271.682 130.129 271.063C130.481 270.434 130.956 269.948 131.553 269.607C132.161 269.255 132.844 269.079 133.601 269.079C134.54 269.079 135.329 269.324 135.969 269.815C136.62 270.306 137.03 270.962 137.201 271.783H135.825C135.718 271.292 135.457 270.914 135.041 270.647C134.625 270.37 134.14 270.231 133.585 270.231C133.137 270.231 132.716 270.343 132.321 270.567C131.926 270.791 131.606 271.127 131.361 271.575C131.116 272.023 130.993 272.578 130.993 273.239C130.993 273.9 131.116 274.455 131.361 274.903C131.606 275.351 131.926 275.692 132.321 275.927C132.716 276.151 133.137 276.263 133.585 276.263C134.14 276.263 134.625 276.13 135.041 275.863C135.457 275.586 135.718 275.196 135.825 274.695H137.201C137.041 275.495 136.636 276.146 135.985 276.647C135.334 277.148 134.54 277.399 133.601 277.399ZM141.974 277.399C141.035 277.399 140.289 277.116 139.734 276.551C139.179 275.975 138.902 275.095 138.902 273.911V269.271H140.246V273.767C140.246 275.42 140.923 276.247 142.278 276.247C142.971 276.247 143.542 276.002 143.99 275.511C144.449 275.01 144.678 274.3 144.678 273.383V269.271H146.022V277.207H144.806L144.71 275.783C144.465 276.284 144.097 276.679 143.606 276.967C143.126 277.255 142.582 277.399 141.974 277.399ZM148.234 277.207V269.271H149.45L149.562 270.791C149.808 270.268 150.181 269.852 150.682 269.543C151.184 269.234 151.802 269.079 152.538 269.079V270.487H152.17C151.701 270.487 151.269 270.572 150.874 270.743C150.48 270.903 150.165 271.18 149.93 271.575C149.696 271.97 149.578 272.514 149.578 273.207V277.207H148.234ZM156.687 277.399C156.026 277.399 155.476 277.287 155.039 277.063C154.602 276.839 154.276 276.54 154.063 276.167C153.85 275.794 153.743 275.388 153.743 274.951C153.743 274.14 154.052 273.516 154.671 273.079C155.29 272.642 156.132 272.423 157.199 272.423H159.343V272.327C159.343 271.634 159.162 271.111 158.799 270.759C158.436 270.396 157.951 270.215 157.343 270.215C156.82 270.215 156.367 270.348 155.983 270.615C155.61 270.871 155.375 271.25 155.279 271.751H153.903C153.956 271.175 154.148 270.69 154.479 270.295C154.82 269.9 155.242 269.602 155.743 269.399C156.244 269.186 156.778 269.079 157.343 269.079C158.452 269.079 159.284 269.378 159.839 269.975C160.404 270.562 160.687 271.346 160.687 272.327V277.207H159.487L159.407 275.783C159.183 276.231 158.852 276.615 158.415 276.935C157.988 277.244 157.412 277.399 156.687 277.399ZM156.895 276.263C157.407 276.263 157.844 276.13 158.207 275.863C158.58 275.596 158.863 275.25 159.055 274.823C159.247 274.396 159.343 273.948 159.343 273.479V273.463H157.311C156.522 273.463 155.962 273.602 155.631 273.879C155.311 274.146 155.151 274.482 155.151 274.887C155.151 275.303 155.3 275.639 155.599 275.895C155.908 276.14 156.34 276.263 156.895 276.263ZM166.351 277.399C165.594 277.399 164.911 277.228 164.303 276.887C163.706 276.535 163.231 276.05 162.879 275.431C162.538 274.802 162.367 274.071 162.367 273.239C162.367 272.407 162.538 271.682 162.879 271.063C163.231 270.434 163.706 269.948 164.303 269.607C164.911 269.255 165.594 269.079 166.351 269.079C167.29 269.079 168.079 269.324 168.719 269.815C169.37 270.306 169.78 270.962 169.951 271.783H168.575C168.468 271.292 168.207 270.914 167.791 270.647C167.375 270.37 166.89 270.231 166.335 270.231C165.887 270.231 165.466 270.343 165.071 270.567C164.676 270.791 164.356 271.127 164.111 271.575C163.866 272.023 163.743 272.578 163.743 273.239C163.743 273.9 163.866 274.455 164.111 274.903C164.356 275.351 164.676 275.692 165.071 275.927C165.466 276.151 165.887 276.263 166.335 276.263C166.89 276.263 167.375 276.13 167.791 275.863C168.207 275.586 168.468 275.196 168.575 274.695H169.951C169.791 275.495 169.386 276.146 168.735 276.647C168.084 277.148 167.29 277.399 166.351 277.399ZM172.692 280.727L174.66 276.439H174.196L171.044 269.271H172.5L175.124 275.447L177.908 269.271H179.3L174.1 280.727H172.692Z" fill="#0E0D13"/>
</svg>
