<svg width="133" height="34" viewBox="0 0 133 34" fill="none" xmlns="http://www.w3.org/2000/svg">
<path d="M78.9216 13.6175C80.9837 13.6175 82.9365 14.879 83.3486 17.6047H74.1649C74.5492 15.2129 76.3372 13.6175 78.9216 13.6175ZM83.0551 21.6373C82.3537 22.7306 80.998 23.5716 79.1419 23.5716C76.5844 23.5716 74.6316 22.1697 74.1649 19.6946H85.6866C85.7422 19.3399 85.7703 18.9814 85.7707 18.6223C85.7707 14.7731 83.0795 11.3628 78.9233 11.3628C74.6342 11.3628 71.7192 14.525 71.7192 18.5954C71.7192 22.7163 74.6628 25.8281 79.0881 25.8281C81.8382 25.8281 83.9281 24.5901 85.1374 22.7163L83.0551 21.6373Z" fill="#006BFF"/>
<path d="M70.5872 5.39575H68.1954V25.4697H70.5872V5.39575Z" fill="#006BFF"/>
<path d="M99.0796 17.0276V25.4687H96.6869V17.1647C96.6869 14.9099 95.3952 13.6451 93.2775 13.6451C91.0775 13.6451 89.2903 14.9377 89.2903 18.1823V25.4687H86.8977V11.7217H89.2903V13.7014C90.3079 12.0791 91.8201 11.3643 93.7476 11.3643C96.9645 11.3643 99.0821 13.5088 99.0821 17.0293" fill="#006BFF"/>
<path d="M112.271 18.5945C112.271 15.7897 110.153 13.6721 107.376 13.6721C104.626 13.6721 102.509 15.7897 102.509 18.5945C102.509 21.3992 104.626 23.5169 107.376 23.5169C110.151 23.5169 112.271 21.3992 112.271 18.5945ZM114.663 5.39575V25.4697H112.271V23.1039C111.171 24.7859 109.411 25.8271 107.073 25.8271C103.251 25.8271 100.117 22.6641 100.117 18.5945C100.117 14.5248 103.251 11.3618 107.073 11.3618C109.411 11.3618 111.171 12.4064 112.271 14.0842V5.39575H114.663Z" fill="#006BFF"/>
<path d="M118.984 5.39575H116.592V25.4697H118.984V5.39575Z" fill="#006BFF"/>
<path d="M63.9315 18.5944C63.9315 15.7897 61.8147 13.6721 59.0369 13.6721C56.2876 13.6721 54.17 15.7897 54.17 18.5944C54.17 21.3992 56.2876 23.5168 59.0369 23.5168C61.8122 23.5168 63.9315 21.3992 63.9315 18.5944ZM66.3242 11.7218V25.4688H63.9315V23.1039C62.8315 24.7859 61.0721 25.8271 58.735 25.8271C54.9126 25.8271 51.7773 22.6641 51.7773 18.5944C51.7773 14.5248 54.9126 11.3618 58.735 11.3618C61.0721 11.3618 62.8315 12.4063 63.9315 14.0841V11.7218H66.3242Z" fill="#006BFF"/>
<path d="M48.2292 22.8231C47.0046 23.275 45.6827 23.397 44.3961 23.1769C43.1095 22.9568 41.9034 22.4023 40.8987 21.569C39.8939 20.7358 39.1259 19.653 38.6717 18.4293C38.2174 17.2056 38.0928 15.884 38.3104 14.597C38.528 13.3099 39.0801 12.1027 39.9114 11.0964C40.7427 10.09 41.824 9.31993 43.0468 8.86326C44.2696 8.40659 45.591 8.27942 46.8784 8.49449C48.1659 8.70957 49.3742 9.25933 50.3821 10.0887C50.8024 10.4355 51.1827 10.8281 51.5158 11.2593L53.5855 9.74553C52.3797 8.16923 50.7331 6.9864 48.8543 6.34697C46.9756 5.70753 44.9493 5.64028 43.0322 6.15373C41.1152 6.66719 39.3938 7.73824 38.0861 9.23112C36.7785 10.724 35.9435 12.5715 35.687 14.5395C35.4305 16.5074 35.7641 18.5072 36.6454 20.2854C37.5267 22.0636 38.9161 23.5401 40.6375 24.5277C42.3589 25.5154 44.3347 25.9698 46.3146 25.8332C48.2945 25.6967 50.1893 24.9754 51.7589 23.7609L50.3813 21.5827C49.7377 22.1127 49.0104 22.5319 48.2292 22.8231Z" fill="#006BFF"/>
<path d="M130.531 11.7217V19.5245C130.531 22.0475 129.063 23.6454 126.823 23.6454C124.582 23.6454 122.96 22.0475 122.96 19.5245V11.7217H120.539V19.2907C120.539 23.2569 123.011 25.832 126.823 25.832C130.119 25.832 130.634 23.7463 130.634 23.6942V26.5015C130.634 29.2827 129.424 30.8537 126.9 30.8537C125.998 30.8581 125.126 30.5347 124.445 29.9437C123.765 29.3526 123.322 28.5343 123.2 27.641L121.036 28.3979C121.345 29.7212 122.094 30.9007 123.16 31.7441C124.225 32.5876 125.545 33.0453 126.904 33.0428C130.818 33.0428 132.959 30.4668 132.959 26.5015V11.7217H130.531Z" fill="#006BFF"/>
<path d="M19.4725 19.731C18.5533 20.5468 17.4053 21.5619 15.3238 21.5619H14.0792C12.5729 21.5619 11.2029 21.0144 10.2223 20.022C9.26441 19.0524 8.7371 17.7252 8.7371 16.2846V14.5816C8.7371 13.1409 9.26441 11.8138 10.2223 10.8442C11.2029 9.85177 12.5729 9.30512 14.0792 9.30512H15.3238C17.4079 9.30512 18.5533 10.3194 19.4725 11.1351C20.4271 11.9761 21.2504 12.7112 23.4463 12.7112C23.7812 12.7111 24.1155 12.6844 24.4462 12.6313L24.4386 12.6119C24.3071 12.2853 24.1528 11.9683 23.9769 11.6633L22.5094 9.12094C21.8476 7.97484 20.8958 7.02314 19.7496 6.36148C18.6034 5.69982 17.3033 5.35151 15.9798 5.35156H13.0439C11.7204 5.35151 10.4203 5.69982 9.27412 6.36148C8.12795 7.02314 7.17613 7.97484 6.51433 9.12094L5.04678 11.6633C4.38521 12.8095 4.03693 14.1097 4.03693 15.4331C4.03693 16.7565 4.38521 18.0567 5.04678 19.2029L6.51433 21.7452C7.17613 22.8913 8.12795 23.843 9.27412 24.5047C10.4203 25.1664 11.7204 25.5147 13.0439 25.5146H15.9798C17.3033 25.5147 18.6034 25.1664 19.7496 24.5047C20.8958 23.843 21.8476 22.8913 22.5094 21.7452L23.9769 19.2071C24.1528 18.9021 24.3071 18.5851 24.4386 18.2584L24.4462 18.2399C24.1157 18.185 23.7813 18.1569 23.4463 18.1558C21.2504 18.1558 20.4271 18.8867 19.4725 19.7319" fill="#006BFF"/>
<path d="M15.3239 10.8484H14.0792C11.7866 10.8484 10.2804 12.4858 10.2804 14.5816V16.2846C10.2804 18.3804 11.7866 20.0178 14.0792 20.0178H15.3239C18.6643 20.0178 18.4019 16.6118 23.4463 16.6118C23.9242 16.6112 24.4011 16.6552 24.8709 16.743C25.024 15.8764 25.024 14.9898 24.8709 14.1233C24.4011 14.2107 23.9242 14.2546 23.4463 14.2545C18.4003 14.2545 18.6643 10.8484 15.3239 10.8484Z" fill="#006BFF"/>
<path d="M27.769 17.9876C26.91 17.3584 25.9194 16.9325 24.8718 16.742C24.8718 16.7513 24.8718 16.7589 24.8718 16.7673C24.7816 17.2694 24.6407 17.7611 24.4513 18.2348C25.3167 18.3688 26.1377 18.707 26.8465 19.2213C26.8465 19.228 26.8422 19.2365 26.8397 19.244C25.9275 22.1978 23.9861 24.7264 21.3681 26.3704C18.7501 28.0145 15.6292 28.665 12.5724 28.2037C9.51562 27.7425 6.72567 26.2 4.70937 23.8567C2.69308 21.5133 1.58422 18.5244 1.58422 15.433C1.58422 12.3416 2.69308 9.35273 4.70937 7.00936C6.72567 4.66598 9.51562 3.12357 12.5724 2.6623C15.6292 2.20103 18.7501 2.85152 21.3681 4.49559C23.9861 6.13966 25.9275 8.66824 26.8397 11.622C26.8397 11.6296 26.8439 11.638 26.8465 11.6447C26.1378 12.1591 25.3167 12.497 24.4513 12.6304C24.6405 13.1047 24.7814 13.597 24.8718 14.0996C24.8713 14.1074 24.8713 14.1153 24.8718 14.1232C25.9193 13.933 26.91 13.5074 27.769 12.8785C28.5949 12.2671 28.4351 11.5766 28.3098 11.1679C27.2887 7.85609 25.1134 5.02052 22.1792 3.17642C19.2449 1.33231 15.7465 0.602067 12.3196 1.11837C8.89261 1.63467 5.76461 3.36326 3.50395 5.99002C1.24329 8.61679 0 11.9674 0 15.433C0 18.8986 1.24329 22.2492 3.50395 24.876C5.76461 27.5028 8.89261 29.2314 12.3196 29.7477C15.7465 30.264 19.2449 29.5337 22.1792 27.6896C25.1134 25.8455 27.2887 23.0099 28.3098 19.6982C28.4351 19.2894 28.5949 18.599 27.769 17.9876Z" fill="#006BFF"/>
<path d="M24.4462 12.6304C24.1157 12.6853 23.7813 12.7135 23.4463 12.7145C21.2504 12.7145 20.4271 11.9837 19.4734 11.1385C18.5533 10.3227 17.4079 9.30762 15.3239 9.30762H14.0792C12.5721 9.30762 11.2029 9.85511 10.2223 10.8475C9.26443 11.8172 8.73712 13.1443 8.73712 14.5849V16.2879C8.73712 17.7286 9.26443 19.0557 10.2223 20.0254C11.2029 21.0177 12.5721 21.5644 14.0792 21.5644H15.3239C17.4079 21.5644 18.5533 20.5502 19.4734 19.7344C20.4271 18.8934 21.2504 18.1583 23.4463 18.1583C23.7812 18.1584 24.1156 18.1851 24.4462 18.2382C24.636 17.7647 24.7769 17.2729 24.8667 16.7707C24.8672 16.7623 24.8672 16.7539 24.8667 16.7455C24.3969 16.6583 23.92 16.6147 23.4421 16.6151C18.396 16.6151 18.6601 20.022 15.3197 20.022H14.075C11.7824 20.022 10.2762 18.3837 10.2762 16.2879V14.5816C10.2762 12.4858 11.7824 10.8483 14.075 10.8483H15.3197C18.6601 10.8483 18.3977 14.2536 23.4421 14.2536C23.92 14.2544 24.3969 14.2107 24.8667 14.1232C24.8667 14.1156 24.8667 14.1081 24.8667 14.0997C24.7763 13.597 24.6354 13.1048 24.4462 12.6304Z" fill="#0AE8F0"/>
<path d="M24.4462 12.6304C24.1157 12.6853 23.7813 12.7135 23.4463 12.7145C21.2504 12.7145 20.4271 11.9837 19.4734 11.1385C18.5533 10.3227 17.4079 9.30762 15.3239 9.30762H14.0792C12.5721 9.30762 11.2029 9.85511 10.2223 10.8475C9.26443 11.8172 8.73712 13.1443 8.73712 14.5849V16.2879C8.73712 17.7286 9.26443 19.0557 10.2223 20.0254C11.2029 21.0177 12.5721 21.5644 14.0792 21.5644H15.3239C17.4079 21.5644 18.5533 20.5502 19.4734 19.7344C20.4271 18.8934 21.2504 18.1583 23.4463 18.1583C23.7812 18.1584 24.1156 18.1851 24.4462 18.2382C24.636 17.7647 24.7769 17.2729 24.8667 16.7707C24.8672 16.7623 24.8672 16.7539 24.8667 16.7455C24.3969 16.6583 23.92 16.6147 23.4421 16.6151C18.396 16.6151 18.6601 20.022 15.3197 20.022H14.075C11.7824 20.022 10.2762 18.3837 10.2762 16.2879V14.5816C10.2762 12.4858 11.7824 10.8483 14.075 10.8483H15.3197C18.6601 10.8483 18.3977 14.2536 23.4421 14.2536C23.92 14.2544 24.3969 14.2107 24.8667 14.1232C24.8667 14.1156 24.8667 14.1081 24.8667 14.0997C24.7763 13.597 24.6354 13.1048 24.4462 12.6304Z" fill="#0AE8F0"/>
</svg>
