<svg width="398" height="315" viewBox="0 0 398 315" fill="none" xmlns="http://www.w3.org/2000/svg">
<rect x="0.5" y="0.5" width="397" height="314" rx="9.5" stroke="#E4E4E7"/>
<mask id="path-2-inside-1_929_57315" fill="white">
<path d="M20 20H378V92H20V20Z"/>
</mask>
<path d="M378 91H20V93H378V91Z" fill="#E4E4E7" mask="url(#path-2-inside-1_929_57315)"/>
<path d="M31.48 50V36H33.44L38.48 45.76L43.48 36H45.46V50H43.78V39L39.1 48H37.84L33.16 39.02V50H31.48ZM51.6136 50.24C50.7869 50.24 50.1003 50.1 49.5536 49.82C49.0069 49.54 48.6003 49.1667 48.3336 48.7C48.0669 48.2333 47.9336 47.7267 47.9336 47.18C47.9336 46.1667 48.3203 45.3867 49.0936 44.84C49.8669 44.2933 50.9203 44.02 52.2536 44.02H54.9336V43.9C54.9336 43.0333 54.7069 42.38 54.2536 41.94C53.8003 41.4867 53.1936 41.26 52.4336 41.26C51.7803 41.26 51.2136 41.4267 50.7336 41.76C50.2669 42.08 49.9736 42.5533 49.8536 43.18H48.1336C48.2003 42.46 48.4403 41.8533 48.8536 41.36C49.2803 40.8667 49.8069 40.4933 50.4336 40.24C51.0603 39.9733 51.7269 39.84 52.4336 39.84C53.8203 39.84 54.8603 40.2133 55.5536 40.96C56.2603 41.6933 56.6136 42.6733 56.6136 43.9V50H55.1136L55.0136 48.22C54.7336 48.78 54.3203 49.26 53.7736 49.66C53.2403 50.0467 52.5203 50.24 51.6136 50.24ZM51.8736 48.82C52.5136 48.82 53.0603 48.6533 53.5136 48.32C53.9803 47.9867 54.3336 47.5533 54.5736 47.02C54.8136 46.4867 54.9336 45.9267 54.9336 45.34V45.32H52.3936C51.4069 45.32 50.7069 45.4933 50.2936 45.84C49.8936 46.1733 49.6936 46.5933 49.6936 47.1C49.6936 47.62 49.8803 48.04 50.2536 48.36C50.6403 48.6667 51.1803 48.82 51.8736 48.82ZM59.1339 50V35.6H60.8139V44.26L64.8739 40.08H66.9339L62.5339 44.56L67.4939 50H65.3539L60.8139 44.86V50H59.1339ZM72.9494 50.24C72.0027 50.24 71.1627 50.0267 70.4294 49.6C69.696 49.16 69.116 48.5533 68.6894 47.78C68.276 47.0067 68.0694 46.0933 68.0694 45.04C68.0694 44 68.276 43.0933 68.6894 42.32C69.1027 41.5333 69.676 40.9267 70.4094 40.5C71.156 40.06 72.016 39.84 72.9894 39.84C73.9494 39.84 74.776 40.06 75.4694 40.5C76.176 40.9267 76.716 41.4933 77.0894 42.2C77.4627 42.9067 77.6494 43.6667 77.6494 44.48C77.6494 44.6267 77.6427 44.7733 77.6294 44.92C77.6294 45.0667 77.6294 45.2333 77.6294 45.42H69.7294C69.7694 46.18 69.9427 46.8133 70.2494 47.32C70.5694 47.8133 70.9627 48.1867 71.4294 48.44C71.9094 48.6933 72.416 48.82 72.9494 48.82C73.6427 48.82 74.2227 48.66 74.6894 48.34C75.156 48.02 75.496 47.5867 75.7094 47.04H77.3694C77.1027 47.96 76.5894 48.7267 75.8294 49.34C75.0827 49.94 74.1227 50.24 72.9494 50.24ZM72.9494 41.26C72.1494 41.26 71.436 41.5067 70.8094 42C70.196 42.48 69.8427 43.1867 69.7494 44.12H75.9894C75.9494 43.2267 75.6427 42.5267 75.0694 42.02C74.496 41.5133 73.7894 41.26 72.9494 41.26ZM85.2691 50V36H89.5691C92.0357 36 93.8491 36.6267 95.0091 37.88C96.1824 39.1333 96.7691 40.8533 96.7691 43.04C96.7691 45.1867 96.1824 46.8867 95.0091 48.14C93.8491 49.38 92.0357 50 89.5691 50H85.2691ZM86.9491 48.6H89.5291C90.8891 48.6 91.9691 48.38 92.7691 47.94C93.5824 47.4867 94.1624 46.8467 94.5091 46.02C94.8557 45.18 95.0291 44.1867 95.0291 43.04C95.0291 41.8667 94.8557 40.86 94.5091 40.02C94.1624 39.18 93.5824 38.5333 92.7691 38.08C91.9691 37.6267 90.8891 37.4 89.5291 37.4H86.9491V48.6ZM102.395 50.24C101.568 50.24 100.882 50.1 100.335 49.82C99.7882 49.54 99.3815 49.1667 99.1148 48.7C98.8482 48.2333 98.7148 47.7267 98.7148 47.18C98.7148 46.1667 99.1015 45.3867 99.8748 44.84C100.648 44.2933 101.702 44.02 103.035 44.02H105.715V43.9C105.715 43.0333 105.488 42.38 105.035 41.94C104.582 41.4867 103.975 41.26 103.215 41.26C102.562 41.26 101.995 41.4267 101.515 41.76C101.048 42.08 100.755 42.5533 100.635 43.18H98.9148C98.9815 42.46 99.2215 41.8533 99.6348 41.36C100.062 40.8667 100.588 40.4933 101.215 40.24C101.842 39.9733 102.508 39.84 103.215 39.84C104.602 39.84 105.642 40.2133 106.335 40.96C107.042 41.6933 107.395 42.6733 107.395 43.9V50H105.895L105.795 48.22C105.515 48.78 105.102 49.26 104.555 49.66C104.022 50.0467 103.302 50.24 102.395 50.24ZM102.655 48.82C103.295 48.82 103.842 48.6533 104.295 48.32C104.762 47.9867 105.115 47.5533 105.355 47.02C105.595 46.4867 105.715 45.9267 105.715 45.34V45.32H103.175C102.188 45.32 101.488 45.4933 101.075 45.84C100.675 46.1733 100.475 46.5933 100.475 47.1C100.475 47.62 100.662 48.04 101.035 48.36C101.422 48.6667 101.962 48.82 102.655 48.82ZM113.562 50C112.655 50 111.942 49.78 111.422 49.34C110.902 48.9 110.642 48.1067 110.642 46.96V41.5H108.922V40.08H110.642L110.862 37.7H112.322V40.08H115.242V41.5H112.322V46.96C112.322 47.5867 112.448 48.0133 112.702 48.24C112.955 48.4533 113.402 48.56 114.042 48.56H115.082V50H113.562ZM120.676 50.24C119.849 50.24 119.163 50.1 118.616 49.82C118.069 49.54 117.663 49.1667 117.396 48.7C117.129 48.2333 116.996 47.7267 116.996 47.18C116.996 46.1667 117.383 45.3867 118.156 44.84C118.929 44.2933 119.983 44.02 121.316 44.02H123.996V43.9C123.996 43.0333 123.769 42.38 123.316 41.94C122.863 41.4867 122.256 41.26 121.496 41.26C120.843 41.26 120.276 41.4267 119.796 41.76C119.329 42.08 119.036 42.5533 118.916 43.18H117.196C117.263 42.46 117.503 41.8533 117.916 41.36C118.343 40.8667 118.869 40.4933 119.496 40.24C120.123 39.9733 120.789 39.84 121.496 39.84C122.883 39.84 123.923 40.2133 124.616 40.96C125.323 41.6933 125.676 42.6733 125.676 43.9V50H124.176L124.076 48.22C123.796 48.78 123.383 49.26 122.836 49.66C122.303 50.0467 121.583 50.24 120.676 50.24ZM120.936 48.82C121.576 48.82 122.123 48.6533 122.576 48.32C123.043 47.9867 123.396 47.5533 123.636 47.02C123.876 46.4867 123.996 45.9267 123.996 45.34V45.32H121.456C120.469 45.32 119.769 45.4933 119.356 45.84C118.956 46.1733 118.756 46.5933 118.756 47.1C118.756 47.62 118.943 48.04 119.316 48.36C119.703 48.6667 120.243 48.82 120.936 48.82ZM127.996 44.9V43.48H135.916V44.9H127.996ZM138.55 50V36H142.85C145.317 36 147.13 36.6267 148.29 37.88C149.464 39.1333 150.05 40.8533 150.05 43.04C150.05 45.1867 149.464 46.8867 148.29 48.14C147.13 49.38 145.317 50 142.85 50H138.55ZM140.23 48.6H142.81C144.17 48.6 145.25 48.38 146.05 47.94C146.864 47.4867 147.444 46.8467 147.79 46.02C148.137 45.18 148.31 44.1867 148.31 43.04C148.31 41.8667 148.137 40.86 147.79 40.02C147.444 39.18 146.864 38.5333 146.05 38.08C145.25 37.6267 144.17 37.4 142.81 37.4H140.23V48.6ZM152.376 50V40.08H153.896L154.036 41.98C154.343 41.3267 154.809 40.8067 155.436 40.42C156.063 40.0333 156.836 39.84 157.756 39.84V41.6H157.296C156.709 41.6 156.169 41.7067 155.676 41.92C155.183 42.12 154.789 42.4667 154.496 42.96C154.203 43.4533 154.056 44.1333 154.056 45V50H152.376ZM160.662 37.88C160.328 37.88 160.048 37.7733 159.822 37.56C159.608 37.3333 159.502 37.0533 159.502 36.72C159.502 36.4 159.608 36.1333 159.822 35.92C160.048 35.7067 160.328 35.6 160.662 35.6C160.982 35.6 161.255 35.7067 161.482 35.92C161.708 36.1333 161.822 36.4 161.822 36.72C161.822 37.0533 161.708 37.3333 161.482 37.56C161.255 37.7733 160.982 37.88 160.662 37.88ZM159.822 50V40.08H161.502V50H159.822ZM167.287 50L163.527 40.08H165.287L168.267 48.38L171.267 40.08H172.987L169.227 50H167.287ZM178.809 50.24C177.862 50.24 177.022 50.0267 176.289 49.6C175.555 49.16 174.975 48.5533 174.549 47.78C174.135 47.0067 173.929 46.0933 173.929 45.04C173.929 44 174.135 43.0933 174.549 42.32C174.962 41.5333 175.535 40.9267 176.269 40.5C177.015 40.06 177.875 39.84 178.849 39.84C179.809 39.84 180.635 40.06 181.329 40.5C182.035 40.9267 182.575 41.4933 182.949 42.2C183.322 42.9067 183.509 43.6667 183.509 44.48C183.509 44.6267 183.502 44.7733 183.489 44.92C183.489 45.0667 183.489 45.2333 183.489 45.42H175.589C175.629 46.18 175.802 46.8133 176.109 47.32C176.429 47.8133 176.822 48.1867 177.289 48.44C177.769 48.6933 178.275 48.82 178.809 48.82C179.502 48.82 180.082 48.66 180.549 48.34C181.015 48.02 181.355 47.5867 181.569 47.04H183.229C182.962 47.96 182.449 48.7267 181.689 49.34C180.942 49.94 179.982 50.24 178.809 50.24ZM178.809 41.26C178.009 41.26 177.295 41.5067 176.669 42C176.055 42.48 175.702 43.1867 175.609 44.12H181.849C181.809 43.2267 181.502 42.5267 180.929 42.02C180.355 41.5133 179.649 41.26 178.809 41.26ZM185.735 50V40.08H187.255L187.355 41.86C187.675 41.2333 188.135 40.74 188.735 40.38C189.335 40.02 190.015 39.84 190.775 39.84C191.949 39.84 192.882 40.2 193.575 40.92C194.282 41.6267 194.635 42.72 194.635 44.2V50H192.955V44.38C192.955 42.3133 192.102 41.28 190.395 41.28C189.542 41.28 188.829 41.5933 188.255 42.22C187.695 42.8333 187.415 43.7133 187.415 44.86V50H185.735ZM202.574 50V36H211.094V37.38H204.254V42.3H210.074V43.66H204.254V50H202.574ZM214.177 37.88C213.844 37.88 213.564 37.7733 213.337 37.56C213.124 37.3333 213.017 37.0533 213.017 36.72C213.017 36.4 213.124 36.1333 213.337 35.92C213.564 35.7067 213.844 35.6 214.177 35.6C214.497 35.6 214.771 35.7067 214.997 35.92C215.224 36.1333 215.337 36.4 215.337 36.72C215.337 37.0533 215.224 37.3333 214.997 37.56C214.771 37.7733 214.497 37.88 214.177 37.88ZM213.337 50V40.08H215.017V50H213.337ZM217.943 50V40.08H219.463L219.563 41.86C219.883 41.2333 220.343 40.74 220.943 40.38C221.543 40.02 222.223 39.84 222.983 39.84C224.156 39.84 225.089 40.2 225.783 40.92C226.489 41.6267 226.842 42.72 226.842 44.2V50H225.163V44.38C225.163 42.3133 224.309 41.28 222.603 41.28C221.749 41.28 221.036 41.5933 220.463 42.22C219.903 42.8333 219.623 43.7133 219.623 44.86V50H217.943ZM232.688 50.24C231.861 50.24 231.174 50.1 230.628 49.82C230.081 49.54 229.674 49.1667 229.408 48.7C229.141 48.2333 229.008 47.7267 229.008 47.18C229.008 46.1667 229.394 45.3867 230.168 44.84C230.941 44.2933 231.994 44.02 233.328 44.02H236.008V43.9C236.008 43.0333 235.781 42.38 235.328 41.94C234.874 41.4867 234.268 41.26 233.508 41.26C232.854 41.26 232.288 41.4267 231.808 41.76C231.341 42.08 231.048 42.5533 230.928 43.18H229.208C229.274 42.46 229.514 41.8533 229.928 41.36C230.354 40.8667 230.881 40.4933 231.508 40.24C232.134 39.9733 232.801 39.84 233.508 39.84C234.894 39.84 235.934 40.2133 236.628 40.96C237.334 41.6933 237.688 42.6733 237.688 43.9V50H236.188L236.088 48.22C235.808 48.78 235.394 49.26 234.848 49.66C234.314 50.0467 233.594 50.24 232.688 50.24ZM232.948 48.82C233.588 48.82 234.134 48.6533 234.588 48.32C235.054 47.9867 235.408 47.5533 235.648 47.02C235.888 46.4867 236.008 45.9267 236.008 45.34V45.32H233.468C232.481 45.32 231.781 45.4933 231.368 45.84C230.968 46.1733 230.768 46.5933 230.768 47.1C230.768 47.62 230.954 48.04 231.328 48.36C231.714 48.6667 232.254 48.82 232.948 48.82ZM240.208 50V40.08H241.728L241.828 41.86C242.148 41.2333 242.608 40.74 243.208 40.38C243.808 40.02 244.488 39.84 245.248 39.84C246.421 39.84 247.355 40.2 248.048 40.92C248.755 41.6267 249.108 42.72 249.108 44.2V50H247.428V44.38C247.428 42.3133 246.575 41.28 244.868 41.28C244.015 41.28 243.301 41.5933 242.728 42.22C242.168 42.8333 241.888 43.7133 241.888 44.86V50H240.208ZM256.213 50.24C255.267 50.24 254.413 50.0267 253.653 49.6C252.907 49.16 252.313 48.5533 251.873 47.78C251.447 46.9933 251.233 46.08 251.233 45.04C251.233 44 251.447 43.0933 251.873 42.32C252.313 41.5333 252.907 40.9267 253.653 40.5C254.413 40.06 255.267 39.84 256.213 39.84C257.387 39.84 258.373 40.1467 259.173 40.76C259.987 41.3733 260.5 42.1933 260.713 43.22H258.993C258.86 42.6067 258.533 42.1333 258.013 41.8C257.493 41.4533 256.887 41.28 256.193 41.28C255.633 41.28 255.107 41.42 254.613 41.7C254.12 41.98 253.72 42.4 253.413 42.96C253.107 43.52 252.953 44.2133 252.953 45.04C252.953 45.8667 253.107 46.56 253.413 47.12C253.72 47.68 254.12 48.1067 254.613 48.4C255.107 48.68 255.633 48.82 256.193 48.82C256.887 48.82 257.493 48.6533 258.013 48.32C258.533 47.9733 258.86 47.4867 258.993 46.86H260.713C260.513 47.86 260.007 48.6733 259.193 49.3C258.38 49.9267 257.387 50.24 256.213 50.24ZM264.08 37.88C263.746 37.88 263.466 37.7733 263.24 37.56C263.026 37.3333 262.92 37.0533 262.92 36.72C262.92 36.4 263.026 36.1333 263.24 35.92C263.466 35.7067 263.746 35.6 264.08 35.6C264.4 35.6 264.673 35.7067 264.9 35.92C265.126 36.1333 265.24 36.4 265.24 36.72C265.24 37.0533 265.126 37.3333 264.9 37.56C264.673 37.7733 264.4 37.88 264.08 37.88ZM263.24 50V40.08H264.92V50H263.24ZM271.145 50.24C270.318 50.24 269.632 50.1 269.085 49.82C268.538 49.54 268.132 49.1667 267.865 48.7C267.598 48.2333 267.465 47.7267 267.465 47.18C267.465 46.1667 267.852 45.3867 268.625 44.84C269.398 44.2933 270.452 44.02 271.785 44.02H274.465V43.9C274.465 43.0333 274.238 42.38 273.785 41.94C273.332 41.4867 272.725 41.26 271.965 41.26C271.312 41.26 270.745 41.4267 270.265 41.76C269.798 42.08 269.505 42.5533 269.385 43.18H267.665C267.732 42.46 267.972 41.8533 268.385 41.36C268.812 40.8667 269.338 40.4933 269.965 40.24C270.592 39.9733 271.258 39.84 271.965 39.84C273.352 39.84 274.392 40.2133 275.085 40.96C275.792 41.6933 276.145 42.6733 276.145 43.9V50H274.645L274.545 48.22C274.265 48.78 273.852 49.26 273.305 49.66C272.772 50.0467 272.052 50.24 271.145 50.24ZM271.405 48.82C272.045 48.82 272.592 48.6533 273.045 48.32C273.512 47.9867 273.865 47.5533 274.105 47.02C274.345 46.4867 274.465 45.9267 274.465 45.34V45.32H271.925C270.938 45.32 270.238 45.4933 269.825 45.84C269.425 46.1733 269.225 46.5933 269.225 47.1C269.225 47.62 269.412 48.04 269.785 48.36C270.172 48.6667 270.712 48.82 271.405 48.82ZM278.665 50V35.6H280.345V50H278.665ZM31.48 76V62H35.78C38.2467 62 40.06 62.6267 41.22 63.88C42.3933 65.1333 42.98 66.8533 42.98 69.04C42.98 71.1867 42.3933 72.8867 41.22 74.14C40.06 75.38 38.2467 76 35.78 76H31.48ZM33.16 74.6H35.74C37.1 74.6 38.18 74.38 38.98 73.94C39.7933 73.4867 40.3733 72.8467 40.72 72.02C41.0667 71.18 41.24 70.1867 41.24 69.04C41.24 67.8667 41.0667 66.86 40.72 66.02C40.3733 65.18 39.7933 64.5333 38.98 64.08C38.18 63.6267 37.1 63.4 35.74 63.4H33.16V74.6ZM49.7658 76.24C48.8191 76.24 47.9791 76.0267 47.2458 75.6C46.5124 75.16 45.9324 74.5533 45.5058 73.78C45.0924 73.0067 44.8858 72.0933 44.8858 71.04C44.8858 70 45.0924 69.0933 45.5058 68.32C45.9191 67.5333 46.4924 66.9267 47.2258 66.5C47.9724 66.06 48.8324 65.84 49.8058 65.84C50.7658 65.84 51.5924 66.06 52.2858 66.5C52.9924 66.9267 53.5324 67.4933 53.9058 68.2C54.2791 68.9067 54.4658 69.6667 54.4658 70.48C54.4658 70.6267 54.4591 70.7733 54.4458 70.92C54.4458 71.0667 54.4458 71.2333 54.4458 71.42H46.5458C46.5858 72.18 46.7591 72.8133 47.0658 73.32C47.3858 73.8133 47.7791 74.1867 48.2458 74.44C48.7258 74.6933 49.2324 74.82 49.7658 74.82C50.4591 74.82 51.0391 74.66 51.5058 74.34C51.9724 74.02 52.3124 73.5867 52.5258 73.04H54.1858C53.9191 73.96 53.4058 74.7267 52.6458 75.34C51.8991 75.94 50.9391 76.24 49.7658 76.24ZM49.7658 67.26C48.9658 67.26 48.2524 67.5067 47.6258 68C47.0124 68.48 46.6591 69.1867 46.5658 70.12H52.8058C52.7658 69.2267 52.4591 68.5267 51.8858 68.02C51.3124 67.5133 50.6058 67.26 49.7658 67.26ZM61.2525 76.24C60.3058 76.24 59.4525 76.0267 58.6925 75.6C57.9458 75.16 57.3525 74.5533 56.9125 73.78C56.4858 72.9933 56.2725 72.08 56.2725 71.04C56.2725 70 56.4858 69.0933 56.9125 68.32C57.3525 67.5333 57.9458 66.9267 58.6925 66.5C59.4525 66.06 60.3058 65.84 61.2525 65.84C62.4258 65.84 63.4125 66.1467 64.2125 66.76C65.0258 67.3733 65.5392 68.1933 65.7525 69.22H64.0325C63.8992 68.6067 63.5725 68.1333 63.0525 67.8C62.5325 67.4533 61.9258 67.28 61.2325 67.28C60.6725 67.28 60.1458 67.42 59.6525 67.7C59.1592 67.98 58.7592 68.4 58.4525 68.96C58.1458 69.52 57.9925 70.2133 57.9925 71.04C57.9925 71.8667 58.1458 72.56 58.4525 73.12C58.7592 73.68 59.1592 74.1067 59.6525 74.4C60.1458 74.68 60.6725 74.82 61.2325 74.82C61.9258 74.82 62.5325 74.6533 63.0525 74.32C63.5725 73.9733 63.8992 73.4867 64.0325 72.86H65.7525C65.5525 73.86 65.0458 74.6733 64.2325 75.3C63.4192 75.9267 62.4258 76.24 61.2525 76.24ZM69.1188 63.88C68.7854 63.88 68.5054 63.7733 68.2788 63.56C68.0654 63.3333 67.9588 63.0533 67.9588 62.72C67.9588 62.4 68.0654 62.1333 68.2788 61.92C68.5054 61.7067 68.7854 61.6 69.1188 61.6C69.4388 61.6 69.7121 61.7067 69.9388 61.92C70.1654 62.1333 70.2788 62.4 70.2788 62.72C70.2788 63.0533 70.1654 63.3333 69.9388 63.56C69.7121 63.7733 69.4388 63.88 69.1188 63.88ZM68.2788 76V66.08H69.9588V76H68.2788ZM76.6839 76.24C75.4972 76.24 74.5106 75.94 73.7239 75.34C72.9372 74.74 72.4772 73.9267 72.3439 72.9H74.0639C74.1706 73.42 74.4439 73.8733 74.8839 74.26C75.3372 74.6333 75.9439 74.82 76.7039 74.82C77.4106 74.82 77.9306 74.6733 78.2639 74.38C78.5972 74.0733 78.7639 73.7133 78.7639 73.3C78.7639 72.7 78.5439 72.3 78.1039 72.1C77.6772 71.9 77.0706 71.72 76.2839 71.56C75.7506 71.4533 75.2172 71.3 74.6839 71.1C74.1506 70.9 73.7039 70.62 73.3439 70.26C72.9839 69.8867 72.8039 69.4 72.8039 68.8C72.8039 67.9333 73.1239 67.2267 73.7639 66.68C74.4172 66.12 75.2972 65.84 76.4039 65.84C77.4572 65.84 78.3172 66.1067 78.9839 66.64C79.6639 67.16 80.0572 67.9067 80.1639 68.88H78.5039C78.4372 68.3733 78.2172 67.98 77.8439 67.7C77.4839 67.4067 76.9972 67.26 76.3839 67.26C75.7839 67.26 75.3172 67.3867 74.9839 67.64C74.6639 67.8933 74.5039 68.2267 74.5039 68.64C74.5039 69.04 74.7106 69.3533 75.1239 69.58C75.5506 69.8067 76.1239 70 76.8439 70.16C77.4572 70.2933 78.0372 70.46 78.5839 70.66C79.1439 70.8467 79.5972 71.1333 79.9439 71.52C80.3039 71.8933 80.4839 72.44 80.4839 73.16C80.4972 74.0533 80.1572 74.7933 79.4639 75.38C78.7839 75.9533 77.8572 76.24 76.6839 76.24ZM83.9039 63.88C83.5706 63.88 83.2906 63.7733 83.0639 63.56C82.8506 63.3333 82.7439 63.0533 82.7439 62.72C82.7439 62.4 82.8506 62.1333 83.0639 61.92C83.2906 61.7067 83.5706 61.6 83.9039 61.6C84.2239 61.6 84.4972 61.7067 84.7239 61.92C84.9506 62.1333 85.0639 62.4 85.0639 62.72C85.0639 63.0533 84.9506 63.3333 84.7239 63.56C84.4972 63.7733 84.2239 63.88 83.9039 63.88ZM83.0639 76V66.08H84.7439V76H83.0639ZM92.1891 76.24C91.2557 76.24 90.4157 76.0267 89.6691 75.6C88.9224 75.1733 88.3291 74.5733 87.8891 73.8C87.4624 73.0133 87.2491 72.0933 87.2491 71.04C87.2491 69.9867 87.4691 69.0733 87.9091 68.3C88.3491 67.5133 88.9424 66.9067 89.6891 66.48C90.4491 66.0533 91.2957 65.84 92.2291 65.84C93.1624 65.84 94.0024 66.0533 94.7491 66.48C95.4957 66.9067 96.0824 67.5133 96.5091 68.3C96.9491 69.0733 97.1691 69.9867 97.1691 71.04C97.1691 72.0933 96.9491 73.0133 96.5091 73.8C96.0691 74.5733 95.4691 75.1733 94.7091 75.6C93.9624 76.0267 93.1224 76.24 92.1891 76.24ZM92.1891 74.8C92.7624 74.8 93.2957 74.66 93.7891 74.38C94.2824 74.1 94.6824 73.68 94.9891 73.12C95.2957 72.56 95.4491 71.8667 95.4491 71.04C95.4491 70.2133 95.2957 69.52 94.9891 68.96C94.6957 68.4 94.3024 67.98 93.8091 67.7C93.3157 67.42 92.7891 67.28 92.2291 67.28C91.6557 67.28 91.1224 67.42 90.6291 67.7C90.1357 67.98 89.7357 68.4 89.4291 68.96C89.1224 69.52 88.9691 70.2133 88.9691 71.04C88.9691 71.8667 89.1224 72.56 89.4291 73.12C89.7357 73.68 90.1291 74.1 90.6091 74.38C91.1024 74.66 91.6291 74.8 92.1891 74.8ZM99.505 76V66.08H101.025L101.125 67.86C101.445 67.2333 101.905 66.74 102.505 66.38C103.105 66.02 103.785 65.84 104.545 65.84C105.718 65.84 106.652 66.2 107.345 66.92C108.052 67.6267 108.405 68.72 108.405 70.2V76H106.725V70.38C106.725 68.3133 105.872 67.28 104.165 67.28C103.312 67.28 102.598 67.5933 102.025 68.22C101.465 68.8333 101.185 69.7133 101.185 70.86V76H99.505ZM114.75 76.24C113.564 76.24 112.577 75.94 111.79 75.34C111.004 74.74 110.544 73.9267 110.41 72.9H112.13C112.237 73.42 112.51 73.8733 112.95 74.26C113.404 74.6333 114.01 74.82 114.77 74.82C115.477 74.82 115.997 74.6733 116.33 74.38C116.664 74.0733 116.83 73.7133 116.83 73.3C116.83 72.7 116.61 72.3 116.17 72.1C115.744 71.9 115.137 71.72 114.35 71.56C113.817 71.4533 113.284 71.3 112.75 71.1C112.217 70.9 111.77 70.62 111.41 70.26C111.05 69.8867 110.87 69.4 110.87 68.8C110.87 67.9333 111.19 67.2267 111.83 66.68C112.484 66.12 113.364 65.84 114.47 65.84C115.524 65.84 116.384 66.1067 117.05 66.64C117.73 67.16 118.124 67.9067 118.23 68.88H116.57C116.504 68.3733 116.284 67.98 115.91 67.7C115.55 67.4067 115.064 67.26 114.45 67.26C113.85 67.26 113.384 67.3867 113.05 67.64C112.73 67.8933 112.57 68.2267 112.57 68.64C112.57 69.04 112.777 69.3533 113.19 69.58C113.617 69.8067 114.19 70 114.91 70.16C115.524 70.2933 116.104 70.46 116.65 70.66C117.21 70.8467 117.664 71.1333 118.01 71.52C118.37 71.8933 118.55 72.44 118.55 73.16C118.564 74.0533 118.224 74.7933 117.53 75.38C116.85 75.9533 115.924 76.24 114.75 76.24Z" fill="#042F12"/>
<rect x="23.2384" y="153.035" width="240" height="50" rx="25" transform="rotate(-8.98032 23.2384 153.035)" fill="#F0FDF3"/>
<rect x="23.2384" y="153.035" width="240" height="50" rx="25" transform="rotate(-8.98032 23.2384 153.035)" stroke="#42E26F"/>
<path d="M53.3684 179.152L51.6202 168.089L52.9477 167.879L54.696 178.942L53.3684 179.152ZM56.9626 178.584L55.7238 170.745L56.9249 170.555L57.2262 171.949C57.4008 171.414 57.7027 170.967 58.1318 170.607C58.561 170.248 59.0759 170.021 59.6764 169.926C60.6036 169.779 61.386 169.947 62.0238 170.43C62.6705 170.9 63.0862 171.72 63.271 172.889L63.9953 177.472L62.6678 177.682L61.966 173.241C61.7079 171.608 60.9046 170.898 59.556 171.111C58.8817 171.218 58.3571 171.555 57.9823 172.121C57.6164 172.676 57.505 173.406 57.6482 174.312L58.2901 178.374L56.9626 178.584ZM66.4333 177.087L65.3718 170.37L64.1866 170.558L64.0092 169.436L65.1945 169.248L64.9797 167.889C64.8598 167.131 64.9621 166.548 65.2864 166.14C65.6108 165.732 66.1364 165.471 66.8634 165.356L67.6536 165.231L67.8334 166.369L67.2487 166.462C66.8483 166.525 66.5772 166.654 66.4352 166.849C66.2916 167.034 66.2506 167.321 66.3123 167.711L66.522 169.039L68.4501 168.734L68.6274 169.856L66.6994 170.161L67.7608 176.877L66.4333 177.087ZM74.5624 175.997C73.8249 176.113 73.1345 176.05 72.4912 175.806C71.8479 175.562 71.3041 175.162 70.8598 174.606C70.4245 174.037 70.141 173.337 70.0095 172.505C69.8779 171.672 69.9377 170.923 70.1888 170.257C70.4383 169.581 70.8314 169.027 71.3681 168.597C71.9154 168.165 72.5578 167.89 73.2953 167.774C74.0328 167.657 74.7232 167.721 75.3665 167.965C76.0098 168.209 76.5491 168.615 76.9845 169.183C77.4287 169.739 77.7166 170.434 77.8482 171.266C77.9797 172.098 77.9208 172.853 77.6713 173.529C77.4202 174.195 77.021 174.744 76.4737 175.176C75.937 175.607 75.2999 175.88 74.5624 175.997ZM74.3826 174.859C74.8356 174.787 75.2396 174.61 75.5944 174.327C75.9493 174.044 76.2129 173.663 76.3853 173.182C76.5577 172.701 76.5923 172.134 76.489 171.481C76.3858 170.827 76.1781 170.299 75.8658 169.895C75.5641 169.489 75.2008 169.206 74.776 169.046C74.3513 168.887 73.9176 168.842 73.4751 168.912C73.022 168.983 72.6181 169.16 72.2632 169.443C71.9084 169.726 71.6447 170.108 71.4723 170.589C71.2999 171.07 71.2654 171.637 71.3686 172.29C71.4718 172.943 71.6796 173.472 71.9918 173.876C72.3041 174.28 72.6673 174.563 73.0816 174.724C73.5064 174.884 73.94 174.929 74.3826 174.859ZM80.3134 174.894L79.0746 167.055L80.2757 166.865L80.6236 168.349C80.7844 167.794 81.0882 167.325 81.5351 166.941C81.982 166.558 82.5689 166.308 83.2959 166.193L83.5157 167.584L83.1522 167.642C82.6886 167.715 82.2752 167.867 81.912 168.097C81.5472 168.316 81.2797 168.639 81.1095 169.066C80.9393 169.492 80.9083 170.048 81.0166 170.733L81.6409 174.684L80.3134 174.894ZM86.0547 173.986L84.8159 166.148L86.017 165.958L86.2916 167.081C86.4779 166.619 86.7634 166.239 87.1482 165.941C87.533 165.643 87.9888 165.452 88.5156 165.368C89.1373 165.27 89.6893 165.313 90.1718 165.496C90.6648 165.677 91.0732 166.006 91.3971 166.484C91.5961 165.967 91.9111 165.534 92.3419 165.185C92.7833 164.834 93.2831 164.615 93.8415 164.527C94.7792 164.379 95.5722 164.545 96.2206 165.026C96.8672 165.496 97.2829 166.316 97.4678 167.485L98.192 172.068L96.8803 172.275L96.1785 167.835C96.0503 167.023 95.7904 166.438 95.3989 166.079C95.0073 165.719 94.506 165.588 93.8949 165.685C93.2628 165.785 92.7751 166.115 92.4319 166.677C92.0976 167.227 92.0021 167.955 92.1452 168.861L92.7871 172.922L91.4596 173.132L90.7578 168.691C90.6296 167.88 90.3697 167.295 89.9781 166.935C89.5866 166.576 89.0853 166.445 88.4742 166.541C87.8526 166.64 87.3702 166.97 87.027 167.531C86.6927 168.081 86.5971 168.809 86.7403 169.715L87.3822 173.776L86.0547 173.986ZM103.746 171.385C102.998 171.503 102.307 171.439 101.675 171.194C101.04 170.938 100.506 170.531 100.073 169.973C99.6493 169.413 99.372 168.718 99.2405 167.885C99.1106 167.063 99.1607 166.321 99.3907 165.658C99.6191 164.985 99.9964 164.434 100.523 164.006C101.058 163.565 101.71 163.283 102.479 163.162C103.237 163.042 103.918 163.113 104.521 163.374C105.133 163.623 105.63 164.003 106.013 164.515C106.397 165.026 106.639 165.604 106.741 166.246C106.759 166.362 106.772 166.479 106.78 166.597C106.798 166.712 106.819 166.844 106.842 166.992L100.6 167.978C100.726 168.574 100.942 169.053 101.248 169.415C101.562 169.765 101.92 170.01 102.32 170.152C102.731 170.293 103.147 170.329 103.569 170.263C104.116 170.176 104.555 169.977 104.884 169.666C105.212 169.355 105.427 168.97 105.527 168.512L106.839 168.304C106.743 169.065 106.433 169.734 105.909 170.314C105.394 170.881 104.673 171.238 103.746 171.385ZM102.625 164.289C101.992 164.389 101.46 164.673 101.026 165.141C100.601 165.597 100.41 166.199 100.453 166.948L105.384 166.169C105.241 165.468 104.911 164.953 104.395 164.625C103.878 164.296 103.288 164.184 102.625 164.289ZM112.775 169.958C111.996 170.081 111.282 170.01 110.636 169.745C110 169.479 109.469 169.06 109.044 168.49C108.63 167.919 108.361 167.238 108.236 166.448C108.111 165.657 108.163 164.931 108.393 164.268C108.622 163.595 108.998 163.039 109.523 162.599C110.046 162.15 110.702 161.862 111.492 161.737C112.135 161.636 112.725 161.678 113.262 161.863C113.798 162.048 114.241 162.356 114.59 162.787L113.823 157.935L115.151 157.725L116.949 169.104L115.748 169.294L115.417 168.018C115.224 168.437 114.915 168.837 114.489 169.217C114.063 169.598 113.492 169.845 112.775 169.958ZM112.735 168.782C113.262 168.699 113.706 168.504 114.068 168.198C114.439 167.881 114.701 167.483 114.852 167.006C115.014 166.526 115.048 165.992 114.955 165.402C114.862 164.812 114.664 164.314 114.362 163.908C114.071 163.5 113.701 163.208 113.252 163.031C112.811 162.841 112.328 162.788 111.801 162.871C111.285 162.953 110.841 163.152 110.47 163.47C110.108 163.776 109.846 164.168 109.684 164.647C109.533 165.125 109.504 165.659 109.597 166.249C109.691 166.839 109.883 167.337 110.174 167.745C110.476 168.151 110.847 168.448 111.287 168.638C111.736 168.815 112.219 168.863 112.735 168.782ZM123.375 168.088L121.626 157.026L125.024 156.489C126.973 156.181 128.484 156.45 129.558 157.295C130.641 158.139 131.32 159.425 131.593 161.153C131.861 162.849 131.61 164.266 130.839 165.402C130.077 166.527 128.722 167.243 126.772 167.552L123.375 168.088ZM124.527 166.772L126.566 166.45C127.641 166.28 128.467 165.972 129.044 165.524C129.63 165.064 130.008 164.486 130.179 163.79C130.348 163.083 130.361 162.276 130.218 161.37C130.071 160.443 129.809 159.669 129.43 159.049C129.051 158.428 128.512 157.989 127.813 157.733C127.124 157.474 126.242 157.43 125.167 157.6L123.129 157.922L124.527 166.772ZM137.854 165.995C137.106 166.113 136.415 166.049 135.783 165.804C135.148 165.548 134.614 165.141 134.18 164.583C133.757 164.023 133.48 163.327 133.348 162.495C133.219 161.673 133.269 160.931 133.499 160.268C133.727 159.595 134.104 159.044 134.631 158.615C135.166 158.174 135.818 157.893 136.587 157.772C137.345 157.652 138.026 157.722 138.629 157.984C139.241 158.232 139.738 158.613 140.121 159.125C140.505 159.636 140.747 160.214 140.849 160.856C140.867 160.972 140.88 161.089 140.888 161.206C140.906 161.322 140.927 161.454 140.95 161.602L134.708 162.588C134.834 163.184 135.05 163.662 135.356 164.024C135.67 164.374 136.028 164.62 136.428 164.762C136.839 164.902 137.255 164.939 137.677 164.873C138.224 164.786 138.663 164.587 138.992 164.276C139.32 163.965 139.535 163.58 139.635 163.121L140.947 162.914C140.851 163.674 140.541 164.344 140.017 164.924C139.502 165.491 138.781 165.848 137.854 165.995ZM136.733 158.899C136.1 158.999 135.568 159.283 135.134 159.751C134.709 160.207 134.518 160.809 134.561 161.558L139.492 160.779C139.349 160.078 139.019 159.563 138.503 159.235C137.986 158.906 137.396 158.794 136.733 158.899ZM146.931 164.56C146.183 164.678 145.482 164.616 144.828 164.374C144.183 164.12 143.638 163.714 143.194 163.158C142.759 162.59 142.476 161.895 142.346 161.073C142.216 160.251 142.272 159.508 142.512 158.844C142.762 158.167 143.155 157.614 143.691 157.183C144.237 156.741 144.884 156.46 145.632 156.342C146.559 156.196 147.377 156.315 148.086 156.7C148.805 157.083 149.313 157.667 149.61 158.451L148.251 158.666C148.069 158.198 147.752 157.865 147.299 157.666C146.845 157.457 146.344 157.396 145.796 157.483C145.353 157.553 144.955 157.729 144.6 158.012C144.245 158.295 143.981 158.677 143.809 159.157C143.637 159.638 143.602 160.205 143.705 160.858C143.808 161.512 144.016 162.04 144.328 162.445C144.641 162.849 145.01 163.136 145.437 163.306C145.861 163.466 146.295 163.511 146.738 163.441C147.285 163.354 147.744 163.147 148.113 162.818C148.481 162.479 148.678 162.054 148.705 161.542L150.064 161.327C150.031 162.143 149.732 162.849 149.168 163.445C148.604 164.042 147.858 164.414 146.931 164.56ZM151.603 153.811C151.34 153.853 151.105 153.803 150.899 153.663C150.702 153.511 150.583 153.303 150.542 153.039C150.502 152.787 150.553 152.562 150.695 152.367C150.847 152.17 151.055 152.051 151.318 152.01C151.571 151.97 151.8 152.02 152.006 152.16C152.212 152.3 152.335 152.497 152.375 152.75C152.416 153.013 152.362 153.248 152.211 153.456C152.059 153.653 151.856 153.771 151.603 153.811ZM152.453 163.493L151.214 155.654L152.542 155.445L153.78 163.283L152.453 163.493ZM159.124 162.633C158.187 162.781 157.37 162.668 156.673 162.292C155.977 161.916 155.511 161.331 155.278 160.536L156.637 160.321C156.786 160.719 157.059 161.043 157.455 161.293C157.86 161.532 158.362 161.604 158.963 161.509C159.521 161.42 159.914 161.24 160.141 160.966C160.366 160.682 160.453 160.377 160.401 160.05C160.326 159.576 160.102 159.288 159.73 159.185C159.367 159.08 158.866 159.013 158.224 158.985C157.789 158.967 157.349 158.913 156.902 158.821C156.456 158.73 156.068 158.564 155.738 158.325C155.407 158.075 155.204 157.713 155.129 157.239C155.021 156.554 155.186 155.956 155.623 155.444C156.07 154.92 156.73 154.588 157.604 154.45C158.437 154.319 159.15 154.422 159.743 154.76C160.345 155.086 160.749 155.627 160.955 156.383L159.644 156.59C159.528 156.198 159.305 155.915 158.975 155.74C158.654 155.553 158.251 155.498 157.766 155.575C157.292 155.65 156.939 155.808 156.707 156.05C156.486 156.29 156.401 156.573 156.453 156.9C156.503 157.216 156.705 157.438 157.06 157.565C157.426 157.691 157.903 157.772 158.492 157.809C158.993 157.838 159.472 157.897 159.929 157.987C160.395 158.064 160.789 158.234 161.111 158.496C161.442 158.746 161.653 159.156 161.743 159.725C161.865 160.429 161.688 161.056 161.214 161.607C160.748 162.144 160.052 162.487 159.124 162.633ZM163.286 151.965C163.023 152.006 162.788 151.957 162.582 151.817C162.386 151.664 162.266 151.456 162.225 151.193C162.185 150.94 162.236 150.716 162.378 150.521C162.53 150.324 162.738 150.205 163.001 150.163C163.254 150.123 163.484 150.173 163.689 150.314C163.895 150.454 164.018 150.651 164.058 150.903C164.1 151.167 164.045 151.402 163.894 151.61C163.742 151.806 163.539 151.925 163.286 151.965ZM164.136 161.647L162.897 153.808L164.225 153.598L165.463 161.437L164.136 161.647ZM171.377 160.697C170.639 160.814 169.949 160.75 169.305 160.506C168.662 160.262 168.118 159.862 167.674 159.306C167.239 158.738 166.955 158.037 166.824 157.205C166.692 156.373 166.752 155.623 167.003 154.957C167.252 154.281 167.646 153.727 168.182 153.297C168.73 152.865 169.372 152.591 170.109 152.474C170.847 152.357 171.537 152.421 172.181 152.665C172.824 152.909 173.363 153.315 173.799 153.883C174.243 154.44 174.531 155.134 174.662 155.966C174.794 156.798 174.735 157.553 174.485 158.229C174.234 158.896 173.835 159.445 173.288 159.877C172.751 160.307 172.114 160.58 171.377 160.697ZM171.197 159.559C171.65 159.488 172.054 159.31 172.409 159.027C172.763 158.745 173.027 158.363 173.199 157.882C173.372 157.401 173.406 156.834 173.303 156.181C173.2 155.528 172.992 154.999 172.68 154.595C172.378 154.189 172.015 153.906 171.59 153.746C171.165 153.587 170.732 153.542 170.289 153.612C169.836 153.683 169.432 153.861 169.077 154.144C168.723 154.426 168.459 154.808 168.286 155.289C168.114 155.77 168.08 156.337 168.183 156.99C168.286 157.643 168.494 158.172 168.806 158.576C169.118 158.98 169.481 159.263 169.896 159.425C170.321 159.584 170.754 159.629 171.197 159.559ZM177.128 159.594L175.889 151.755L177.09 151.565L177.391 152.959C177.566 152.424 177.868 151.977 178.297 151.618C178.726 151.258 179.241 151.031 179.841 150.936C180.769 150.79 181.551 150.957 182.189 151.44C182.835 151.91 183.251 152.73 183.436 153.899L184.16 158.482L182.833 158.692L182.131 154.251C181.873 152.618 181.07 151.908 179.721 152.121C179.047 152.228 178.522 152.565 178.147 153.131C177.781 153.686 177.67 154.416 177.813 155.322L178.455 159.384L177.128 159.594ZM190.433 157.491L188.685 146.428L190.234 146.184L195.435 153.267L198.167 144.93L199.732 144.683L201.48 155.745L200.152 155.955L198.779 147.263L196.205 154.959L195.209 155.116L190.389 148.605L191.761 157.281L190.433 157.491ZM206.372 155.167C205.719 155.27 205.159 155.245 204.692 155.092C204.225 154.939 203.857 154.695 203.588 154.359C203.319 154.024 203.151 153.64 203.082 153.208C202.956 152.407 203.164 151.743 203.707 151.214C204.25 150.686 205.048 150.338 206.101 150.172L208.219 149.837L208.204 149.742C208.096 149.057 207.835 148.569 207.422 148.278C207.007 147.977 206.5 147.873 205.899 147.968C205.383 148.05 204.956 148.252 204.618 148.576C204.289 148.887 204.117 149.297 204.1 149.808L202.741 150.022C202.704 149.445 202.818 148.936 203.083 148.494C203.358 148.051 203.728 147.69 204.191 147.412C204.653 147.123 205.163 146.934 205.722 146.846C206.817 146.673 207.686 146.838 208.327 147.342C208.977 147.833 209.379 148.563 209.532 149.532L210.293 154.353L209.108 154.54L208.807 153.146C208.656 153.623 208.389 154.054 208.007 154.438C207.634 154.811 207.089 155.053 206.372 155.167ZM206.401 154.012C206.906 153.932 207.317 153.732 207.634 153.412C207.961 153.09 208.186 152.704 208.309 152.252C208.432 151.801 208.457 151.344 208.384 150.88L208.382 150.864L206.374 151.181C205.595 151.305 205.063 151.529 204.78 151.855C204.506 152.168 204.4 152.525 204.463 152.925C204.528 153.336 204.728 153.645 205.063 153.851C205.407 154.045 205.853 154.099 206.401 154.012ZM212.285 154.038L210.487 142.659L211.814 142.449L212.896 149.292L215.582 145.482L217.21 145.225L214.292 149.315L218.891 152.994L217.2 153.261L212.971 149.766L213.613 153.828L212.285 154.038ZM219.541 143.075C219.278 143.116 219.043 143.067 218.837 142.927C218.641 142.774 218.521 142.566 218.48 142.303C218.44 142.05 218.491 141.826 218.633 141.631C218.785 141.434 218.993 141.315 219.256 141.273C219.509 141.233 219.739 141.283 219.944 141.424C220.15 141.564 220.273 141.76 220.313 142.013C220.355 142.277 220.3 142.512 220.149 142.719C219.997 142.916 219.794 143.035 219.541 143.075ZM220.391 152.757L219.152 144.918L220.48 144.708L221.718 152.547L220.391 152.757ZM224.03 152.182L222.791 144.343L223.992 144.153L224.293 145.547C224.468 145.012 224.77 144.565 225.199 144.205C225.628 143.846 226.143 143.619 226.744 143.524C227.671 143.377 228.453 143.545 229.091 144.028C229.738 144.498 230.153 145.318 230.338 146.487L231.063 151.07L229.735 151.28L229.033 146.839C228.775 145.206 227.972 144.496 226.623 144.709C225.949 144.816 225.424 145.153 225.05 145.719C224.684 146.274 224.572 147.004 224.716 147.91L225.357 151.972L224.03 152.182ZM235.782 147.798C235.339 147.867 234.925 147.874 234.537 147.816L233.865 148.684C233.994 148.75 234.148 148.801 234.326 148.837C234.514 148.862 234.775 148.875 235.11 148.876C235.443 148.866 235.909 148.841 236.507 148.801C237.573 148.708 238.364 148.831 238.882 149.17C239.4 149.51 239.712 150.011 239.816 150.675C239.888 151.128 239.83 151.58 239.642 152.031C239.465 152.48 239.139 152.877 238.664 153.222C238.2 153.565 237.567 153.8 236.767 153.927C236.061 154.039 235.419 154.043 234.841 153.94C234.265 153.847 233.794 153.635 233.429 153.304C233.065 152.984 232.838 152.539 232.748 151.97C232.701 151.675 232.73 151.341 232.833 150.969C232.937 150.607 233.182 150.239 233.565 149.865C233.319 149.807 233.103 149.738 232.917 149.66C232.741 149.569 232.574 149.465 232.415 149.35L232.357 148.987L233.491 147.447C232.786 147.018 232.365 146.372 232.229 145.508C232.147 144.992 232.194 144.504 232.37 144.044C232.546 143.584 232.846 143.197 233.272 142.881C233.695 142.555 234.239 142.339 234.903 142.235C235.356 142.163 235.777 142.161 236.165 142.229L239.057 141.772L239.215 142.768L237.755 143.064C238.131 143.458 238.364 143.945 238.456 144.524C238.537 145.04 238.485 145.529 238.299 145.991C238.123 146.45 237.823 146.843 237.4 147.169C236.985 147.483 236.446 147.693 235.782 147.798ZM235.61 146.707C236.168 146.619 236.588 146.407 236.87 146.071C237.16 145.722 237.262 145.274 237.176 144.726C237.091 144.189 236.857 143.805 236.475 143.574C236.102 143.33 235.636 143.253 235.078 143.341C234.509 143.431 234.079 143.65 233.788 143.998C233.507 144.334 233.408 144.771 233.493 145.308C233.58 145.856 233.81 146.252 234.183 146.495C234.565 146.726 235.041 146.797 235.61 146.707ZM234.024 151.639C234.107 152.166 234.39 152.521 234.872 152.704C235.357 152.897 235.931 152.941 236.594 152.836C237.248 152.733 237.747 152.509 238.091 152.163C238.447 151.815 238.587 151.404 238.512 150.93C238.459 150.593 238.275 150.319 237.961 150.11C237.649 149.911 237.121 149.848 236.377 149.923C235.791 149.972 235.282 149.999 234.851 150.002C234.455 150.302 234.21 150.595 234.114 150.88C234.021 151.175 233.991 151.428 234.024 151.639Z" fill="#042F12"/>
<rect x="199.268" y="185.01" width="164" height="51" rx="25.5" transform="rotate(7.43812 199.268 185.01)" fill="#FB11E3" fill-opacity="0.12"/>
<rect x="199.699" y="185.57" width="163" height="50" rx="25" transform="rotate(7.43812 199.699 185.57)" stroke="#FB11E3" stroke-opacity="0.53"/>
<path d="M221.219 219.138L222.669 208.033L229.427 208.915L229.284 210.01L223.858 209.301L223.349 213.204L227.966 213.807L227.825 214.886L223.208 214.283L222.551 219.312L221.219 219.138ZM232.461 220.8C231.53 220.678 230.827 220.301 230.35 219.669C229.874 219.026 229.713 218.117 229.867 216.943L230.467 212.342L231.8 212.516L231.218 216.975C231.004 218.614 231.568 219.521 232.912 219.697C233.599 219.787 234.197 219.617 234.705 219.189C235.224 218.751 235.544 218.077 235.662 217.168L236.195 213.09L237.527 213.264L236.5 221.133L235.294 220.976L235.383 219.552C235.075 220.017 234.659 220.361 234.135 220.583C233.622 220.806 233.064 220.878 232.461 220.8ZM241.803 221.826C241.084 221.732 240.541 221.483 240.174 221.081C239.807 220.678 239.683 220.021 239.802 219.112L240.367 214.781L239.003 214.602L239.15 213.476L240.514 213.654L240.935 211.789L242.093 211.94L241.847 213.828L244.163 214.131L244.016 215.257L241.7 214.955L241.134 219.286C241.069 219.783 241.126 220.134 241.303 220.341C241.482 220.536 241.825 220.667 242.333 220.733L243.158 220.841L243.009 221.983L241.803 221.826ZM247.676 222.786C246.745 222.665 246.041 222.288 245.564 221.655C245.089 221.012 244.928 220.104 245.081 218.93L245.682 214.329L247.015 214.503L246.432 218.961C246.218 220.6 246.783 221.508 248.126 221.683C248.814 221.773 249.411 221.603 249.919 221.175C250.439 220.737 250.758 220.064 250.877 219.154L251.409 215.077L252.742 215.25L251.715 223.12L250.509 222.962L250.598 221.538C250.29 222.003 249.874 222.347 249.35 222.569C248.837 222.792 248.279 222.865 247.676 222.786ZM253.908 223.406L254.936 215.537L256.141 215.694L256.056 217.216C256.367 216.729 256.791 216.365 257.328 216.123C257.865 215.882 258.498 215.808 259.228 215.904L259.046 217.3L258.681 217.252C258.216 217.191 257.776 217.22 257.363 217.338C256.951 217.446 256.603 217.68 256.319 218.041C256.035 218.402 255.848 218.926 255.759 219.614L255.241 223.58L253.908 223.406ZM262.891 224.772C262.14 224.674 261.495 224.418 260.958 224.004C260.422 223.579 260.024 223.037 259.766 222.38C259.518 221.724 259.449 220.978 259.558 220.142C259.666 219.317 259.923 218.619 260.331 218.049C260.741 217.467 261.258 217.045 261.884 216.783C262.522 216.511 263.227 216.426 263.999 216.527C264.761 216.626 265.394 216.886 265.898 217.307C266.415 217.719 266.784 218.224 267.007 218.823C267.23 219.423 267.3 220.045 267.215 220.69C267.2 220.806 267.18 220.922 267.154 221.037C267.139 221.153 267.122 221.285 267.102 221.434L260.835 220.615C260.788 221.222 260.86 221.743 261.051 222.176C261.254 222.601 261.527 222.938 261.871 223.187C262.226 223.438 262.615 223.591 263.038 223.646C263.588 223.718 264.064 223.651 264.468 223.445C264.871 223.24 265.185 222.931 265.411 222.52L266.728 222.692C266.421 223.394 265.935 223.949 265.268 224.357C264.614 224.755 263.821 224.894 262.891 224.772ZM263.821 217.649C263.186 217.566 262.595 217.688 262.046 218.014C261.51 218.331 261.157 218.855 260.986 219.586L265.936 220.232C265.997 219.52 265.826 218.933 265.424 218.471C265.021 218.01 264.487 217.736 263.821 217.649ZM272.688 225.858L274.138 214.752L277.787 215.229C278.654 215.342 279.35 215.578 279.873 215.937C280.396 216.295 280.758 216.735 280.959 217.256C281.171 217.779 281.236 218.347 281.156 218.96C281.078 219.563 280.874 220.09 280.546 220.542C280.218 220.994 279.755 221.332 279.156 221.555C278.558 221.767 277.82 221.816 276.942 221.702L274.626 221.399L274.021 226.032L272.688 225.858ZM274.773 220.273L277.057 220.571C277.946 220.687 278.599 220.584 279.018 220.262C279.448 219.931 279.706 219.438 279.792 218.782C279.879 218.116 279.756 217.573 279.424 217.153C279.103 216.724 278.499 216.451 277.61 216.335L275.326 216.037L274.773 220.273ZM281.797 227.047L283.288 215.624L284.621 215.798L283.129 227.221L281.797 227.047ZM287.906 228.038C287.251 227.953 286.72 227.771 286.316 227.492C285.911 227.213 285.627 226.875 285.464 226.477C285.301 226.079 285.248 225.663 285.304 225.23C285.409 224.426 285.797 223.847 286.467 223.494C287.137 223.14 288.001 223.032 289.058 223.17L291.184 223.448L291.197 223.353C291.286 222.665 291.174 222.124 290.86 221.728C290.548 221.321 290.09 221.078 289.487 221C288.969 220.932 288.502 221.006 288.087 221.22C287.683 221.426 287.402 221.771 287.241 222.256L285.877 222.077C286.005 221.513 286.258 221.057 286.637 220.708C287.026 220.361 287.483 220.12 288.006 219.983C288.531 219.837 289.073 219.8 289.634 219.873C290.734 220.017 291.52 220.421 291.993 221.085C292.478 221.74 292.656 222.554 292.529 223.527L291.898 228.366L290.708 228.21L290.813 226.788C290.533 227.203 290.155 227.541 289.68 227.802C289.217 228.053 288.626 228.132 287.906 228.038ZM288.26 226.939C288.767 227.005 289.218 226.93 289.613 226.712C290.017 226.496 290.342 226.189 290.588 225.791C290.834 225.392 290.987 224.961 291.048 224.495L291.05 224.479L289.035 224.216C288.252 224.114 287.679 224.179 287.315 224.411C286.963 224.634 286.761 224.947 286.709 225.349C286.655 225.761 286.759 226.114 287.022 226.406C287.297 226.689 287.71 226.867 288.26 226.939ZM293.897 228.627L294.924 220.758L296.13 220.915L296.025 222.337C296.344 221.873 296.76 221.53 297.273 221.306C297.786 221.083 298.344 221.01 298.947 221.089C299.878 221.211 300.581 221.593 301.057 222.236C301.544 222.87 301.711 223.774 301.558 224.948L300.957 229.549L299.624 229.375L300.206 224.916C300.42 223.277 299.851 222.369 298.497 222.192C297.82 222.104 297.221 222.278 296.702 222.716C296.194 223.145 295.881 223.814 295.762 224.723L295.23 228.801L293.897 228.627ZM302.976 229.812L304.004 221.943L305.209 222.1L305.104 223.523C305.423 223.059 305.839 222.715 306.352 222.492C306.865 222.268 307.424 222.196 308.026 222.274C308.957 222.396 309.66 222.778 310.136 223.421C310.623 224.055 310.79 224.959 310.637 226.133L310.036 230.734L308.704 230.56L309.286 226.102C309.5 224.462 308.93 223.554 307.576 223.377C306.899 223.289 306.301 223.464 305.781 223.901C305.273 224.33 304.96 224.999 304.841 225.909L304.309 229.986L302.976 229.812ZM314.12 221.489C313.855 221.454 313.644 221.341 313.486 221.148C313.341 220.946 313.285 220.713 313.32 220.448C313.353 220.194 313.465 219.994 313.656 219.847C313.858 219.701 314.091 219.645 314.356 219.68C314.61 219.713 314.815 219.826 314.973 220.019C315.131 220.211 315.193 220.435 315.16 220.689C315.126 220.953 315.007 221.163 314.803 221.32C314.601 221.466 314.374 221.522 314.12 221.489ZM312.198 231.016L313.226 223.147L314.558 223.321L313.531 231.19L312.198 231.016ZM315.851 231.493L316.879 223.624L318.084 223.781L317.979 225.204C318.298 224.74 318.714 224.396 319.227 224.172C319.741 223.949 320.299 223.877 320.902 223.955C321.832 224.077 322.535 224.459 323.011 225.102C323.498 225.736 323.665 226.64 323.512 227.814L322.911 232.415L321.579 232.241L322.161 227.783C322.375 226.143 321.805 225.235 320.451 225.058C319.774 224.97 319.176 225.145 318.656 225.582C318.148 226.011 317.835 226.68 317.716 227.59L317.184 231.667L315.851 231.493ZM328.363 230.609C327.919 230.551 327.519 230.44 327.164 230.275L326.274 230.917C326.379 231.017 326.512 231.11 326.673 231.195C326.846 231.272 327.093 231.358 327.414 231.454C327.736 231.539 328.19 231.646 328.776 231.777C329.824 231.989 330.548 232.331 330.949 232.803C331.35 233.274 331.507 233.844 331.42 234.51C331.361 234.965 331.177 235.382 330.869 235.761C330.572 236.142 330.147 236.431 329.595 236.627C329.052 236.825 328.379 236.872 327.575 236.767C326.867 236.675 326.25 236.497 325.725 236.235C325.198 235.983 324.806 235.647 324.549 235.226C324.291 234.816 324.199 234.326 324.274 233.754C324.312 233.458 324.434 233.146 324.638 232.818C324.841 232.5 325.179 232.216 325.653 231.966C325.433 231.84 325.245 231.714 325.089 231.586C324.946 231.449 324.814 231.302 324.695 231.147L324.742 230.782L326.265 229.625C325.71 229.015 325.489 228.276 325.602 227.409C325.67 226.891 325.853 226.436 326.152 226.045C326.45 225.653 326.848 225.366 327.345 225.184C327.844 224.991 328.426 224.938 329.092 225.025C329.547 225.084 329.951 225.201 330.305 225.377L333.208 225.756L333.078 226.755L331.594 226.626C331.843 227.11 331.929 227.643 331.853 228.225C331.786 228.743 331.597 229.197 331.288 229.587C330.99 229.979 330.591 230.271 330.093 230.464C329.606 230.648 329.03 230.696 328.363 230.609ZM328.506 229.515C329.067 229.588 329.53 229.503 329.895 229.26C330.272 229.008 330.496 228.607 330.568 228.057C330.639 227.518 330.523 227.083 330.222 226.754C329.933 226.415 329.508 226.208 328.947 226.135C328.376 226.061 327.902 226.149 327.525 226.401C327.16 226.644 326.942 227.035 326.872 227.575C326.8 228.125 326.908 228.569 327.198 228.908C327.499 229.238 327.935 229.44 328.506 229.515ZM325.591 233.797C325.522 234.326 325.693 234.746 326.104 235.058C326.514 235.381 327.052 235.585 327.718 235.672C328.374 235.758 328.916 235.684 329.345 235.449C329.784 235.216 330.035 234.861 330.097 234.386C330.141 234.047 330.042 233.733 329.8 233.443C329.557 233.164 329.068 232.955 328.333 232.816C327.757 232.698 327.262 232.579 326.847 232.461C326.383 232.637 326.065 232.848 325.893 233.094C325.719 233.351 325.619 233.586 325.591 233.797Z" fill="#5B0B53"/>
<rect x="23.1665" y="242.5" width="199" height="50" rx="25" fill="#EEF1FF"/>
<rect x="23.1665" y="242.5" width="199" height="50" rx="25" stroke="#8284F7"/>
<path d="M48.8505 273V261.8H55.7785V262.904H50.1945V266.808H55.2985V267.896H50.1945V271.896H55.7785V273H48.8505ZM57.8018 273V265.064H59.0178L59.0978 266.488C59.3538 265.986 59.7218 265.592 60.2018 265.304C60.6818 265.016 61.2258 264.872 61.8338 264.872C62.7724 264.872 63.5191 265.16 64.0738 265.736C64.6391 266.301 64.9218 267.176 64.9218 268.36V273H63.5778V268.504C63.5778 266.85 62.8951 266.024 61.5298 266.024C60.8471 266.024 60.2764 266.274 59.8178 266.776C59.3698 267.266 59.1458 267.97 59.1458 268.888V273H57.8018ZM66.958 273V261.48H68.302V266.424C68.5687 265.933 68.9473 265.554 69.438 265.288C69.9287 265.01 70.462 264.872 71.038 264.872C71.9553 264.872 72.6913 265.16 73.246 265.736C73.8007 266.301 74.078 267.176 74.078 268.36V273H72.75V268.504C72.75 266.85 72.0833 266.024 70.75 266.024C70.0567 266.024 69.4753 266.274 69.006 266.776C68.5367 267.266 68.302 267.97 68.302 268.888V273H66.958ZM78.7543 273.192C78.0929 273.192 77.5436 273.08 77.1063 272.856C76.6689 272.632 76.3436 272.333 76.1303 271.96C75.9169 271.586 75.8103 271.181 75.8103 270.744C75.8103 269.933 76.1196 269.309 76.7383 268.872C77.3569 268.434 78.1996 268.216 79.2663 268.216H81.4103V268.12C81.4103 267.426 81.2289 266.904 80.8663 266.552C80.5036 266.189 80.0183 266.008 79.4103 266.008C78.8876 266.008 78.4343 266.141 78.0503 266.408C77.6769 266.664 77.4423 267.042 77.3463 267.544H75.9703C76.0236 266.968 76.2156 266.482 76.5463 266.088C76.8876 265.693 77.3089 265.394 77.8103 265.192C78.3116 264.978 78.8449 264.872 79.4103 264.872C80.5196 264.872 81.3516 265.17 81.9063 265.768C82.4716 266.354 82.7543 267.138 82.7543 268.12V273H81.5543L81.4743 271.576C81.2503 272.024 80.9196 272.408 80.4823 272.728C80.0556 273.037 79.4796 273.192 78.7543 273.192ZM78.9623 272.056C79.4743 272.056 79.9116 271.922 80.2743 271.656C80.6476 271.389 80.9303 271.042 81.1223 270.616C81.3143 270.189 81.4103 269.741 81.4103 269.272V269.256H79.3783C78.5889 269.256 78.0289 269.394 77.6983 269.672C77.3783 269.938 77.2183 270.274 77.2183 270.68C77.2183 271.096 77.3676 271.432 77.6663 271.688C77.9756 271.933 78.4076 272.056 78.9623 272.056ZM84.7705 273V265.064H85.9865L86.0665 266.488C86.3225 265.986 86.6905 265.592 87.1705 265.304C87.6505 265.016 88.1945 264.872 88.8025 264.872C89.7412 264.872 90.4878 265.16 91.0425 265.736C91.6078 266.301 91.8905 267.176 91.8905 268.36V273H90.5465V268.504C90.5465 266.85 89.8638 266.024 88.4985 266.024C87.8158 266.024 87.2452 266.274 86.7865 266.776C86.3385 267.266 86.1145 267.97 86.1145 268.888V273H84.7705ZM97.5748 273.192C96.8174 273.192 96.1348 273.021 95.5268 272.68C94.9294 272.328 94.4548 271.842 94.1028 271.224C93.7614 270.594 93.5908 269.864 93.5908 269.032C93.5908 268.2 93.7614 267.474 94.1028 266.856C94.4548 266.226 94.9294 265.741 95.5268 265.4C96.1348 265.048 96.8174 264.872 97.5748 264.872C98.5134 264.872 99.3028 265.117 99.9428 265.608C100.593 266.098 101.004 266.754 101.175 267.576H99.7988C99.6921 267.085 99.4308 266.706 99.0148 266.44C98.5988 266.162 98.1134 266.024 97.5588 266.024C97.1108 266.024 96.6894 266.136 96.2948 266.36C95.9001 266.584 95.5801 266.92 95.3348 267.368C95.0894 267.816 94.9668 268.37 94.9668 269.032C94.9668 269.693 95.0894 270.248 95.3348 270.696C95.5801 271.144 95.9001 271.485 96.2948 271.72C96.6894 271.944 97.1108 272.056 97.5588 272.056C98.1134 272.056 98.5988 271.922 99.0148 271.656C99.4308 271.378 99.6921 270.989 99.7988 270.488H101.175C101.015 271.288 100.609 271.938 99.9588 272.44C99.3081 272.941 98.5134 273.192 97.5748 273.192ZM106.62 273.192C105.862 273.192 105.19 273.021 104.604 272.68C104.017 272.328 103.553 271.842 103.212 271.224C102.881 270.605 102.716 269.874 102.716 269.032C102.716 268.2 102.881 267.474 103.212 266.856C103.542 266.226 104.001 265.741 104.588 265.4C105.185 265.048 105.873 264.872 106.652 264.872C107.42 264.872 108.081 265.048 108.636 265.4C109.201 265.741 109.633 266.194 109.932 266.76C110.23 267.325 110.38 267.933 110.38 268.584C110.38 268.701 110.374 268.818 110.364 268.936C110.364 269.053 110.364 269.186 110.364 269.336H104.044C104.076 269.944 104.214 270.45 104.46 270.856C104.716 271.25 105.03 271.549 105.404 271.752C105.788 271.954 106.193 272.056 106.62 272.056C107.174 272.056 107.638 271.928 108.012 271.672C108.385 271.416 108.657 271.069 108.828 270.632H110.156C109.942 271.368 109.532 271.981 108.924 272.472C108.326 272.952 107.558 273.192 106.62 273.192ZM106.62 266.008C105.98 266.008 105.409 266.205 104.908 266.6C104.417 266.984 104.134 267.549 104.06 268.296H109.052C109.02 267.581 108.774 267.021 108.316 266.616C107.857 266.21 107.292 266.008 106.62 266.008ZM115.761 273.192C114.972 273.192 114.278 273.01 113.681 272.648C113.094 272.285 112.636 271.789 112.305 271.16C111.985 270.53 111.825 269.816 111.825 269.016C111.825 268.216 111.99 267.506 112.321 266.888C112.652 266.258 113.11 265.768 113.697 265.416C114.284 265.053 114.977 264.872 115.777 264.872C116.428 264.872 117.004 265.005 117.505 265.272C118.006 265.538 118.396 265.912 118.673 266.392V261.48H120.017V273H118.801L118.673 271.688C118.417 272.072 118.049 272.418 117.569 272.728C117.089 273.037 116.486 273.192 115.761 273.192ZM115.905 272.024C116.438 272.024 116.908 271.901 117.313 271.656C117.729 271.4 118.049 271.048 118.273 270.6C118.508 270.152 118.625 269.629 118.625 269.032C118.625 268.434 118.508 267.912 118.273 267.464C118.049 267.016 117.729 266.669 117.313 266.424C116.908 266.168 116.438 266.04 115.905 266.04C115.382 266.04 114.913 266.168 114.497 266.424C114.092 266.669 113.772 267.016 113.537 267.464C113.313 267.912 113.201 268.434 113.201 269.032C113.201 269.629 113.313 270.152 113.537 270.6C113.772 271.048 114.092 271.4 114.497 271.656C114.913 271.901 115.382 272.024 115.905 272.024ZM126.522 273V261.8H130.138C131.013 261.8 131.728 261.944 132.282 262.232C132.837 262.52 133.248 262.914 133.514 263.416C133.781 263.917 133.914 264.472 133.914 265.08C133.914 265.784 133.722 266.418 133.338 266.984C132.965 267.549 132.378 267.949 131.578 268.184L134.026 273H132.442L130.17 268.376H130.074H127.866V273H126.522ZM127.866 267.32H130.042C130.906 267.32 131.536 267.112 131.93 266.696C132.325 266.28 132.522 265.746 132.522 265.096C132.522 264.434 132.325 263.912 131.93 263.528C131.546 263.133 130.912 262.936 130.026 262.936H127.866V267.32ZM139.01 273.192C138.253 273.192 137.581 273.021 136.994 272.68C136.408 272.328 135.944 271.842 135.602 271.224C135.272 270.605 135.106 269.874 135.106 269.032C135.106 268.2 135.272 267.474 135.602 266.856C135.933 266.226 136.392 265.741 136.978 265.4C137.576 265.048 138.264 264.872 139.042 264.872C139.81 264.872 140.472 265.048 141.026 265.4C141.592 265.741 142.024 266.194 142.322 266.76C142.621 267.325 142.77 267.933 142.77 268.584C142.77 268.701 142.765 268.818 142.754 268.936C142.754 269.053 142.754 269.186 142.754 269.336H136.434C136.466 269.944 136.605 270.45 136.85 270.856C137.106 271.25 137.421 271.549 137.794 271.752C138.178 271.954 138.584 272.056 139.01 272.056C139.565 272.056 140.029 271.928 140.402 271.672C140.776 271.416 141.048 271.069 141.218 270.632H142.546C142.333 271.368 141.922 271.981 141.314 272.472C140.717 272.952 139.949 273.192 139.01 273.192ZM139.01 266.008C138.37 266.008 137.8 266.205 137.298 266.6C136.808 266.984 136.525 267.549 136.45 268.296H141.442C141.41 267.581 141.165 267.021 140.706 266.616C140.248 266.21 139.682 266.008 139.01 266.008ZM144.552 276.52V265.064H145.768L145.896 266.376C146.152 265.992 146.514 265.645 146.984 265.336C147.464 265.026 148.072 264.872 148.808 264.872C149.597 264.872 150.285 265.053 150.872 265.416C151.458 265.778 151.912 266.274 152.232 266.904C152.562 267.533 152.728 268.248 152.728 269.048C152.728 269.848 152.562 270.562 152.232 271.192C151.912 271.81 151.453 272.301 150.856 272.664C150.269 273.016 149.581 273.192 148.792 273.192C148.141 273.192 147.56 273.058 147.048 272.792C146.546 272.525 146.162 272.152 145.896 271.672V276.52H144.552ZM148.648 272.024C149.181 272.024 149.65 271.901 150.056 271.656C150.461 271.4 150.781 271.048 151.016 270.6C151.25 270.152 151.368 269.629 151.368 269.032C151.368 268.434 151.25 267.912 151.016 267.464C150.781 267.016 150.461 266.669 150.056 266.424C149.65 266.168 149.181 266.04 148.648 266.04C148.114 266.04 147.645 266.168 147.24 266.424C146.834 266.669 146.514 267.016 146.28 267.464C146.045 267.912 145.928 268.434 145.928 269.032C145.928 269.629 146.045 270.152 146.28 270.6C146.514 271.048 146.834 271.4 147.24 271.656C147.645 271.901 148.114 272.024 148.648 272.024ZM158.215 273.192C157.468 273.192 156.796 273.021 156.199 272.68C155.601 272.338 155.127 271.858 154.775 271.24C154.433 270.61 154.263 269.874 154.263 269.032C154.263 268.189 154.439 267.458 154.791 266.84C155.143 266.21 155.617 265.725 156.215 265.384C156.823 265.042 157.5 264.872 158.247 264.872C158.993 264.872 159.665 265.042 160.263 265.384C160.86 265.725 161.329 266.21 161.671 266.84C162.023 267.458 162.199 268.189 162.199 269.032C162.199 269.874 162.023 270.61 161.671 271.24C161.319 271.858 160.839 272.338 160.231 272.68C159.633 273.021 158.961 273.192 158.215 273.192ZM158.215 272.04C158.673 272.04 159.1 271.928 159.495 271.704C159.889 271.48 160.209 271.144 160.455 270.696C160.7 270.248 160.823 269.693 160.823 269.032C160.823 268.37 160.7 267.816 160.455 267.368C160.22 266.92 159.905 266.584 159.511 266.36C159.116 266.136 158.695 266.024 158.247 266.024C157.788 266.024 157.361 266.136 156.967 266.36C156.572 266.584 156.252 266.92 156.007 267.368C155.761 267.816 155.639 268.37 155.639 269.032C155.639 269.693 155.761 270.248 156.007 270.696C156.252 271.144 156.567 271.48 156.951 271.704C157.345 271.928 157.767 272.04 158.215 272.04ZM164.067 273V265.064H165.283L165.395 266.584C165.641 266.061 166.014 265.645 166.515 265.336C167.017 265.026 167.635 264.872 168.371 264.872V266.28H168.003C167.534 266.28 167.102 266.365 166.707 266.536C166.313 266.696 165.998 266.973 165.763 267.368C165.529 267.762 165.411 268.306 165.411 269V273H164.067ZM173.016 273C172.291 273 171.72 272.824 171.304 272.472C170.888 272.12 170.68 271.485 170.68 270.568V266.2H169.304V265.064H170.68L170.856 263.16H172.024V265.064H174.36V266.2H172.024V270.568C172.024 271.069 172.125 271.41 172.328 271.592C172.531 271.762 172.888 271.848 173.4 271.848H174.232V273H173.016ZM176.883 263.304C176.617 263.304 176.393 263.218 176.211 263.048C176.041 262.866 175.955 262.642 175.955 262.376C175.955 262.12 176.041 261.906 176.211 261.736C176.393 261.565 176.617 261.48 176.883 261.48C177.139 261.48 177.358 261.565 177.539 261.736C177.721 261.906 177.811 262.12 177.811 262.376C177.811 262.642 177.721 262.866 177.539 263.048C177.358 263.218 177.139 263.304 176.883 263.304ZM176.211 273V265.064H177.555V273H176.211ZM179.896 273V265.064H181.112L181.192 266.488C181.448 265.986 181.816 265.592 182.296 265.304C182.776 265.016 183.32 264.872 183.928 264.872C184.866 264.872 185.613 265.16 186.168 265.736C186.733 266.301 187.016 267.176 187.016 268.36V273H185.672V268.504C185.672 266.85 184.989 266.024 183.624 266.024C182.941 266.024 182.37 266.274 181.912 266.776C181.464 267.266 181.24 267.97 181.24 268.888V273H179.896ZM192.188 270.504C191.74 270.504 191.329 270.445 190.956 270.328L190.156 271.08C190.273 271.165 190.417 271.24 190.588 271.304C190.769 271.357 191.025 271.41 191.356 271.464C191.686 271.506 192.15 271.554 192.748 271.608C193.814 271.682 194.577 271.928 195.036 272.344C195.494 272.76 195.724 273.304 195.724 273.976C195.724 274.434 195.596 274.872 195.34 275.288C195.094 275.704 194.71 276.045 194.188 276.312C193.676 276.578 193.014 276.712 192.204 276.712C191.489 276.712 190.854 276.616 190.3 276.424C189.745 276.242 189.313 275.96 189.004 275.576C188.694 275.202 188.54 274.728 188.54 274.152C188.54 273.853 188.62 273.528 188.78 273.176C188.94 272.834 189.238 272.509 189.676 272.2C189.441 272.104 189.238 272.002 189.068 271.896C188.908 271.778 188.758 271.65 188.62 271.512V271.144L189.98 269.8C189.35 269.266 189.036 268.562 189.036 267.688C189.036 267.165 189.158 266.69 189.404 266.264C189.649 265.837 190.006 265.501 190.476 265.256C190.945 265 191.516 264.872 192.188 264.872C192.646 264.872 193.062 264.936 193.436 265.064H196.364V266.072L194.876 266.136C195.185 266.584 195.34 267.101 195.34 267.688C195.34 268.21 195.212 268.685 194.956 269.112C194.71 269.538 194.353 269.88 193.884 270.136C193.425 270.381 192.86 270.504 192.188 270.504ZM192.188 269.4C192.753 269.4 193.201 269.256 193.532 268.968C193.873 268.669 194.044 268.242 194.044 267.688C194.044 267.144 193.873 266.728 193.532 266.44C193.201 266.141 192.753 265.992 192.188 265.992C191.612 265.992 191.153 266.141 190.812 266.44C190.481 266.728 190.316 267.144 190.316 267.688C190.316 268.242 190.481 268.669 190.812 268.968C191.153 269.256 191.612 269.4 192.188 269.4ZM189.852 274.024C189.852 274.557 190.076 274.952 190.524 275.208C190.972 275.474 191.532 275.608 192.204 275.608C192.865 275.608 193.393 275.464 193.788 275.176C194.193 274.888 194.396 274.504 194.396 274.024C194.396 273.682 194.257 273.384 193.98 273.128C193.702 272.882 193.19 272.738 192.444 272.696C191.857 272.653 191.35 272.6 190.924 272.536C190.486 272.77 190.198 273.021 190.06 273.288C189.921 273.565 189.852 273.81 189.852 274.024Z" fill="#221B4B"/>
</svg>
