<svg width="398" height="315" viewBox="0 0 398 315" fill="none" xmlns="http://www.w3.org/2000/svg">
<rect x="0.5" y="0.5" width="397" height="314" rx="9.5" stroke="#E4E4E7"/>
<mask id="path-2-inside-1_929_57311" fill="white">
<path d="M10 20H388V66H10V20Z"/>
</mask>
<path d="M388 65H10V67H388V65Z" fill="#E4E4E7" mask="url(#path-2-inside-1_929_57311)"/>
<path d="M21.48 50V36H30.14V37.38H23.16V42.26H29.54V43.62H23.16V48.62H30.14V50H21.48ZM32.6691 50V40.08H34.1891L34.2891 41.86C34.6091 41.2333 35.0691 40.74 35.6691 40.38C36.2691 40.02 36.9491 39.84 37.7091 39.84C38.8824 39.84 39.8157 40.2 40.5091 40.92C41.2157 41.6267 41.5691 42.72 41.5691 44.2V50H39.8891V44.38C39.8891 42.3133 39.0357 41.28 37.3291 41.28C36.4757 41.28 35.7624 41.5933 35.1891 42.22C34.6291 42.8333 34.3491 43.7133 34.3491 44.86V50H32.6691ZM44.1144 50V35.6H45.7944V41.78C46.1277 41.1667 46.601 40.6933 47.2144 40.36C47.8277 40.0133 48.4944 39.84 49.2144 39.84C50.361 39.84 51.281 40.2 51.9744 40.92C52.6677 41.6267 53.0144 42.72 53.0144 44.2V50H51.3544V44.38C51.3544 42.3133 50.521 41.28 48.8544 41.28C47.9877 41.28 47.261 41.5933 46.6744 42.22C46.0877 42.8333 45.7944 43.7133 45.7944 44.86V50H44.1144ZM58.8597 50.24C58.033 50.24 57.3464 50.1 56.7997 49.82C56.253 49.54 55.8464 49.1667 55.5797 48.7C55.313 48.2333 55.1797 47.7267 55.1797 47.18C55.1797 46.1667 55.5664 45.3867 56.3397 44.84C57.113 44.2933 58.1664 44.02 59.4997 44.02H62.1797V43.9C62.1797 43.0333 61.953 42.38 61.4997 41.94C61.0464 41.4867 60.4397 41.26 59.6797 41.26C59.0264 41.26 58.4597 41.4267 57.9797 41.76C57.513 42.08 57.2197 42.5533 57.0997 43.18H55.3797C55.4464 42.46 55.6864 41.8533 56.0997 41.36C56.5264 40.8667 57.053 40.4933 57.6797 40.24C58.3064 39.9733 58.973 39.84 59.6797 39.84C61.0664 39.84 62.1064 40.2133 62.7997 40.96C63.5064 41.6933 63.8597 42.6733 63.8597 43.9V50H62.3597L62.2597 48.22C61.9797 48.78 61.5664 49.26 61.0197 49.66C60.4864 50.0467 59.7664 50.24 58.8597 50.24ZM59.1197 48.82C59.7597 48.82 60.3064 48.6533 60.7597 48.32C61.2264 47.9867 61.5797 47.5533 61.8197 47.02C62.0597 46.4867 62.1797 45.9267 62.1797 45.34V45.32H59.6397C58.653 45.32 57.953 45.4933 57.5397 45.84C57.1397 46.1733 56.9397 46.5933 56.9397 47.1C56.9397 47.62 57.1264 48.04 57.4997 48.36C57.8864 48.6667 58.4264 48.82 59.1197 48.82ZM66.38 50V40.08H67.9L68 41.86C68.32 41.2333 68.78 40.74 69.38 40.38C69.98 40.02 70.66 39.84 71.42 39.84C72.5933 39.84 73.5267 40.2 74.22 40.92C74.9267 41.6267 75.28 42.72 75.28 44.2V50H73.6V44.38C73.6 42.3133 72.7467 41.28 71.04 41.28C70.1867 41.28 69.4733 41.5933 68.9 42.22C68.34 42.8333 68.06 43.7133 68.06 44.86V50H66.38ZM82.3853 50.24C81.4386 50.24 80.5853 50.0267 79.8253 49.6C79.0786 49.16 78.4853 48.5533 78.0453 47.78C77.6186 46.9933 77.4053 46.08 77.4053 45.04C77.4053 44 77.6186 43.0933 78.0453 42.32C78.4853 41.5333 79.0786 40.9267 79.8253 40.5C80.5853 40.06 81.4386 39.84 82.3853 39.84C83.5586 39.84 84.5453 40.1467 85.3453 40.76C86.1586 41.3733 86.672 42.1933 86.8853 43.22H85.1653C85.032 42.6067 84.7053 42.1333 84.1853 41.8C83.6653 41.4533 83.0586 41.28 82.3653 41.28C81.8053 41.28 81.2786 41.42 80.7853 41.7C80.292 41.98 79.892 42.4 79.5853 42.96C79.2786 43.52 79.1253 44.2133 79.1253 45.04C79.1253 45.8667 79.2786 46.56 79.5853 47.12C79.892 47.68 80.292 48.1067 80.7853 48.4C81.2786 48.68 81.8053 48.82 82.3653 48.82C83.0586 48.82 83.6653 48.6533 84.1853 48.32C84.7053 47.9733 85.032 47.4867 85.1653 46.86H86.8853C86.6853 47.86 86.1786 48.6733 85.3653 49.3C84.552 49.9267 83.5586 50.24 82.3853 50.24ZM93.6916 50.24C92.7449 50.24 91.9049 50.0267 91.1716 49.6C90.4382 49.16 89.8582 48.5533 89.4316 47.78C89.0182 47.0067 88.8116 46.0933 88.8116 45.04C88.8116 44 89.0182 43.0933 89.4316 42.32C89.8449 41.5333 90.4182 40.9267 91.1516 40.5C91.8982 40.06 92.7582 39.84 93.7316 39.84C94.6916 39.84 95.5182 40.06 96.2116 40.5C96.9182 40.9267 97.4582 41.4933 97.8316 42.2C98.2049 42.9067 98.3916 43.6667 98.3916 44.48C98.3916 44.6267 98.3849 44.7733 98.3716 44.92C98.3716 45.0667 98.3716 45.2333 98.3716 45.42H90.4716C90.5116 46.18 90.6849 46.8133 90.9916 47.32C91.3116 47.8133 91.7049 48.1867 92.1716 48.44C92.6516 48.6933 93.1582 48.82 93.6916 48.82C94.3849 48.82 94.9649 48.66 95.4316 48.34C95.8982 48.02 96.2382 47.5867 96.4516 47.04H98.1116C97.8449 47.96 97.3316 48.7267 96.5716 49.34C95.8249 49.94 94.8649 50.24 93.6916 50.24ZM93.6916 41.26C92.8916 41.26 92.1782 41.5067 91.5516 42C90.9382 42.48 90.5849 43.1867 90.4916 44.12H96.7316C96.6916 43.2267 96.3849 42.5267 95.8116 42.02C95.2382 41.5133 94.5316 41.26 93.6916 41.26ZM112.151 50.24C110.778 50.24 109.591 49.94 108.591 49.34C107.605 48.7267 106.838 47.88 106.291 46.8C105.745 45.7067 105.471 44.44 105.471 43C105.471 41.5733 105.745 40.32 106.291 39.24C106.838 38.1467 107.605 37.2933 108.591 36.68C109.591 36.0667 110.778 35.76 112.151 35.76C113.751 35.76 115.051 36.1467 116.051 36.92C117.065 37.68 117.711 38.7467 117.991 40.12H116.131C115.918 39.2533 115.478 38.56 114.811 38.04C114.158 37.5067 113.271 37.24 112.151 37.24C111.151 37.24 110.278 37.4733 109.531 37.94C108.785 38.3933 108.205 39.0533 107.791 39.92C107.391 40.7733 107.191 41.8 107.191 43C107.191 44.2 107.391 45.2333 107.791 46.1C108.205 46.9533 108.785 47.6133 109.531 48.08C110.278 48.5333 111.151 48.76 112.151 48.76C113.271 48.76 114.158 48.5067 114.811 48C115.478 47.48 115.918 46.7933 116.131 45.94H117.991C117.711 47.2867 117.065 48.34 116.051 49.1C115.051 49.86 113.751 50.24 112.151 50.24ZM123.606 50.24C122.779 50.24 122.092 50.1 121.546 49.82C120.999 49.54 120.592 49.1667 120.326 48.7C120.059 48.2333 119.926 47.7267 119.926 47.18C119.926 46.1667 120.312 45.3867 121.086 44.84C121.859 44.2933 122.912 44.02 124.246 44.02H126.926V43.9C126.926 43.0333 126.699 42.38 126.246 41.94C125.792 41.4867 125.186 41.26 124.426 41.26C123.772 41.26 123.206 41.4267 122.726 41.76C122.259 42.08 121.966 42.5533 121.846 43.18H120.126C120.192 42.46 120.432 41.8533 120.846 41.36C121.272 40.8667 121.799 40.4933 122.426 40.24C123.052 39.9733 123.719 39.84 124.426 39.84C125.812 39.84 126.852 40.2133 127.546 40.96C128.252 41.6933 128.606 42.6733 128.606 43.9V50H127.106L127.006 48.22C126.726 48.78 126.312 49.26 125.766 49.66C125.232 50.0467 124.512 50.24 123.606 50.24ZM123.866 48.82C124.506 48.82 125.052 48.6533 125.506 48.32C125.972 47.9867 126.326 47.5533 126.566 47.02C126.806 46.4867 126.926 45.9267 126.926 45.34V45.32H124.386C123.399 45.32 122.699 45.4933 122.286 45.84C121.886 46.1733 121.686 46.5933 121.686 47.1C121.686 47.62 121.872 48.04 122.246 48.36C122.632 48.6667 123.172 48.82 123.866 48.82ZM134.926 50.24C133.739 50.24 132.753 49.94 131.966 49.34C131.179 48.74 130.719 47.9267 130.586 46.9H132.306C132.413 47.42 132.686 47.8733 133.126 48.26C133.579 48.6333 134.186 48.82 134.946 48.82C135.653 48.82 136.173 48.6733 136.506 48.38C136.839 48.0733 137.006 47.7133 137.006 47.3C137.006 46.7 136.786 46.3 136.346 46.1C135.919 45.9 135.313 45.72 134.526 45.56C133.993 45.4533 133.459 45.3 132.926 45.1C132.393 44.9 131.946 44.62 131.586 44.26C131.226 43.8867 131.046 43.4 131.046 42.8C131.046 41.9333 131.366 41.2267 132.006 40.68C132.659 40.12 133.539 39.84 134.646 39.84C135.699 39.84 136.559 40.1067 137.226 40.64C137.906 41.16 138.299 41.9067 138.406 42.88H136.746C136.679 42.3733 136.459 41.98 136.086 41.7C135.726 41.4067 135.239 41.26 134.626 41.26C134.026 41.26 133.559 41.3867 133.226 41.64C132.906 41.8933 132.746 42.2267 132.746 42.64C132.746 43.04 132.953 43.3533 133.366 43.58C133.793 43.8067 134.366 44 135.086 44.16C135.699 44.2933 136.279 44.46 136.826 44.66C137.386 44.8467 137.839 45.1333 138.186 45.52C138.546 45.8933 138.726 46.44 138.726 47.16C138.739 48.0533 138.399 48.7933 137.706 49.38C137.026 49.9533 136.099 50.24 134.926 50.24ZM141.126 50V35.6H142.806V41.78C143.139 41.1667 143.613 40.6933 144.226 40.36C144.839 40.0133 145.506 39.84 146.226 39.84C147.373 39.84 148.293 40.2 148.986 40.92C149.679 41.6267 150.026 42.72 150.026 44.2V50H148.366V44.38C148.366 42.3133 147.533 41.28 145.866 41.28C144.999 41.28 144.273 41.5933 143.686 42.22C143.099 42.8333 142.806 43.7133 142.806 44.86V50H141.126ZM157.964 50V36H166.484V37.38H159.644V42.3H165.464V43.66H159.644V50H157.964ZM168.548 50V35.6H170.228V50H168.548ZM177.502 50.24C176.568 50.24 175.728 50.0267 174.982 49.6C174.235 49.1733 173.642 48.5733 173.202 47.8C172.775 47.0133 172.562 46.0933 172.562 45.04C172.562 43.9867 172.782 43.0733 173.222 42.3C173.662 41.5133 174.255 40.9067 175.002 40.48C175.762 40.0533 176.608 39.84 177.542 39.84C178.475 39.84 179.315 40.0533 180.062 40.48C180.808 40.9067 181.395 41.5133 181.822 42.3C182.262 43.0733 182.482 43.9867 182.482 45.04C182.482 46.0933 182.262 47.0133 181.822 47.8C181.382 48.5733 180.782 49.1733 180.022 49.6C179.275 50.0267 178.435 50.24 177.502 50.24ZM177.502 48.8C178.075 48.8 178.608 48.66 179.102 48.38C179.595 48.1 179.995 47.68 180.302 47.12C180.608 46.56 180.762 45.8667 180.762 45.04C180.762 44.2133 180.608 43.52 180.302 42.96C180.008 42.4 179.615 41.98 179.122 41.7C178.628 41.42 178.102 41.28 177.542 41.28C176.968 41.28 176.435 41.42 175.942 41.7C175.448 41.98 175.048 42.4 174.742 42.96C174.435 43.52 174.282 44.2133 174.282 45.04C174.282 45.8667 174.435 46.56 174.742 47.12C175.048 47.68 175.442 48.1 175.922 48.38C176.415 48.66 176.942 48.8 177.502 48.8ZM186.446 50L183.546 40.08H185.226L187.326 47.86L189.646 40.08H191.546L193.886 47.86L195.966 40.08H197.666L194.766 50H193.046L190.606 41.82L188.166 50H186.446ZM208.118 50.24C207.291 50.24 206.604 50.1 206.058 49.82C205.511 49.54 205.104 49.1667 204.838 48.7C204.571 48.2333 204.438 47.7267 204.438 47.18C204.438 46.1667 204.824 45.3867 205.598 44.84C206.371 44.2933 207.424 44.02 208.758 44.02H211.438V43.9C211.438 43.0333 211.211 42.38 210.758 41.94C210.304 41.4867 209.698 41.26 208.938 41.26C208.284 41.26 207.718 41.4267 207.238 41.76C206.771 42.08 206.478 42.5533 206.358 43.18H204.638C204.704 42.46 204.944 41.8533 205.358 41.36C205.784 40.8667 206.311 40.4933 206.938 40.24C207.564 39.9733 208.231 39.84 208.938 39.84C210.324 39.84 211.364 40.2133 212.058 40.96C212.764 41.6933 213.118 42.6733 213.118 43.9V50H211.618L211.518 48.22C211.238 48.78 210.824 49.26 210.278 49.66C209.744 50.0467 209.024 50.24 208.118 50.24ZM208.378 48.82C209.018 48.82 209.564 48.6533 210.018 48.32C210.484 47.9867 210.838 47.5533 211.078 47.02C211.318 46.4867 211.438 45.9267 211.438 45.34V45.32H208.898C207.911 45.32 207.211 45.4933 206.798 45.84C206.398 46.1733 206.198 46.5933 206.198 47.1C206.198 47.62 206.384 48.04 206.758 48.36C207.144 48.6667 207.684 48.82 208.378 48.82ZM215.638 50V40.08H217.158L217.258 41.86C217.578 41.2333 218.038 40.74 218.638 40.38C219.238 40.02 219.918 39.84 220.678 39.84C221.851 39.84 222.784 40.2 223.478 40.92C224.184 41.6267 224.538 42.72 224.538 44.2V50H222.858V44.38C222.858 42.3133 222.004 41.28 220.298 41.28C219.444 41.28 218.731 41.5933 218.158 42.22C217.598 42.8333 217.318 43.7133 217.318 44.86V50H215.638ZM231.583 50.24C230.596 50.24 229.73 50.0133 228.983 49.56C228.25 49.1067 227.676 48.4867 227.263 47.7C226.863 46.9133 226.663 46.02 226.663 45.02C226.663 44.02 226.87 43.1333 227.283 42.36C227.696 41.5733 228.27 40.96 229.003 40.52C229.736 40.0667 230.603 39.84 231.603 39.84C232.416 39.84 233.136 40.0067 233.763 40.34C234.39 40.6733 234.876 41.14 235.223 41.74V35.6H236.903V50H235.383L235.223 48.36C234.903 48.84 234.443 49.2733 233.843 49.66C233.243 50.0467 232.49 50.24 231.583 50.24ZM231.763 48.78C232.43 48.78 233.016 48.6267 233.523 48.32C234.043 48 234.443 47.56 234.723 47C235.016 46.44 235.163 45.7867 235.163 45.04C235.163 44.2933 235.016 43.64 234.723 43.08C234.443 42.52 234.043 42.0867 233.523 41.78C233.016 41.46 232.43 41.3 231.763 41.3C231.11 41.3 230.523 41.46 230.003 41.78C229.496 42.0867 229.096 42.52 228.803 43.08C228.523 43.64 228.383 44.2933 228.383 45.04C228.383 45.7867 228.523 46.44 228.803 47C229.096 47.56 229.496 48 230.003 48.32C230.523 48.6267 231.11 48.78 231.763 48.78ZM249.495 50.24C248.468 50.24 247.575 50.0533 246.815 49.68C246.055 49.3067 245.468 48.7867 245.055 48.12C244.641 47.4533 244.435 46.68 244.435 45.8H246.195C246.195 46.3467 246.321 46.8533 246.575 47.32C246.828 47.7733 247.195 48.14 247.675 48.42C248.168 48.6867 248.775 48.82 249.495 48.82C250.441 48.82 251.175 48.5933 251.695 48.14C252.215 47.6867 252.475 47.12 252.475 46.44C252.475 45.88 252.355 45.4333 252.115 45.1C251.875 44.7533 251.548 44.4733 251.135 44.26C250.735 44.0467 250.268 43.86 249.735 43.7C249.215 43.54 248.668 43.36 248.095 43.16C247.015 42.7867 246.215 42.3267 245.695 41.78C245.175 41.22 244.915 40.4933 244.915 39.6C244.901 38.8533 245.075 38.1933 245.435 37.62C245.795 37.0333 246.301 36.58 246.955 36.26C247.621 35.9267 248.408 35.76 249.315 35.76C250.208 35.76 250.981 35.9267 251.635 36.26C252.301 36.5933 252.815 37.0533 253.175 37.64C253.548 38.2267 253.741 38.8933 253.755 39.64H251.995C251.995 39.2533 251.895 38.8733 251.695 38.5C251.495 38.1133 251.188 37.8 250.775 37.56C250.375 37.32 249.868 37.2 249.255 37.2C248.495 37.1867 247.868 37.38 247.375 37.78C246.895 38.18 246.655 38.7333 246.655 39.44C246.655 40.04 246.821 40.5 247.155 40.82C247.501 41.14 247.981 41.4067 248.595 41.62C249.208 41.82 249.915 42.0533 250.715 42.32C251.381 42.56 251.981 42.84 252.515 43.16C253.048 43.48 253.461 43.8933 253.755 44.4C254.061 44.9067 254.215 45.5533 254.215 46.34C254.215 47.0067 254.041 47.64 253.695 48.24C253.348 48.8267 252.821 49.3067 252.115 49.68C251.421 50.0533 250.548 50.24 249.495 50.24ZM260.957 50.24C260.011 50.24 259.171 50.0267 258.437 49.6C257.704 49.16 257.124 48.5533 256.697 47.78C256.284 47.0067 256.077 46.0933 256.077 45.04C256.077 44 256.284 43.0933 256.697 42.32C257.111 41.5333 257.684 40.9267 258.417 40.5C259.164 40.06 260.024 39.84 260.997 39.84C261.957 39.84 262.784 40.06 263.477 40.5C264.184 40.9267 264.724 41.4933 265.097 42.2C265.471 42.9067 265.657 43.6667 265.657 44.48C265.657 44.6267 265.651 44.7733 265.637 44.92C265.637 45.0667 265.637 45.2333 265.637 45.42H257.737C257.777 46.18 257.951 46.8133 258.257 47.32C258.577 47.8133 258.971 48.1867 259.437 48.44C259.917 48.6933 260.424 48.82 260.957 48.82C261.651 48.82 262.231 48.66 262.697 48.34C263.164 48.02 263.504 47.5867 263.717 47.04H265.377C265.111 47.96 264.597 48.7267 263.837 49.34C263.091 49.94 262.131 50.24 260.957 50.24ZM260.957 41.26C260.157 41.26 259.444 41.5067 258.817 42C258.204 42.48 257.851 43.1867 257.757 44.12H263.997C263.957 43.2267 263.651 42.5267 263.077 42.02C262.504 41.5133 261.797 41.26 260.957 41.26ZM272.444 50.24C271.497 50.24 270.644 50.0267 269.884 49.6C269.137 49.16 268.544 48.5533 268.104 47.78C267.677 46.9933 267.464 46.08 267.464 45.04C267.464 44 267.677 43.0933 268.104 42.32C268.544 41.5333 269.137 40.9267 269.884 40.5C270.644 40.06 271.497 39.84 272.444 39.84C273.617 39.84 274.604 40.1467 275.404 40.76C276.217 41.3733 276.731 42.1933 276.944 43.22H275.224C275.091 42.6067 274.764 42.1333 274.244 41.8C273.724 41.4533 273.117 41.28 272.424 41.28C271.864 41.28 271.337 41.42 270.844 41.7C270.351 41.98 269.951 42.4 269.644 42.96C269.337 43.52 269.184 44.2133 269.184 45.04C269.184 45.8667 269.337 46.56 269.644 47.12C269.951 47.68 270.351 48.1067 270.844 48.4C271.337 48.68 271.864 48.82 272.424 48.82C273.117 48.82 273.724 48.6533 274.244 48.32C274.764 47.9733 275.091 47.4867 275.224 46.86H276.944C276.744 47.86 276.237 48.6733 275.424 49.3C274.611 49.9267 273.617 50.24 272.444 50.24ZM282.91 50.24C281.737 50.24 280.803 49.8867 280.11 49.18C279.417 48.46 279.07 47.36 279.07 45.88V40.08H280.75V45.7C280.75 47.7667 281.597 48.8 283.29 48.8C284.157 48.8 284.87 48.4933 285.43 47.88C286.003 47.2533 286.29 46.3667 286.29 45.22V40.08H287.97V50H286.45L286.33 48.22C286.023 48.8467 285.563 49.34 284.95 49.7C284.35 50.06 283.67 50.24 282.91 50.24ZM290.735 50V40.08H292.255L292.395 41.98C292.702 41.3267 293.169 40.8067 293.795 40.42C294.422 40.0333 295.195 39.84 296.115 39.84V41.6H295.655C295.069 41.6 294.529 41.7067 294.035 41.92C293.542 42.12 293.149 42.4667 292.855 42.96C292.562 43.4533 292.415 44.1333 292.415 45V50H290.735ZM299.021 37.88C298.688 37.88 298.408 37.7733 298.181 37.56C297.968 37.3333 297.861 37.0533 297.861 36.72C297.861 36.4 297.968 36.1333 298.181 35.92C298.408 35.7067 298.688 35.6 299.021 35.6C299.341 35.6 299.614 35.7067 299.841 35.92C300.068 36.1333 300.181 36.4 300.181 36.72C300.181 37.0533 300.068 37.3333 299.841 37.56C299.614 37.7733 299.341 37.88 299.021 37.88ZM298.181 50V40.08H299.861V50H298.181ZM306.706 50C305.8 50 305.086 49.78 304.566 49.34C304.046 48.9 303.786 48.1067 303.786 46.96V41.5H302.066V40.08H303.786L304.006 37.7H305.466V40.08H308.386V41.5H305.466V46.96C305.466 47.5867 305.593 48.0133 305.846 48.24C306.1 48.4533 306.546 48.56 307.186 48.56H308.226V50H306.706ZM311.601 54.4L314.061 49.04H313.481L309.541 40.08H311.361L314.641 47.8L318.121 40.08H319.861L313.361 54.4H311.601Z" fill="#042F12"/>
<rect x="0.531345" y="0.448806" width="196" height="50" rx="25" transform="matrix(0.994978 -0.100093 0.0677127 0.997705 36.0387 217.026)" fill="#F5F5F5"/>
<rect x="0.531345" y="0.448806" width="196" height="50" rx="25" transform="matrix(0.994978 -0.100093 0.0677127 0.997705 36.0387 217.026)" stroke="#929E9D"/>
<path d="M64.218 245.279L63.4596 234.105L64.7969 233.971L65.5553 245.145L64.218 245.279ZM67.8385 244.915L67.3011 236.997L68.511 236.876L68.6845 238.015C68.9103 237.564 69.2276 237.2 69.6362 236.923C70.0448 236.646 70.5145 236.481 71.0451 236.428C71.6713 236.365 72.2159 236.439 72.679 236.649C73.1527 236.859 73.5293 237.212 73.8088 237.709C74.0523 237.202 74.4034 236.787 74.8622 236.462C75.3316 236.136 75.8476 235.945 76.4101 235.888C77.3546 235.793 78.1277 236.005 78.7292 236.523C79.3299 237.03 79.6704 237.875 79.7506 239.056L80.0648 243.685L78.7434 243.818L78.439 239.333C78.3834 238.513 78.177 237.912 77.8198 237.53C77.4626 237.148 76.9763 236.988 76.3607 237.05C75.7239 237.114 75.2102 237.418 74.8197 237.961C74.439 238.492 74.2797 239.215 74.3418 240.13L74.6202 244.233L73.283 244.368L72.9786 239.882C72.9229 239.062 72.7166 238.462 72.3594 238.08C72.0022 237.698 71.5158 237.538 70.9003 237.6C70.2741 237.663 69.7657 237.966 69.3751 238.509C68.9945 239.04 68.8352 239.763 68.8973 240.678L69.1757 244.781L67.8385 244.915ZM82.3174 246.995L81.5417 235.565L82.7516 235.443L82.9678 236.739C83.1965 236.331 83.5339 235.948 83.9799 235.593C84.4366 235.236 85.0311 235.021 85.7634 234.947C86.5487 234.868 87.2456 234.98 87.8538 235.283C88.4621 235.587 88.9467 236.036 89.3078 236.632C89.6794 237.227 89.8923 237.923 89.9464 238.721C90.0006 239.52 89.8845 240.249 89.5981 240.91C89.3216 241.559 88.8985 242.095 88.3287 242.516C87.7688 242.926 87.0962 243.171 86.3108 243.25C85.6634 243.315 85.076 243.24 84.5485 243.025C84.0316 242.809 83.6243 242.475 83.3264 242.023L83.6547 246.86L82.3174 246.995ZM86.0884 242.099C86.6191 242.046 87.0778 241.876 87.4645 241.591C87.8504 241.295 88.145 240.912 88.3481 240.441C88.5513 239.971 88.6326 239.437 88.5922 238.842C88.5517 238.246 88.3996 237.736 88.1358 237.312C87.872 236.889 87.5301 236.575 87.1102 236.371C86.6895 236.156 86.2139 236.075 85.6833 236.129C85.1526 236.182 84.6943 236.357 84.3083 236.653C83.9216 236.938 83.6267 237.316 83.4236 237.786C83.2204 238.257 83.1391 238.79 83.1795 239.386C83.22 239.982 83.3721 240.492 83.6359 240.915C83.8997 241.339 84.242 241.658 84.6626 241.873C85.0825 242.077 85.5578 242.152 86.0884 242.099ZM92.0755 242.477L91.5382 234.559L92.748 234.438L92.9624 235.943C93.1711 235.397 93.5144 234.944 93.9923 234.586C94.4701 234.227 95.0752 234.011 95.8075 233.937L95.9029 235.342L95.5367 235.378C95.0697 235.425 94.6457 235.554 94.2646 235.764C93.8827 235.963 93.5884 236.271 93.3816 236.688C93.1749 237.105 93.095 237.66 93.1419 238.352L93.4128 242.343L92.0755 242.477ZM101.174 241.755C100.431 241.829 99.7512 241.726 99.1337 241.446C98.5163 241.165 98.0115 240.733 97.6194 240.151C97.2372 239.558 97.0175 238.84 96.9604 238C96.9034 237.159 97.029 236.412 97.3374 235.76C97.645 235.097 98.0844 234.565 98.6556 234.165C99.2375 233.763 99.8998 233.525 100.643 233.45C101.386 233.376 102.066 233.479 102.683 233.76C103.301 234.04 103.801 234.478 104.183 235.071C104.575 235.653 104.8 236.365 104.857 237.205C104.914 238.046 104.788 238.798 104.481 239.461C104.172 240.114 103.727 240.641 103.145 241.042C102.574 241.442 101.917 241.68 101.174 241.755ZM101.096 240.605C101.553 240.559 101.97 240.405 102.347 240.142C102.725 239.879 103.02 239.512 103.234 239.04C103.448 238.569 103.532 238.003 103.488 237.343C103.443 236.683 103.283 236.142 103.009 235.72C102.745 235.296 102.409 234.993 102.001 234.809C101.593 234.625 101.167 234.555 100.721 234.6C100.264 234.646 99.8475 234.8 99.4699 235.063C99.0924 235.326 98.7968 235.693 98.583 236.165C98.3693 236.636 98.2848 237.202 98.3295 237.862C98.3743 238.522 98.5339 239.063 98.8084 239.485C99.0828 239.908 99.4186 240.211 99.8159 240.397C100.224 240.58 100.651 240.65 101.096 240.605ZM108.857 240.789L105.327 233.172L106.728 233.031L109.549 239.417L111.488 232.552L112.857 232.415L110.401 240.634L108.857 240.789ZM118.041 240.058C117.288 240.134 116.607 240.031 116.001 239.749C115.393 239.456 114.899 239.019 114.517 238.435C114.146 237.851 113.932 237.139 113.875 236.298C113.819 235.468 113.934 234.728 114.221 234.077C114.508 233.416 114.931 232.886 115.492 232.487C116.062 232.076 116.735 231.832 117.51 231.754C118.274 231.677 118.944 231.786 119.519 232.082C120.105 232.366 120.566 232.775 120.901 233.309C121.236 233.843 121.426 234.435 121.47 235.084C121.478 235.201 121.481 235.319 121.478 235.437C121.486 235.554 121.495 235.687 121.505 235.836L115.217 236.468C115.29 237.072 115.462 237.564 115.734 237.943C116.015 238.311 116.349 238.578 116.734 238.743C117.13 238.907 117.54 238.967 117.964 238.924C118.516 238.869 118.969 238.695 119.323 238.402C119.677 238.109 119.925 237.736 120.065 237.283L121.386 237.15C121.224 237.905 120.857 238.558 120.285 239.109C119.723 239.648 118.975 239.964 118.041 240.058ZM117.555 232.89C116.918 232.954 116.363 233.208 115.891 233.652C115.429 234.085 115.186 234.677 115.162 235.429L120.129 234.93C120.049 234.22 119.767 233.686 119.283 233.327C118.8 232.969 118.223 232.823 117.555 232.89ZM126.579 239.199C125.635 239.294 124.833 239.133 124.175 238.718C123.516 238.302 123.106 237.689 122.944 236.881L124.313 236.743C124.426 237.149 124.668 237.489 125.039 237.763C125.42 238.024 125.913 238.125 126.518 238.064C127.081 238.007 127.487 237.849 127.736 237.588C127.985 237.316 128.098 237.016 128.076 236.686C128.043 236.207 127.847 235.905 127.485 235.781C127.135 235.655 126.642 235.56 126.008 235.495C125.577 235.453 125.144 235.373 124.709 235.256C124.274 235.14 123.903 234.952 123.597 234.693C123.29 234.424 123.121 234.05 123.088 233.571C123.041 232.879 123.257 232.29 123.737 231.802C124.227 231.303 124.912 231.009 125.793 230.92C126.632 230.836 127.331 230.98 127.89 231.352C128.46 231.713 128.813 232.277 128.951 233.046L127.629 233.179C127.549 232.78 127.352 232.483 127.04 232.29C126.738 232.084 126.342 232.006 125.854 232.055C125.377 232.103 125.012 232.242 124.76 232.471C124.519 232.699 124.41 232.977 124.433 233.307C124.454 233.627 124.636 233.86 124.977 234.008C125.329 234.155 125.796 234.263 126.377 234.333C126.873 234.391 127.344 234.477 127.79 234.593C128.245 234.697 128.622 234.89 128.919 235.17C129.225 235.44 129.398 235.862 129.437 236.436C129.496 237.148 129.266 237.766 128.746 238.29C128.235 238.802 127.513 239.105 126.579 239.199ZM140.695 237.779C139.601 237.889 138.641 237.744 137.812 237.346C136.994 236.935 136.337 236.321 135.844 235.502C135.349 234.674 135.063 233.684 134.985 232.535C134.908 231.396 135.058 230.374 135.434 229.468C135.81 228.552 136.374 227.809 137.126 227.241C137.889 226.671 138.817 226.331 139.91 226.221C141.184 226.093 142.239 226.298 143.077 226.835C143.925 227.361 144.498 228.16 144.795 229.234L143.314 229.383C143.098 228.708 142.71 228.19 142.151 227.828C141.602 227.455 140.882 227.313 139.99 227.403C139.194 227.483 138.512 227.739 137.943 228.171C137.373 228.593 136.947 229.166 136.665 229.891C136.393 230.604 136.289 231.44 136.354 232.397C136.419 233.355 136.634 234.164 137 234.824C137.375 235.472 137.872 235.952 138.492 236.265C139.111 236.567 139.818 236.678 140.614 236.598C141.506 236.508 142.198 236.235 142.691 235.778C143.193 235.31 143.506 234.726 143.63 234.028L145.11 233.879C144.96 234.976 144.503 235.869 143.737 236.557C142.982 237.243 141.968 237.651 140.695 237.779ZM149.812 236.862C149.154 236.928 148.6 236.871 148.15 236.691C147.699 236.512 147.355 236.246 147.118 235.895C146.88 235.544 146.747 235.15 146.717 234.714C146.662 233.905 146.928 233.252 147.514 232.753C148.1 232.255 148.923 231.953 149.985 231.846L152.118 231.631L152.111 231.535C152.064 230.844 151.849 230.34 151.464 230.026C151.079 229.7 150.583 229.568 149.978 229.629C149.458 229.681 149.016 229.859 148.652 230.164C148.298 230.456 148.09 230.858 148.029 231.368L146.66 231.505C146.674 230.925 146.832 230.422 147.134 229.995C147.447 229.567 147.846 229.227 148.331 228.975C148.816 228.712 149.339 228.552 149.902 228.495C151.005 228.384 151.853 228.599 152.446 229.139C153.048 229.668 153.382 230.422 153.449 231.401L153.779 236.27L152.585 236.39L152.409 234.977C152.217 235.447 151.914 235.863 151.5 236.226C151.096 236.577 150.534 236.789 149.812 236.862ZM149.942 235.707C150.452 235.656 150.878 235.479 151.221 235.177C151.574 234.874 151.832 234.499 151.994 234.055C152.156 233.61 152.221 233.153 152.189 232.685L152.188 232.669L150.167 232.872C149.381 232.951 148.833 233.146 148.523 233.455C148.223 233.754 148.086 234.105 148.114 234.509C148.142 234.924 148.313 235.245 148.628 235.47C148.952 235.684 149.39 235.763 149.942 235.707ZM158.823 235.955C157.878 236.05 157.077 235.89 156.418 235.474C155.759 235.058 155.349 234.446 155.187 233.637L156.557 233.499C156.67 233.906 156.912 234.246 157.283 234.519C157.664 234.781 158.157 234.881 158.762 234.82C159.324 234.764 159.73 234.605 159.98 234.344C160.229 234.073 160.342 233.772 160.319 233.442C160.287 232.963 160.09 232.661 159.729 232.537C159.379 232.412 158.886 232.317 158.251 232.252C157.821 232.209 157.388 232.13 156.953 232.013C156.517 231.896 156.146 231.708 155.84 231.45C155.534 231.18 155.364 230.806 155.332 230.328C155.285 229.636 155.501 229.046 155.981 228.559C156.471 228.059 157.156 227.765 158.037 227.677C158.875 227.592 159.574 227.736 160.134 228.109C160.703 228.469 161.057 229.034 161.194 229.802L159.873 229.935C159.792 229.536 159.596 229.24 159.284 229.046C158.981 228.841 158.586 228.763 158.098 228.812C157.62 228.86 157.256 228.998 157.004 229.227C156.763 229.455 156.654 229.734 156.676 230.064C156.698 230.383 156.879 230.617 157.22 230.764C157.572 230.911 158.039 231.02 158.621 231.09C159.116 231.147 159.587 231.233 160.033 231.349C160.489 231.453 160.865 231.646 161.162 231.927C161.469 232.196 161.642 232.618 161.681 233.193C161.74 233.905 161.509 234.522 160.989 235.046C160.479 235.558 159.757 235.861 158.823 235.955ZM163.745 235.267L162.965 223.774L164.302 223.639L164.637 228.572C164.869 228.056 165.22 227.64 165.69 227.325C166.16 226.999 166.681 226.807 167.254 226.749C168.167 226.658 168.919 226.871 169.51 227.39C170.1 227.899 170.435 228.744 170.515 229.925L170.829 234.555L169.508 234.687L169.204 230.202C169.092 228.552 168.372 227.794 167.046 227.928C166.356 227.997 165.794 228.305 165.361 228.852C164.928 229.389 164.742 230.115 164.804 231.03L165.082 235.133L163.745 235.267ZM177.148 233.919L176.39 222.745L183.171 222.062L183.246 223.164L177.802 223.712L178.068 227.638L182.701 227.172L182.774 228.258L178.142 228.724L178.485 233.784L177.148 233.919ZM185.572 233.071L184.792 221.578L186.13 221.443L186.91 232.937L185.572 233.071ZM192.712 232.546C191.969 232.621 191.289 232.518 190.672 232.237C190.054 231.956 189.549 231.525 189.157 230.943C188.775 230.349 188.555 229.632 188.498 228.791C188.441 227.95 188.567 227.204 188.875 226.551C189.183 225.888 189.622 225.356 190.194 224.956C190.775 224.555 191.438 224.317 192.181 224.242C192.924 224.167 193.604 224.27 194.221 224.551C194.839 224.832 195.339 225.269 195.721 225.863C196.113 226.445 196.338 227.156 196.395 227.997C196.452 228.837 196.326 229.589 196.019 230.253C195.71 230.905 195.265 231.432 194.683 231.833C194.112 232.234 193.455 232.471 192.712 232.546ZM192.634 231.397C193.091 231.351 193.508 231.196 193.885 230.933C194.263 230.67 194.558 230.303 194.772 229.832C194.986 229.36 195.07 228.794 195.025 228.134C194.981 227.475 194.821 226.934 194.547 226.511C194.283 226.088 193.947 225.784 193.539 225.6C193.131 225.416 192.704 225.346 192.259 225.391C191.802 225.437 191.385 225.592 191.008 225.855C190.63 226.118 190.335 226.485 190.121 226.956C189.907 227.428 189.823 227.994 189.868 228.653C189.912 229.313 190.072 229.854 190.346 230.277C190.621 230.699 190.957 231.003 191.354 231.188C191.762 231.372 192.189 231.441 192.634 231.397ZM199.819 231.638L196.973 223.953L198.311 223.818L200.404 229.86L201.829 223.464L203.341 223.312L205.625 229.334L206.86 222.958L208.213 222.822L206.442 230.972L205.073 231.11L202.687 224.776L201.188 231.5L199.819 231.638Z" fill="#272A2A"/>
<rect x="0.41192" y="0.588553" width="186" height="50" rx="25" transform="matrix(0.981848 0.189668 -0.158008 0.987438 179.833 125.096)" fill="#FFEEEE"/>
<rect x="0.41192" y="0.588553" width="186" height="50" rx="25" transform="matrix(0.981848 0.189668 -0.158008 0.987438 179.833 125.096)" stroke="#F78282"/>
<path d="M200.543 160.744L202.313 149.684L209.115 150.999L208.94 152.089L203.458 151.03L202.841 154.884L207.852 155.853L207.68 156.927L202.669 155.959L202.037 159.909L207.52 160.968L207.345 162.058L200.543 160.744ZM209.332 162.442L210.586 154.605L211.779 154.836L211.633 156.257C211.964 155.811 212.387 155.491 212.904 155.297C213.421 155.104 213.978 155.065 214.575 155.18C215.496 155.358 216.184 155.784 216.638 156.458C217.103 157.124 217.243 158.041 217.056 159.21L216.322 163.792L215.003 163.537L215.713 159.098C215.974 157.465 215.435 156.519 214.094 156.26C213.424 156.131 212.824 156.27 212.294 156.678C211.777 157.078 211.446 157.73 211.301 158.636L210.651 162.696L209.332 162.442ZM218.322 164.178L220.142 152.803L221.462 153.058L220.68 157.94C221.02 157.506 221.451 157.204 221.975 157.033C222.501 156.853 223.046 156.817 223.612 156.926C224.513 157.1 225.19 157.524 225.643 158.198C226.099 158.862 226.233 159.778 226.046 160.947L225.312 165.529L224.009 165.277L224.719 160.837C224.98 159.205 224.456 158.262 223.147 158.009C222.466 157.878 221.856 158.015 221.316 158.421C220.778 158.816 220.436 159.467 220.291 160.373L219.641 164.433L218.322 164.178ZM229.873 166.605C229.224 166.48 228.702 166.265 228.308 165.961C227.914 165.657 227.642 165.3 227.492 164.891C227.341 164.482 227.301 164.061 227.37 163.63C227.498 162.829 227.9 162.272 228.577 161.957C229.253 161.643 230.115 161.586 231.162 161.789L233.267 162.195L233.283 162.101C233.392 161.416 233.297 160.866 232.996 160.449C232.698 160.022 232.25 159.751 231.653 159.636C231.139 159.537 230.673 159.582 230.254 159.773C229.847 159.955 229.557 160.284 229.383 160.761L228.032 160.5C228.176 159.941 228.441 159.499 228.828 159.172C229.226 158.847 229.686 158.632 230.211 158.527C230.737 158.411 231.277 158.407 231.832 158.514C232.921 158.724 233.691 159.177 234.141 159.872C234.604 160.559 234.757 161.387 234.602 162.356L233.831 167.174L232.653 166.947L232.799 165.525C232.509 165.925 232.123 166.242 231.643 166.475C231.176 166.699 230.586 166.743 229.873 166.605ZM230.257 165.523C230.76 165.62 231.21 165.571 231.609 165.377C232.017 165.184 232.35 164.896 232.605 164.511C232.861 164.126 233.026 163.702 233.101 163.238L233.103 163.222L231.108 162.837C230.333 162.687 229.761 162.718 229.393 162.929C229.036 163.132 228.826 163.433 228.762 163.833C228.697 164.244 228.79 164.604 229.043 164.914C229.308 165.215 229.713 165.418 230.257 165.523ZM235.811 167.557L237.065 159.72L238.259 159.951L238.112 161.372C238.443 160.926 238.866 160.606 239.383 160.413C239.9 160.219 240.457 160.18 241.054 160.295C241.976 160.474 242.663 160.9 243.117 161.573C243.582 162.239 243.722 163.156 243.535 164.325L242.802 168.907L241.482 168.652L242.192 164.213C242.454 162.58 241.914 161.634 240.573 161.375C239.903 161.246 239.303 161.385 238.774 161.793C238.256 162.193 237.925 162.845 237.78 163.751L237.13 167.812L235.811 167.557ZM248.352 170.175C247.609 170.031 246.965 169.733 246.422 169.281C245.892 168.82 245.502 168.251 245.254 167.573C245.019 166.887 244.966 166.133 245.098 165.311C245.229 164.49 245.512 163.806 245.944 163.26C246.39 162.705 246.932 162.316 247.573 162.092C248.225 161.86 248.923 161.816 249.667 161.959C250.589 162.137 251.325 162.529 251.876 163.135C252.437 163.743 252.737 164.469 252.774 165.312L251.423 165.051C251.396 164.546 251.199 164.123 250.833 163.781C250.468 163.428 250.014 163.199 249.469 163.094C249.029 163.009 248.598 163.04 248.175 163.186C247.752 163.332 247.385 163.603 247.073 163.999C246.762 164.395 246.553 164.919 246.449 165.572C246.344 166.225 246.377 166.796 246.547 167.285C246.717 167.774 246.978 168.172 247.328 168.479C247.68 168.775 248.076 168.965 248.516 169.05C249.061 169.155 249.558 169.116 250.009 168.931C250.461 168.736 250.779 168.401 250.963 167.927L252.314 168.188C252.031 168.947 251.53 169.513 250.812 169.884C250.094 170.256 249.274 170.353 248.352 170.175ZM257.233 171.89C256.49 171.747 255.857 171.451 255.335 171.002C254.814 170.544 254.435 169.976 254.198 169.301C253.971 168.627 253.924 167.874 254.057 167.042C254.189 166.221 254.466 165.536 254.888 164.988C255.312 164.429 255.839 164.037 256.469 163.811C257.111 163.577 257.815 163.533 258.579 163.681C259.333 163.827 259.955 164.126 260.444 164.579C260.945 165.023 261.297 165.552 261.501 166.167C261.705 166.782 261.756 167.411 261.653 168.053C261.634 168.169 261.611 168.284 261.582 168.398C261.563 168.514 261.542 168.645 261.518 168.793L255.313 167.594C255.249 168.201 255.305 168.727 255.481 169.174C255.67 169.612 255.932 169.967 256.267 170.238C256.612 170.511 256.994 170.688 257.413 170.769C257.957 170.874 258.433 170.835 258.84 170.653C259.247 170.471 259.569 170.181 259.806 169.781L261.109 170.033C260.784 170.719 260.284 171.247 259.609 171.616C258.947 171.977 258.155 172.068 257.233 171.89ZM258.368 164.797C257.74 164.675 257.148 164.762 256.594 165.056C256.051 165.343 255.685 165.847 255.493 166.57L260.395 167.517C260.476 166.805 260.324 166.206 259.937 165.719C259.551 165.231 259.028 164.924 258.368 164.797ZM265.659 173.518C264.727 173.338 263.99 172.951 263.447 172.358C262.905 171.765 262.647 171.052 262.672 170.221L264.023 170.482C264.041 170.909 264.198 171.309 264.495 171.681C264.804 172.044 265.257 172.284 265.854 172.399C266.409 172.506 266.836 172.47 267.135 172.288C267.436 172.097 267.612 171.838 267.664 171.511C267.74 171.037 267.618 170.688 267.297 170.463C266.988 170.24 266.534 170.006 265.936 169.76C265.531 169.595 265.131 169.393 264.738 169.154C264.344 168.915 264.028 168.626 263.791 168.287C263.556 167.938 263.476 167.526 263.552 167.052C263.661 166.367 264.002 165.858 264.574 165.523C265.158 165.18 265.884 165.092 266.753 165.26C267.581 165.42 268.223 165.761 268.679 166.283C269.147 166.797 269.362 167.447 269.323 168.232L268.019 167.98C268.03 167.57 267.907 167.226 267.649 166.948C267.404 166.661 267.04 166.472 266.558 166.379C266.087 166.288 265.704 166.317 265.411 166.466C265.127 166.618 264.959 166.857 264.907 167.184C264.857 167.5 264.979 167.778 265.275 168.02C265.582 168.264 266.008 168.504 266.553 168.739C267.018 168.938 267.452 169.157 267.857 169.398C268.273 169.631 268.593 169.926 268.816 170.284C269.052 170.634 269.124 171.093 269.033 171.661C268.93 172.369 268.57 172.902 267.951 173.26C267.344 173.61 266.58 173.696 265.659 173.518ZM278.268 175.954C277.462 175.798 276.783 175.515 276.234 175.105C275.684 174.694 275.289 174.195 275.048 173.605C274.808 173.016 274.743 172.374 274.855 171.679L276.237 171.946C276.168 172.377 276.204 172.797 276.344 173.204C276.485 173.601 276.727 173.946 277.069 174.24C277.422 174.525 277.882 174.723 278.448 174.832C279.191 174.976 279.796 174.908 280.262 174.629C280.727 174.349 281.003 173.941 281.089 173.404C281.16 172.962 281.122 172.591 280.976 172.291C280.831 171.981 280.61 171.71 280.312 171.479C280.025 171.249 279.682 171.031 279.283 170.824C278.895 170.619 278.488 170.393 278.063 170.148C277.262 169.69 276.692 169.205 276.353 168.694C276.015 168.173 275.903 167.559 276.015 166.854C276.099 166.262 276.319 165.767 276.674 165.369C277.031 164.96 277.486 164.678 278.04 164.525C278.606 164.363 279.245 164.35 279.957 164.488C280.659 164.623 281.245 164.872 281.716 165.235C282.198 165.599 282.543 166.041 282.751 166.559C282.97 167.079 283.038 167.635 282.954 168.227L281.572 167.96C281.62 167.654 281.59 167.339 281.48 167.014C281.372 166.678 281.171 166.384 280.876 166.131C280.592 165.881 280.21 165.709 279.728 165.616C279.133 165.491 278.616 165.548 278.178 165.789C277.75 166.032 277.492 166.433 277.402 166.991C277.327 167.465 277.399 167.854 277.621 168.157C277.853 168.463 278.196 168.746 278.651 169.008C279.107 169.259 279.633 169.55 280.227 169.882C280.721 170.173 281.157 170.485 281.535 170.819C281.914 171.153 282.186 171.542 282.352 171.987C282.529 172.434 282.568 172.968 282.468 173.589C282.384 174.116 282.168 174.59 281.82 175.011C281.473 175.422 280.999 175.721 280.397 175.909C279.805 176.099 279.095 176.114 278.268 175.954ZM287.272 177.693C286.528 177.549 285.895 177.253 285.373 176.805C284.853 176.346 284.474 175.779 284.236 175.103C284.009 174.43 283.963 173.677 284.096 172.845C284.227 172.023 284.504 171.338 284.927 170.79C285.351 170.231 285.878 169.839 286.508 169.613C287.15 169.379 287.853 169.336 288.618 169.484C289.372 169.629 289.993 169.928 290.482 170.381C290.983 170.826 291.336 171.355 291.54 171.97C291.744 172.585 291.794 173.214 291.691 173.856C291.673 173.972 291.649 174.087 291.62 174.201C291.602 174.316 291.58 174.448 291.557 174.596L285.352 173.397C285.287 174.003 285.343 174.53 285.52 174.977C285.709 175.415 285.971 175.77 286.305 176.04C286.65 176.313 287.032 176.49 287.451 176.571C287.996 176.676 288.471 176.638 288.878 176.456C289.285 176.274 289.607 175.983 289.844 175.584L291.148 175.836C290.822 176.522 290.322 177.05 289.648 177.419C288.985 177.78 288.193 177.871 287.272 177.693ZM288.407 170.599C287.778 170.478 287.187 170.564 286.632 170.859C286.09 171.145 285.723 171.65 285.532 172.373L290.433 173.32C290.515 172.608 290.362 172.009 289.976 171.521C289.59 171.034 289.066 170.727 288.407 170.599ZM296.294 179.436C295.551 179.292 294.907 178.994 294.364 178.542C293.833 178.081 293.444 177.512 293.196 176.834C292.96 176.148 292.908 175.394 293.04 174.573C293.171 173.751 293.453 173.067 293.886 172.521C294.331 171.966 294.874 171.577 295.515 171.353C296.167 171.121 296.865 171.077 297.609 171.22C298.53 171.398 299.267 171.79 299.817 172.396C300.379 173.004 300.678 173.73 300.716 174.573L299.365 174.312C299.338 173.808 299.141 173.384 298.775 173.042C298.41 172.689 297.956 172.46 297.411 172.355C296.971 172.27 296.54 172.301 296.117 172.447C295.694 172.593 295.327 172.864 295.015 173.26C294.703 173.656 294.495 174.18 294.391 174.834C294.286 175.487 294.319 176.058 294.489 176.546C294.659 177.035 294.92 177.433 295.27 177.74C295.622 178.036 296.018 178.226 296.458 178.311C297.003 178.416 297.5 178.377 297.951 178.192C298.403 177.997 298.721 177.663 298.905 177.188L300.256 177.449C299.973 178.208 299.472 178.774 298.754 179.146C298.036 179.517 297.216 179.614 296.294 179.436ZM304.515 181.024C303.594 180.846 302.905 180.425 302.45 179.762C301.996 179.088 301.863 178.166 302.05 176.997L302.783 172.415L304.103 172.67L303.392 177.11C303.131 178.742 303.666 179.687 304.996 179.944C305.676 180.076 306.275 179.942 306.793 179.542C307.322 179.134 307.66 178.477 307.805 177.571L308.454 173.511L309.774 173.766L308.52 181.602L307.326 181.372L307.457 179.947C307.137 180.396 306.713 180.716 306.186 180.907C305.669 181.1 305.112 181.139 304.515 181.024ZM310.692 182.022L311.946 174.185L313.14 174.416L313.01 175.938C313.333 175.469 313.766 175.129 314.307 174.918C314.848 174.708 315.48 174.673 316.202 174.812L315.98 176.203L315.618 176.133C315.158 176.044 314.72 176.046 314.306 176.14C313.893 176.223 313.54 176.437 313.247 176.782C312.954 177.127 312.753 177.642 312.644 178.327L312.012 182.277L310.692 182.022ZM318.732 173.705C318.471 173.654 318.264 173.527 318.113 173.325C317.974 173.113 317.926 172.876 317.968 172.612C318.008 172.36 318.126 172.165 318.32 172.029C318.525 171.895 318.759 171.853 319.021 171.904C319.272 171.952 319.473 172.078 319.624 172.281C319.775 172.484 319.831 172.712 319.79 172.964C319.748 173.228 319.624 173.432 319.417 173.576C319.212 173.711 318.984 173.753 318.732 173.705ZM316.54 183.152L317.794 175.315L319.114 175.57L317.86 183.406L316.54 183.152ZM323.237 184.445C322.525 184.308 321.992 184.025 321.639 183.599C321.286 183.173 321.183 182.506 321.327 181.601L322.018 177.287L320.667 177.026L320.846 175.905L322.197 176.166L322.671 174.319L323.818 174.541L323.517 176.421L325.81 176.864L325.631 177.985L323.337 177.542L322.647 181.855C322.568 182.351 322.613 182.707 322.784 182.924C322.956 183.131 323.293 183.283 323.796 183.38L324.613 183.538L324.431 184.676L323.237 184.445ZM326.525 188.664L329.135 184.803L328.679 184.715L326.717 177.039L328.147 177.315L329.747 183.911L333.457 178.341L334.823 178.605L327.908 188.931L326.525 188.664Z" fill="#A23131"/>
</svg>
