<svg width="159" height="32" viewBox="0 0 159 32" fill="none" xmlns="http://www.w3.org/2000/svg">
<path fill-rule="evenodd" clip-rule="evenodd" d="M52.6985 7.70508H52.7601C53.0677 7.70508 53.2522 7.94906 53.2522 8.25403V22.4047C53.2522 22.6487 53.0677 22.8926 52.7601 22.8926C52.5139 22.8926 52.2679 22.7097 52.2679 22.4047V8.19303C52.2679 7.94906 52.4524 7.70508 52.6985 7.70508ZM39.2258 8.43701H48.5152C48.8228 8.43701 49.0074 8.74198 49.0074 8.98596C49.0074 9.22993 48.8228 9.47391 48.5152 9.47391H39.7179V15.3903H47.654C47.9 15.3903 48.1461 15.5733 48.1461 15.8783C48.1461 16.1222 47.9615 16.3662 47.654 16.3662H39.7794V22.4657C39.7179 22.7706 39.4718 23.0146 39.1642 23.0146C38.8566 23.0146 38.6105 22.7706 38.6105 22.4657V8.98596H38.672C38.672 8.68099 38.9182 8.43701 39.2258 8.43701ZM66.1713 12.8285C66.1713 12.5236 65.9252 12.3406 65.6791 12.3406C65.3716 12.3406 65.187 12.5846 65.187 12.8285V18.745C65.187 20.7578 63.526 22.3436 61.4959 22.2827C59.3426 22.2827 58.1123 20.8798 58.1123 18.684V12.8285C58.1123 12.5236 57.8662 12.3406 57.6201 12.3406C57.374 12.3406 57.128 12.5846 57.128 12.8285V18.867C57.128 21.3678 58.7274 23.1976 61.3728 23.1976C62.9723 23.2585 64.5102 22.4047 65.2485 21.0018V22.5267C65.2485 22.8316 65.4946 23.0146 65.7407 23.0146C66.0483 23.0146 66.2329 22.7706 66.2329 22.5267H66.1713V12.8285ZM75.5223 12.8896C75.5223 13.1336 75.2762 13.3166 75.0301 13.3166H71.6466V20.0869C71.6466 21.6117 72.5078 22.1606 73.7997 22.1606C74.2304 22.1606 74.661 22.0997 75.0301 21.9777C75.2762 21.9777 75.4607 22.1606 75.4607 22.4047C75.4607 22.5876 75.3378 22.7706 75.1531 22.8316C74.661 23.0146 74.1073 23.0756 73.6151 23.0756C72.0157 23.0756 70.6622 22.1606 70.6622 20.2089V13.3166H69.4934C69.2473 13.3166 69.0012 13.0725 69.0012 12.8285C69.0012 12.5846 69.2473 12.4016 69.4934 12.4016H70.6622V9.47391C70.6622 9.22993 70.8468 8.98596 71.0928 8.98596H71.1544C71.4004 8.98596 71.6466 9.22993 71.6466 9.47391V12.4016H75.0301C75.2762 12.4016 75.5223 12.6456 75.5223 12.8896ZM83.3967 13.3166C83.6429 13.3166 83.8889 13.1336 83.8889 12.8896C83.8889 12.6456 83.6429 12.4016 83.3967 12.4016H80.0132V9.47391C80.0132 9.22993 79.7671 8.98596 79.521 8.98596H79.4595C79.2135 8.98596 79.0288 9.22993 79.0288 9.47391V12.4016H77.86C77.6139 12.4016 77.3679 12.5846 77.3679 12.8285C77.3679 13.0725 77.6139 13.3166 77.86 13.3166H79.0288V20.2089C79.0288 22.1606 80.3823 23.0756 81.9818 23.0756C82.474 23.0756 83.0276 23.0146 83.5198 22.8316C83.7044 22.7706 83.8274 22.5876 83.8274 22.4047C83.8274 22.1606 83.6429 21.9777 83.3967 21.9777C83.0276 22.0997 82.5971 22.1606 82.1664 22.1606C80.8744 22.1606 80.0132 21.6117 80.0132 20.0869V13.3166H83.3967ZM85.7345 17.6471C85.7345 14.5364 87.8877 12.0966 90.7791 12.0966C93.7932 12.0966 95.701 14.5364 95.701 17.6471C95.701 17.8911 95.4545 18.135 95.209 18.135H86.8419C87.0264 20.7578 88.9335 22.2827 91.0252 22.2827C92.317 22.2827 93.609 21.7337 94.4704 20.8188C94.5318 20.7578 94.6546 20.6968 94.7783 20.6968C95.0239 20.6968 95.2704 20.9408 95.2704 21.1848C95.2704 21.3068 95.209 21.4287 95.0853 21.5508C94.0397 22.7096 92.5021 23.3196 90.9637 23.2585C88.1337 23.2585 85.7345 21.0628 85.7345 17.7081V17.6471ZM86.7803 17.1592C86.9649 14.8413 88.6259 13.0725 90.7176 13.0725C93.117 13.0725 94.409 15.0243 94.5318 17.1592H86.7803ZM99.699 15.4513C100.376 13.6825 102.037 12.4016 103.944 12.2796C104.252 12.2796 104.498 12.5236 104.498 12.8896C104.498 13.1336 104.314 13.4385 104.006 13.4385H103.944C101.668 13.6825 99.699 15.3294 99.699 18.745V22.6487C99.6376 22.9536 99.4534 23.1366 99.1455 23.1366C98.9 23.1366 98.6535 22.8926 98.6535 22.6487V12.8896C98.7149 12.5846 98.9 12.4016 99.2069 12.4016C99.4534 12.4016 99.699 12.6456 99.699 12.8896V15.4513ZM120.739 11.7306C120.001 11.7306 119.386 12.2187 119.201 12.9506L117.417 18.623L115.633 12.9506C115.448 12.2187 114.772 11.6697 113.972 11.6697H113.788C112.988 11.6697 112.311 12.1576 112.126 12.9506L110.342 18.562L108.62 12.8896C108.435 12.2187 107.82 11.6697 107.082 11.6697H107.021C106.221 11.6697 105.606 12.3406 105.606 13.1336C105.606 13.3775 105.667 13.6215 105.729 13.8654V13.8655L108.497 21.7337C108.681 22.5267 109.358 23.0756 110.219 23.1366H110.342C111.142 23.1366 111.818 22.5876 112.065 21.7947L113.849 16.1833L115.633 21.7947C115.817 22.5876 116.556 23.1366 117.356 23.1366H117.479C118.34 23.1366 119.078 22.5876 119.263 21.7337L122.031 13.8045C122.092 13.6215 122.154 13.3775 122.154 13.1945V13.1336C122.154 12.3406 121.539 11.7306 120.739 11.7306ZM125.046 12.2796C126.214 11.9136 127.383 11.6697 128.614 11.7306C130.336 11.7306 131.566 12.2187 132.489 13.0115C133.351 13.9875 133.781 15.2683 133.72 16.5492V21.5508C133.72 22.4047 133.043 23.0756 132.182 23.0756C131.382 23.0756 130.705 22.5266 130.644 21.7337C129.782 22.6487 128.552 23.1976 127.261 23.1366C125.23 23.1366 123.446 21.9167 123.446 19.7209C123.446 17.2811 125.291 16.1223 127.937 16.1223C128.86 16.1223 129.782 16.2443 130.644 16.5492V16.3662C130.644 15.0243 129.844 14.3534 128.245 14.3534C127.506 14.3534 126.768 14.4145 126.03 14.6584C125.907 14.7194 125.722 14.7194 125.599 14.7194C124.861 14.7804 124.246 14.2315 124.246 13.4995C124.246 12.9506 124.554 12.4626 125.046 12.2796ZM130.705 18.989C130.705 20.2089 129.66 20.9408 128.183 20.8798C127.198 20.8798 126.461 20.3918 126.461 19.538V19.4769C126.461 18.562 127.322 17.9521 128.675 17.9521C129.352 17.9521 130.09 18.135 130.705 18.379V18.989ZM143.194 12.7676C143.378 12.0966 143.994 11.6697 144.67 11.6697C145.531 11.6697 146.209 12.3406 146.209 13.1336V13.1945C146.209 13.4385 146.146 13.6825 146.023 13.9264L142.702 21.7947C142.394 22.5876 141.656 23.0756 140.856 23.1366H140.671C139.81 23.0756 139.134 22.5267 138.887 21.7337L135.443 13.8655C135.319 13.6215 135.257 13.3775 135.257 13.1336C135.319 12.2796 135.996 11.6697 136.796 11.6697C137.534 11.6697 138.149 12.1576 138.334 12.8285L140.733 19.2329L143.194 12.7676ZM147.438 17.8911C147.562 20.9408 150.207 23.3196 153.283 23.1366C154.697 23.1366 156.051 22.7096 157.159 21.7947C157.467 21.5508 157.589 21.2457 157.589 20.8798V20.8188C157.589 20.1478 157.036 19.5989 156.359 19.5989C156.113 19.5989 155.805 19.6599 155.621 19.8429C154.944 20.3308 154.144 20.6359 153.344 20.5748C151.991 20.6359 150.822 19.7209 150.637 18.379H156.975C157.774 18.318 158.389 17.6471 158.328 16.8542V16.6102C158.328 13.8655 155.928 11.5477 152.976 11.6087C149.714 11.6087 147.438 14.2315 147.438 17.4031V17.8911ZM152.976 14.1704C151.684 14.1704 150.822 15.0854 150.576 16.5492H155.313C155.128 15.1464 154.268 14.1704 152.976 14.1704Z" fill="#12122C"/>
<path fill-rule="evenodd" clip-rule="evenodd" d="M22.7384 0.690082C36.5803 -1.38372 27.7215 10.3882 23.4152 13.6819C26.3681 15.9386 29.3825 19.1103 30.6745 22.7089C33.0737 29.2963 27.1678 30.2722 22.7384 28.6254C17.8784 26.9175 13.572 23.2579 10.7421 18.9884C9.94236 18.9884 9.0811 18.8663 8.28134 18.6224C9.88088 23.1359 10.5576 27.7715 10.1269 31.5531C10.1269 23.9289 6.49727 16.3656 1.26811 10.0832C-0.577477 7.88739 1.32963 6.24055 2.99065 8.37535C4.10881 9.92139 5.13585 11.5303 6.06663 13.1939C7.8507 6.97248 16.7095 1.544 22.7384 0.690082ZM20.7698 11.913C23.4766 10.2661 31.7203 1.42202 24.0303 2.21493C19.6009 2.70289 14.2488 6.78949 12.034 9.41225C15.11 9.04628 18.2475 10.3882 20.7698 11.913ZM11.9725 11.364C14.0641 11.181 16.3404 12.2789 18.0629 13.3768C16.4019 14.1698 14.5563 14.6577 12.6492 14.7798C9.8193 14.7798 9.26565 11.608 11.9725 11.364ZM13.1414 18.7444C15.6022 21.4891 18.9858 24.1728 22.6154 25.1487C24.707 25.6977 27.0448 25.4537 26.1835 22.465C25.3222 19.7203 23.1075 17.2805 20.9543 15.4507C20.3392 15.8777 19.6625 16.3046 18.9858 16.6096C17.1402 17.6465 15.1715 18.3784 13.1414 18.7444Z" fill="#F5A623"/>
</svg>
