<svg width="398" height="315" viewBox="0 0 398 315" fill="none" xmlns="http://www.w3.org/2000/svg">
<rect x="0.5" y="0.5" width="397" height="314" rx="9.5" stroke="#E4E4E7"/>
<mask id="path-2-inside-1_929_57312" fill="white">
<path d="M10 20H388V66H10V20Z"/>
</mask>
<path d="M388 65H10V67H388V65Z" fill="#E4E4E7" mask="url(#path-2-inside-1_929_57312)"/>
<path d="M27.5 50.24C26.1933 50.24 25.0467 49.94 24.06 49.34C23.0733 48.7267 22.3067 47.88 21.76 46.8C21.2133 45.7067 20.94 44.4467 20.94 43.02C20.94 41.5933 21.2133 40.3333 21.76 39.24C22.32 38.1467 23.1067 37.2933 24.12 36.68C25.1467 36.0667 26.3533 35.76 27.74 35.76C29.3133 35.76 30.62 36.14 31.66 36.9C32.7133 37.66 33.3933 38.7067 33.7 40.04H31.76C31.5733 39.2 31.1267 38.5333 30.42 38.04C29.7267 37.5467 28.8333 37.3 27.74 37.3C26.7133 37.3 25.82 37.5333 25.06 38C24.3 38.4533 23.7067 39.1067 23.28 39.96C22.8667 40.8133 22.66 41.8333 22.66 43.02C22.66 44.2067 22.8667 45.2267 23.28 46.08C23.6933 46.9333 24.2667 47.5933 25 48.06C25.7333 48.5133 26.5867 48.74 27.56 48.74C29.0533 48.74 30.18 48.3067 30.94 47.44C31.7 46.56 32.1333 45.36 32.24 43.84H28.2V42.52H33.96V50H32.42L32.28 47.7C31.7733 48.5133 31.1533 49.14 30.42 49.58C29.6867 50.02 28.7133 50.24 27.5 50.24ZM39.8167 50.24C38.9901 50.24 38.3034 50.1 37.7567 49.82C37.2101 49.54 36.8034 49.1667 36.5367 48.7C36.2701 48.2333 36.1367 47.7267 36.1367 47.18C36.1367 46.1667 36.5234 45.3867 37.2967 44.84C38.0701 44.2933 39.1234 44.02 40.4567 44.02H43.1367V43.9C43.1367 43.0333 42.9101 42.38 42.4567 41.94C42.0034 41.4867 41.3967 41.26 40.6367 41.26C39.9834 41.26 39.4167 41.4267 38.9367 41.76C38.4701 42.08 38.1767 42.5533 38.0567 43.18H36.3367C36.4034 42.46 36.6434 41.8533 37.0567 41.36C37.4834 40.8667 38.0101 40.4933 38.6367 40.24C39.2634 39.9733 39.9301 39.84 40.6367 39.84C42.0234 39.84 43.0634 40.2133 43.7567 40.96C44.4634 41.6933 44.8167 42.6733 44.8167 43.9V50H43.3167L43.2167 48.22C42.9367 48.78 42.5234 49.26 41.9767 49.66C41.4434 50.0467 40.7234 50.24 39.8167 50.24ZM40.0767 48.82C40.7167 48.82 41.2634 48.6533 41.7167 48.32C42.1834 47.9867 42.5367 47.5533 42.7767 47.02C43.0167 46.4867 43.1367 45.9267 43.1367 45.34V45.32H40.5967C39.6101 45.32 38.9101 45.4933 38.4967 45.84C38.0967 46.1733 37.8967 46.5933 37.8967 47.1C37.8967 47.62 38.0834 48.04 38.4567 48.36C38.8434 48.6667 39.3834 48.82 40.0767 48.82ZM48.357 37.88C48.0237 37.88 47.7437 37.7733 47.517 37.56C47.3037 37.3333 47.197 37.0533 47.197 36.72C47.197 36.4 47.3037 36.1333 47.517 35.92C47.7437 35.7067 48.0237 35.6 48.357 35.6C48.677 35.6 48.9504 35.7067 49.177 35.92C49.4037 36.1333 49.517 36.4 49.517 36.72C49.517 37.0533 49.4037 37.3333 49.177 37.56C48.9504 37.7733 48.677 37.88 48.357 37.88ZM47.517 50V40.08H49.197V50H47.517ZM52.1222 50V40.08H53.6422L53.7422 41.86C54.0622 41.2333 54.5222 40.74 55.1222 40.38C55.7222 40.02 56.4022 39.84 57.1622 39.84C58.3355 39.84 59.2689 40.2 59.9622 40.92C60.6689 41.6267 61.0222 42.72 61.0222 44.2V50H59.3422V44.38C59.3422 42.3133 58.4889 41.28 56.7822 41.28C55.9289 41.28 55.2155 41.5933 54.6422 42.22C54.0822 42.8333 53.8022 43.7133 53.8022 44.86V50H52.1222ZM75.1005 50.24C73.7271 50.24 72.5405 49.94 71.5405 49.34C70.5538 48.7267 69.7871 47.88 69.2405 46.8C68.6938 45.7067 68.4205 44.44 68.4205 43C68.4205 41.5733 68.6938 40.32 69.2405 39.24C69.7871 38.1467 70.5538 37.2933 71.5405 36.68C72.5405 36.0667 73.7271 35.76 75.1005 35.76C76.7005 35.76 78.0005 36.1467 79.0005 36.92C80.0138 37.68 80.6605 38.7467 80.9405 40.12H79.0805C78.8671 39.2533 78.4271 38.56 77.7605 38.04C77.1071 37.5067 76.2205 37.24 75.1005 37.24C74.1005 37.24 73.2271 37.4733 72.4805 37.94C71.7338 38.3933 71.1538 39.0533 70.7405 39.92C70.3405 40.7733 70.1405 41.8 70.1405 43C70.1405 44.2 70.3405 45.2333 70.7405 46.1C71.1538 46.9533 71.7338 47.6133 72.4805 48.08C73.2271 48.5333 74.1005 48.76 75.1005 48.76C76.2205 48.76 77.1071 48.5067 77.7605 48C78.4271 47.48 78.8671 46.7933 79.0805 45.94H80.9405C80.6605 47.2867 80.0138 48.34 79.0005 49.1C78.0005 49.86 76.7005 50.24 75.1005 50.24ZM87.775 50.24C86.8417 50.24 86.0017 50.0267 85.255 49.6C84.5083 49.1733 83.915 48.5733 83.475 47.8C83.0483 47.0133 82.835 46.0933 82.835 45.04C82.835 43.9867 83.055 43.0733 83.495 42.3C83.935 41.5133 84.5283 40.9067 85.275 40.48C86.035 40.0533 86.8817 39.84 87.815 39.84C88.7483 39.84 89.5883 40.0533 90.335 40.48C91.0817 40.9067 91.6683 41.5133 92.095 42.3C92.535 43.0733 92.755 43.9867 92.755 45.04C92.755 46.0933 92.535 47.0133 92.095 47.8C91.655 48.5733 91.055 49.1733 90.295 49.6C89.5483 50.0267 88.7083 50.24 87.775 50.24ZM87.775 48.8C88.3483 48.8 88.8817 48.66 89.375 48.38C89.8683 48.1 90.2683 47.68 90.575 47.12C90.8817 46.56 91.035 45.8667 91.035 45.04C91.035 44.2133 90.8817 43.52 90.575 42.96C90.2817 42.4 89.8883 41.98 89.395 41.7C88.9017 41.42 88.375 41.28 87.815 41.28C87.2417 41.28 86.7083 41.42 86.215 41.7C85.7217 41.98 85.3217 42.4 85.015 42.96C84.7083 43.52 84.555 44.2133 84.555 45.04C84.555 45.8667 84.7083 46.56 85.015 47.12C85.3217 47.68 85.715 48.1 86.195 48.38C86.6883 48.66 87.215 48.8 87.775 48.8ZM95.0909 50V40.08H96.6109L96.7309 41.52C97.0509 40.9867 97.4776 40.5733 98.0109 40.28C98.5443 39.9867 99.1443 39.84 99.8109 39.84C100.598 39.84 101.271 40 101.831 40.32C102.404 40.64 102.844 41.1267 103.151 41.78C103.498 41.18 103.971 40.7067 104.571 40.36C105.184 40.0133 105.844 39.84 106.551 39.84C107.738 39.84 108.684 40.2 109.391 40.92C110.098 41.6267 110.451 42.72 110.451 44.2V50H108.791V44.38C108.791 43.3533 108.584 42.58 108.171 42.06C107.758 41.54 107.164 41.28 106.391 41.28C105.591 41.28 104.924 41.5933 104.391 42.22C103.871 42.8333 103.611 43.7133 103.611 44.86V50H101.931V44.38C101.931 43.3533 101.724 42.58 101.311 42.06C100.898 41.54 100.304 41.28 99.5309 41.28C98.7443 41.28 98.0843 41.5933 97.5509 42.22C97.0309 42.8333 96.7709 43.7133 96.7709 44.86V50H95.0909ZM112.982 54.4V40.08H114.502L114.662 41.72C114.982 41.24 115.435 40.8067 116.022 40.42C116.622 40.0333 117.382 39.84 118.302 39.84C119.288 39.84 120.148 40.0667 120.882 40.52C121.615 40.9733 122.182 41.5933 122.582 42.38C122.995 43.1667 123.202 44.06 123.202 45.06C123.202 46.06 122.995 46.9533 122.582 47.74C122.182 48.5133 121.608 49.1267 120.862 49.58C120.128 50.02 119.268 50.24 118.282 50.24C117.468 50.24 116.742 50.0733 116.102 49.74C115.475 49.4067 114.995 48.94 114.662 48.34V54.4H112.982ZM118.102 48.78C118.768 48.78 119.355 48.6267 119.862 48.32C120.368 48 120.768 47.56 121.062 47C121.355 46.44 121.502 45.7867 121.502 45.04C121.502 44.2933 121.355 43.64 121.062 43.08C120.768 42.52 120.368 42.0867 119.862 41.78C119.355 41.46 118.768 41.3 118.102 41.3C117.435 41.3 116.848 41.46 116.342 41.78C115.835 42.0867 115.435 42.52 115.142 43.08C114.848 43.64 114.702 44.2933 114.702 45.04C114.702 45.7867 114.848 46.44 115.142 47C115.435 47.56 115.835 48 116.342 48.32C116.848 48.6267 117.435 48.78 118.102 48.78ZM125.54 50V35.6H127.22V50H125.54ZM134.434 50.24C133.487 50.24 132.647 50.0267 131.914 49.6C131.18 49.16 130.6 48.5533 130.174 47.78C129.76 47.0067 129.554 46.0933 129.554 45.04C129.554 44 129.76 43.0933 130.174 42.32C130.587 41.5333 131.16 40.9267 131.894 40.5C132.64 40.06 133.5 39.84 134.474 39.84C135.434 39.84 136.26 40.06 136.954 40.5C137.66 40.9267 138.2 41.4933 138.574 42.2C138.947 42.9067 139.134 43.6667 139.134 44.48C139.134 44.6267 139.127 44.7733 139.114 44.92C139.114 45.0667 139.114 45.2333 139.114 45.42H131.214C131.254 46.18 131.427 46.8133 131.734 47.32C132.054 47.8133 132.447 48.1867 132.914 48.44C133.394 48.6933 133.9 48.82 134.434 48.82C135.127 48.82 135.707 48.66 136.174 48.34C136.64 48.02 136.98 47.5867 137.194 47.04H138.854C138.587 47.96 138.074 48.7267 137.314 49.34C136.567 49.94 135.607 50.24 134.434 50.24ZM134.434 41.26C133.634 41.26 132.92 41.5067 132.294 42C131.68 42.48 131.327 43.1867 131.234 44.12H137.474C137.434 43.2267 137.127 42.5267 136.554 42.02C135.98 41.5133 135.274 41.26 134.434 41.26ZM144.948 50C144.042 50 143.328 49.78 142.808 49.34C142.288 48.9 142.028 48.1067 142.028 46.96V41.5H140.308V40.08H142.028L142.248 37.7H143.708V40.08H146.628V41.5H143.708V46.96C143.708 47.5867 143.835 48.0133 144.088 48.24C144.342 48.4533 144.788 48.56 145.428 48.56H146.468V50H144.948ZM152.949 50.24C152.003 50.24 151.163 50.0267 150.429 49.6C149.696 49.16 149.116 48.5533 148.689 47.78C148.276 47.0067 148.069 46.0933 148.069 45.04C148.069 44 148.276 43.0933 148.689 42.32C149.103 41.5333 149.676 40.9267 150.409 40.5C151.156 40.06 152.016 39.84 152.989 39.84C153.949 39.84 154.776 40.06 155.469 40.5C156.176 40.9267 156.716 41.4933 157.089 42.2C157.463 42.9067 157.649 43.6667 157.649 44.48C157.649 44.6267 157.643 44.7733 157.629 44.92C157.629 45.0667 157.629 45.2333 157.629 45.42H149.729C149.769 46.18 149.943 46.8133 150.249 47.32C150.569 47.8133 150.963 48.1867 151.429 48.44C151.909 48.6933 152.416 48.82 152.949 48.82C153.643 48.82 154.223 48.66 154.689 48.34C155.156 48.02 155.496 47.5867 155.709 47.04H157.369C157.103 47.96 156.589 48.7267 155.829 49.34C155.083 49.94 154.123 50.24 152.949 50.24ZM152.949 41.26C152.149 41.26 151.436 41.5067 150.809 42C150.196 42.48 149.843 43.1867 149.749 44.12H155.989C155.949 43.2267 155.643 42.5267 155.069 42.02C154.496 41.5133 153.789 41.26 152.949 41.26ZM165.269 50V36H173.789V37.38H166.949V42.3H172.769V43.66H166.949V50H165.269ZM176.873 37.88C176.539 37.88 176.259 37.7733 176.033 37.56C175.819 37.3333 175.713 37.0533 175.713 36.72C175.713 36.4 175.819 36.1333 176.033 35.92C176.259 35.7067 176.539 35.6 176.873 35.6C177.193 35.6 177.466 35.7067 177.693 35.92C177.919 36.1333 178.033 36.4 178.033 36.72C178.033 37.0533 177.919 37.3333 177.693 37.56C177.466 37.7733 177.193 37.88 176.873 37.88ZM176.033 50V40.08H177.713V50H176.033ZM180.638 50V40.08H182.158L182.258 41.86C182.578 41.2333 183.038 40.74 183.638 40.38C184.238 40.02 184.918 39.84 185.678 39.84C186.851 39.84 187.784 40.2 188.478 40.92C189.184 41.6267 189.538 42.72 189.538 44.2V50H187.858V44.38C187.858 42.3133 187.004 41.28 185.298 41.28C184.444 41.28 183.731 41.5933 183.158 42.22C182.598 42.8333 182.318 43.7133 182.318 44.86V50H180.638ZM195.383 50.24C194.556 50.24 193.87 50.1 193.323 49.82C192.776 49.54 192.37 49.1667 192.103 48.7C191.836 48.2333 191.703 47.7267 191.703 47.18C191.703 46.1667 192.09 45.3867 192.863 44.84C193.636 44.2933 194.69 44.02 196.023 44.02H198.703V43.9C198.703 43.0333 198.476 42.38 198.023 41.94C197.57 41.4867 196.963 41.26 196.203 41.26C195.55 41.26 194.983 41.4267 194.503 41.76C194.036 42.08 193.743 42.5533 193.623 43.18H191.903C191.97 42.46 192.21 41.8533 192.623 41.36C193.05 40.8667 193.576 40.4933 194.203 40.24C194.83 39.9733 195.496 39.84 196.203 39.84C197.59 39.84 198.63 40.2133 199.323 40.96C200.03 41.6933 200.383 42.6733 200.383 43.9V50H198.883L198.783 48.22C198.503 48.78 198.09 49.26 197.543 49.66C197.01 50.0467 196.29 50.24 195.383 50.24ZM195.643 48.82C196.283 48.82 196.83 48.6533 197.283 48.32C197.75 47.9867 198.103 47.5533 198.343 47.02C198.583 46.4867 198.703 45.9267 198.703 45.34V45.32H196.163C195.176 45.32 194.476 45.4933 194.063 45.84C193.663 46.1733 193.463 46.5933 193.463 47.1C193.463 47.62 193.65 48.04 194.023 48.36C194.41 48.6667 194.95 48.82 195.643 48.82ZM202.903 50V40.08H204.423L204.523 41.86C204.843 41.2333 205.303 40.74 205.903 40.38C206.503 40.02 207.183 39.84 207.943 39.84C209.117 39.84 210.05 40.2 210.743 40.92C211.45 41.6267 211.803 42.72 211.803 44.2V50H210.123V44.38C210.123 42.3133 209.27 41.28 207.563 41.28C206.71 41.28 205.997 41.5933 205.423 42.22C204.863 42.8333 204.583 43.7133 204.583 44.86V50H202.903ZM218.909 50.24C217.962 50.24 217.109 50.0267 216.349 49.6C215.602 49.16 215.009 48.5533 214.569 47.78C214.142 46.9933 213.929 46.08 213.929 45.04C213.929 44 214.142 43.0933 214.569 42.32C215.009 41.5333 215.602 40.9267 216.349 40.5C217.109 40.06 217.962 39.84 218.909 39.84C220.082 39.84 221.069 40.1467 221.869 40.76C222.682 41.3733 223.195 42.1933 223.409 43.22H221.689C221.555 42.6067 221.229 42.1333 220.709 41.8C220.189 41.4533 219.582 41.28 218.889 41.28C218.329 41.28 217.802 41.42 217.309 41.7C216.815 41.98 216.415 42.4 216.109 42.96C215.802 43.52 215.649 44.2133 215.649 45.04C215.649 45.8667 215.802 46.56 216.109 47.12C216.415 47.68 216.815 48.1067 217.309 48.4C217.802 48.68 218.329 48.82 218.889 48.82C219.582 48.82 220.189 48.6533 220.709 48.32C221.229 47.9733 221.555 47.4867 221.689 46.86H223.409C223.209 47.86 222.702 48.6733 221.889 49.3C221.075 49.9267 220.082 50.24 218.909 50.24ZM226.775 37.88C226.442 37.88 226.162 37.7733 225.935 37.56C225.722 37.3333 225.615 37.0533 225.615 36.72C225.615 36.4 225.722 36.1333 225.935 35.92C226.162 35.7067 226.442 35.6 226.775 35.6C227.095 35.6 227.368 35.7067 227.595 35.92C227.822 36.1333 227.935 36.4 227.935 36.72C227.935 37.0533 227.822 37.3333 227.595 37.56C227.368 37.7733 227.095 37.88 226.775 37.88ZM225.935 50V40.08H227.615V50H225.935ZM233.84 50.24C233.013 50.24 232.327 50.1 231.78 49.82C231.233 49.54 230.827 49.1667 230.56 48.7C230.293 48.2333 230.16 47.7267 230.16 47.18C230.16 46.1667 230.547 45.3867 231.32 44.84C232.093 44.2933 233.147 44.02 234.48 44.02H237.16V43.9C237.16 43.0333 236.933 42.38 236.48 41.94C236.027 41.4867 235.42 41.26 234.66 41.26C234.007 41.26 233.44 41.4267 232.96 41.76C232.493 42.08 232.2 42.5533 232.08 43.18H230.36C230.427 42.46 230.667 41.8533 231.08 41.36C231.507 40.8667 232.033 40.4933 232.66 40.24C233.287 39.9733 233.953 39.84 234.66 39.84C236.047 39.84 237.087 40.2133 237.78 40.96C238.487 41.6933 238.84 42.6733 238.84 43.9V50H237.34L237.24 48.22C236.96 48.78 236.547 49.26 236 49.66C235.467 50.0467 234.747 50.24 233.84 50.24ZM234.1 48.82C234.74 48.82 235.287 48.6533 235.74 48.32C236.207 47.9867 236.56 47.5533 236.8 47.02C237.04 46.4867 237.16 45.9267 237.16 45.34V45.32H234.62C233.633 45.32 232.933 45.4933 232.52 45.84C232.12 46.1733 231.92 46.5933 231.92 47.1C231.92 47.62 232.107 48.04 232.48 48.36C232.867 48.6667 233.407 48.82 234.1 48.82ZM241.36 50V35.6H243.04V50H241.36ZM255.407 50L250.147 36H251.967L256.387 48.22L260.847 36H262.627L257.367 50H255.407ZM265.466 37.88C265.133 37.88 264.853 37.7733 264.626 37.56C264.413 37.3333 264.306 37.0533 264.306 36.72C264.306 36.4 264.413 36.1333 264.626 35.92C264.853 35.7067 265.133 35.6 265.466 35.6C265.786 35.6 266.06 35.7067 266.286 35.92C266.513 36.1333 266.626 36.4 266.626 36.72C266.626 37.0533 266.513 37.3333 266.286 37.56C266.06 37.7733 265.786 37.88 265.466 37.88ZM264.626 50V40.08H266.306V50H264.626ZM273.032 50.24C271.845 50.24 270.858 49.94 270.072 49.34C269.285 48.74 268.825 47.9267 268.692 46.9H270.412C270.518 47.42 270.792 47.8733 271.232 48.26C271.685 48.6333 272.292 48.82 273.052 48.82C273.758 48.82 274.278 48.6733 274.612 48.38C274.945 48.0733 275.112 47.7133 275.112 47.3C275.112 46.7 274.892 46.3 274.452 46.1C274.025 45.9 273.418 45.72 272.632 45.56C272.098 45.4533 271.565 45.3 271.032 45.1C270.498 44.9 270.052 44.62 269.692 44.26C269.332 43.8867 269.152 43.4 269.152 42.8C269.152 41.9333 269.472 41.2267 270.112 40.68C270.765 40.12 271.645 39.84 272.752 39.84C273.805 39.84 274.665 40.1067 275.332 40.64C276.012 41.16 276.405 41.9067 276.512 42.88H274.852C274.785 42.3733 274.565 41.98 274.192 41.7C273.832 41.4067 273.345 41.26 272.732 41.26C272.132 41.26 271.665 41.3867 271.332 41.64C271.012 41.8933 270.852 42.2267 270.852 42.64C270.852 43.04 271.058 43.3533 271.472 43.58C271.898 43.8067 272.472 44 273.192 44.16C273.805 44.2933 274.385 44.46 274.932 44.66C275.492 44.8467 275.945 45.1333 276.292 45.52C276.652 45.8933 276.832 46.44 276.832 47.16C276.845 48.0533 276.505 48.7933 275.812 49.38C275.132 49.9533 274.205 50.24 273.032 50.24ZM280.252 37.88C279.918 37.88 279.638 37.7733 279.412 37.56C279.198 37.3333 279.092 37.0533 279.092 36.72C279.092 36.4 279.198 36.1333 279.412 35.92C279.638 35.7067 279.918 35.6 280.252 35.6C280.572 35.6 280.845 35.7067 281.072 35.92C281.298 36.1333 281.412 36.4 281.412 36.72C281.412 37.0533 281.298 37.3333 281.072 37.56C280.845 37.7733 280.572 37.88 280.252 37.88ZM279.412 50V40.08H281.092V50H279.412ZM289.317 50.24C288.503 50.24 287.777 50.0733 287.137 49.74C286.51 49.4067 286.03 48.94 285.697 48.34L285.537 50H284.017V35.6H285.697V41.72C286.017 41.24 286.47 40.8067 287.057 40.42C287.657 40.0333 288.417 39.84 289.337 39.84C290.323 39.84 291.183 40.0667 291.917 40.52C292.65 40.9733 293.217 41.5933 293.617 42.38C294.03 43.1667 294.237 44.06 294.237 45.06C294.237 46.06 294.03 46.9533 293.617 47.74C293.217 48.5133 292.643 49.1267 291.897 49.58C291.163 50.02 290.303 50.24 289.317 50.24ZM289.137 48.78C289.803 48.78 290.39 48.6267 290.897 48.32C291.403 48 291.803 47.56 292.097 47C292.39 46.44 292.537 45.7867 292.537 45.04C292.537 44.2933 292.39 43.64 292.097 43.08C291.803 42.52 291.403 42.0867 290.897 41.78C290.39 41.46 289.803 41.3 289.137 41.3C288.47 41.3 287.883 41.46 287.377 41.78C286.87 42.0867 286.47 42.52 286.177 43.08C285.883 43.64 285.737 44.2933 285.737 45.04C285.737 45.7867 285.883 46.44 286.177 47C286.47 47.56 286.87 48 287.377 48.32C287.883 48.6267 288.47 48.78 289.137 48.78ZM297.595 37.88C297.262 37.88 296.982 37.7733 296.755 37.56C296.542 37.3333 296.435 37.0533 296.435 36.72C296.435 36.4 296.542 36.1333 296.755 35.92C296.982 35.7067 297.262 35.6 297.595 35.6C297.915 35.6 298.189 35.7067 298.415 35.92C298.642 36.1333 298.755 36.4 298.755 36.72C298.755 37.0533 298.642 37.3333 298.415 37.56C298.189 37.7733 297.915 37.88 297.595 37.88ZM296.755 50V40.08H298.435V50H296.755ZM301.36 50V35.6H303.04V50H301.36ZM306.814 37.88C306.481 37.88 306.201 37.7733 305.974 37.56C305.761 37.3333 305.654 37.0533 305.654 36.72C305.654 36.4 305.761 36.1333 305.974 35.92C306.201 35.7067 306.481 35.6 306.814 35.6C307.134 35.6 307.407 35.7067 307.634 35.92C307.861 36.1333 307.974 36.4 307.974 36.72C307.974 37.0533 307.861 37.3333 307.634 37.56C307.407 37.7733 307.134 37.88 306.814 37.88ZM305.974 50V40.08H307.654V50H305.974ZM314.499 50C313.593 50 312.879 49.78 312.359 49.34C311.839 48.9 311.579 48.1067 311.579 46.96V41.5H309.859V40.08H311.579L311.799 37.7H313.259V40.08H316.179V41.5H313.259V46.96C313.259 47.5867 313.386 48.0133 313.639 48.24C313.893 48.4533 314.339 48.56 314.979 48.56H316.019V50H314.499ZM319.394 54.4L321.854 49.04H321.274L317.334 40.08H319.154L322.434 47.8L325.914 40.08H327.654L321.154 54.4H319.394Z" fill="#042F12"/>
<rect x="32.5" y="106.5" width="280" height="50" rx="25" fill="#F6F6F6"/>
<rect x="32.5" y="106.5" width="280" height="50" rx="25" stroke="#888888"/>
<path d="M58.184 137V125.8H59.528V137H58.184ZM61.8228 137V129.064H63.0388L63.1348 130.216C63.3908 129.789 63.7321 129.459 64.1588 129.224C64.5854 128.989 65.0654 128.872 65.5988 128.872C66.2281 128.872 66.7668 129 67.2148 129.256C67.6734 129.512 68.0254 129.901 68.2708 130.424C68.5481 129.944 68.9268 129.565 69.4068 129.288C69.8974 129.011 70.4254 128.872 70.9908 128.872C71.9401 128.872 72.6974 129.16 73.2628 129.736C73.8281 130.301 74.1108 131.176 74.1108 132.36V137H72.7828V132.504C72.7828 131.683 72.6174 131.064 72.2868 130.648C71.9561 130.232 71.4814 130.024 70.8628 130.024C70.2228 130.024 69.6894 130.275 69.2628 130.776C68.8468 131.267 68.6388 131.971 68.6388 132.888V137H67.2948V132.504C67.2948 131.683 67.1294 131.064 66.7988 130.648C66.4681 130.232 65.9934 130.024 65.3748 130.024C64.7454 130.024 64.2174 130.275 63.7908 130.776C63.3748 131.267 63.1668 131.971 63.1668 132.888V137H61.8228ZM76.1353 140.52V129.064H77.3513L77.4793 130.376C77.7353 129.992 78.0979 129.645 78.5673 129.336C79.0473 129.027 79.6553 128.872 80.3913 128.872C81.1806 128.872 81.8686 129.053 82.4553 129.416C83.0419 129.779 83.4953 130.275 83.8153 130.904C84.1459 131.533 84.3113 132.248 84.3113 133.048C84.3113 133.848 84.1459 134.563 83.8153 135.192C83.4953 135.811 83.0366 136.301 82.4393 136.664C81.8526 137.016 81.1646 137.192 80.3753 137.192C79.7246 137.192 79.1433 137.059 78.6313 136.792C78.1299 136.525 77.7459 136.152 77.4793 135.672V140.52H76.1353ZM80.2313 136.024C80.7646 136.024 81.2339 135.901 81.6393 135.656C82.0446 135.4 82.3646 135.048 82.5993 134.6C82.8339 134.152 82.9513 133.629 82.9513 133.032C82.9513 132.435 82.8339 131.912 82.5993 131.464C82.3646 131.016 82.0446 130.669 81.6393 130.424C81.2339 130.168 80.7646 130.04 80.2313 130.04C79.6979 130.04 79.2286 130.168 78.8233 130.424C78.4179 130.669 78.0979 131.016 77.8633 131.464C77.6286 131.912 77.5113 132.435 77.5113 133.032C77.5113 133.629 77.6286 134.152 77.8633 134.6C78.0979 135.048 78.4179 135.4 78.8233 135.656C79.2286 135.901 79.6979 136.024 80.2313 136.024ZM86.1821 137V129.064H87.3981L87.5101 130.584C87.7555 130.061 88.1288 129.645 88.6301 129.336C89.1315 129.027 89.7501 128.872 90.4861 128.872V130.28H90.1181C89.6488 130.28 89.2168 130.365 88.8221 130.536C88.4275 130.696 88.1128 130.973 87.8781 131.368C87.6435 131.763 87.5261 132.307 87.5261 133V137H86.1821ZM95.3138 137.192C94.5671 137.192 93.8951 137.021 93.2978 136.68C92.7004 136.339 92.2258 135.859 91.8738 135.24C91.5324 134.611 91.3618 133.875 91.3618 133.032C91.3618 132.189 91.5378 131.459 91.8898 130.84C92.2418 130.211 92.7164 129.725 93.3138 129.384C93.9218 129.043 94.5991 128.872 95.3458 128.872C96.0924 128.872 96.7644 129.043 97.3618 129.384C97.9591 129.725 98.4284 130.211 98.7698 130.84C99.1218 131.459 99.2978 132.189 99.2978 133.032C99.2978 133.875 99.1218 134.611 98.7698 135.24C98.4178 135.859 97.9378 136.339 97.3298 136.68C96.7324 137.021 96.0604 137.192 95.3138 137.192ZM95.3138 136.04C95.7724 136.04 96.1991 135.928 96.5938 135.704C96.9884 135.48 97.3084 135.144 97.5538 134.696C97.7991 134.248 97.9218 133.693 97.9218 133.032C97.9218 132.371 97.7991 131.816 97.5538 131.368C97.3191 130.92 97.0044 130.584 96.6098 130.36C96.2151 130.136 95.7938 130.024 95.3458 130.024C94.8871 130.024 94.4604 130.136 94.0658 130.36C93.6711 130.584 93.3511 130.92 93.1058 131.368C92.8604 131.816 92.7378 132.371 92.7378 133.032C92.7378 133.693 92.8604 134.248 93.1058 134.696C93.3511 135.144 93.6658 135.48 94.0498 135.704C94.4444 135.928 94.8658 136.04 95.3138 136.04ZM103.048 137L100.04 129.064H101.448L103.832 135.704L106.232 129.064H107.608L104.6 137H103.048ZM112.266 137.192C111.508 137.192 110.836 137.021 110.25 136.68C109.663 136.328 109.199 135.843 108.858 135.224C108.527 134.605 108.362 133.875 108.362 133.032C108.362 132.2 108.527 131.475 108.858 130.856C109.188 130.227 109.647 129.741 110.234 129.4C110.831 129.048 111.519 128.872 112.298 128.872C113.066 128.872 113.727 129.048 114.282 129.4C114.847 129.741 115.279 130.195 115.578 130.76C115.876 131.325 116.026 131.933 116.026 132.584C116.026 132.701 116.02 132.819 116.01 132.936C116.01 133.053 116.01 133.187 116.01 133.336H109.69C109.722 133.944 109.86 134.451 110.106 134.856C110.362 135.251 110.676 135.549 111.05 135.752C111.434 135.955 111.839 136.056 112.266 136.056C112.82 136.056 113.284 135.928 113.658 135.672C114.031 135.416 114.303 135.069 114.474 134.632H115.802C115.588 135.368 115.178 135.981 114.57 136.472C113.972 136.952 113.204 137.192 112.266 137.192ZM112.266 130.008C111.626 130.008 111.055 130.205 110.554 130.6C110.063 130.984 109.78 131.549 109.706 132.296H114.698C114.666 131.581 114.42 131.021 113.962 130.616C113.503 130.211 112.938 130.008 112.266 130.008ZM120.847 137.192C119.898 137.192 119.108 136.952 118.479 136.472C117.85 135.992 117.482 135.341 117.375 134.52H118.751C118.836 134.936 119.055 135.299 119.407 135.608C119.77 135.907 120.255 136.056 120.863 136.056C121.428 136.056 121.844 135.939 122.111 135.704C122.378 135.459 122.511 135.171 122.511 134.84C122.511 134.36 122.335 134.04 121.983 133.88C121.642 133.72 121.156 133.576 120.527 133.448C120.1 133.363 119.674 133.24 119.247 133.08C118.82 132.92 118.463 132.696 118.175 132.408C117.887 132.109 117.743 131.72 117.743 131.24C117.743 130.547 117.999 129.981 118.511 129.544C119.034 129.096 119.738 128.872 120.623 128.872C121.466 128.872 122.154 129.085 122.687 129.512C123.231 129.928 123.546 130.525 123.631 131.304H122.303C122.25 130.899 122.074 130.584 121.775 130.36C121.487 130.125 121.098 130.008 120.607 130.008C120.127 130.008 119.754 130.109 119.487 130.312C119.231 130.515 119.103 130.781 119.103 131.112C119.103 131.432 119.268 131.683 119.599 131.864C119.94 132.045 120.399 132.2 120.975 132.328C121.466 132.435 121.93 132.568 122.367 132.728C122.815 132.877 123.178 133.107 123.455 133.416C123.743 133.715 123.887 134.152 123.887 134.728C123.898 135.443 123.626 136.035 123.071 136.504C122.527 136.963 121.786 137.192 120.847 137.192ZM130.122 137V125.8H136.938V126.904H131.466V130.84H136.122V131.928H131.466V137H130.122ZM139.404 127.304C139.138 127.304 138.914 127.219 138.732 127.048C138.562 126.867 138.476 126.643 138.476 126.376C138.476 126.12 138.562 125.907 138.732 125.736C138.914 125.565 139.138 125.48 139.404 125.48C139.66 125.48 139.879 125.565 140.06 125.736C140.242 125.907 140.332 126.12 140.332 126.376C140.332 126.643 140.242 126.867 140.06 127.048C139.879 127.219 139.66 127.304 139.404 127.304ZM138.732 137V129.064H140.076V137H138.732ZM142.417 137V129.064H143.633L143.713 130.488C143.969 129.987 144.337 129.592 144.817 129.304C145.297 129.016 145.841 128.872 146.449 128.872C147.387 128.872 148.134 129.16 148.689 129.736C149.254 130.301 149.536 131.176 149.536 132.36V137H148.193V132.504C148.193 130.851 147.51 130.024 146.145 130.024C145.462 130.024 144.891 130.275 144.433 130.776C143.985 131.267 143.761 131.971 143.761 132.888V137H142.417ZM154.213 137.192C153.551 137.192 153.002 137.08 152.565 136.856C152.127 136.632 151.802 136.333 151.589 135.96C151.375 135.587 151.269 135.181 151.269 134.744C151.269 133.933 151.578 133.309 152.197 132.872C152.815 132.435 153.658 132.216 154.725 132.216H156.869V132.12C156.869 131.427 156.687 130.904 156.325 130.552C155.962 130.189 155.477 130.008 154.869 130.008C154.346 130.008 153.893 130.141 153.509 130.408C153.135 130.664 152.901 131.043 152.805 131.544H151.429C151.482 130.968 151.674 130.483 152.005 130.088C152.346 129.693 152.767 129.395 153.269 129.192C153.77 128.979 154.303 128.872 154.869 128.872C155.978 128.872 156.81 129.171 157.365 129.768C157.93 130.355 158.213 131.139 158.213 132.12V137H157.013L156.933 135.576C156.709 136.024 156.378 136.408 155.941 136.728C155.514 137.037 154.938 137.192 154.213 137.192ZM154.421 136.056C154.933 136.056 155.37 135.923 155.733 135.656C156.106 135.389 156.389 135.043 156.581 134.616C156.773 134.189 156.869 133.741 156.869 133.272V133.256H154.837C154.047 133.256 153.487 133.395 153.157 133.672C152.837 133.939 152.677 134.275 152.677 134.68C152.677 135.096 152.826 135.432 153.125 135.688C153.434 135.933 153.866 136.056 154.421 136.056ZM160.229 137V129.064H161.445L161.525 130.488C161.781 129.987 162.149 129.592 162.629 129.304C163.109 129.016 163.653 128.872 164.261 128.872C165.2 128.872 165.946 129.16 166.501 129.736C167.066 130.301 167.349 131.176 167.349 132.36V137H166.005V132.504C166.005 130.851 165.322 130.024 163.957 130.024C163.274 130.024 162.704 130.275 162.245 130.776C161.797 131.267 161.573 131.971 161.573 132.888V137H160.229ZM173.033 137.192C172.276 137.192 171.593 137.021 170.985 136.68C170.388 136.328 169.913 135.843 169.561 135.224C169.22 134.595 169.049 133.864 169.049 133.032C169.049 132.2 169.22 131.475 169.561 130.856C169.913 130.227 170.388 129.741 170.985 129.4C171.593 129.048 172.276 128.872 173.033 128.872C173.972 128.872 174.761 129.117 175.401 129.608C176.052 130.099 176.463 130.755 176.633 131.576H175.257C175.151 131.085 174.889 130.707 174.473 130.44C174.057 130.163 173.572 130.024 173.017 130.024C172.569 130.024 172.148 130.136 171.753 130.36C171.359 130.584 171.039 130.92 170.793 131.368C170.548 131.816 170.425 132.371 170.425 133.032C170.425 133.693 170.548 134.248 170.793 134.696C171.039 135.144 171.359 135.485 171.753 135.72C172.148 135.944 172.569 136.056 173.017 136.056C173.572 136.056 174.057 135.923 174.473 135.656C174.889 135.379 175.151 134.989 175.257 134.488H176.633C176.473 135.288 176.068 135.939 175.417 136.44C174.767 136.941 173.972 137.192 173.033 137.192ZM179.326 127.304C179.06 127.304 178.836 127.219 178.654 127.048C178.484 126.867 178.398 126.643 178.398 126.376C178.398 126.12 178.484 125.907 178.654 125.736C178.836 125.565 179.06 125.48 179.326 125.48C179.582 125.48 179.801 125.565 179.982 125.736C180.164 125.907 180.254 126.12 180.254 126.376C180.254 126.643 180.164 126.867 179.982 127.048C179.801 127.219 179.582 127.304 179.326 127.304ZM178.654 137V129.064H179.998V137H178.654ZM184.978 137.192C184.317 137.192 183.768 137.08 183.33 136.856C182.893 136.632 182.568 136.333 182.354 135.96C182.141 135.587 182.034 135.181 182.034 134.744C182.034 133.933 182.344 133.309 182.962 132.872C183.581 132.435 184.424 132.216 185.49 132.216H187.634V132.12C187.634 131.427 187.453 130.904 187.09 130.552C186.728 130.189 186.242 130.008 185.634 130.008C185.112 130.008 184.658 130.141 184.274 130.408C183.901 130.664 183.666 131.043 183.57 131.544H182.194C182.248 130.968 182.44 130.483 182.77 130.088C183.112 129.693 183.533 129.395 184.034 129.192C184.536 128.979 185.069 128.872 185.634 128.872C186.744 128.872 187.576 129.171 188.13 129.768C188.696 130.355 188.978 131.139 188.978 132.12V137H187.778L187.698 135.576C187.474 136.024 187.144 136.408 186.706 136.728C186.28 137.037 185.704 137.192 184.978 137.192ZM185.186 136.056C185.698 136.056 186.136 135.923 186.498 135.656C186.872 135.389 187.154 135.043 187.346 134.616C187.538 134.189 187.634 133.741 187.634 133.272V133.256H185.602C184.813 133.256 184.253 133.395 183.922 133.672C183.602 133.939 183.442 134.275 183.442 134.68C183.442 135.096 183.592 135.432 183.89 135.688C184.2 135.933 184.632 136.056 185.186 136.056ZM190.995 137V125.48H192.339V137H190.995ZM198.856 137V125.8H200.424L204.456 133.608L208.456 125.8H210.04V137H208.696V128.2L204.952 135.4H203.944L200.2 128.216V137H198.856ZM214.963 137.192C214.301 137.192 213.752 137.08 213.315 136.856C212.877 136.632 212.552 136.333 212.339 135.96C212.125 135.587 212.019 135.181 212.019 134.744C212.019 133.933 212.328 133.309 212.947 132.872C213.565 132.435 214.408 132.216 215.475 132.216H217.619V132.12C217.619 131.427 217.437 130.904 217.075 130.552C216.712 130.189 216.227 130.008 215.619 130.008C215.096 130.008 214.643 130.141 214.259 130.408C213.885 130.664 213.651 131.043 213.555 131.544H212.179C212.232 130.968 212.424 130.483 212.755 130.088C213.096 129.693 213.517 129.395 214.019 129.192C214.52 128.979 215.053 128.872 215.619 128.872C216.728 128.872 217.56 129.171 218.115 129.768C218.68 130.355 218.963 131.139 218.963 132.12V137H217.763L217.683 135.576C217.459 136.024 217.128 136.408 216.691 136.728C216.264 137.037 215.688 137.192 214.963 137.192ZM215.171 136.056C215.683 136.056 216.12 135.923 216.483 135.656C216.856 135.389 217.139 135.043 217.331 134.616C217.523 134.189 217.619 133.741 217.619 133.272V133.256H215.587C214.797 133.256 214.237 133.395 213.907 133.672C213.587 133.939 213.427 134.275 213.427 134.68C213.427 135.096 213.576 135.432 213.875 135.688C214.184 135.933 214.616 136.056 215.171 136.056ZM220.979 137V129.064H222.195L222.275 130.488C222.531 129.987 222.899 129.592 223.379 129.304C223.859 129.016 224.403 128.872 225.011 128.872C225.95 128.872 226.696 129.16 227.251 129.736C227.816 130.301 228.099 131.176 228.099 132.36V137H226.755V132.504C226.755 130.851 226.072 130.024 224.707 130.024C224.024 130.024 223.454 130.275 222.995 130.776C222.547 131.267 222.323 131.971 222.323 132.888V137H220.979ZM232.775 137.192C232.114 137.192 231.565 137.08 231.127 136.856C230.69 136.632 230.365 136.333 230.151 135.96C229.938 135.587 229.831 135.181 229.831 134.744C229.831 133.933 230.141 133.309 230.759 132.872C231.378 132.435 232.221 132.216 233.287 132.216H235.431V132.12C235.431 131.427 235.25 130.904 234.887 130.552C234.525 130.189 234.039 130.008 233.431 130.008C232.909 130.008 232.455 130.141 232.071 130.408C231.698 130.664 231.463 131.043 231.367 131.544H229.991C230.045 130.968 230.237 130.483 230.567 130.088C230.909 129.693 231.33 129.395 231.831 129.192C232.333 128.979 232.866 128.872 233.431 128.872C234.541 128.872 235.373 129.171 235.927 129.768C236.493 130.355 236.775 131.139 236.775 132.12V137H235.575L235.495 135.576C235.271 136.024 234.941 136.408 234.503 136.728C234.077 137.037 233.501 137.192 232.775 137.192ZM232.983 136.056C233.495 136.056 233.933 135.923 234.295 135.656C234.669 135.389 234.951 135.043 235.143 134.616C235.335 134.189 235.431 133.741 235.431 133.272V133.256H233.399C232.61 133.256 232.05 133.395 231.719 133.672C231.399 133.939 231.239 134.275 231.239 134.68C231.239 135.096 231.389 135.432 231.687 135.688C231.997 135.933 232.429 136.056 232.983 136.056ZM241.928 134.504C241.48 134.504 241.069 134.445 240.696 134.328L239.896 135.08C240.013 135.165 240.157 135.24 240.328 135.304C240.509 135.357 240.765 135.411 241.096 135.464C241.426 135.507 241.89 135.555 242.488 135.608C243.554 135.683 244.317 135.928 244.776 136.344C245.234 136.76 245.464 137.304 245.464 137.976C245.464 138.435 245.336 138.872 245.08 139.288C244.834 139.704 244.45 140.045 243.928 140.312C243.416 140.579 242.754 140.712 241.944 140.712C241.229 140.712 240.594 140.616 240.039 140.424C239.485 140.243 239.053 139.96 238.743 139.576C238.434 139.203 238.28 138.728 238.28 138.152C238.28 137.853 238.36 137.528 238.52 137.176C238.68 136.835 238.978 136.509 239.416 136.2C239.181 136.104 238.978 136.003 238.808 135.896C238.648 135.779 238.498 135.651 238.36 135.512V135.144L239.72 133.8C239.09 133.267 238.776 132.563 238.776 131.688C238.776 131.165 238.898 130.691 239.144 130.264C239.389 129.837 239.746 129.501 240.216 129.256C240.685 129 241.256 128.872 241.928 128.872C242.386 128.872 242.802 128.936 243.176 129.064H246.104V130.072L244.616 130.136C244.925 130.584 245.08 131.101 245.08 131.688C245.08 132.211 244.952 132.685 244.696 133.112C244.45 133.539 244.093 133.88 243.624 134.136C243.165 134.381 242.6 134.504 241.928 134.504ZM241.928 133.4C242.493 133.4 242.941 133.256 243.272 132.968C243.613 132.669 243.784 132.243 243.784 131.688C243.784 131.144 243.613 130.728 243.272 130.44C242.941 130.141 242.493 129.992 241.928 129.992C241.352 129.992 240.893 130.141 240.552 130.44C240.221 130.728 240.056 131.144 240.056 131.688C240.056 132.243 240.221 132.669 240.552 132.968C240.893 133.256 241.352 133.4 241.928 133.4ZM239.592 138.024C239.592 138.557 239.816 138.952 240.264 139.208C240.712 139.475 241.272 139.608 241.944 139.608C242.605 139.608 243.133 139.464 243.528 139.176C243.933 138.888 244.136 138.504 244.136 138.024C244.136 137.683 243.997 137.384 243.72 137.128C243.442 136.883 242.93 136.739 242.184 136.696C241.597 136.653 241.09 136.6 240.664 136.536C240.226 136.771 239.938 137.021 239.799 137.288C239.661 137.565 239.592 137.811 239.592 138.024ZM250.875 137.192C250.118 137.192 249.446 137.021 248.859 136.68C248.272 136.328 247.808 135.843 247.467 135.224C247.136 134.605 246.971 133.875 246.971 133.032C246.971 132.2 247.136 131.475 247.467 130.856C247.798 130.227 248.256 129.741 248.843 129.4C249.44 129.048 250.128 128.872 250.907 128.872C251.675 128.872 252.336 129.048 252.891 129.4C253.456 129.741 253.888 130.195 254.187 130.76C254.486 131.325 254.635 131.933 254.635 132.584C254.635 132.701 254.63 132.819 254.619 132.936C254.619 133.053 254.619 133.187 254.619 133.336H248.299C248.331 133.944 248.47 134.451 248.715 134.856C248.971 135.251 249.286 135.549 249.659 135.752C250.043 135.955 250.448 136.056 250.875 136.056C251.43 136.056 251.894 135.928 252.267 135.672C252.64 135.416 252.912 135.069 253.083 134.632H254.411C254.198 135.368 253.787 135.981 253.179 136.472C252.582 136.952 251.814 137.192 250.875 137.192ZM250.875 130.008C250.235 130.008 249.664 130.205 249.163 130.6C248.672 130.984 248.39 131.549 248.315 132.296H253.307C253.275 131.581 253.03 131.021 252.571 130.616C252.112 130.211 251.547 130.008 250.875 130.008ZM256.417 137V129.064H257.633L257.729 130.216C257.985 129.789 258.326 129.459 258.753 129.224C259.179 128.989 259.659 128.872 260.193 128.872C260.822 128.872 261.361 129 261.809 129.256C262.267 129.512 262.619 129.901 262.865 130.424C263.142 129.944 263.521 129.565 264.001 129.288C264.491 129.011 265.019 128.872 265.585 128.872C266.534 128.872 267.291 129.16 267.857 129.736C268.422 130.301 268.705 131.176 268.705 132.36V137H267.377V132.504C267.377 131.683 267.211 131.064 266.881 130.648C266.55 130.232 266.075 130.024 265.457 130.024C264.817 130.024 264.283 130.275 263.857 130.776C263.441 131.267 263.233 131.971 263.233 132.888V137H261.889V132.504C261.889 131.683 261.723 131.064 261.393 130.648C261.062 130.232 260.587 130.024 259.969 130.024C259.339 130.024 258.811 130.275 258.385 130.776C257.969 131.267 257.761 131.971 257.761 132.888V137H256.417ZM274.297 137.192C273.54 137.192 272.868 137.021 272.281 136.68C271.694 136.328 271.23 135.843 270.889 135.224C270.558 134.605 270.393 133.875 270.393 133.032C270.393 132.2 270.558 131.475 270.889 130.856C271.22 130.227 271.678 129.741 272.265 129.4C272.862 129.048 273.55 128.872 274.329 128.872C275.097 128.872 275.758 129.048 276.313 129.4C276.878 129.741 277.31 130.195 277.609 130.76C277.908 131.325 278.057 131.933 278.057 132.584C278.057 132.701 278.052 132.819 278.041 132.936C278.041 133.053 278.041 133.187 278.041 133.336H271.721C271.753 133.944 271.892 134.451 272.137 134.856C272.393 135.251 272.708 135.549 273.081 135.752C273.465 135.955 273.87 136.056 274.297 136.056C274.852 136.056 275.316 135.928 275.689 135.672C276.062 135.416 276.334 135.069 276.505 134.632H277.833C277.62 135.368 277.209 135.981 276.601 136.472C276.004 136.952 275.236 137.192 274.297 137.192ZM274.297 130.008C273.657 130.008 273.086 130.205 272.585 130.6C272.094 130.984 271.812 131.549 271.737 132.296H276.729C276.697 131.581 276.452 131.021 275.993 130.616C275.534 130.211 274.969 130.008 274.297 130.008ZM279.838 137V129.064H281.054L281.134 130.488C281.39 129.987 281.758 129.592 282.238 129.304C282.718 129.016 283.262 128.872 283.87 128.872C284.809 128.872 285.556 129.16 286.11 129.736C286.676 130.301 286.958 131.176 286.958 132.36V137H285.614V132.504C285.614 130.851 284.932 130.024 283.566 130.024C282.884 130.024 282.313 130.275 281.854 130.776C281.406 131.267 281.182 131.971 281.182 132.888V137H279.838Z" fill="black"/>
<rect x="161.581" y="166.817" width="203" height="50" rx="25" fill="#E9FFFD"/>
<rect x="161.581" y="166.817" width="203" height="50" rx="25" stroke="#00DDEF"/>
<path d="M187.265 197.317V186.117H194.081V187.221H188.609V191.157H193.265V192.245H188.609V197.317H187.265ZM197.825 197.509C197.164 197.509 196.614 197.397 196.177 197.173C195.74 196.949 195.414 196.65 195.201 196.277C194.988 195.904 194.881 195.498 194.881 195.061C194.881 194.25 195.19 193.626 195.809 193.189C196.428 192.752 197.27 192.533 198.337 192.533H200.481V192.437C200.481 191.744 200.3 191.221 199.937 190.869C199.574 190.506 199.089 190.325 198.481 190.325C197.958 190.325 197.505 190.458 197.121 190.725C196.748 190.981 196.513 191.36 196.417 191.861H195.041C195.094 191.285 195.286 190.8 195.617 190.405C195.958 190.01 196.38 189.712 196.881 189.509C197.382 189.296 197.916 189.189 198.481 189.189C199.59 189.189 200.422 189.488 200.977 190.085C201.542 190.672 201.825 191.456 201.825 192.437V197.317H200.625L200.545 195.893C200.321 196.341 199.99 196.725 199.553 197.045C199.126 197.354 198.55 197.509 197.825 197.509ZM198.033 196.373C198.545 196.373 198.982 196.24 199.345 195.973C199.718 195.706 200.001 195.36 200.193 194.933C200.385 194.506 200.481 194.058 200.481 193.589V193.573H198.449C197.66 193.573 197.1 193.712 196.769 193.989C196.449 194.256 196.289 194.592 196.289 194.997C196.289 195.413 196.438 195.749 196.737 196.005C197.046 196.25 197.478 196.373 198.033 196.373ZM207.489 197.509C206.732 197.509 206.049 197.338 205.441 196.997C204.844 196.645 204.369 196.16 204.017 195.541C203.676 194.912 203.505 194.181 203.505 193.349C203.505 192.517 203.676 191.792 204.017 191.173C204.369 190.544 204.844 190.058 205.441 189.717C206.049 189.365 206.732 189.189 207.489 189.189C208.428 189.189 209.217 189.434 209.857 189.925C210.508 190.416 210.919 191.072 211.089 191.893H209.713C209.607 191.402 209.345 191.024 208.929 190.757C208.513 190.48 208.028 190.341 207.473 190.341C207.025 190.341 206.604 190.453 206.209 190.677C205.815 190.901 205.495 191.237 205.249 191.685C205.004 192.133 204.881 192.688 204.881 193.349C204.881 194.01 205.004 194.565 205.249 195.013C205.495 195.461 205.815 195.802 206.209 196.037C206.604 196.261 207.025 196.373 207.473 196.373C208.028 196.373 208.513 196.24 208.929 195.973C209.345 195.696 209.607 195.306 209.713 194.805H211.089C210.929 195.605 210.524 196.256 209.873 196.757C209.223 197.258 208.428 197.509 207.489 197.509ZM213.782 187.621C213.516 187.621 213.292 187.536 213.11 187.365C212.94 187.184 212.854 186.96 212.854 186.693C212.854 186.437 212.94 186.224 213.11 186.053C213.292 185.882 213.516 185.797 213.782 185.797C214.038 185.797 214.257 185.882 214.438 186.053C214.62 186.224 214.71 186.437 214.71 186.693C214.71 186.96 214.62 187.184 214.438 187.365C214.257 187.536 214.038 187.621 213.782 187.621ZM213.11 197.317V189.381H214.454V197.317H213.11ZM216.794 197.317V185.797H218.138V197.317H216.794ZM221.157 187.621C220.891 187.621 220.667 187.536 220.485 187.365C220.315 187.184 220.229 186.96 220.229 186.693C220.229 186.437 220.315 186.224 220.485 186.053C220.667 185.882 220.891 185.797 221.157 185.797C221.413 185.797 221.632 185.882 221.813 186.053C221.995 186.224 222.085 186.437 222.085 186.693C222.085 186.96 221.995 187.184 221.813 187.365C221.632 187.536 221.413 187.621 221.157 187.621ZM220.485 197.317V189.381H221.829V197.317H220.485ZM227.305 197.317C226.58 197.317 226.009 197.141 225.593 196.789C225.177 196.437 224.969 195.802 224.969 194.885V190.517H223.593V189.381H224.969L225.145 187.477H226.313V189.381H228.649V190.517H226.313V194.885C226.313 195.386 226.415 195.728 226.617 195.909C226.82 196.08 227.177 196.165 227.689 196.165H228.521V197.317H227.305ZM232.997 197.509C232.336 197.509 231.786 197.397 231.349 197.173C230.912 196.949 230.586 196.65 230.373 196.277C230.16 195.904 230.053 195.498 230.053 195.061C230.053 194.25 230.362 193.626 230.981 193.189C231.6 192.752 232.442 192.533 233.509 192.533H235.653V192.437C235.653 191.744 235.472 191.221 235.109 190.869C234.746 190.506 234.261 190.325 233.653 190.325C233.13 190.325 232.677 190.458 232.293 190.725C231.92 190.981 231.685 191.36 231.589 191.861H230.213C230.266 191.285 230.458 190.8 230.789 190.405C231.13 190.01 231.552 189.712 232.053 189.509C232.554 189.296 233.088 189.189 233.653 189.189C234.762 189.189 235.594 189.488 236.149 190.085C236.714 190.672 236.997 191.456 236.997 192.437V197.317H235.797L235.717 195.893C235.493 196.341 235.162 196.725 234.725 197.045C234.298 197.354 233.722 197.509 232.997 197.509ZM233.205 196.373C233.717 196.373 234.154 196.24 234.517 195.973C234.89 195.706 235.173 195.36 235.365 194.933C235.557 194.506 235.653 194.058 235.653 193.589V193.573H233.621C232.832 193.573 232.272 193.712 231.941 193.989C231.621 194.256 231.461 194.592 231.461 194.997C231.461 195.413 231.61 195.749 231.909 196.005C232.218 196.25 232.65 196.373 233.205 196.373ZM241.93 197.317C241.205 197.317 240.634 197.141 240.218 196.789C239.802 196.437 239.594 195.802 239.594 194.885V190.517H238.218V189.381H239.594L239.77 187.477H240.938V189.381H243.274V190.517H240.938V194.885C240.938 195.386 241.04 195.728 241.242 195.909C241.445 196.08 241.802 196.165 242.314 196.165H243.146V197.317H241.93ZM248.331 197.509C247.574 197.509 246.902 197.338 246.315 196.997C245.729 196.645 245.265 196.16 244.923 195.541C244.593 194.922 244.427 194.192 244.427 193.349C244.427 192.517 244.593 191.792 244.923 191.173C245.254 190.544 245.713 190.058 246.299 189.717C246.897 189.365 247.585 189.189 248.363 189.189C249.131 189.189 249.793 189.365 250.347 189.717C250.913 190.058 251.345 190.512 251.643 191.077C251.942 191.642 252.091 192.25 252.091 192.901C252.091 193.018 252.086 193.136 252.075 193.253C252.075 193.37 252.075 193.504 252.075 193.653H245.755C245.787 194.261 245.926 194.768 246.171 195.173C246.427 195.568 246.742 195.866 247.115 196.069C247.499 196.272 247.905 196.373 248.331 196.373C248.886 196.373 249.35 196.245 249.723 195.989C250.097 195.733 250.369 195.386 250.539 194.949H251.867C251.654 195.685 251.243 196.298 250.635 196.789C250.038 197.269 249.27 197.509 248.331 197.509ZM248.331 190.325C247.691 190.325 247.121 190.522 246.619 190.917C246.129 191.301 245.846 191.866 245.771 192.613H250.763C250.731 191.898 250.486 191.338 250.027 190.933C249.569 190.528 249.003 190.325 248.331 190.325ZM256.913 197.509C255.963 197.509 255.174 197.269 254.545 196.789C253.915 196.309 253.547 195.658 253.441 194.837H254.817C254.902 195.253 255.121 195.616 255.473 195.925C255.835 196.224 256.321 196.373 256.929 196.373C257.494 196.373 257.91 196.256 258.177 196.021C258.443 195.776 258.577 195.488 258.577 195.157C258.577 194.677 258.401 194.357 258.049 194.197C257.707 194.037 257.222 193.893 256.593 193.765C256.166 193.68 255.739 193.557 255.313 193.397C254.886 193.237 254.529 193.013 254.241 192.725C253.953 192.426 253.809 192.037 253.809 191.557C253.809 190.864 254.065 190.298 254.577 189.861C255.099 189.413 255.803 189.189 256.689 189.189C257.531 189.189 258.219 189.402 258.753 189.829C259.297 190.245 259.611 190.842 259.697 191.621H258.369C258.315 191.216 258.139 190.901 257.841 190.677C257.553 190.442 257.163 190.325 256.673 190.325C256.193 190.325 255.819 190.426 255.553 190.629C255.297 190.832 255.169 191.098 255.169 191.429C255.169 191.749 255.334 192 255.665 192.181C256.006 192.362 256.465 192.517 257.041 192.645C257.531 192.752 257.995 192.885 258.433 193.045C258.881 193.194 259.243 193.424 259.521 193.733C259.809 194.032 259.953 194.469 259.953 195.045C259.963 195.76 259.691 196.352 259.137 196.821C258.593 197.28 257.851 197.509 256.913 197.509ZM266.187 197.317V186.117H270.123C270.912 186.117 271.563 186.245 272.075 186.501C272.598 186.746 272.987 187.088 273.243 187.525C273.499 187.952 273.627 188.432 273.627 188.965C273.627 189.69 273.43 190.261 273.035 190.677C272.651 191.093 272.187 191.381 271.643 191.541C272.059 191.616 272.438 191.781 272.779 192.037C273.12 192.293 273.387 192.613 273.579 192.997C273.782 193.381 273.883 193.802 273.883 194.261C273.883 194.826 273.744 195.344 273.467 195.813C273.19 196.272 272.779 196.64 272.235 196.917C271.691 197.184 271.03 197.317 270.251 197.317H266.187ZM267.531 191.013H270.027C270.742 191.013 271.291 190.848 271.675 190.517C272.059 190.176 272.251 189.706 272.251 189.109C272.251 188.544 272.059 188.09 271.675 187.749C271.302 187.408 270.736 187.237 269.979 187.237H267.531V191.013ZM267.531 196.197H270.107C270.875 196.197 271.467 196.021 271.883 195.669C272.299 195.306 272.507 194.805 272.507 194.165C272.507 193.536 272.288 193.034 271.851 192.661C271.414 192.277 270.822 192.085 270.075 192.085H267.531V196.197ZM278.628 197.509C277.689 197.509 276.943 197.226 276.388 196.661C275.833 196.085 275.556 195.205 275.556 194.021V189.381H276.9V193.877C276.9 195.53 277.577 196.357 278.932 196.357C279.625 196.357 280.196 196.112 280.644 195.621C281.103 195.12 281.332 194.41 281.332 193.493V189.381H282.676V197.317H281.46L281.364 195.893C281.119 196.394 280.751 196.789 280.26 197.077C279.78 197.365 279.236 197.509 278.628 197.509ZM288.488 197.509C287.699 197.509 287.006 197.328 286.408 196.965C285.822 196.602 285.363 196.106 285.032 195.477C284.712 194.848 284.552 194.133 284.552 193.333C284.552 192.533 284.718 191.824 285.048 191.205C285.379 190.576 285.838 190.085 286.424 189.733C287.011 189.37 287.704 189.189 288.504 189.189C289.155 189.189 289.731 189.322 290.232 189.589C290.734 189.856 291.123 190.229 291.4 190.709V185.797H292.744V197.317H291.528L291.4 196.005C291.144 196.389 290.776 196.736 290.296 197.045C289.816 197.354 289.214 197.509 288.488 197.509ZM288.632 196.341C289.166 196.341 289.635 196.218 290.04 195.973C290.456 195.717 290.776 195.365 291 194.917C291.235 194.469 291.352 193.946 291.352 193.349C291.352 192.752 291.235 192.229 291 191.781C290.776 191.333 290.456 190.986 290.04 190.741C289.635 190.485 289.166 190.357 288.632 190.357C288.11 190.357 287.64 190.485 287.224 190.741C286.819 190.986 286.499 191.333 286.264 191.781C286.04 192.229 285.928 192.752 285.928 193.349C285.928 193.946 286.04 194.469 286.264 194.917C286.499 195.365 286.819 195.717 287.224 195.973C287.64 196.218 288.11 196.341 288.632 196.341ZM298.071 194.821C297.623 194.821 297.212 194.762 296.839 194.645L296.039 195.397C296.156 195.482 296.3 195.557 296.471 195.621C296.652 195.674 296.908 195.728 297.239 195.781C297.57 195.824 298.034 195.872 298.631 195.925C299.698 196 300.46 196.245 300.919 196.661C301.378 197.077 301.607 197.621 301.607 198.293C301.607 198.752 301.479 199.189 301.223 199.605C300.978 200.021 300.594 200.362 300.071 200.629C299.559 200.896 298.898 201.029 298.087 201.029C297.372 201.029 296.738 200.933 296.183 200.741C295.628 200.56 295.196 200.277 294.887 199.893C294.578 199.52 294.423 199.045 294.423 198.469C294.423 198.17 294.503 197.845 294.663 197.493C294.823 197.152 295.122 196.826 295.559 196.517C295.324 196.421 295.122 196.32 294.951 196.213C294.791 196.096 294.642 195.968 294.503 195.829V195.461L295.863 194.117C295.234 193.584 294.919 192.88 294.919 192.005C294.919 191.482 295.042 191.008 295.287 190.581C295.532 190.154 295.89 189.818 296.359 189.573C296.828 189.317 297.399 189.189 298.071 189.189C298.53 189.189 298.946 189.253 299.319 189.381H302.247V190.389L300.759 190.453C301.068 190.901 301.223 191.418 301.223 192.005C301.223 192.528 301.095 193.002 300.839 193.429C300.594 193.856 300.236 194.197 299.767 194.453C299.308 194.698 298.743 194.821 298.071 194.821ZM298.071 193.717C298.636 193.717 299.084 193.573 299.415 193.285C299.756 192.986 299.927 192.56 299.927 192.005C299.927 191.461 299.756 191.045 299.415 190.757C299.084 190.458 298.636 190.309 298.071 190.309C297.495 190.309 297.036 190.458 296.695 190.757C296.364 191.045 296.199 191.461 296.199 192.005C296.199 192.56 296.364 192.986 296.695 193.285C297.036 193.573 297.495 193.717 298.071 193.717ZM295.735 198.341C295.735 198.874 295.959 199.269 296.407 199.525C296.855 199.792 297.415 199.925 298.087 199.925C298.748 199.925 299.276 199.781 299.671 199.493C300.076 199.205 300.279 198.821 300.279 198.341C300.279 198 300.14 197.701 299.863 197.445C299.586 197.2 299.074 197.056 298.327 197.013C297.74 196.97 297.234 196.917 296.807 196.853C296.37 197.088 296.082 197.338 295.943 197.605C295.804 197.882 295.735 198.128 295.735 198.341ZM307.019 197.509C306.261 197.509 305.589 197.338 305.003 196.997C304.416 196.645 303.952 196.16 303.611 195.541C303.28 194.922 303.115 194.192 303.115 193.349C303.115 192.517 303.28 191.792 303.611 191.173C303.941 190.544 304.4 190.058 304.987 189.717C305.584 189.365 306.272 189.189 307.051 189.189C307.819 189.189 308.48 189.365 309.035 189.717C309.6 190.058 310.032 190.512 310.331 191.077C310.629 191.642 310.779 192.25 310.779 192.901C310.779 193.018 310.773 193.136 310.763 193.253C310.763 193.37 310.763 193.504 310.763 193.653H304.443C304.475 194.261 304.613 194.768 304.859 195.173C305.115 195.568 305.429 195.866 305.803 196.069C306.187 196.272 306.592 196.373 307.019 196.373C307.573 196.373 308.037 196.245 308.411 195.989C308.784 195.733 309.056 195.386 309.227 194.949H310.555C310.341 195.685 309.931 196.298 309.323 196.789C308.725 197.269 307.957 197.509 307.019 197.509ZM307.019 190.325C306.379 190.325 305.808 190.522 305.307 190.917C304.816 191.301 304.533 191.866 304.459 192.613H309.451C309.419 191.898 309.173 191.338 308.715 190.933C308.256 190.528 307.691 190.325 307.019 190.325ZM315.43 197.317C314.705 197.317 314.134 197.141 313.718 196.789C313.302 196.437 313.094 195.802 313.094 194.885V190.517H311.718V189.381H313.094L313.27 187.477H314.438V189.381H316.774V190.517H314.438V194.885C314.438 195.386 314.54 195.728 314.742 195.909C314.945 196.08 315.302 196.165 315.814 196.165H316.646V197.317H315.43ZM319.298 187.621C319.031 187.621 318.807 187.536 318.626 187.365C318.455 187.184 318.37 186.96 318.37 186.693C318.37 186.437 318.455 186.224 318.626 186.053C318.807 185.882 319.031 185.797 319.298 185.797C319.554 185.797 319.773 185.882 319.954 186.053C320.135 186.224 320.226 186.437 320.226 186.693C320.226 186.96 320.135 187.184 319.954 187.365C319.773 187.536 319.554 187.621 319.298 187.621ZM318.626 197.317V189.381H319.97V197.317H318.626ZM322.31 197.317V189.381H323.526L323.606 190.805C323.862 190.304 324.23 189.909 324.71 189.621C325.19 189.333 325.734 189.189 326.342 189.189C327.281 189.189 328.027 189.477 328.582 190.053C329.147 190.618 329.43 191.493 329.43 192.677V197.317H328.086V192.821C328.086 191.168 327.403 190.341 326.038 190.341C325.355 190.341 324.785 190.592 324.326 191.093C323.878 191.584 323.654 192.288 323.654 193.205V197.317H322.31ZM334.602 194.821C334.154 194.821 333.744 194.762 333.37 194.645L332.57 195.397C332.688 195.482 332.832 195.557 333.002 195.621C333.184 195.674 333.44 195.728 333.77 195.781C334.101 195.824 334.565 195.872 335.162 195.925C336.229 196 336.992 196.245 337.45 196.661C337.909 197.077 338.138 197.621 338.138 198.293C338.138 198.752 338.01 199.189 337.754 199.605C337.509 200.021 337.125 200.362 336.602 200.629C336.09 200.896 335.429 201.029 334.618 201.029C333.904 201.029 333.269 200.933 332.714 200.741C332.16 200.56 331.728 200.277 331.418 199.893C331.109 199.52 330.954 199.045 330.954 198.469C330.954 198.17 331.034 197.845 331.194 197.493C331.354 197.152 331.653 196.826 332.09 196.517C331.856 196.421 331.653 196.32 331.482 196.213C331.322 196.096 331.173 195.968 331.034 195.829V195.461L332.394 194.117C331.765 193.584 331.45 192.88 331.45 192.005C331.45 191.482 331.573 191.008 331.818 190.581C332.064 190.154 332.421 189.818 332.89 189.573C333.36 189.317 333.93 189.189 334.602 189.189C335.061 189.189 335.477 189.253 335.85 189.381H338.778V190.389L337.29 190.453C337.6 190.901 337.754 191.418 337.754 192.005C337.754 192.528 337.626 193.002 337.37 193.429C337.125 193.856 336.768 194.197 336.298 194.453C335.84 194.698 335.274 194.821 334.602 194.821ZM334.602 193.717C335.168 193.717 335.616 193.573 335.946 193.285C336.288 192.986 336.458 192.56 336.458 192.005C336.458 191.461 336.288 191.045 335.946 190.757C335.616 190.458 335.168 190.309 334.602 190.309C334.026 190.309 333.568 190.458 333.226 190.757C332.896 191.045 332.73 191.461 332.73 192.005C332.73 192.56 332.896 192.986 333.226 193.285C333.568 193.573 334.026 193.717 334.602 193.717ZM332.266 198.341C332.266 198.874 332.49 199.269 332.938 199.525C333.386 199.792 333.946 199.925 334.618 199.925C335.28 199.925 335.808 199.781 336.202 199.493C336.608 199.205 336.81 198.821 336.81 198.341C336.81 198 336.672 197.701 336.394 197.445C336.117 197.2 335.605 197.056 334.858 197.013C334.272 196.97 333.765 196.917 333.338 196.853C332.901 197.088 332.613 197.338 332.474 197.605C332.336 197.882 332.266 198.128 332.266 198.341Z" fill="#001419"/>
<rect x="32.5" y="225" width="256" height="50" rx="25" fill="#EEF1FF"/>
<rect x="32.5" y="225" width="256" height="50" rx="25" stroke="#736CF1"/>
<path d="M58.184 255.5V244.3H59.528V255.5H58.184ZM61.8228 255.5V247.564H63.0388L63.1188 248.988C63.3748 248.487 63.7428 248.092 64.2228 247.804C64.7028 247.516 65.2468 247.372 65.8548 247.372C66.7934 247.372 67.5401 247.66 68.0948 248.236C68.6601 248.801 68.9427 249.676 68.9427 250.86V255.5H67.5988V251.004C67.5988 249.351 66.9161 248.524 65.5508 248.524C64.8681 248.524 64.2974 248.775 63.8388 249.276C63.3908 249.767 63.1668 250.471 63.1668 251.388V255.5H61.8228ZM74.627 255.692C73.8697 255.692 73.187 255.521 72.579 255.18C71.9817 254.828 71.507 254.343 71.155 253.724C70.8137 253.095 70.643 252.364 70.643 251.532C70.643 250.7 70.8137 249.975 71.155 249.356C71.507 248.727 71.9817 248.241 72.579 247.9C73.187 247.548 73.8697 247.372 74.627 247.372C75.5657 247.372 76.355 247.617 76.995 248.108C77.6457 248.599 78.0563 249.255 78.227 250.076H76.851C76.7443 249.585 76.483 249.207 76.067 248.94C75.651 248.663 75.1657 248.524 74.611 248.524C74.163 248.524 73.7417 248.636 73.347 248.86C72.9523 249.084 72.6323 249.42 72.387 249.868C72.1417 250.316 72.019 250.871 72.019 251.532C72.019 252.193 72.1417 252.748 72.387 253.196C72.6323 253.644 72.9523 253.985 73.347 254.22C73.7417 254.444 74.163 254.556 74.611 254.556C75.1657 254.556 75.651 254.423 76.067 254.156C76.483 253.879 76.7443 253.489 76.851 252.988H78.227C78.067 253.788 77.6617 254.439 77.011 254.94C76.3603 255.441 75.5657 255.692 74.627 255.692ZM80.104 255.5V247.564H81.32L81.432 249.084C81.6773 248.561 82.0507 248.145 82.552 247.836C83.0533 247.527 83.672 247.372 84.408 247.372V248.78H84.04C83.5707 248.78 83.1387 248.865 82.744 249.036C82.3493 249.196 82.0347 249.473 81.8 249.868C81.5653 250.263 81.448 250.807 81.448 251.5V255.5H80.104ZM89.1876 255.692C88.4303 255.692 87.7583 255.521 87.1716 255.18C86.585 254.828 86.121 254.343 85.7796 253.724C85.449 253.105 85.2836 252.375 85.2836 251.532C85.2836 250.7 85.449 249.975 85.7796 249.356C86.1103 248.727 86.569 248.241 87.1556 247.9C87.753 247.548 88.441 247.372 89.2196 247.372C89.9876 247.372 90.649 247.548 91.2036 247.9C91.769 248.241 92.201 248.695 92.4996 249.26C92.7983 249.825 92.9476 250.433 92.9476 251.084C92.9476 251.201 92.9423 251.319 92.9316 251.436C92.9316 251.553 92.9316 251.687 92.9316 251.836H86.6116C86.6436 252.444 86.7823 252.951 87.0276 253.356C87.2836 253.751 87.5983 254.049 87.9716 254.252C88.3556 254.455 88.761 254.556 89.1876 254.556C89.7423 254.556 90.2063 254.428 90.5796 254.172C90.953 253.916 91.225 253.569 91.3956 253.132H92.7236C92.5103 253.868 92.0996 254.481 91.4916 254.972C90.8943 255.452 90.1263 255.692 89.1876 255.692ZM89.1876 248.508C88.5476 248.508 87.977 248.705 87.4756 249.1C86.985 249.484 86.7023 250.049 86.6276 250.796H91.6196C91.5876 250.081 91.3423 249.521 90.8836 249.116C90.425 248.711 89.8596 248.508 89.1876 248.508ZM97.369 255.692C96.7077 255.692 96.1583 255.58 95.721 255.356C95.2837 255.132 94.9583 254.833 94.745 254.46C94.5317 254.087 94.425 253.681 94.425 253.244C94.425 252.433 94.7343 251.809 95.353 251.372C95.9717 250.935 96.8143 250.716 97.881 250.716H100.025V250.62C100.025 249.927 99.8437 249.404 99.481 249.052C99.1183 248.689 98.633 248.508 98.025 248.508C97.5023 248.508 97.049 248.641 96.665 248.908C96.2917 249.164 96.057 249.543 95.961 250.044H94.585C94.6383 249.468 94.8303 248.983 95.161 248.588C95.5023 248.193 95.9237 247.895 96.425 247.692C96.9263 247.479 97.4597 247.372 98.025 247.372C99.1343 247.372 99.9663 247.671 100.521 248.268C101.086 248.855 101.369 249.639 101.369 250.62V255.5H100.169L100.089 254.076C99.865 254.524 99.5343 254.908 99.097 255.228C98.6703 255.537 98.0943 255.692 97.369 255.692ZM97.577 254.556C98.089 254.556 98.5263 254.423 98.889 254.156C99.2623 253.889 99.545 253.543 99.737 253.116C99.929 252.689 100.025 252.241 100.025 251.772V251.756H97.993C97.2037 251.756 96.6437 251.895 96.313 252.172C95.993 252.439 95.833 252.775 95.833 253.18C95.833 253.596 95.9823 253.932 96.281 254.188C96.5903 254.433 97.0223 254.556 97.577 254.556ZM106.425 255.692C105.476 255.692 104.687 255.452 104.057 254.972C103.428 254.492 103.06 253.841 102.953 253.02H104.329C104.415 253.436 104.633 253.799 104.985 254.108C105.348 254.407 105.833 254.556 106.441 254.556C107.007 254.556 107.423 254.439 107.689 254.204C107.956 253.959 108.089 253.671 108.089 253.34C108.089 252.86 107.913 252.54 107.561 252.38C107.22 252.22 106.735 252.076 106.105 251.948C105.679 251.863 105.252 251.74 104.825 251.58C104.399 251.42 104.041 251.196 103.753 250.908C103.465 250.609 103.321 250.22 103.321 249.74C103.321 249.047 103.577 248.481 104.089 248.044C104.612 247.596 105.316 247.372 106.201 247.372C107.044 247.372 107.732 247.585 108.265 248.012C108.809 248.428 109.124 249.025 109.209 249.804H107.881C107.828 249.399 107.652 249.084 107.353 248.86C107.065 248.625 106.676 248.508 106.185 248.508C105.705 248.508 105.332 248.609 105.065 248.812C104.809 249.015 104.681 249.281 104.681 249.612C104.681 249.932 104.847 250.183 105.177 250.364C105.519 250.545 105.977 250.7 106.553 250.828C107.044 250.935 107.508 251.068 107.945 251.228C108.393 251.377 108.756 251.607 109.033 251.916C109.321 252.215 109.465 252.652 109.465 253.228C109.476 253.943 109.204 254.535 108.649 255.004C108.105 255.463 107.364 255.692 106.425 255.692ZM114.953 255.692C114.196 255.692 113.524 255.521 112.937 255.18C112.351 254.828 111.887 254.343 111.545 253.724C111.215 253.105 111.049 252.375 111.049 251.532C111.049 250.7 111.215 249.975 111.545 249.356C111.876 248.727 112.335 248.241 112.921 247.9C113.519 247.548 114.207 247.372 114.985 247.372C115.753 247.372 116.415 247.548 116.969 247.9C117.535 248.241 117.967 248.695 118.265 249.26C118.564 249.825 118.713 250.433 118.713 251.084C118.713 251.201 118.708 251.319 118.697 251.436C118.697 251.553 118.697 251.687 118.697 251.836H112.377C112.409 252.444 112.548 252.951 112.793 253.356C113.049 253.751 113.364 254.049 113.737 254.252C114.121 254.455 114.527 254.556 114.953 254.556C115.508 254.556 115.972 254.428 116.345 254.172C116.719 253.916 116.991 253.569 117.161 253.132H118.489C118.276 253.868 117.865 254.481 117.257 254.972C116.66 255.452 115.892 255.692 114.953 255.692ZM114.953 248.508C114.313 248.508 113.743 248.705 113.241 249.1C112.751 249.484 112.468 250.049 112.393 250.796H117.385C117.353 250.081 117.108 249.521 116.649 249.116C116.191 248.711 115.625 248.508 114.953 248.508ZM123.535 255.692C122.585 255.692 121.796 255.452 121.167 254.972C120.537 254.492 120.169 253.841 120.063 253.02H121.439C121.524 253.436 121.743 253.799 122.095 254.108C122.457 254.407 122.943 254.556 123.551 254.556C124.116 254.556 124.532 254.439 124.799 254.204C125.065 253.959 125.199 253.671 125.199 253.34C125.199 252.86 125.023 252.54 124.671 252.38C124.329 252.22 123.844 252.076 123.215 251.948C122.788 251.863 122.361 251.74 121.935 251.58C121.508 251.42 121.151 251.196 120.863 250.908C120.575 250.609 120.431 250.22 120.431 249.74C120.431 249.047 120.687 248.481 121.199 248.044C121.721 247.596 122.425 247.372 123.311 247.372C124.153 247.372 124.841 247.585 125.375 248.012C125.919 248.428 126.233 249.025 126.319 249.804H124.991C124.937 249.399 124.761 249.084 124.463 248.86C124.175 248.625 123.785 248.508 123.295 248.508C122.815 248.508 122.441 248.609 122.175 248.812C121.919 249.015 121.791 249.281 121.791 249.612C121.791 249.932 121.956 250.183 122.287 250.364C122.628 250.545 123.087 250.7 123.663 250.828C124.153 250.935 124.617 251.068 125.055 251.228C125.503 251.377 125.865 251.607 126.143 251.916C126.431 252.215 126.575 252.652 126.575 253.228C126.585 253.943 126.313 254.535 125.759 255.004C125.215 255.463 124.473 255.692 123.535 255.692ZM132.809 255.5V244.3H139.625V245.404H134.153V249.34H138.809V250.428H134.153V255.5H132.809ZM142.092 245.804C141.825 245.804 141.601 245.719 141.42 245.548C141.249 245.367 141.164 245.143 141.164 244.876C141.164 244.62 141.249 244.407 141.42 244.236C141.601 244.065 141.825 243.98 142.092 243.98C142.348 243.98 142.567 244.065 142.748 244.236C142.929 244.407 143.02 244.62 143.02 244.876C143.02 245.143 142.929 245.367 142.748 245.548C142.567 245.719 142.348 245.804 142.092 245.804ZM141.42 255.5V247.564H142.764V255.5H141.42ZM145.104 255.5V247.564H146.32L146.4 248.988C146.656 248.487 147.024 248.092 147.504 247.804C147.984 247.516 148.528 247.372 149.136 247.372C150.075 247.372 150.821 247.66 151.376 248.236C151.941 248.801 152.224 249.676 152.224 250.86V255.5H150.88V251.004C150.88 249.351 150.197 248.524 148.832 248.524C148.149 248.524 147.579 248.775 147.12 249.276C146.672 249.767 146.448 250.471 146.448 251.388V255.5H145.104ZM156.9 255.692C156.239 255.692 155.69 255.58 155.252 255.356C154.815 255.132 154.49 254.833 154.276 254.46C154.063 254.087 153.956 253.681 153.956 253.244C153.956 252.433 154.266 251.809 154.884 251.372C155.503 250.935 156.346 250.716 157.412 250.716H159.556V250.62C159.556 249.927 159.375 249.404 159.012 249.052C158.65 248.689 158.164 248.508 157.556 248.508C157.034 248.508 156.58 248.641 156.196 248.908C155.823 249.164 155.588 249.543 155.492 250.044H154.116C154.17 249.468 154.362 248.983 154.692 248.588C155.034 248.193 155.455 247.895 155.956 247.692C156.458 247.479 156.991 247.372 157.556 247.372C158.666 247.372 159.498 247.671 160.052 248.268C160.618 248.855 160.9 249.639 160.9 250.62V255.5H159.7L159.62 254.076C159.396 254.524 159.066 254.908 158.628 255.228C158.202 255.537 157.626 255.692 156.9 255.692ZM157.108 254.556C157.62 254.556 158.058 254.423 158.42 254.156C158.794 253.889 159.076 253.543 159.268 253.116C159.46 252.689 159.556 252.241 159.556 251.772V251.756H157.524C156.735 251.756 156.175 251.895 155.844 252.172C155.524 252.439 155.364 252.775 155.364 253.18C155.364 253.596 155.514 253.932 155.812 254.188C156.122 254.433 156.554 254.556 157.108 254.556ZM162.917 255.5V247.564H164.133L164.213 248.988C164.469 248.487 164.837 248.092 165.317 247.804C165.797 247.516 166.341 247.372 166.949 247.372C167.887 247.372 168.634 247.66 169.189 248.236C169.754 248.801 170.036 249.676 170.036 250.86V255.5H168.693V251.004C168.693 249.351 168.01 248.524 166.645 248.524C165.962 248.524 165.391 248.775 164.933 249.276C164.485 249.767 164.261 250.471 164.261 251.388V255.5H162.917ZM175.721 255.692C174.963 255.692 174.281 255.521 173.673 255.18C173.075 254.828 172.601 254.343 172.249 253.724C171.907 253.095 171.737 252.364 171.737 251.532C171.737 250.7 171.907 249.975 172.249 249.356C172.601 248.727 173.075 248.241 173.673 247.9C174.281 247.548 174.963 247.372 175.721 247.372C176.659 247.372 177.449 247.617 178.089 248.108C178.739 248.599 179.15 249.255 179.321 250.076H177.945C177.838 249.585 177.577 249.207 177.161 248.94C176.745 248.663 176.259 248.524 175.705 248.524C175.257 248.524 174.835 248.636 174.441 248.86C174.046 249.084 173.726 249.42 173.481 249.868C173.235 250.316 173.113 250.871 173.113 251.532C173.113 252.193 173.235 252.748 173.481 253.196C173.726 253.644 174.046 253.985 174.441 254.22C174.835 254.444 175.257 254.556 175.705 254.556C176.259 254.556 176.745 254.423 177.161 254.156C177.577 253.879 177.838 253.489 177.945 252.988H179.321C179.161 253.788 178.755 254.439 178.105 254.94C177.454 255.441 176.659 255.692 175.721 255.692ZM182.014 245.804C181.747 245.804 181.523 245.719 181.342 245.548C181.171 245.367 181.086 245.143 181.086 244.876C181.086 244.62 181.171 244.407 181.342 244.236C181.523 244.065 181.747 243.98 182.014 243.98C182.27 243.98 182.488 244.065 182.67 244.236C182.851 244.407 182.942 244.62 182.942 244.876C182.942 245.143 182.851 245.367 182.67 245.548C182.488 245.719 182.27 245.804 182.014 245.804ZM181.342 255.5V247.564H182.686V255.5H181.342ZM187.666 255.692C187.005 255.692 186.455 255.58 186.018 255.356C185.581 255.132 185.255 254.833 185.042 254.46C184.829 254.087 184.722 253.681 184.722 253.244C184.722 252.433 185.031 251.809 185.65 251.372C186.269 250.935 187.111 250.716 188.178 250.716H190.322V250.62C190.322 249.927 190.141 249.404 189.778 249.052C189.415 248.689 188.93 248.508 188.322 248.508C187.799 248.508 187.346 248.641 186.962 248.908C186.589 249.164 186.354 249.543 186.258 250.044H184.882C184.935 249.468 185.127 248.983 185.458 248.588C185.799 248.193 186.221 247.895 186.722 247.692C187.223 247.479 187.757 247.372 188.322 247.372C189.431 247.372 190.263 247.671 190.818 248.268C191.383 248.855 191.666 249.639 191.666 250.62V255.5H190.466L190.386 254.076C190.162 254.524 189.831 254.908 189.394 255.228C188.967 255.537 188.391 255.692 187.666 255.692ZM187.874 254.556C188.386 254.556 188.823 254.423 189.186 254.156C189.559 253.889 189.842 253.543 190.034 253.116C190.226 252.689 190.322 252.241 190.322 251.772V251.756H188.29C187.501 251.756 186.941 251.895 186.61 252.172C186.29 252.439 186.13 252.775 186.13 253.18C186.13 253.596 186.279 253.932 186.578 254.188C186.887 254.433 187.319 254.556 187.874 254.556ZM193.682 255.5V243.98H195.026V255.5H193.682ZM204.919 255.5L200.711 244.3H202.167L205.703 254.076L209.271 244.3H210.695L206.487 255.5H204.919ZM212.967 245.804C212.7 245.804 212.476 245.719 212.295 245.548C212.124 245.367 212.039 245.143 212.039 244.876C212.039 244.62 212.124 244.407 212.295 244.236C212.476 244.065 212.7 243.98 212.967 243.98C213.223 243.98 213.442 244.065 213.623 244.236C213.804 244.407 213.895 244.62 213.895 244.876C213.895 245.143 213.804 245.367 213.623 245.548C213.442 245.719 213.223 245.804 212.967 245.804ZM212.295 255.5V247.564H213.639V255.5H212.295ZM219.019 255.692C218.07 255.692 217.28 255.452 216.651 254.972C216.022 254.492 215.654 253.841 215.547 253.02H216.923C217.008 253.436 217.227 253.799 217.579 254.108C217.942 254.407 218.427 254.556 219.035 254.556C219.6 254.556 220.016 254.439 220.283 254.204C220.55 253.959 220.683 253.671 220.683 253.34C220.683 252.86 220.507 252.54 220.155 252.38C219.814 252.22 219.328 252.076 218.699 251.948C218.272 251.863 217.846 251.74 217.419 251.58C216.992 251.42 216.635 251.196 216.347 250.908C216.059 250.609 215.915 250.22 215.915 249.74C215.915 249.047 216.171 248.481 216.683 248.044C217.206 247.596 217.91 247.372 218.795 247.372C219.638 247.372 220.326 247.585 220.859 248.012C221.403 248.428 221.718 249.025 221.803 249.804H220.475C220.422 249.399 220.246 249.084 219.947 248.86C219.659 248.625 219.27 248.508 218.779 248.508C218.299 248.508 217.926 248.609 217.659 248.812C217.403 249.015 217.275 249.281 217.275 249.612C217.275 249.932 217.44 250.183 217.771 250.364C218.112 250.545 218.571 250.7 219.147 250.828C219.638 250.935 220.102 251.068 220.539 251.228C220.987 251.377 221.35 251.607 221.627 251.916C221.915 252.215 222.059 252.652 222.059 253.228C222.07 253.943 221.798 254.535 221.243 255.004C220.699 255.463 219.958 255.692 219.019 255.692ZM224.795 245.804C224.528 245.804 224.304 245.719 224.123 245.548C223.952 245.367 223.867 245.143 223.867 244.876C223.867 244.62 223.952 244.407 224.123 244.236C224.304 244.065 224.528 243.98 224.795 243.98C225.051 243.98 225.27 244.065 225.451 244.236C225.632 244.407 225.723 244.62 225.723 244.876C225.723 245.143 225.632 245.367 225.451 245.548C225.27 245.719 225.051 245.804 224.795 245.804ZM224.123 255.5V247.564H225.467V255.5H224.123ZM232.047 255.692C231.396 255.692 230.815 255.559 230.303 255.292C229.802 255.025 229.418 254.652 229.151 254.172L229.023 255.5H227.807V243.98H229.151V248.876C229.407 248.492 229.77 248.145 230.239 247.836C230.719 247.527 231.327 247.372 232.063 247.372C232.852 247.372 233.54 247.553 234.127 247.916C234.714 248.279 235.167 248.775 235.487 249.404C235.818 250.033 235.983 250.748 235.983 251.548C235.983 252.348 235.818 253.063 235.487 253.692C235.167 254.311 234.708 254.801 234.111 255.164C233.524 255.516 232.836 255.692 232.047 255.692ZM231.903 254.524C232.436 254.524 232.906 254.401 233.311 254.156C233.716 253.9 234.036 253.548 234.271 253.1C234.506 252.652 234.623 252.129 234.623 251.532C234.623 250.935 234.506 250.412 234.271 249.964C234.036 249.516 233.716 249.169 233.311 248.924C232.906 248.668 232.436 248.54 231.903 248.54C231.37 248.54 230.9 248.668 230.495 248.924C230.09 249.169 229.77 249.516 229.535 249.964C229.3 250.412 229.183 250.935 229.183 251.532C229.183 252.129 229.3 252.652 229.535 253.1C229.77 253.548 230.09 253.9 230.495 254.156C230.9 254.401 231.37 254.524 231.903 254.524ZM238.67 245.804C238.403 245.804 238.179 245.719 237.998 245.548C237.827 245.367 237.742 245.143 237.742 244.876C237.742 244.62 237.827 244.407 237.998 244.236C238.179 244.065 238.403 243.98 238.67 243.98C238.926 243.98 239.145 244.065 239.326 244.236C239.507 244.407 239.598 244.62 239.598 244.876C239.598 245.143 239.507 245.367 239.326 245.548C239.145 245.719 238.926 245.804 238.67 245.804ZM237.998 255.5V247.564H239.342V255.5H237.998ZM241.682 255.5V243.98H243.026V255.5H241.682ZM246.045 245.804C245.778 245.804 245.554 245.719 245.373 245.548C245.202 245.367 245.117 245.143 245.117 244.876C245.117 244.62 245.202 244.407 245.373 244.236C245.554 244.065 245.778 243.98 246.045 243.98C246.301 243.98 246.52 244.065 246.701 244.236C246.882 244.407 246.973 244.62 246.973 244.876C246.973 245.143 246.882 245.367 246.701 245.548C246.52 245.719 246.301 245.804 246.045 245.804ZM245.373 255.5V247.564H246.717V255.5H245.373ZM252.193 255.5C251.468 255.5 250.897 255.324 250.481 254.972C250.065 254.62 249.857 253.985 249.857 253.068V248.7H248.481V247.564H249.857L250.033 245.66H251.201V247.564H253.537V248.7H251.201V253.068C251.201 253.569 251.302 253.911 251.505 254.092C251.708 254.263 252.065 254.348 252.577 254.348H253.409V255.5H252.193ZM256.109 259.02L258.077 254.732H257.613L254.461 247.564H255.917L258.541 253.74L261.325 247.564H262.717L257.517 259.02H256.109Z" fill="#221B4B"/>
</svg>
