<svg width="181" height="40" viewBox="0 0 181 40" fill="none" xmlns="http://www.w3.org/2000/svg">
<path d="M35.8694 32.6821C35.8757 33.891 35.363 35.0444 34.4613 35.8495C33.5596 36.6547 32.3558 37.0342 31.1554 36.8916C28.9952 36.5719 27.4123 34.6921 27.4649 32.5091V7.41105C27.4127 5.22565 28.9996 3.34496 31.1626 3.02861C32.3618 2.88825 33.5637 3.26871 34.4637 4.07362C35.3637 4.87853 35.8755 6.03064 35.8694 7.23806V32.6821Z" fill="#F9AB00"/>
<path d="M9.4234 28.5231C11.7442 28.5231 13.6256 30.4045 13.6256 32.7253C13.6256 35.0461 11.7442 36.9276 9.4234 36.9276C7.10257 36.9276 5.22116 35.0461 5.22116 32.7253C5.22116 30.4045 7.10257 28.5231 9.4234 28.5231ZM20.4804 15.7866C18.1486 15.9144 16.3394 17.8704 16.3935 20.2051V31.4928C16.3935 34.5561 17.7414 36.4158 19.7163 36.8122C20.9562 37.0635 22.2434 36.7438 23.2216 35.9417C24.1999 35.1395 24.7655 33.9399 24.7619 32.6749V20.0105C24.764 18.8796 24.3117 17.7952 23.5066 17.001C22.7015 16.2068 21.6112 15.7692 20.4804 15.7866Z" fill="#E37400"/>
<path d="M59.4857 18.0398C59.3758 17.6951 59.2281 17.3864 59.0425 17.1136C58.8607 16.8371 58.6429 16.6023 58.3891 16.4091C58.1353 16.2121 57.8455 16.0625 57.5198 15.9602C57.1978 15.858 56.8436 15.8068 56.4573 15.8068C55.802 15.8068 55.2111 15.9754 54.6845 16.3125C54.158 16.6496 53.7414 17.1439 53.4345 17.7955C53.1315 18.4432 52.98 19.2367 52.98 20.1761C52.98 21.1193 53.1334 21.9167 53.4402 22.5682C53.747 23.2197 54.1675 23.714 54.7016 24.0511C55.2357 24.3883 55.8436 24.5568 56.5255 24.5568C57.158 24.5568 57.7092 24.428 58.1789 24.1705C58.6524 23.9129 59.0179 23.5492 59.2755 23.0795C59.5368 22.6061 59.6675 22.0492 59.6675 21.4091L60.122 21.4943H56.7925V20.0455H61.3664V21.3693C61.3664 22.3466 61.158 23.1951 60.7414 23.9148C60.3285 24.6307 59.7565 25.1837 59.0255 25.5739C58.2982 25.964 57.4649 26.1591 56.5255 26.1591C55.4724 26.1591 54.5482 25.9167 53.7527 25.4318C52.9611 24.947 52.3436 24.2595 51.9005 23.3693C51.4573 22.4754 51.2357 21.4148 51.2357 20.1875C51.2357 19.2595 51.3645 18.4261 51.622 17.6875C51.8796 16.9489 52.2414 16.322 52.7073 15.8068C53.177 15.2879 53.7281 14.892 54.3607 14.6193C54.997 14.3428 55.6921 14.2045 56.4459 14.2045C57.0747 14.2045 57.6599 14.2973 58.2016 14.483C58.747 14.6686 59.2319 14.9318 59.6561 15.2727C60.0842 15.6136 60.4383 16.0189 60.7186 16.4886C60.9989 16.9545 61.1883 17.4716 61.2868 18.0398H59.4857ZM67.1348 26.1761C66.3167 26.1761 65.6026 25.9886 64.9928 25.6136C64.3829 25.2386 63.9095 24.714 63.5723 24.0398C63.2352 23.3655 63.0667 22.5777 63.0667 21.6761C63.0667 20.7708 63.2352 19.9792 63.5723 19.3011C63.9095 18.6231 64.3829 18.0966 64.9928 17.7216C65.6026 17.3466 66.3167 17.1591 67.1348 17.1591C67.953 17.1591 68.667 17.3466 69.2769 17.7216C69.8867 18.0966 70.3602 18.6231 70.6973 19.3011C71.0345 19.9792 71.203 20.7708 71.203 21.6761C71.203 22.5777 71.0345 23.3655 70.6973 24.0398C70.3602 24.714 69.8867 25.2386 69.2769 25.6136C68.667 25.9886 67.953 26.1761 67.1348 26.1761ZM67.1405 24.75C67.6708 24.75 68.1102 24.6098 68.4587 24.3295C68.8072 24.0492 69.0648 23.6761 69.2314 23.2102C69.4019 22.7443 69.4871 22.2311 69.4871 21.6705C69.4871 21.1136 69.4019 20.6023 69.2314 20.1364C69.0648 19.6667 68.8072 19.2898 68.4587 19.0057C68.1102 18.7216 67.6708 18.5795 67.1405 18.5795C66.6064 18.5795 66.1632 18.7216 65.811 19.0057C65.4625 19.2898 65.203 19.6667 65.0326 20.1364C64.8659 20.6023 64.7826 21.1136 64.7826 21.6705C64.7826 22.2311 64.8659 22.7443 65.0326 23.2102C65.203 23.6761 65.4625 24.0492 65.811 24.3295C66.1632 24.6098 66.6064 24.75 67.1405 24.75ZM76.7755 26.1761C75.9573 26.1761 75.2433 25.9886 74.6334 25.6136C74.0236 25.2386 73.5501 24.714 73.213 24.0398C72.8758 23.3655 72.7073 22.5777 72.7073 21.6761C72.7073 20.7708 72.8758 19.9792 73.213 19.3011C73.5501 18.6231 74.0236 18.0966 74.6334 17.7216C75.2433 17.3466 75.9573 17.1591 76.7755 17.1591C77.5936 17.1591 78.3077 17.3466 78.9175 17.7216C79.5274 18.0966 80.0008 18.6231 80.338 19.3011C80.6751 19.9792 80.8436 20.7708 80.8436 21.6761C80.8436 22.5777 80.6751 23.3655 80.338 24.0398C80.0008 24.714 79.5274 25.2386 78.9175 25.6136C78.3077 25.9886 77.5936 26.1761 76.7755 26.1761ZM76.7811 24.75C77.3114 24.75 77.7508 24.6098 78.0993 24.3295C78.4478 24.0492 78.7054 23.6761 78.872 23.2102C79.0425 22.7443 79.1277 22.2311 79.1277 21.6705C79.1277 21.1136 79.0425 20.6023 78.872 20.1364C78.7054 19.6667 78.4478 19.2898 78.0993 19.0057C77.7508 18.7216 77.3114 18.5795 76.7811 18.5795C76.247 18.5795 75.8039 18.7216 75.4516 19.0057C75.1031 19.2898 74.8436 19.6667 74.6732 20.1364C74.5065 20.6023 74.4232 21.1136 74.4232 21.6705C74.4232 22.2311 74.5065 22.7443 74.6732 23.2102C74.8436 23.6761 75.1031 24.0492 75.4516 24.3295C75.8039 24.6098 76.247 24.75 76.7811 24.75ZM86.399 29.4545C85.7059 29.4545 85.1093 29.3636 84.6093 29.1818C84.1131 29 83.7077 28.7595 83.3934 28.4602C83.079 28.161 82.8441 27.8333 82.6888 27.4773L84.149 26.875C84.2513 27.0417 84.3877 27.2178 84.5581 27.4034C84.7324 27.5928 84.9672 27.7538 85.2627 27.8864C85.5619 28.0189 85.9464 28.0852 86.4161 28.0852C87.06 28.0852 87.5922 27.928 88.0127 27.6136C88.4331 27.303 88.6434 26.8068 88.6434 26.125V24.4091H88.5354C88.4331 24.5947 88.2854 24.8011 88.0922 25.0284C87.9028 25.2557 87.6415 25.4527 87.3081 25.6193C86.9748 25.786 86.5411 25.8693 86.007 25.8693C85.3176 25.8693 84.6964 25.7083 84.1434 25.3864C83.5941 25.0606 83.1585 24.5814 82.8365 23.9489C82.5184 23.3125 82.3593 22.5303 82.3593 21.6023C82.3593 20.6742 82.5165 19.8788 82.8309 19.2159C83.149 18.553 83.5846 18.0455 84.1377 17.6932C84.6907 17.3371 85.3176 17.1591 86.0184 17.1591C86.56 17.1591 86.9975 17.25 87.3309 17.4318C87.6642 17.6098 87.9237 17.8182 88.1093 18.0568C88.2987 18.2955 88.4445 18.5057 88.5468 18.6875H88.6718V17.2727H90.3365V26.1932C90.3365 26.9432 90.1623 27.5587 89.8138 28.0398C89.4653 28.5208 88.9937 28.8769 88.399 29.108C87.8081 29.339 87.1415 29.4545 86.399 29.4545ZM86.382 24.4602C86.8706 24.4602 87.2835 24.3466 87.6206 24.1193C87.9615 23.8883 88.2191 23.5587 88.3934 23.1307C88.5714 22.6989 88.6604 22.1818 88.6604 21.5795C88.6604 20.9924 88.5733 20.4754 88.399 20.0284C88.2248 19.5814 87.9691 19.233 87.632 18.983C87.2949 18.7292 86.8782 18.6023 86.382 18.6023C85.8706 18.6023 85.4445 18.7348 85.1036 19C84.7627 19.2614 84.5051 19.6174 84.3309 20.0682C84.1604 20.5189 84.0752 21.0227 84.0752 21.5795C84.0752 22.1515 84.1623 22.6534 84.3365 23.0852C84.5108 23.517 84.7684 23.8542 85.1093 24.0966C85.454 24.339 85.8782 24.4602 86.382 24.4602ZM94.3138 14.3636V26H92.6149V14.3636H94.3138ZM100.361 26.1761C99.5008 26.1761 98.7603 25.9924 98.1391 25.625C97.5217 25.2538 97.0444 24.733 96.7073 24.0625C96.3739 23.3883 96.2073 22.5985 96.2073 21.6932C96.2073 20.7992 96.3739 20.0114 96.7073 19.3295C97.0444 18.6477 97.5141 18.1155 98.1164 17.733C98.7224 17.3504 99.4308 17.1591 100.241 17.1591C100.734 17.1591 101.211 17.2405 101.673 17.4034C102.135 17.5663 102.55 17.822 102.918 18.1705C103.285 18.5189 103.575 18.9716 103.787 19.5284C103.999 20.0814 104.105 20.7538 104.105 21.5455V22.1477H97.1675V20.875H102.44C102.44 20.428 102.349 20.0322 102.168 19.6875C101.986 19.339 101.73 19.0644 101.4 18.8636C101.075 18.6629 100.692 18.5625 100.253 18.5625C99.7755 18.5625 99.3588 18.6799 99.0027 18.9148C98.6505 19.1458 98.3777 19.4489 98.1845 19.8239C97.9952 20.1951 97.9005 20.5985 97.9005 21.0341V22.0284C97.9005 22.6117 98.0027 23.108 98.2073 23.517C98.4156 23.9261 98.7054 24.2386 99.0766 24.4545C99.4478 24.6667 99.8815 24.7727 100.378 24.7727C100.7 24.7727 100.993 24.7273 101.258 24.6364C101.524 24.5417 101.753 24.4015 101.946 24.2159C102.139 24.0303 102.287 23.8011 102.389 23.5284L103.997 23.8182C103.868 24.2917 103.637 24.7064 103.304 25.0625C102.974 25.4148 102.56 25.6894 102.06 25.8864C101.563 26.0795 100.997 26.1761 100.361 26.1761ZM111.344 26H109.48L113.668 14.3636H115.696L119.883 26H118.02L114.73 16.4773H114.639L111.344 26ZM111.656 21.4432H117.702V22.9205H111.656V21.4432ZM123.126 20.8182V26H121.427V17.2727H123.058V18.6932H123.166C123.367 18.2311 123.681 17.8598 124.109 17.5795C124.541 17.2992 125.085 17.1591 125.74 17.1591C126.335 17.1591 126.855 17.2841 127.302 17.5341C127.749 17.7803 128.096 18.1477 128.342 18.6364C128.588 19.125 128.712 19.7292 128.712 20.4489V26H127.013V20.6534C127.013 20.0208 126.848 19.5265 126.518 19.1705C126.189 18.8106 125.736 18.6307 125.16 18.6307C124.766 18.6307 124.416 18.7159 124.109 18.8864C123.806 19.0568 123.566 19.3068 123.388 19.6364C123.213 19.9621 123.126 20.3561 123.126 20.8182ZM133.53 26.1932C132.977 26.1932 132.477 26.0909 132.03 25.8864C131.583 25.678 131.229 25.3769 130.967 24.983C130.71 24.589 130.581 24.1061 130.581 23.5341C130.581 23.0417 130.676 22.6364 130.865 22.3182C131.054 22 131.31 21.7481 131.632 21.5625C131.954 21.3769 132.314 21.2367 132.712 21.142C133.109 21.0473 133.515 20.9754 133.927 20.9261C134.45 20.8655 134.874 20.8163 135.2 20.7784C135.526 20.7367 135.763 20.6705 135.91 20.5795C136.058 20.4886 136.132 20.3409 136.132 20.1364V20.0966C136.132 19.6004 135.992 19.2159 135.712 18.9432C135.435 18.6705 135.022 18.5341 134.473 18.5341C133.901 18.5341 133.45 18.661 133.121 18.9148C132.795 19.1648 132.569 19.4432 132.444 19.75L130.848 19.3864C131.037 18.8561 131.314 18.428 131.677 18.1023C132.045 17.7727 132.467 17.5341 132.944 17.3864C133.422 17.2348 133.924 17.1591 134.45 17.1591C134.799 17.1591 135.168 17.2008 135.558 17.2841C135.952 17.3636 136.319 17.5114 136.66 17.7273C137.005 17.9432 137.287 18.2519 137.507 18.6534C137.727 19.0511 137.837 19.5682 137.837 20.2045V26H136.177V24.8068H136.109C135.999 25.0265 135.835 25.2424 135.615 25.4545C135.395 25.6667 135.113 25.8428 134.768 25.983C134.424 26.1231 134.011 26.1932 133.53 26.1932ZM133.899 24.8295C134.369 24.8295 134.77 24.7367 135.104 24.5511C135.441 24.3655 135.696 24.1231 135.871 23.8239C136.049 23.5208 136.138 23.197 136.138 22.8523V21.7273C136.077 21.7879 135.96 21.8447 135.785 21.8977C135.615 21.947 135.42 21.9905 135.2 22.0284C134.98 22.0625 134.766 22.0947 134.558 22.125C134.35 22.1515 134.176 22.1742 134.035 22.1932C133.706 22.2348 133.405 22.3049 133.132 22.4034C132.863 22.5019 132.647 22.6439 132.484 22.8295C132.325 23.0114 132.246 23.2538 132.246 23.5568C132.246 23.9773 132.401 24.2955 132.712 24.5114C133.022 24.7235 133.418 24.8295 133.899 24.8295ZM141.798 14.3636V26H140.099V14.3636H141.798ZM145.158 29.2727C144.904 29.2727 144.673 29.2519 144.464 29.2102C144.256 29.1723 144.101 29.1307 143.998 29.0852L144.408 27.6932C144.718 27.7765 144.995 27.8125 145.237 27.8011C145.48 27.7898 145.694 27.6989 145.879 27.5284C146.069 27.358 146.235 27.0795 146.379 26.6932L146.589 26.1136L143.396 17.2727H145.214L147.425 24.0455H147.516L149.726 17.2727H151.55L147.953 27.1648C147.786 27.6193 147.574 28.0038 147.317 28.3182C147.059 28.6364 146.752 28.875 146.396 29.0341C146.04 29.1932 145.627 29.2727 145.158 29.2727ZM157.22 17.2727V18.6364H152.453V17.2727H157.22ZM153.731 15.1818H155.43V23.4375C155.43 23.767 155.48 24.0152 155.578 24.1818C155.676 24.3447 155.803 24.4564 155.959 24.517C156.118 24.5739 156.29 24.6023 156.476 24.6023C156.612 24.6023 156.731 24.5928 156.834 24.5739C156.936 24.5549 157.016 24.5398 157.072 24.5284L157.379 25.9318C157.281 25.9697 157.141 26.0076 156.959 26.0455C156.777 26.0871 156.55 26.1098 156.277 26.1136C155.83 26.1212 155.413 26.0417 155.027 25.875C154.641 25.7083 154.328 25.4508 154.089 25.1023C153.851 24.7538 153.731 24.3163 153.731 23.7898V15.1818ZM159.099 26V17.2727H160.798V26H159.099ZM159.957 15.9261C159.662 15.9261 159.408 15.8277 159.196 15.6307C158.988 15.4299 158.883 15.1913 158.883 14.9148C158.883 14.6345 158.988 14.3958 159.196 14.1989C159.408 13.9981 159.662 13.8977 159.957 13.8977C160.253 13.8977 160.505 13.9981 160.713 14.1989C160.925 14.3958 161.031 14.6345 161.031 14.9148C161.031 15.1913 160.925 15.4299 160.713 15.6307C160.505 15.8277 160.253 15.9261 159.957 15.9261ZM166.76 26.1761C165.915 26.1761 165.188 25.9848 164.578 25.6023C163.972 25.2159 163.506 24.6837 163.18 24.0057C162.855 23.3277 162.692 22.5511 162.692 21.6761C162.692 20.7898 162.858 20.0076 163.192 19.3295C163.525 18.6477 163.995 18.1155 164.601 17.733C165.207 17.3504 165.921 17.1591 166.743 17.1591C167.406 17.1591 167.997 17.2822 168.516 17.5284C169.034 17.7708 169.453 18.1117 169.771 18.5511C170.093 18.9905 170.284 19.5038 170.345 20.0909H168.692C168.601 19.6818 168.392 19.3295 168.067 19.0341C167.745 18.7386 167.313 18.5909 166.771 18.5909C166.298 18.5909 165.883 18.7159 165.527 18.9659C165.175 19.2121 164.9 19.5644 164.703 20.0227C164.506 20.4773 164.408 21.0152 164.408 21.6364C164.408 22.2727 164.504 22.822 164.697 23.2841C164.891 23.7462 165.163 24.1042 165.516 24.358C165.872 24.6117 166.29 24.7386 166.771 24.7386C167.093 24.7386 167.385 24.6799 167.646 24.5625C167.911 24.4413 168.133 24.2689 168.311 24.0455C168.493 23.822 168.62 23.553 168.692 23.2386H170.345C170.284 23.803 170.101 24.3068 169.794 24.75C169.487 25.1932 169.076 25.5417 168.561 25.7955C168.05 26.0492 167.449 26.1761 166.76 26.1761ZM178.702 19.4034L177.162 19.6761C177.097 19.4792 176.995 19.2917 176.855 19.1136C176.719 18.9356 176.533 18.7898 176.298 18.6761C176.063 18.5625 175.77 18.5057 175.418 18.5057C174.936 18.5057 174.535 18.6136 174.213 18.8295C173.891 19.0417 173.73 19.3163 173.73 19.6534C173.73 19.9451 173.838 20.1799 174.054 20.358C174.27 20.536 174.618 20.6818 175.099 20.7955L176.486 21.1136C177.289 21.2992 177.887 21.5852 178.281 21.9716C178.675 22.358 178.872 22.8598 178.872 23.4773C178.872 24 178.721 24.4659 178.418 24.875C178.118 25.2803 177.7 25.5985 177.162 25.8295C176.628 26.0606 176.008 26.1761 175.304 26.1761C174.327 26.1761 173.529 25.9678 172.912 25.5511C172.294 25.1307 171.916 24.5341 171.775 23.7614L173.418 23.5114C173.52 23.9394 173.73 24.2633 174.048 24.483C174.366 24.6989 174.781 24.8068 175.293 24.8068C175.849 24.8068 176.294 24.6913 176.628 24.4602C176.961 24.2254 177.128 23.9394 177.128 23.6023C177.128 23.3295 177.025 23.1004 176.821 22.9148C176.62 22.7292 176.311 22.589 175.895 22.4943L174.418 22.1705C173.603 21.9848 173.001 21.6894 172.611 21.2841C172.224 20.8788 172.031 20.3655 172.031 19.7443C172.031 19.2292 172.175 18.7784 172.463 18.392C172.751 18.0057 173.149 17.7045 173.656 17.4886C174.164 17.2689 174.745 17.1591 175.4 17.1591C176.344 17.1591 177.086 17.3636 177.628 17.7727C178.169 18.178 178.527 18.7216 178.702 19.4034Z" fill="#160042"/>
</svg>
