<svg width="162" height="44" viewBox="0 0 162 44" fill="none" xmlns="http://www.w3.org/2000/svg">
<g clip-path="url(#clip0_31_865)">
<path d="M15.0282 0.457861C13.4048 0.45833 11.8481 1.09866 10.7001 2.23809C9.55225 3.37751 8.90717 4.92278 8.90668 6.53417V9.29452H6.1258C5.32132 9.29385 4.5246 9.45067 3.78124 9.75596C3.03788 10.0612 2.36246 10.5091 1.79363 11.0737C1.22479 11.6384 0.773711 12.3089 0.466185 13.0467C0.158661 13.7846 0.000732874 14.5755 0.00143619 15.374V21.4482H8.90525V26.9689H6.12436C4.50052 26.9687 2.94309 27.6087 1.79459 28.7482C0.646086 29.8877 0.000567239 31.4332 0 33.0451L0 43.5429H6.12723C6.93094 43.5426 7.72668 43.3851 8.46907 43.0792C9.21143 42.7737 9.88584 42.3258 10.4538 41.7614C11.0218 41.197 11.4722 40.527 11.7794 39.7896C12.0865 39.0523 12.2443 38.2624 12.2437 37.4647H12.2516V33.4541L12.2352 33.4563V7.9055L12.2487 7.90868V6.53523C12.2501 5.80288 12.5434 5.10081 13.0644 4.58227C13.5853 4.06372 14.2918 3.77081 15.0296 3.76744H25.6644V6.53523C25.6621 7.26724 25.3679 7.96858 24.8461 8.48585C24.3243 9.00313 23.6174 9.29428 22.8799 9.29558H13.5073V12.6087H22.8785C24.5019 12.6088 26.0588 11.9688 27.2068 10.8295C28.3548 9.69014 28.9998 8.14485 29 6.53347V0.457153L15.0282 0.457861ZM8.90668 18.1347H3.34277V15.3743C3.34399 14.6411 3.63754 13.9382 4.1593 13.4192C4.68104 12.9002 5.38857 12.6073 6.12723 12.6045H8.90812L8.90668 18.1347ZM8.90668 37.4677C8.90546 38.1996 8.61217 38.9015 8.09101 39.4191C7.56982 39.9371 6.86321 40.229 6.1258 40.2308H3.34134V33.0469C3.34201 32.3144 3.6357 31.6123 4.15784 31.0946C4.68 30.5769 5.38783 30.2863 6.1258 30.2866H8.90668V37.4677ZM13.5073 21.4478H20.5308V24.211C20.5281 24.9429 20.2337 25.644 19.712 26.1611C19.1903 26.6783 18.4837 26.9696 17.7463 26.9713H13.5073V30.2866H17.7478C18.5518 30.287 19.348 30.1301 20.0909 29.8249C20.8337 29.5197 21.5088 29.0721 22.0773 28.5078C22.6458 27.9435 23.0967 27.2735 23.4042 26.5361C23.7117 25.7987 23.8697 25.0084 23.8693 24.2103H23.8721V18.134H13.5073V21.4478Z" fill="#14672C"/>
</g>
<path d="M43.036 11.032C44.068 11.032 45.112 11.14 46.168 11.356C47.248 11.572 48.16 11.872 48.904 12.256C48.664 13.624 48.544 15.484 48.544 17.836H47.032C47.032 16.396 46.648 15.22 45.88 14.308C45.112 13.372 44.116 12.904 42.892 12.904C41.716 12.904 40.78 13.168 40.084 13.696C39.412 14.224 39.076 14.992 39.076 16C39.076 16.816 39.244 17.5 39.58 18.052C39.94 18.58 40.384 19 40.912 19.312C41.44 19.624 42.172 19.996 43.108 20.428L43.936 20.788C45.088 21.316 46.024 21.844 46.744 22.372C47.488 22.9 48.1 23.632 48.58 24.568C49.06 25.48 49.3 26.656 49.3 28.096C49.3 29.392 48.976 30.532 48.328 31.516C47.68 32.5 46.804 33.256 45.7 33.784C44.596 34.288 43.384 34.54 42.064 34.54C40.96 34.54 39.82 34.444 38.644 34.252C37.468 34.06 36.4 33.784 35.44 33.424C35.44 31.144 35.32 28.996 35.08 26.98H36.736C37.12 28.9 37.744 30.328 38.608 31.264C39.496 32.2 40.672 32.668 42.136 32.668C43.192 32.668 44.068 32.38 44.764 31.804C45.46 31.204 45.808 30.352 45.808 29.248C45.808 28.408 45.628 27.724 45.268 27.196C44.908 26.644 44.464 26.212 43.936 25.9C43.408 25.588 42.664 25.216 41.704 24.784C41.608 24.736 41.488 24.688 41.344 24.64C41.224 24.568 41.08 24.496 40.912 24.424C39.76 23.872 38.812 23.332 38.068 22.804C37.348 22.276 36.748 21.556 36.268 20.644C35.788 19.708 35.548 18.52 35.548 17.08C35.548 14.992 36.292 13.468 37.78 12.508C39.268 11.524 41.02 11.032 43.036 11.032ZM68.1719 18.376C67.5479 18.4 67.0559 18.52 66.6959 18.736C66.3599 18.952 66.0959 19.228 65.9039 19.564C65.7359 19.9 65.5199 20.452 65.2559 21.22L59.4959 37.708C59.0399 39.1 58.3679 40.24 57.4799 41.128C56.5919 42.016 55.4999 42.46 54.2039 42.46C53.7959 42.46 53.2079 42.352 52.4399 42.136L52.7999 37.924H53.8439C53.8439 38.404 53.9639 38.776 54.2039 39.04C54.4679 39.304 54.7919 39.436 55.1759 39.436C56.4479 39.436 57.3359 38.728 57.8399 37.312L58.6679 35.08L52.7639 19.816C52.5479 19.264 52.2839 18.892 51.9719 18.7C51.6599 18.484 51.2039 18.376 50.6039 18.376V16.936C52.7639 17.08 54.2519 17.152 55.0679 17.152C55.8599 17.152 57.3359 17.08 59.4959 16.936V18.376C58.6799 18.4 58.0919 18.532 57.7319 18.772C57.3959 19.012 57.2279 19.372 57.2279 19.852C57.2279 20.164 57.3239 20.632 57.5159 21.256L60.4679 30.112H60.5399L63.4199 21.256C63.5639 20.824 63.6359 20.44 63.6359 20.104C63.6359 19.528 63.4199 19.108 62.9879 18.844C62.5799 18.58 61.9319 18.424 61.0439 18.376V16.936L62.6639 17.044C63.6239 17.116 64.2719 17.152 64.6079 17.152C64.9199 17.152 65.5799 17.116 66.5879 17.044L68.1719 16.936V18.376ZM86.0538 29.572C86.0538 30.436 86.1018 31.06 86.1978 31.444C86.2938 31.828 86.5218 32.128 86.8818 32.344C87.2658 32.536 87.8778 32.644 88.7178 32.668V34.108C86.6298 33.988 85.1058 33.928 84.1458 33.928C83.1858 33.928 81.6498 33.988 79.5378 34.108V32.668C80.3778 32.644 80.9778 32.536 81.3378 32.344C81.6978 32.128 81.9258 31.828 82.0218 31.444C82.1178 31.036 82.1658 30.412 82.1658 29.572V21.796C82.1658 20.932 81.9258 20.296 81.4458 19.888C80.9658 19.456 80.3658 19.24 79.6458 19.24C78.9498 19.24 78.2538 19.492 77.5578 19.996C76.8858 20.5 76.3098 21.148 75.8298 21.94V29.572C75.8298 30.436 75.8778 31.06 75.9738 31.444C76.0698 31.828 76.2978 32.128 76.6578 32.344C77.0178 32.536 77.6178 32.644 78.4578 32.668V34.108C76.2498 33.988 74.6538 33.928 73.6698 33.928C72.6858 33.928 71.2098 33.988 69.2418 34.108V32.668C70.1058 32.644 70.7178 32.536 71.0778 32.344C71.4618 32.128 71.7018 31.828 71.7978 31.444C71.8938 31.06 71.9418 30.436 71.9418 29.572V21.832C71.9418 21.064 71.8938 20.512 71.7978 20.176C71.7018 19.816 71.4618 19.54 71.0778 19.348C70.7178 19.156 70.1058 19.048 69.2418 19.024V17.656L74.8578 16.54L75.6498 16.9V19.96C76.3218 18.88 77.1618 18.04 78.1698 17.44C79.2018 16.84 80.2218 16.54 81.2298 16.54C82.6938 16.54 83.8578 16.936 84.7218 17.728C85.6098 18.52 86.0538 19.672 86.0538 21.184V29.572ZM97.7324 13.228V22.12H98.4164C99.4484 22.12 100.24 21.892 100.792 21.436C101.368 20.98 101.68 20.14 101.728 18.916H103.276C103.132 20.524 103.06 21.856 103.06 22.912C103.06 23.92 103.132 25.36 103.276 27.232H101.728C101.68 25.912 101.38 25.024 100.828 24.568C100.276 24.088 99.4724 23.848 98.4164 23.848H97.7324V29.248C97.7324 30.136 97.8044 30.796 97.9484 31.228C98.0924 31.66 98.4044 31.984 98.8844 32.2C99.3644 32.416 100.132 32.536 101.188 32.56V34.108C99.1244 33.988 97.2884 33.928 95.6804 33.928C94.1684 33.928 92.5124 33.988 90.7124 34.108V32.56C91.5284 32.536 92.1284 32.416 92.5124 32.2C92.9204 31.984 93.1844 31.66 93.3044 31.228C93.4484 30.772 93.5204 30.112 93.5204 29.248V16.324C93.5204 15.46 93.4484 14.812 93.3044 14.38C93.1844 13.924 92.9204 13.588 92.5124 13.372C92.1284 13.156 91.5284 13.036 90.7124 13.012V11.428C92.2484 11.476 94.0004 11.5 95.9684 11.5H99.1724C101.404 11.5 103.648 11.428 105.904 11.284L106.3 17.728H104.608C104.368 16.72 104.068 15.904 103.708 15.28C103.348 14.656 102.808 14.164 102.088 13.804C101.368 13.42 100.396 13.228 99.1724 13.228H97.7324ZM114.396 10.636V29.572C114.396 30.436 114.444 31.06 114.54 31.444C114.636 31.828 114.864 32.128 115.224 32.344C115.608 32.536 116.232 32.644 117.096 32.668V34.108L116.268 34.072C114.804 33.976 113.532 33.928 112.452 33.928C112.14 33.928 110.832 33.976 108.528 34.072L107.808 34.108V32.668C108.672 32.644 109.284 32.536 109.644 32.344C110.028 32.128 110.268 31.828 110.364 31.444C110.46 31.06 110.508 30.436 110.508 29.572V15.64C110.508 14.872 110.46 14.308 110.364 13.948C110.268 13.588 110.028 13.312 109.644 13.12C109.284 12.928 108.672 12.82 107.808 12.796V11.428L113.568 10.312L114.396 10.636ZM126.521 16.54C128.753 16.54 130.457 17.236 131.633 18.628C132.833 19.996 133.433 22 133.433 24.64C133.433 26.8 133.097 28.624 132.425 30.112C131.753 31.6 130.841 32.716 129.689 33.46C128.537 34.18 127.241 34.54 125.801 34.54C123.593 34.54 121.889 33.832 120.689 32.416C119.513 30.976 118.925 28.96 118.925 26.368C118.925 24.208 119.261 22.396 119.933 20.932C120.605 19.444 121.505 18.34 122.633 17.62C123.785 16.9 125.081 16.54 126.521 16.54ZM125.873 18.16C124.889 18.16 124.169 18.796 123.713 20.068C123.257 21.316 123.029 23.272 123.029 25.936C123.029 27.976 123.341 29.656 123.965 30.976C124.613 32.296 125.489 32.956 126.593 32.956C127.433 32.956 128.093 32.284 128.573 30.94C129.053 29.572 129.293 27.592 129.293 25C129.293 22.96 128.993 21.316 128.393 20.068C127.817 18.796 126.977 18.16 125.873 18.16ZM160.449 18.376C159.849 18.376 159.381 18.484 159.045 18.7C158.709 18.892 158.457 19.264 158.289 19.816L154.041 34H150.549L147.345 23.848L144.321 34H140.793L136.581 19.816C136.389 19.264 136.125 18.892 135.789 18.7C135.477 18.484 135.021 18.376 134.421 18.376V16.936C136.221 17.08 137.625 17.152 138.633 17.152C139.641 17.152 141.189 17.08 143.277 16.936V18.376C142.485 18.4 141.909 18.532 141.549 18.772C141.213 18.988 141.045 19.336 141.045 19.816C141.045 20.2 141.153 20.68 141.369 21.256L143.637 30.904H143.673L147.633 17.08H149.289L153.429 30.652H153.465L156.021 21.256C156.165 20.68 156.237 20.2 156.237 19.816C156.237 19.336 156.069 18.988 155.733 18.772C155.421 18.532 154.881 18.4 154.113 18.376V16.936C155.913 17.056 157.041 17.116 157.497 17.116C158.025 17.116 159.009 17.056 160.449 16.936V18.376Z" fill="#14672C"/>
<defs>
<clipPath id="clip0_31_865">
<rect width="29" height="43.0857" fill="white" transform="translate(0 0.457153)"/>
</clipPath>
</defs>
</svg>
