<svg width="112" height="42" viewBox="0 0 112 42" fill="none" xmlns="http://www.w3.org/2000/svg">
<path d="M58.6631 14.3959C57.7343 13.6157 56.1368 13.2256 53.8705 13.2256H48.7808V28.9594H52.5888V24.0182H54.2978C56.3597 24.0182 57.8829 23.5538 58.8489 22.6436C59.9448 21.6219 60.4835 20.2659 60.4835 18.5569C60.4835 16.8108 59.8705 15.4176 58.6631 14.3959ZM54.1863 20.4516H52.5702V16.7736H54.0192C55.7839 16.7736 56.6569 17.3866 56.6569 18.6312C56.6755 19.8386 55.8396 20.4516 54.1863 20.4516ZM66.9851 13.207H63.0284V28.9408H71.5919V25.3742H66.9851V13.207ZM79.3752 13.207L73.1337 28.9408H77.4061L78.2235 26.656H83.6476L84.3907 28.9408H88.7188L82.5331 13.207H79.3752ZM79.3195 23.4795L80.9541 18.0925L82.5702 23.4795H79.3195Z" fill="#111111"/>
<mask id="mask0_292_14439" style="mask-type:alpha" maskUnits="userSpaceOnUse" x="0" y="0" width="112" height="42">
<path d="M0.0565796 42H111.512V0H0.0565796V42Z" fill="white"/>
</mask>
<g mask="url(#mask0_292_14439)">
<path d="M90.7067 28.9412H94.682V13.2074H90.7067V28.9412ZM110.081 16.161C109.58 15.4365 108.93 14.8235 108.187 14.3406C106.979 13.5789 105.344 13.2074 103.283 13.2074H98.0442V28.9412H104.156C106.366 28.9412 108.149 28.2167 109.487 26.7678C110.824 25.3189 111.493 23.4056 111.493 21.0093C111.512 19.1145 111.029 17.4985 110.081 16.161ZM103.728 25.3746H102.038V16.774H103.766C104.973 16.774 105.92 17.1455 106.571 17.9071C107.221 18.6687 107.555 19.7461 107.555 21.1393C107.536 23.9628 106.273 25.3746 103.728 25.3746ZM16.5334 0L3.66029 3.36223L0.112307 16.3096L4.57051 20.8607L0.0565796 25.3375L3.40023 38.3406L16.2176 41.9257L20.7315 37.4489L25.1711 42L38.0442 38.6378L41.5922 25.6904L37.1526 21.1393L41.6665 16.6625L38.3228 3.65944L25.5055 0.0743051L20.9916 4.55108L16.5334 0ZM8.63862 5.85139L15.4188 4.06811L18.3909 7.11455L14.0628 11.4056L8.63862 5.85139ZM23.5179 7.17028L26.5272 4.17957L33.2702 6.0743L27.7532 11.5542C27.7717 11.5356 23.5179 7.17028 23.5179 7.17028ZM4.18042 15.2508L6.05658 8.43344L11.4807 13.9876L7.15255 18.2786L4.18042 15.2508ZM30.3166 14.1548L35.8337 8.67492L37.5984 15.5294L34.5891 18.5201C34.5705 18.5201 30.3166 14.1548 30.3166 14.1548ZM16.6077 14.0433L20.9358 9.75233L25.1897 14.1177L20.8615 18.4087L16.6077 14.0433ZM9.69745 20.8978L14.0256 16.6068L18.2795 20.9721L13.9513 25.2632L9.69745 20.8978ZM23.4064 21.0093L27.7346 16.7183L31.9885 21.0836L27.6603 25.3746C27.6603 25.3932 23.4064 21.0093 23.4064 21.0093ZM4.10611 26.4706L7.1154 23.4799L11.3693 27.8452L5.87082 33.3251C5.85224 33.3251 4.10611 26.4706 4.10611 26.4706ZM16.4962 27.8824L20.8244 23.5913L25.0782 27.9567L20.7501 32.2477L16.4962 27.8824ZM30.2052 27.9938L34.5334 23.7028L37.5055 26.7492L35.6479 33.5666C35.6293 33.5666 30.2052 27.9938 30.2052 27.9938ZM8.39714 35.9257L13.8956 30.4458L18.1495 34.8111L15.1402 37.8019L8.39714 35.9257ZM23.295 34.8669L27.6231 30.5758L33.0473 36.13L26.2671 37.9133L23.295 34.8669Z" fill="#111111"/>
</g>
</svg>
