<svg width="110" height="40" viewBox="0 0 110 40" fill="none" xmlns="http://www.w3.org/2000/svg">
<g clip-path="url(#clip0_292_17030)">
<path d="M31.4107 9.60884C31.3834 9.44498 31.2468 9.33574 31.1103 9.33574C30.9737 9.33574 28.3794 9.14458 28.3794 9.14458C28.3794 9.14458 26.577 7.34217 26.3585 7.151C26.1673 6.95984 25.7577 7.01446 25.6211 7.06908C25.5938 7.06908 25.2115 7.17831 24.6107 7.36948C24.0099 5.62169 22.9448 4.01044 21.0605 4.01044C21.0059 4.01044 20.9513 4.01044 20.8966 4.01044C20.3504 3.3004 19.695 3 19.1215 3C14.7247 3 12.6219 8.48916 11.9665 11.2747C10.2733 11.7936 9.04442 12.1759 8.90788 12.2305C7.95205 12.5309 7.92474 12.5582 7.81551 13.4594C7.70627 14.1149 5.22113 33.3679 5.22113 33.3679L24.6107 37L35.1247 34.7333C35.1247 34.7333 31.438 9.8 31.4107 9.60884ZM23.5183 7.69719C23.0268 7.86104 22.4806 8.0249 21.8798 8.21606C21.8798 8.10683 21.8798 7.99759 21.8798 7.86104C21.8798 6.76867 21.7159 5.89478 21.4974 5.21205C22.4806 5.32129 23.1087 6.41365 23.5183 7.69719ZM20.2958 5.40321C20.5689 6.08594 20.7328 7.04177 20.7328 8.35261C20.7328 8.40723 20.7328 8.48916 20.7328 8.54377C19.6677 8.87149 18.4934 9.22651 17.3464 9.58153C18.0019 7.09639 19.2308 5.86747 20.2958 5.40321ZM18.985 4.1743C19.1762 4.1743 19.3673 4.22892 19.5585 4.36546C18.1657 5.02088 16.6364 6.68675 16.0083 10.0185C15.0798 10.3189 14.1786 10.592 13.332 10.8378C14.0693 8.29799 15.8444 4.1743 18.985 4.1743Z" fill="#95BF47"/>
<path d="M31.1103 9.33593C30.9737 9.33593 28.3793 9.14477 28.3793 9.14477C28.3793 9.14477 26.5769 7.34236 26.3584 7.15119C26.2765 7.06927 26.1946 7.04196 26.0854 7.01465L24.6107 37.0002L35.1247 34.7335C35.1247 34.7335 31.438 9.80019 31.4107 9.63633C31.3833 9.44517 31.2195 9.36324 31.1103 9.33593Z" fill="#5E8E3E"/>
<path d="M21.0333 15.1527L19.7498 19.0033C19.7498 19.0033 18.6028 18.4025 17.2374 18.4025C15.1892 18.4025 15.1072 19.686 15.1072 20.0137C15.1072 21.7615 19.6952 22.4442 19.6952 26.5679C19.6952 29.8177 17.647 31.8932 14.8614 31.8932C11.5297 31.8932 9.83655 29.8177 9.83655 29.8177L10.7378 26.8683C10.7378 26.8683 12.4855 28.3703 13.9602 28.3703C14.9161 28.3703 15.3257 27.6057 15.3257 27.0595C15.3257 24.7655 11.557 24.6563 11.557 20.8876C11.557 17.7197 13.8237 14.6338 18.439 14.6338C20.1594 14.6338 21.0333 15.1527 21.0333 15.1527Z" fill="white"/>
</g>
<path d="M57.9573 17.4205C57.8967 16.8826 57.6467 16.4659 57.2073 16.1705C56.7679 15.8712 56.2149 15.7216 55.5482 15.7216C55.0709 15.7216 54.658 15.7973 54.3095 15.9489C53.9611 16.0966 53.6902 16.3011 53.497 16.5625C53.3077 16.8201 53.213 17.1136 53.213 17.4432C53.213 17.7197 53.2774 17.9583 53.4061 18.1591C53.5387 18.3598 53.7111 18.5284 53.9232 18.6648C54.1391 18.7973 54.3702 18.9091 54.6164 19C54.8626 19.0871 55.0993 19.1591 55.3266 19.2159L56.463 19.5114C56.8342 19.6023 57.2149 19.7254 57.605 19.8807C57.9952 20.036 58.3569 20.2405 58.6902 20.4943C59.0236 20.7481 59.2925 21.0625 59.497 21.4375C59.7054 21.8125 59.8095 22.2614 59.8095 22.7841C59.8095 23.4432 59.6391 24.0284 59.2982 24.5398C58.9611 25.0511 58.4705 25.4545 57.8266 25.75C57.1864 26.0455 56.4118 26.1932 55.5027 26.1932C54.6315 26.1932 53.8777 26.0549 53.2414 25.7784C52.605 25.5019 52.1069 25.1098 51.747 24.6023C51.3872 24.0909 51.1883 23.4848 51.1505 22.7841H52.9118C52.9459 23.2045 53.0823 23.5549 53.3209 23.8352C53.5633 24.1117 53.872 24.3182 54.247 24.4545C54.6258 24.5871 55.0406 24.6534 55.4914 24.6534C55.9876 24.6534 56.4289 24.5758 56.8152 24.4205C57.2054 24.2614 57.5122 24.0417 57.7357 23.7614C57.9592 23.4773 58.0709 23.1458 58.0709 22.767C58.0709 22.4223 57.9724 22.1402 57.7755 21.9205C57.5823 21.7008 57.319 21.5189 56.9857 21.375C56.6561 21.2311 56.283 21.1042 55.8664 20.9943L54.4914 20.6193C53.5595 20.3655 52.8209 19.9924 52.2755 19.5C51.7338 19.0076 51.463 18.3561 51.463 17.5455C51.463 16.875 51.6448 16.2898 52.0084 15.7898C52.372 15.2898 52.8645 14.9015 53.4857 14.625C54.1069 14.3447 54.8077 14.2045 55.588 14.2045C56.3758 14.2045 57.0709 14.3428 57.6732 14.6193C58.2792 14.8958 58.7565 15.2765 59.105 15.7614C59.4535 16.2424 59.6353 16.7955 59.6505 17.4205H57.9573ZM63.4701 20.8182V26H61.7712V14.3636H63.4473V18.6932H63.5553C63.7598 18.2235 64.0723 17.8504 64.4928 17.5739C64.9132 17.2973 65.4625 17.1591 66.1405 17.1591C66.739 17.1591 67.2617 17.2822 67.7087 17.5284C68.1595 17.7746 68.5079 18.142 68.7542 18.6307C69.0042 19.1155 69.1292 19.7216 69.1292 20.4489V26H67.4303V20.6534C67.4303 20.0133 67.2655 19.517 66.936 19.1648C66.6064 18.8087 66.1481 18.6307 65.561 18.6307C65.1595 18.6307 64.7996 18.7159 64.4814 18.8864C64.167 19.0568 63.9189 19.3068 63.7371 19.6364C63.5591 19.9621 63.4701 20.3561 63.4701 20.8182ZM75.0723 26.1761C74.2542 26.1761 73.5401 25.9886 72.9303 25.6136C72.3204 25.2386 71.847 24.714 71.5098 24.0398C71.1727 23.3655 71.0042 22.5777 71.0042 21.6761C71.0042 20.7708 71.1727 19.9792 71.5098 19.3011C71.847 18.6231 72.3204 18.0966 72.9303 17.7216C73.5401 17.3466 74.2542 17.1591 75.0723 17.1591C75.8905 17.1591 76.6045 17.3466 77.2144 17.7216C77.8242 18.0966 78.2977 18.6231 78.6348 19.3011C78.972 19.9792 79.1405 20.7708 79.1405 21.6761C79.1405 22.5777 78.972 23.3655 78.6348 24.0398C78.2977 24.714 77.8242 25.2386 77.2144 25.6136C76.6045 25.9886 75.8905 26.1761 75.0723 26.1761ZM75.078 24.75C75.6083 24.75 76.0477 24.6098 76.3962 24.3295C76.7447 24.0492 77.0023 23.6761 77.1689 23.2102C77.3394 22.7443 77.4246 22.2311 77.4246 21.6705C77.4246 21.1136 77.3394 20.6023 77.1689 20.1364C77.0023 19.6667 76.7447 19.2898 76.3962 19.0057C76.0477 18.7216 75.6083 18.5795 75.078 18.5795C74.5439 18.5795 74.1007 18.7216 73.7485 19.0057C73.4 19.2898 73.1405 19.6667 72.9701 20.1364C72.8034 20.6023 72.7201 21.1136 72.7201 21.6705C72.7201 22.2311 72.8034 22.7443 72.9701 23.2102C73.1405 23.6761 73.4 24.0492 73.7485 24.3295C74.1007 24.6098 74.5439 24.75 75.078 24.75ZM81.0368 29.2727V17.2727H82.6959V18.6875H82.838C82.9364 18.5057 83.0785 18.2955 83.2641 18.0568C83.4497 17.8182 83.7073 17.6098 84.0368 17.4318C84.3664 17.25 84.802 17.1591 85.3436 17.1591C86.0482 17.1591 86.677 17.3371 87.23 17.6932C87.783 18.0492 88.2167 18.5625 88.5311 19.233C88.8493 19.9034 89.0084 20.7102 89.0084 21.6534C89.0084 22.5966 88.8512 23.4053 88.5368 24.0795C88.2224 24.75 87.7906 25.267 87.2414 25.6307C86.6921 25.9905 86.0652 26.1705 85.3607 26.1705C84.8304 26.1705 84.3967 26.0814 84.0595 25.9034C83.7262 25.7254 83.4649 25.517 83.2755 25.2784C83.0861 25.0398 82.9402 24.8277 82.838 24.642H82.7357V29.2727H81.0368ZM82.7016 21.6364C82.7016 22.25 82.7906 22.7879 82.9686 23.25C83.1467 23.7121 83.4042 24.0739 83.7414 24.3352C84.0785 24.5928 84.4914 24.7216 84.98 24.7216C85.4876 24.7216 85.9118 24.5871 86.2527 24.3182C86.5936 24.0455 86.8512 23.6761 87.0255 23.2102C87.2035 22.7443 87.2925 22.2197 87.2925 21.6364C87.2925 21.0606 87.2054 20.5436 87.0311 20.0852C86.8607 19.6269 86.6031 19.2652 86.2584 19C85.9175 18.7348 85.4914 18.6023 84.98 18.6023C84.4876 18.6023 84.0709 18.7292 83.73 18.983C83.3929 19.2367 83.1372 19.5909 82.963 20.0455C82.7887 20.5 82.7016 21.0303 82.7016 21.6364ZM90.9118 26V17.2727H92.6107V26H90.9118ZM91.7698 15.9261C91.4743 15.9261 91.2205 15.8277 91.0084 15.6307C90.8001 15.4299 90.6959 15.1913 90.6959 14.9148C90.6959 14.6345 90.8001 14.3958 91.0084 14.1989C91.2205 13.9981 91.4743 13.8977 91.7698 13.8977C92.0652 13.8977 92.3171 13.9981 92.5255 14.1989C92.7376 14.3958 92.8436 14.6345 92.8436 14.9148C92.8436 15.1913 92.7376 15.4299 92.5255 15.6307C92.3171 15.8277 92.0652 15.9261 91.7698 15.9261ZM99.0496 17.2727V18.6364H94.1178V17.2727H99.0496ZM95.4701 26V16.2614C95.4701 15.7159 95.5894 15.2633 95.828 14.9034C96.0667 14.5398 96.3829 14.2689 96.7769 14.0909C97.1708 13.9091 97.5988 13.8182 98.061 13.8182C98.4019 13.8182 98.6935 13.8466 98.936 13.9034C99.1784 13.9564 99.3583 14.0057 99.4757 14.0511L99.078 15.4261C98.9985 15.4034 98.8962 15.3769 98.7712 15.3466C98.6462 15.3125 98.4947 15.2955 98.3167 15.2955C97.9038 15.2955 97.6083 15.3977 97.4303 15.6023C97.256 15.8068 97.1689 16.1023 97.1689 16.4886V26H95.4701ZM101.876 29.2727C101.623 29.2727 101.391 29.2519 101.183 29.2102C100.975 29.1723 100.819 29.1307 100.717 29.0852L101.126 27.6932C101.437 27.7765 101.713 27.8125 101.956 27.8011C102.198 27.7898 102.412 27.6989 102.598 27.5284C102.787 27.358 102.954 27.0795 103.098 26.6932L103.308 26.1136L100.115 17.2727H101.933L104.143 24.0455H104.234L106.444 17.2727H108.268L104.672 27.1648C104.505 27.6193 104.293 28.0038 104.035 28.3182C103.778 28.6364 103.471 28.875 103.115 29.0341C102.759 29.1932 102.346 29.2727 101.876 29.2727Z" fill="#160042"/>
<defs>
<clipPath id="clip0_292_17030">
<rect width="34" height="34" fill="white" transform="translate(3.33228 3)"/>
</clipPath>
</defs>
</svg>
