<svg width="398" height="315" viewBox="0 0 398 315" fill="none" xmlns="http://www.w3.org/2000/svg">
<rect x="0.5" y="0.5" width="397" height="314" rx="9.5" stroke="#E4E4E7"/>
<mask id="path-2-inside-1_929_57310" fill="white">
<path d="M10 20H388V66H10V20Z"/>
</mask>
<path d="M388 65H10V67H388V65Z" fill="#E4E4E7" mask="url(#path-2-inside-1_929_57310)"/>
<path d="M25.94 50.24C24.9133 50.24 24.02 50.0533 23.26 49.68C22.5 49.3067 21.9133 48.7867 21.5 48.12C21.0867 47.4533 20.88 46.68 20.88 45.8H22.64C22.64 46.3467 22.7667 46.8533 23.02 47.32C23.2733 47.7733 23.64 48.14 24.12 48.42C24.6133 48.6867 25.22 48.82 25.94 48.82C26.8867 48.82 27.62 48.5933 28.14 48.14C28.66 47.6867 28.92 47.12 28.92 46.44C28.92 45.88 28.8 45.4333 28.56 45.1C28.32 44.7533 27.9933 44.4733 27.58 44.26C27.18 44.0467 26.7133 43.86 26.18 43.7C25.66 43.54 25.1133 43.36 24.54 43.16C23.46 42.7867 22.66 42.3267 22.14 41.78C21.62 41.22 21.36 40.4933 21.36 39.6C21.3467 38.8533 21.52 38.1933 21.88 37.62C22.24 37.0333 22.7467 36.58 23.4 36.26C24.0667 35.9267 24.8533 35.76 25.76 35.76C26.6533 35.76 27.4267 35.9267 28.08 36.26C28.7467 36.5933 29.26 37.0533 29.62 37.64C29.9933 38.2267 30.1867 38.8933 30.2 39.64H28.44C28.44 39.2533 28.34 38.8733 28.14 38.5C27.94 38.1133 27.6333 37.8 27.22 37.56C26.82 37.32 26.3133 37.2 25.7 37.2C24.94 37.1867 24.3133 37.38 23.82 37.78C23.34 38.18 23.1 38.7333 23.1 39.44C23.1 40.04 23.2667 40.5 23.6 40.82C23.9467 41.14 24.4267 41.4067 25.04 41.62C25.6533 41.82 26.36 42.0533 27.16 42.32C27.8267 42.56 28.4267 42.84 28.96 43.16C29.4933 43.48 29.9067 43.8933 30.2 44.4C30.5067 44.9067 30.66 45.5533 30.66 46.34C30.66 47.0067 30.4867 47.64 30.14 48.24C29.7933 48.8267 29.2667 49.3067 28.56 49.68C27.8667 50.0533 26.9933 50.24 25.94 50.24ZM33.9625 37.88C33.6292 37.88 33.3492 37.7733 33.1225 37.56C32.9092 37.3333 32.8025 37.0533 32.8025 36.72C32.8025 36.4 32.9092 36.1333 33.1225 35.92C33.3492 35.7067 33.6292 35.6 33.9625 35.6C34.2825 35.6 34.5558 35.7067 34.7825 35.92C35.0092 36.1333 35.1225 36.4 35.1225 36.72C35.1225 37.0533 35.0092 37.3333 34.7825 37.56C34.5558 37.7733 34.2825 37.88 33.9625 37.88ZM33.1225 50V40.08H34.8025V50H33.1225ZM37.7277 50V40.08H39.2477L39.3677 41.52C39.6877 40.9867 40.1143 40.5733 40.6477 40.28C41.181 39.9867 41.781 39.84 42.4477 39.84C43.2343 39.84 43.9077 40 44.4677 40.32C45.041 40.64 45.481 41.1267 45.7877 41.78C46.1343 41.18 46.6077 40.7067 47.2077 40.36C47.821 40.0133 48.481 39.84 49.1877 39.84C50.3743 39.84 51.321 40.2 52.0277 40.92C52.7343 41.6267 53.0877 42.72 53.0877 44.2V50H51.4277V44.38C51.4277 43.3533 51.221 42.58 50.8077 42.06C50.3943 41.54 49.801 41.28 49.0277 41.28C48.2277 41.28 47.561 41.5933 47.0277 42.22C46.5077 42.8333 46.2477 43.7133 46.2477 44.86V50H44.5677V44.38C44.5677 43.3533 44.361 42.58 43.9477 42.06C43.5343 41.54 42.941 41.28 42.1677 41.28C41.381 41.28 40.721 41.5933 40.1877 42.22C39.6677 42.8333 39.4077 43.7133 39.4077 44.86V50H37.7277ZM55.6183 54.4V40.08H57.1383L57.2983 41.72C57.6183 41.24 58.0716 40.8067 58.6583 40.42C59.2583 40.0333 60.0183 39.84 60.9383 39.84C61.9249 39.84 62.7849 40.0667 63.5183 40.52C64.2516 40.9733 64.8183 41.5933 65.2183 42.38C65.6316 43.1667 65.8383 44.06 65.8383 45.06C65.8383 46.06 65.6316 46.9533 65.2183 47.74C64.8183 48.5133 64.2449 49.1267 63.4983 49.58C62.7649 50.02 61.9049 50.24 60.9183 50.24C60.1049 50.24 59.3783 50.0733 58.7383 49.74C58.1116 49.4067 57.6316 48.94 57.2983 48.34V54.4H55.6183ZM60.7383 48.78C61.4049 48.78 61.9916 48.6267 62.4983 48.32C63.0049 48 63.4049 47.56 63.6983 47C63.9916 46.44 64.1383 45.7867 64.1383 45.04C64.1383 44.2933 63.9916 43.64 63.6983 43.08C63.4049 42.52 63.0049 42.0867 62.4983 41.78C61.9916 41.46 61.4049 41.3 60.7383 41.3C60.0716 41.3 59.4849 41.46 58.9783 41.78C58.4716 42.0867 58.0716 42.52 57.7783 43.08C57.4849 43.64 57.3383 44.2933 57.3383 45.04C57.3383 45.7867 57.4849 46.44 57.7783 47C58.0716 47.56 58.4716 48 58.9783 48.32C59.4849 48.6267 60.0716 48.78 60.7383 48.78ZM68.1769 50V35.6H69.8569V50H68.1769ZM73.6305 37.88C73.2971 37.88 73.0171 37.7733 72.7905 37.56C72.5771 37.3333 72.4705 37.0533 72.4705 36.72C72.4705 36.4 72.5771 36.1333 72.7905 35.92C73.0171 35.7067 73.2971 35.6 73.6305 35.6C73.9505 35.6 74.2238 35.7067 74.4505 35.92C74.6771 36.1333 74.7905 36.4 74.7905 36.72C74.7905 37.0533 74.6771 37.3333 74.4505 37.56C74.2238 37.7733 73.9505 37.88 73.6305 37.88ZM72.7905 50V40.08H74.4705V50H72.7905ZM77.9356 50V41.5H76.4356V40.08H77.9356V38.36C77.9356 37.4 78.1756 36.7 78.6556 36.26C79.1356 35.82 79.8356 35.6 80.7556 35.6H81.7556V37.04H81.0156C80.509 37.04 80.149 37.1467 79.9356 37.36C79.7223 37.56 79.6156 37.9067 79.6156 38.4V40.08H82.0556V41.5H79.6156V50H77.9356ZM85.1358 54.4L87.5958 49.04H87.0158L83.0758 40.08H84.8958L88.1758 47.8L91.6558 40.08H93.3958L86.8958 54.4H85.1358ZM104.042 50V44.68L99.482 36H101.382L104.882 43.08L108.382 36H110.262L105.722 44.68V50H104.042ZM114.826 50.24C113.892 50.24 113.052 50.0267 112.306 49.6C111.559 49.1733 110.966 48.5733 110.526 47.8C110.099 47.0133 109.886 46.0933 109.886 45.04C109.886 43.9867 110.106 43.0733 110.546 42.3C110.986 41.5133 111.579 40.9067 112.326 40.48C113.086 40.0533 113.932 39.84 114.866 39.84C115.799 39.84 116.639 40.0533 117.386 40.48C118.132 40.9067 118.719 41.5133 119.146 42.3C119.586 43.0733 119.806 43.9867 119.806 45.04C119.806 46.0933 119.586 47.0133 119.146 47.8C118.706 48.5733 118.106 49.1733 117.346 49.6C116.599 50.0267 115.759 50.24 114.826 50.24ZM114.826 48.8C115.399 48.8 115.932 48.66 116.426 48.38C116.919 48.1 117.319 47.68 117.626 47.12C117.932 46.56 118.086 45.8667 118.086 45.04C118.086 44.2133 117.932 43.52 117.626 42.96C117.332 42.4 116.939 41.98 116.446 41.7C115.952 41.42 115.426 41.28 114.866 41.28C114.292 41.28 113.759 41.42 113.266 41.7C112.772 41.98 112.372 42.4 112.066 42.96C111.759 43.52 111.606 44.2133 111.606 45.04C111.606 45.8667 111.759 46.56 112.066 47.12C112.372 47.68 112.766 48.1 113.246 48.38C113.739 48.66 114.266 48.8 114.826 48.8ZM125.762 50.24C124.588 50.24 123.655 49.8867 122.962 49.18C122.268 48.46 121.922 47.36 121.922 45.88V40.08H123.602V45.7C123.602 47.7667 124.448 48.8 126.142 48.8C127.008 48.8 127.722 48.4933 128.282 47.88C128.855 47.2533 129.142 46.3667 129.142 45.22V40.08H130.822V50H129.302L129.182 48.22C128.875 48.8467 128.415 49.34 127.802 49.7C127.202 50.06 126.522 50.24 125.762 50.24ZM133.587 50V40.08H135.107L135.247 41.98C135.554 41.3267 136.02 40.8067 136.647 40.42C137.274 40.0333 138.047 39.84 138.967 39.84V41.6H138.507C137.92 41.6 137.38 41.7067 136.887 41.92C136.394 42.12 136 42.4667 135.707 42.96C135.414 43.4533 135.267 44.1333 135.267 45V50H133.587ZM146.246 50V36H154.766V37.38H147.926V42.3H153.746V43.66H147.926V50H146.246ZM157.849 37.88C157.516 37.88 157.236 37.7733 157.009 37.56C156.796 37.3333 156.689 37.0533 156.689 36.72C156.689 36.4 156.796 36.1333 157.009 35.92C157.236 35.7067 157.516 35.6 157.849 35.6C158.169 35.6 158.443 35.7067 158.669 35.92C158.896 36.1333 159.009 36.4 159.009 36.72C159.009 37.0533 158.896 37.3333 158.669 37.56C158.443 37.7733 158.169 37.88 157.849 37.88ZM157.009 50V40.08H158.689V50H157.009ZM161.614 50V40.08H163.134L163.234 41.86C163.554 41.2333 164.014 40.74 164.614 40.38C165.214 40.02 165.894 39.84 166.654 39.84C167.828 39.84 168.761 40.2 169.454 40.92C170.161 41.6267 170.514 42.72 170.514 44.2V50H168.834V44.38C168.834 42.3133 167.981 41.28 166.274 41.28C165.421 41.28 164.708 41.5933 164.134 42.22C163.574 42.8333 163.294 43.7133 163.294 44.86V50H161.614ZM176.36 50.24C175.533 50.24 174.846 50.1 174.3 49.82C173.753 49.54 173.346 49.1667 173.08 48.7C172.813 48.2333 172.68 47.7267 172.68 47.18C172.68 46.1667 173.066 45.3867 173.84 44.84C174.613 44.2933 175.666 44.02 177 44.02H179.68V43.9C179.68 43.0333 179.453 42.38 179 41.94C178.546 41.4867 177.94 41.26 177.18 41.26C176.526 41.26 175.96 41.4267 175.48 41.76C175.013 42.08 174.72 42.5533 174.6 43.18H172.88C172.946 42.46 173.186 41.8533 173.6 41.36C174.026 40.8667 174.553 40.4933 175.18 40.24C175.806 39.9733 176.473 39.84 177.18 39.84C178.566 39.84 179.606 40.2133 180.3 40.96C181.006 41.6933 181.36 42.6733 181.36 43.9V50H179.86L179.76 48.22C179.48 48.78 179.066 49.26 178.52 49.66C177.986 50.0467 177.266 50.24 176.36 50.24ZM176.62 48.82C177.26 48.82 177.806 48.6533 178.26 48.32C178.726 47.9867 179.08 47.5533 179.32 47.02C179.56 46.4867 179.68 45.9267 179.68 45.34V45.32H177.14C176.153 45.32 175.453 45.4933 175.04 45.84C174.64 46.1733 174.44 46.5933 174.44 47.1C174.44 47.62 174.626 48.04 175 48.36C175.386 48.6667 175.926 48.82 176.62 48.82ZM183.88 50V40.08H185.4L185.5 41.86C185.82 41.2333 186.28 40.74 186.88 40.38C187.48 40.02 188.16 39.84 188.92 39.84C190.093 39.84 191.027 40.2 191.72 40.92C192.427 41.6267 192.78 42.72 192.78 44.2V50H191.1V44.38C191.1 42.3133 190.247 41.28 188.54 41.28C187.687 41.28 186.973 41.5933 186.4 42.22C185.84 42.8333 185.56 43.7133 185.56 44.86V50H183.88ZM199.885 50.24C198.939 50.24 198.085 50.0267 197.325 49.6C196.579 49.16 195.985 48.5533 195.545 47.78C195.119 46.9933 194.905 46.08 194.905 45.04C194.905 44 195.119 43.0933 195.545 42.32C195.985 41.5333 196.579 40.9267 197.325 40.5C198.085 40.06 198.939 39.84 199.885 39.84C201.059 39.84 202.045 40.1467 202.845 40.76C203.659 41.3733 204.172 42.1933 204.385 43.22H202.665C202.532 42.6067 202.205 42.1333 201.685 41.8C201.165 41.4533 200.559 41.28 199.865 41.28C199.305 41.28 198.779 41.42 198.285 41.7C197.792 41.98 197.392 42.4 197.085 42.96C196.779 43.52 196.625 44.2133 196.625 45.04C196.625 45.8667 196.779 46.56 197.085 47.12C197.392 47.68 197.792 48.1067 198.285 48.4C198.779 48.68 199.305 48.82 199.865 48.82C200.559 48.82 201.165 48.6533 201.685 48.32C202.205 47.9733 202.532 47.4867 202.665 46.86H204.385C204.185 47.86 203.679 48.6733 202.865 49.3C202.052 49.9267 201.059 50.24 199.885 50.24ZM207.752 37.88C207.418 37.88 207.138 37.7733 206.912 37.56C206.698 37.3333 206.592 37.0533 206.592 36.72C206.592 36.4 206.698 36.1333 206.912 35.92C207.138 35.7067 207.418 35.6 207.752 35.6C208.072 35.6 208.345 35.7067 208.572 35.92C208.798 36.1333 208.912 36.4 208.912 36.72C208.912 37.0533 208.798 37.3333 208.572 37.56C208.345 37.7733 208.072 37.88 207.752 37.88ZM206.912 50V40.08H208.592V50H206.912ZM214.817 50.24C213.99 50.24 213.303 50.1 212.757 49.82C212.21 49.54 211.803 49.1667 211.537 48.7C211.27 48.2333 211.137 47.7267 211.137 47.18C211.137 46.1667 211.523 45.3867 212.297 44.84C213.07 44.2933 214.123 44.02 215.457 44.02H218.137V43.9C218.137 43.0333 217.91 42.38 217.457 41.94C217.003 41.4867 216.397 41.26 215.637 41.26C214.983 41.26 214.417 41.4267 213.937 41.76C213.47 42.08 213.177 42.5533 213.057 43.18H211.337C211.403 42.46 211.643 41.8533 212.057 41.36C212.483 40.8667 213.01 40.4933 213.637 40.24C214.263 39.9733 214.93 39.84 215.637 39.84C217.023 39.84 218.063 40.2133 218.757 40.96C219.463 41.6933 219.817 42.6733 219.817 43.9V50H218.317L218.217 48.22C217.937 48.78 217.523 49.26 216.977 49.66C216.443 50.0467 215.723 50.24 214.817 50.24ZM215.077 48.82C215.717 48.82 216.263 48.6533 216.717 48.32C217.183 47.9867 217.537 47.5533 217.777 47.02C218.017 46.4867 218.137 45.9267 218.137 45.34V45.32H215.597C214.61 45.32 213.91 45.4933 213.497 45.84C213.097 46.1733 212.897 46.5933 212.897 47.1C212.897 47.62 213.083 48.04 213.457 48.36C213.843 48.6667 214.383 48.82 215.077 48.82ZM222.337 50V35.6H224.017V50H222.337ZM238.524 50.24C237.15 50.24 235.944 49.94 234.904 49.34C233.877 48.7267 233.07 47.8733 232.484 46.78C231.91 45.6867 231.624 44.4267 231.624 43C231.624 41.5733 231.91 40.32 232.484 39.24C233.07 38.1467 233.877 37.2933 234.904 36.68C235.944 36.0667 237.15 35.76 238.524 35.76C239.91 35.76 241.117 36.0667 242.144 36.68C243.184 37.2933 243.99 38.1467 244.564 39.24C245.137 40.32 245.424 41.5733 245.424 43C245.424 44.4267 245.137 45.6867 244.564 46.78C243.99 47.8733 243.184 48.7267 242.144 49.34C241.117 49.94 239.91 50.24 238.524 50.24ZM238.524 48.76C239.55 48.76 240.45 48.5333 241.224 48.08C242.01 47.6133 242.617 46.9533 243.044 46.1C243.484 45.2333 243.704 44.2 243.704 43C243.704 41.8 243.484 40.7733 243.044 39.92C242.617 39.0667 242.01 38.4133 241.224 37.96C240.45 37.4933 239.55 37.26 238.524 37.26C237.497 37.26 236.59 37.4933 235.804 37.96C235.03 38.4133 234.424 39.0667 233.984 39.92C233.557 40.7733 233.344 41.8 233.344 43C233.344 44.2 233.557 45.2333 233.984 46.1C234.424 46.9533 235.03 47.6133 235.804 48.08C236.59 48.5333 237.497 48.76 238.524 48.76ZM247.747 54.4V40.08H249.267L249.427 41.72C249.747 41.24 250.201 40.8067 250.787 40.42C251.387 40.0333 252.147 39.84 253.067 39.84C254.054 39.84 254.914 40.0667 255.647 40.52C256.381 40.9733 256.947 41.5933 257.347 42.38C257.761 43.1667 257.967 44.06 257.967 45.06C257.967 46.06 257.761 46.9533 257.347 47.74C256.947 48.5133 256.374 49.1267 255.627 49.58C254.894 50.02 254.034 50.24 253.047 50.24C252.234 50.24 251.507 50.0733 250.867 49.74C250.241 49.4067 249.761 48.94 249.427 48.34V54.4H247.747ZM252.867 48.78C253.534 48.78 254.121 48.6267 254.627 48.32C255.134 48 255.534 47.56 255.827 47C256.121 46.44 256.267 45.7867 256.267 45.04C256.267 44.2933 256.121 43.64 255.827 43.08C255.534 42.52 255.134 42.0867 254.627 41.78C254.121 41.46 253.534 41.3 252.867 41.3C252.201 41.3 251.614 41.46 251.107 41.78C250.601 42.0867 250.201 42.52 249.907 43.08C249.614 43.64 249.467 44.2933 249.467 45.04C249.467 45.7867 249.614 46.44 249.907 47C250.201 47.56 250.601 48 251.107 48.32C251.614 48.6267 252.201 48.78 252.867 48.78ZM264.766 50.24C263.819 50.24 262.979 50.0267 262.246 49.6C261.512 49.16 260.932 48.5533 260.506 47.78C260.092 47.0067 259.886 46.0933 259.886 45.04C259.886 44 260.092 43.0933 260.506 42.32C260.919 41.5333 261.492 40.9267 262.226 40.5C262.972 40.06 263.832 39.84 264.806 39.84C265.766 39.84 266.592 40.06 267.286 40.5C267.992 40.9267 268.532 41.4933 268.906 42.2C269.279 42.9067 269.466 43.6667 269.466 44.48C269.466 44.6267 269.459 44.7733 269.446 44.92C269.446 45.0667 269.446 45.2333 269.446 45.42H261.546C261.586 46.18 261.759 46.8133 262.066 47.32C262.386 47.8133 262.779 48.1867 263.246 48.44C263.726 48.6933 264.232 48.82 264.766 48.82C265.459 48.82 266.039 48.66 266.506 48.34C266.972 48.02 267.312 47.5867 267.526 47.04H269.186C268.919 47.96 268.406 48.7267 267.646 49.34C266.899 49.94 265.939 50.24 264.766 50.24ZM264.766 41.26C263.966 41.26 263.252 41.5067 262.626 42C262.012 42.48 261.659 43.1867 261.566 44.12H267.806C267.766 43.2267 267.459 42.5267 266.886 42.02C266.312 41.5133 265.606 41.26 264.766 41.26ZM271.693 50V40.08H273.213L273.353 41.98C273.659 41.3267 274.126 40.8067 274.753 40.42C275.379 40.0333 276.153 39.84 277.073 39.84V41.6H276.613C276.026 41.6 275.486 41.7067 274.993 41.92C274.499 42.12 274.106 42.4667 273.813 42.96C273.519 43.4533 273.373 44.1333 273.373 45V50H271.693ZM282.258 50.24C281.431 50.24 280.745 50.1 280.198 49.82C279.651 49.54 279.245 49.1667 278.978 48.7C278.711 48.2333 278.578 47.7267 278.578 47.18C278.578 46.1667 278.965 45.3867 279.738 44.84C280.511 44.2933 281.565 44.02 282.898 44.02H285.578V43.9C285.578 43.0333 285.351 42.38 284.898 41.94C284.445 41.4867 283.838 41.26 283.078 41.26C282.425 41.26 281.858 41.4267 281.378 41.76C280.911 42.08 280.618 42.5533 280.498 43.18H278.778C278.845 42.46 279.085 41.8533 279.498 41.36C279.925 40.8667 280.451 40.4933 281.078 40.24C281.705 39.9733 282.371 39.84 283.078 39.84C284.465 39.84 285.505 40.2133 286.198 40.96C286.905 41.6933 287.258 42.6733 287.258 43.9V50H285.758L285.658 48.22C285.378 48.78 284.965 49.26 284.418 49.66C283.885 50.0467 283.165 50.24 282.258 50.24ZM282.518 48.82C283.158 48.82 283.705 48.6533 284.158 48.32C284.625 47.9867 284.978 47.5533 285.218 47.02C285.458 46.4867 285.578 45.9267 285.578 45.34V45.32H283.038C282.051 45.32 281.351 45.4933 280.938 45.84C280.538 46.1733 280.338 46.5933 280.338 47.1C280.338 47.62 280.525 48.04 280.898 48.36C281.285 48.6667 281.825 48.82 282.518 48.82ZM293.425 50C292.518 50 291.805 49.78 291.285 49.34C290.765 48.9 290.505 48.1067 290.505 46.96V41.5H288.785V40.08H290.505L290.725 37.7H292.185V40.08H295.105V41.5H292.185V46.96C292.185 47.5867 292.312 48.0133 292.565 48.24C292.818 48.4533 293.265 48.56 293.905 48.56H294.945V50H293.425ZM298.259 37.88C297.926 37.88 297.646 37.7733 297.419 37.56C297.206 37.3333 297.099 37.0533 297.099 36.72C297.099 36.4 297.206 36.1333 297.419 35.92C297.646 35.7067 297.926 35.6 298.259 35.6C298.579 35.6 298.853 35.7067 299.079 35.92C299.306 36.1333 299.419 36.4 299.419 36.72C299.419 37.0533 299.306 37.3333 299.079 37.56C298.853 37.7733 298.579 37.88 298.259 37.88ZM297.419 50V40.08H299.099V50H297.419ZM306.545 50.24C305.611 50.24 304.771 50.0267 304.025 49.6C303.278 49.1733 302.685 48.5733 302.245 47.8C301.818 47.0133 301.605 46.0933 301.605 45.04C301.605 43.9867 301.825 43.0733 302.265 42.3C302.705 41.5133 303.298 40.9067 304.045 40.48C304.805 40.0533 305.651 39.84 306.585 39.84C307.518 39.84 308.358 40.0533 309.105 40.48C309.851 40.9067 310.438 41.5133 310.865 42.3C311.305 43.0733 311.525 43.9867 311.525 45.04C311.525 46.0933 311.305 47.0133 310.865 47.8C310.425 48.5733 309.825 49.1733 309.065 49.6C308.318 50.0267 307.478 50.24 306.545 50.24ZM306.545 48.8C307.118 48.8 307.651 48.66 308.145 48.38C308.638 48.1 309.038 47.68 309.345 47.12C309.651 46.56 309.805 45.8667 309.805 45.04C309.805 44.2133 309.651 43.52 309.345 42.96C309.051 42.4 308.658 41.98 308.165 41.7C307.671 41.42 307.145 41.28 306.585 41.28C306.011 41.28 305.478 41.42 304.985 41.7C304.491 41.98 304.091 42.4 303.785 42.96C303.478 43.52 303.325 44.2133 303.325 45.04C303.325 45.8667 303.478 46.56 303.785 47.12C304.091 47.68 304.485 48.1 304.965 48.38C305.458 48.66 305.985 48.8 306.545 48.8ZM313.86 50V40.08H315.38L315.48 41.86C315.8 41.2333 316.26 40.74 316.86 40.38C317.46 40.02 318.14 39.84 318.9 39.84C320.074 39.84 321.007 40.2 321.7 40.92C322.407 41.6267 322.76 42.72 322.76 44.2V50H321.08V44.38C321.08 42.3133 320.227 41.28 318.52 41.28C317.667 41.28 316.954 41.5933 316.38 42.22C315.82 42.8333 315.54 43.7133 315.54 44.86V50H313.86ZM329.106 50.24C327.919 50.24 326.932 49.94 326.146 49.34C325.359 48.74 324.899 47.9267 324.766 46.9H326.486C326.592 47.42 326.866 47.8733 327.306 48.26C327.759 48.6333 328.366 48.82 329.126 48.82C329.832 48.82 330.352 48.6733 330.686 48.38C331.019 48.0733 331.186 47.7133 331.186 47.3C331.186 46.7 330.966 46.3 330.526 46.1C330.099 45.9 329.492 45.72 328.706 45.56C328.172 45.4533 327.639 45.3 327.106 45.1C326.572 44.9 326.126 44.62 325.766 44.26C325.406 43.8867 325.226 43.4 325.226 42.8C325.226 41.9333 325.546 41.2267 326.186 40.68C326.839 40.12 327.719 39.84 328.826 39.84C329.879 39.84 330.739 40.1067 331.406 40.64C332.086 41.16 332.479 41.9067 332.586 42.88H330.926C330.859 42.3733 330.639 41.98 330.266 41.7C329.906 41.4067 329.419 41.26 328.806 41.26C328.206 41.26 327.739 41.3867 327.406 41.64C327.086 41.8933 326.926 42.2267 326.926 42.64C326.926 43.04 327.132 43.3533 327.546 43.58C327.972 43.8067 328.546 44 329.266 44.16C329.879 44.2933 330.459 44.46 331.006 44.66C331.566 44.8467 332.019 45.1333 332.366 45.52C332.726 45.8933 332.906 46.44 332.906 47.16C332.919 48.0533 332.579 48.7933 331.886 49.38C331.206 49.9533 330.279 50.24 329.106 50.24Z" fill="#042F12"/>
<rect x="0.483754" y="0.499736" width="219" height="50" rx="25" transform="matrix(1 0 -0.032491 0.999472 26.4352 217.195)" fill="#F0FDF3"/>
<rect x="0.483754" y="0.499736" width="219" height="50" rx="25" transform="matrix(1 0 -0.032491 0.999472 26.4352 217.195)" stroke="#12A73D"/>
<path d="M55.1575 248.37C54.3362 248.37 53.6264 248.221 53.0281 247.922C52.4298 247.624 51.974 247.208 51.6607 246.675C51.3473 246.142 51.2021 245.523 51.225 244.82H52.633C52.6187 245.257 52.7069 245.662 52.8974 246.035C53.0883 246.398 53.3721 246.691 53.7489 246.915C54.1366 247.128 54.6185 247.234 55.1945 247.234C55.9518 247.234 56.5443 247.053 56.9721 246.691C57.3999 246.328 57.6226 245.875 57.6403 245.331C57.6549 244.884 57.5705 244.527 57.3871 244.26C57.2042 243.983 56.9501 243.759 56.625 243.588C56.3105 243.418 55.942 243.269 55.5195 243.141C55.1077 243.013 54.675 242.869 54.2216 242.709C53.3673 242.41 52.7392 242.043 52.3374 241.605C51.936 241.158 51.7469 240.577 51.7701 239.862C51.7789 239.265 51.9347 238.738 52.2376 238.279C52.5408 237.81 52.9579 237.448 53.4889 237.192C54.0309 236.925 54.6646 236.792 55.3899 236.792C56.1046 236.792 56.7189 236.925 57.2329 237.192C57.7576 237.458 58.1563 237.826 58.4291 238.295C58.7125 238.764 58.8498 239.297 58.8411 239.894H57.4331C57.4431 239.585 57.373 239.281 57.2227 238.983C57.0728 238.674 56.8356 238.423 56.5111 238.231C56.1974 238.039 55.7952 237.943 55.3045 237.943C54.6968 237.933 54.1905 238.087 53.7854 238.407C53.391 238.727 53.1846 239.169 53.1663 239.734C53.1507 240.214 53.272 240.582 53.5304 240.838C53.7994 241.094 54.1765 241.307 54.6616 241.477C55.1471 241.637 55.7063 241.824 56.3394 242.037C56.8665 242.229 57.3392 242.453 57.7576 242.709C58.1759 242.965 58.4958 243.295 58.7173 243.7C58.9495 244.105 59.0554 244.622 59.0349 245.251C59.0176 245.785 58.8625 246.291 58.5695 246.771C58.2769 247.24 57.8431 247.624 57.2681 247.922C56.7037 248.221 56.0002 248.37 55.1575 248.37ZM61.8968 238.487C61.6302 238.487 61.4089 238.402 61.2331 238.231C61.0684 238.05 60.9903 237.826 60.999 237.56C61.0073 237.304 61.0996 237.09 61.2758 236.92C61.4626 236.749 61.6894 236.664 61.9561 236.664C62.2121 236.664 62.428 236.749 62.6038 236.92C62.7796 237.09 62.8633 237.304 62.855 237.56C62.8463 237.826 62.7484 238.05 62.5611 238.231C62.3743 238.402 62.1528 238.487 61.8968 238.487ZM60.9098 248.178L61.1676 240.246H62.5116L62.2538 248.178H60.9098ZM64.5939 248.178L64.8518 240.246H66.0678L66.1263 241.398C66.3962 240.971 66.7483 240.641 67.1826 240.406C67.6169 240.172 68.1007 240.054 68.634 240.054C69.2633 240.054 69.7978 240.182 70.2375 240.438C70.6879 240.694 71.0272 241.083 71.2556 241.605C71.5485 241.126 71.9395 240.747 72.4285 240.47C72.9282 240.193 73.4607 240.054 74.026 240.054C74.9753 240.054 75.7233 240.342 76.2699 240.918C76.8169 241.483 77.0711 242.357 77.0327 243.54L76.8819 248.178H75.5539L75.7 243.684C75.7267 242.863 75.5814 242.245 75.2643 241.829C74.9471 241.414 74.4792 241.206 73.8606 241.206C73.2206 241.206 72.6791 241.456 72.2361 241.957C71.8042 242.448 71.5733 243.151 71.5435 244.068L71.4099 248.178H70.0659L70.212 243.684C70.2387 242.863 70.0934 242.245 69.7763 241.829C69.4591 241.414 68.9912 241.206 68.3726 241.206C67.7432 241.206 67.2071 241.456 66.7641 241.957C66.3322 242.448 66.1013 243.151 66.0715 244.068L65.9379 248.178H64.5939ZM78.792 251.696L79.1643 240.246H80.3803L80.4656 241.557C80.7341 241.174 81.108 240.827 81.5874 240.518C82.0775 240.209 82.6905 240.054 83.4265 240.054C84.2158 240.054 84.8979 240.235 85.4728 240.598C86.0477 240.96 86.4849 241.456 86.7845 242.085C87.0947 242.714 87.2368 243.428 87.2108 244.228C87.1848 245.028 86.9963 245.742 86.6452 246.371C86.3051 246.989 85.8304 247.48 85.2213 247.842C84.6232 248.194 83.9295 248.37 83.1402 248.37C82.4895 248.37 81.9125 248.237 81.4092 247.97C80.9165 247.704 80.5446 247.33 80.2936 246.851L80.136 251.696H78.792ZM83.0341 247.202C83.5675 247.202 84.0408 247.08 84.4541 246.835C84.8677 246.579 85.1992 246.227 85.4484 245.779C85.6976 245.331 85.8319 244.809 85.8513 244.212C85.8707 243.615 85.7704 243.093 85.5503 242.645C85.3302 242.197 85.0214 241.851 84.6241 241.605C84.2271 241.35 83.7619 241.222 83.2285 241.222C82.6952 241.222 82.2217 241.35 81.8081 241.605C81.3948 241.851 81.0635 242.197 80.8143 242.645C80.5651 243.093 80.4307 243.615 80.4113 244.212C80.3919 244.809 80.4923 245.331 80.7124 245.779C80.9325 246.227 81.2411 246.579 81.6381 246.835C82.0354 247.08 82.5008 247.202 83.0341 247.202ZM88.9533 248.178L89.3276 236.664H90.6716L90.2973 248.178H88.9533ZM93.6312 238.487C93.3645 238.487 93.1433 238.402 92.9675 238.231C92.8027 238.05 92.7247 237.826 92.7333 237.56C92.7417 237.304 92.8339 237.09 93.0101 236.92C93.197 236.749 93.4238 236.664 93.6905 236.664C93.9465 236.664 94.1623 236.749 94.3381 236.92C94.5139 237.09 94.5977 237.304 94.5893 237.56C94.5807 237.826 94.4827 238.05 94.2955 238.231C94.1086 238.402 93.8872 238.487 93.6312 238.487ZM92.6442 248.178L92.902 240.246H94.246L93.9882 248.178H92.6442ZM96.7603 248.178L96.9812 241.382H95.7812L95.8181 240.246H97.0181L97.0628 238.871C97.0878 238.103 97.298 237.544 97.6934 237.192C98.0889 236.84 98.6546 236.664 99.3906 236.664H100.191L100.153 237.815H99.5611C99.1558 237.815 98.865 237.901 98.6888 238.071C98.513 238.231 98.4186 238.508 98.4058 238.903L98.3621 240.246H103.29L103.032 248.178H101.688L101.909 241.382H98.3252L98.1043 248.178H96.7603ZM102.684 238.727C102.428 238.727 102.212 238.642 102.036 238.471C101.86 238.29 101.777 238.066 101.786 237.799C101.794 237.544 101.892 237.33 102.078 237.16C102.265 236.989 102.487 236.904 102.743 236.904C103.009 236.904 103.225 236.989 103.39 237.16C103.566 237.33 103.65 237.544 103.642 237.799C103.633 238.066 103.535 238.29 103.348 238.471C103.172 238.642 102.95 238.727 102.684 238.727ZM108.968 248.37C108.211 248.37 107.544 248.199 106.969 247.858C106.394 247.506 105.945 247.021 105.624 246.403C105.314 245.785 105.172 245.054 105.199 244.212C105.226 243.38 105.415 242.656 105.766 242.037C106.117 241.408 106.592 240.923 107.189 240.582C107.798 240.23 108.492 240.054 109.27 240.054C110.038 240.054 110.694 240.23 111.237 240.582C111.792 240.923 112.209 241.376 112.489 241.941C112.769 242.506 112.899 243.114 112.878 243.764C112.874 243.882 112.865 243.999 112.85 244.116C112.847 244.233 112.842 244.367 112.837 244.516H106.517C106.53 245.124 106.652 245.63 106.884 246.035C107.127 246.43 107.432 246.728 107.799 246.931C108.176 247.133 108.578 247.234 109.005 247.234C109.56 247.234 110.028 247.107 110.41 246.851C110.791 246.595 111.074 246.248 111.259 245.811H112.587C112.35 246.547 111.92 247.16 111.296 247.65C110.683 248.13 109.907 248.37 108.968 248.37ZM109.202 241.19C108.562 241.19 107.985 241.387 107.47 241.781C106.967 242.165 106.666 242.73 106.567 243.476H111.559C111.55 242.762 111.323 242.202 110.878 241.797C110.432 241.392 109.874 241.19 109.202 241.19ZM117.55 248.37C116.6 248.37 115.819 248.13 115.205 247.65C114.591 247.17 114.244 246.52 114.164 245.699H115.54C115.612 246.115 115.819 246.478 116.161 246.787C116.514 247.085 116.994 247.234 117.602 247.234C118.168 247.234 118.588 247.117 118.862 246.883C119.137 246.637 119.279 246.35 119.29 246.019C119.306 245.539 119.14 245.22 118.793 245.06C118.457 244.9 117.976 244.756 117.351 244.628C116.927 244.543 116.505 244.42 116.083 244.26C115.662 244.1 115.312 243.876 115.033 243.588C114.755 243.29 114.623 242.901 114.639 242.421C114.661 241.728 114.936 241.163 115.462 240.726C115.999 240.278 116.711 240.054 117.596 240.054C118.439 240.054 119.12 240.267 119.639 240.694C120.17 241.11 120.465 241.707 120.525 242.485H119.197C119.157 242.08 118.991 241.765 118.7 241.541C118.419 241.307 118.034 241.19 117.543 241.19C117.063 241.19 116.686 241.291 116.413 241.493C116.15 241.696 116.014 241.963 116.003 242.293C115.993 242.613 116.15 242.863 116.475 243.045C116.81 243.226 117.264 243.38 117.836 243.508C118.323 243.615 118.782 243.748 119.215 243.908C119.658 244.057 120.013 244.287 120.28 244.596C120.559 244.894 120.688 245.331 120.67 245.907C120.657 246.621 120.366 247.213 119.796 247.682C119.237 248.141 118.488 248.37 117.55 248.37ZM129.454 248.178L129.782 238.087H126.438L126.474 236.984H134.506L134.47 238.087H131.126L130.798 248.178H129.454ZM134.797 248.178L135.055 240.246H136.271L136.333 241.765C136.596 241.243 136.983 240.827 137.494 240.518C138.005 240.209 138.629 240.054 139.365 240.054L139.319 241.462H138.951C138.482 241.462 138.047 241.547 137.647 241.717C137.247 241.877 136.924 242.154 136.676 242.549C136.429 242.943 136.294 243.487 136.271 244.18L136.141 248.178H134.797ZM143.243 248.37C142.582 248.37 142.036 248.258 141.606 248.034C141.176 247.81 140.861 247.512 140.659 247.139C140.458 246.765 140.365 246.36 140.379 245.923C140.405 245.113 140.735 244.489 141.368 244.052C142.001 243.615 142.85 243.396 143.917 243.396H146.061L146.064 243.301C146.087 242.608 145.922 242.085 145.571 241.733C145.22 241.371 144.741 241.19 144.133 241.19C143.61 241.19 143.152 241.323 142.76 241.589C142.378 241.845 142.131 242.224 142.019 242.725H140.643C140.715 242.149 140.923 241.664 141.266 241.27C141.62 240.875 142.051 240.577 142.559 240.374C143.067 240.161 143.604 240.054 144.17 240.054C145.279 240.054 146.101 240.353 146.637 240.95C147.183 241.536 147.44 242.32 147.408 243.301L147.25 248.178H146.05L146.016 246.755C145.777 247.202 145.434 247.586 144.986 247.906C144.55 248.215 143.969 248.37 143.243 248.37ZM143.488 247.234C144 247.234 144.442 247.101 144.813 246.835C145.195 246.568 145.489 246.222 145.695 245.795C145.901 245.369 146.011 244.921 146.027 244.452L146.027 244.436H143.995C143.206 244.436 142.641 244.575 142.302 244.852C141.973 245.118 141.802 245.454 141.789 245.859C141.775 246.275 141.914 246.611 142.204 246.867C142.506 247.112 142.934 247.234 143.488 247.234ZM149.266 248.178L149.524 240.246H150.74L150.773 241.669C151.046 241.168 151.426 240.774 151.916 240.486C152.405 240.198 152.954 240.054 153.562 240.054C154.501 240.054 155.238 240.342 155.774 240.918C156.321 241.483 156.575 242.357 156.537 243.54L156.386 248.178H155.042L155.188 243.684C155.242 242.032 154.586 241.206 153.22 241.206C152.538 241.206 151.959 241.456 151.484 241.957C151.02 242.448 150.773 243.151 150.743 244.068L150.61 248.178H149.266ZM161.456 248.37C160.506 248.37 159.725 248.13 159.111 247.65C158.497 247.17 158.151 246.52 158.071 245.699H159.447C159.518 246.115 159.725 246.478 160.067 246.787C160.42 247.085 160.901 247.234 161.509 247.234C162.074 247.234 162.494 247.117 162.768 246.883C163.043 246.637 163.185 246.35 163.196 246.019C163.212 245.539 163.046 245.22 162.699 245.06C162.363 244.9 161.883 244.756 161.257 244.628C160.834 244.543 160.411 244.42 159.989 244.26C159.568 244.1 159.218 243.876 158.939 243.588C158.661 243.29 158.53 242.901 158.545 242.421C158.568 241.728 158.842 241.163 159.368 240.726C159.906 240.278 160.617 240.054 161.502 240.054C162.345 240.054 163.026 240.267 163.545 240.694C164.076 241.11 164.371 241.707 164.431 242.485H163.103C163.063 242.08 162.897 241.765 162.606 241.541C162.325 241.307 161.94 241.19 161.449 241.19C160.969 241.19 160.593 241.291 160.319 241.493C160.057 241.696 159.92 241.963 159.909 242.293C159.899 242.613 160.056 242.863 160.381 243.045C160.716 243.226 161.17 243.38 161.742 243.508C162.229 243.615 162.689 243.748 163.121 243.908C163.564 244.057 163.919 244.287 164.186 244.596C164.465 244.894 164.595 245.331 164.576 245.907C164.563 246.621 164.272 247.213 163.702 247.682C163.143 248.141 162.394 248.37 161.456 248.37ZM169.056 248.37C168.394 248.37 167.849 248.258 167.419 248.034C166.989 247.81 166.673 247.512 166.472 247.139C166.271 246.765 166.177 246.36 166.191 245.923C166.218 245.113 166.547 244.489 167.18 244.052C167.813 243.615 168.663 243.396 169.729 243.396H171.873L171.877 243.301C171.899 242.608 171.735 242.085 171.384 241.733C171.033 241.371 170.553 241.19 169.945 241.19C169.423 241.19 168.965 241.323 168.572 241.589C168.191 241.845 167.944 242.224 167.831 242.725H166.455C166.527 242.149 166.735 241.664 167.079 241.27C167.433 240.875 167.864 240.577 168.372 240.374C168.88 240.161 169.417 240.054 169.982 240.054C171.091 240.054 171.914 240.353 172.449 240.95C172.995 241.536 173.252 242.32 173.221 243.301L173.062 248.178H171.862L171.828 246.755C171.59 247.202 171.247 247.586 170.799 247.906C170.362 248.215 169.781 248.37 169.056 248.37ZM169.301 247.234C169.813 247.234 170.254 247.101 170.626 246.835C171.008 246.568 171.302 246.222 171.507 245.795C171.713 245.369 171.824 244.921 171.839 244.452L171.84 244.436H169.808C169.018 244.436 168.454 244.575 168.114 244.852C167.785 245.118 167.615 245.454 167.601 245.859C167.588 246.275 167.726 246.611 168.017 246.867C168.318 247.112 168.746 247.234 169.301 247.234ZM178.72 248.37C177.963 248.37 177.286 248.199 176.689 247.858C176.103 247.506 175.644 247.021 175.312 246.403C174.991 245.774 174.844 245.044 174.871 244.212C174.898 243.38 175.092 242.656 175.454 242.037C175.826 241.408 176.317 240.923 176.925 240.582C177.545 240.23 178.233 240.054 178.99 240.054C179.929 240.054 180.71 240.299 181.334 240.79C181.969 241.28 182.359 241.936 182.503 242.757H181.127C181.036 242.266 180.787 241.888 180.379 241.621C179.972 241.344 179.492 241.206 178.937 241.206C178.489 241.206 178.064 241.318 177.662 241.541C177.26 241.765 176.929 242.101 176.669 242.549C176.409 242.997 176.269 243.551 176.247 244.212C176.226 244.873 176.33 245.427 176.561 245.875C176.792 246.323 177.101 246.664 177.488 246.899C177.875 247.123 178.293 247.234 178.741 247.234C179.296 247.234 179.785 247.101 180.21 246.835C180.635 246.557 180.909 246.168 181.032 245.667H182.408C182.222 246.467 181.795 247.117 181.128 247.618C180.462 248.119 179.659 248.37 178.72 248.37ZM187.121 248.178C186.395 248.178 185.83 248.002 185.426 247.65C185.021 247.298 184.834 246.664 184.864 245.747L185.005 241.382H183.629L183.666 240.246H185.042L185.28 238.343H186.448L186.386 240.246H188.722L188.685 241.382H186.349L186.208 245.747C186.191 246.248 186.281 246.589 186.478 246.771C186.675 246.941 187.03 247.027 187.542 247.027H188.374L188.337 248.178H187.121ZM191.303 238.487C191.036 238.487 190.815 238.402 190.639 238.231C190.475 238.05 190.397 237.826 190.405 237.56C190.414 237.304 190.506 237.09 190.682 236.92C190.869 236.749 191.096 236.664 191.362 236.664C191.618 236.664 191.834 236.749 192.01 236.92C192.186 237.09 192.27 237.304 192.261 237.56C192.253 237.826 192.155 238.05 191.967 238.231C191.78 238.402 191.559 238.487 191.303 238.487ZM190.316 248.178L190.574 240.246H191.918L191.66 248.178H190.316ZM197.61 248.37C196.863 248.37 196.197 248.199 195.611 247.858C195.024 247.517 194.565 247.037 194.233 246.419C193.912 245.79 193.766 245.054 193.793 244.212C193.82 243.37 194.02 242.64 194.392 242.021C194.765 241.392 195.255 240.907 195.864 240.566C196.483 240.225 197.166 240.054 197.912 240.054C198.659 240.054 199.325 240.225 199.912 240.566C200.498 240.907 200.951 241.392 201.272 242.021C201.604 242.64 201.756 243.37 201.729 244.212C201.702 245.054 201.502 245.79 201.129 246.419C200.757 247.037 200.262 247.517 199.643 247.858C199.034 248.199 198.357 248.37 197.61 248.37ZM197.647 247.218C198.106 247.218 198.536 247.107 198.938 246.883C199.34 246.659 199.671 246.323 199.931 245.875C200.191 245.427 200.332 244.873 200.353 244.212C200.375 243.551 200.27 242.997 200.039 242.549C199.819 242.101 199.515 241.765 199.128 241.541C198.741 241.318 198.323 241.206 197.875 241.206C197.416 241.206 196.986 241.318 196.584 241.541C196.182 241.765 195.851 242.101 195.591 242.549C195.331 242.997 195.191 243.551 195.169 244.212C195.148 244.873 195.252 245.427 195.483 245.875C195.714 246.323 196.018 246.659 196.394 246.883C196.782 247.107 197.199 247.218 197.647 247.218ZM203.469 248.178L203.727 240.246H204.943L204.976 241.669C205.249 241.168 205.63 240.774 206.119 240.486C206.608 240.198 207.157 240.054 207.765 240.054C208.704 240.054 209.441 240.342 209.977 240.918C210.524 241.483 210.778 242.357 210.74 243.54L210.589 248.178H209.245L209.391 243.684C209.445 242.032 208.789 241.206 207.424 241.206C206.741 241.206 206.162 241.456 205.687 241.957C205.223 242.448 204.976 243.151 204.947 244.068L204.813 248.178H203.469ZM215.659 248.37C214.71 248.37 213.928 248.13 213.314 247.65C212.701 247.17 212.354 246.52 212.274 245.699H213.65C213.722 246.115 213.928 246.478 214.27 246.787C214.623 247.085 215.104 247.234 215.712 247.234C216.277 247.234 216.697 247.117 216.971 246.883C217.246 246.637 217.389 246.35 217.399 246.019C217.415 245.539 217.249 245.22 216.903 245.06C216.566 244.9 216.086 244.756 215.461 244.628C215.037 244.543 214.614 244.42 214.193 244.26C213.771 244.1 213.421 243.876 213.142 243.588C212.864 243.29 212.733 242.901 212.748 242.421C212.771 241.728 213.045 241.163 213.571 240.726C214.109 240.278 214.82 240.054 215.705 240.054C216.548 240.054 217.229 240.267 217.748 240.694C218.279 241.11 218.574 241.707 218.634 242.485H217.306C217.266 242.08 217.1 241.765 216.809 241.541C216.529 241.307 216.143 241.19 215.652 241.19C215.172 241.19 214.796 241.291 214.522 241.493C214.26 241.696 214.123 241.963 214.112 242.293C214.102 242.613 214.259 242.863 214.584 243.045C214.919 243.226 215.373 243.38 215.945 243.508C216.432 243.615 216.892 243.748 217.324 243.908C217.767 244.057 218.122 244.287 218.39 244.596C218.668 244.894 218.798 245.331 218.779 245.907C218.766 246.621 218.475 247.213 217.905 247.682C217.346 248.141 216.598 248.37 215.659 248.37Z" fill="#042F12"/>
<rect x="0.350941" y="0.626828" width="281" height="50" rx="25" transform="matrix(0.957933 0.286992 -0.25605 0.966663 102.986 114.808)" fill="#F3FAF8"/>
<rect x="0.350941" y="0.626828" width="281" height="50" rx="25" transform="matrix(0.957933 0.286992 -0.25605 0.966663 102.986 114.808)" stroke="#56AB9C"/>
<path d="M119.956 152.369L122.823 141.542L126.287 142.58C127.125 142.831 127.773 143.175 128.23 143.613C128.688 144.05 128.98 144.55 129.107 145.111C129.235 145.672 129.22 146.246 129.065 146.834C128.884 147.515 128.538 148.073 128.025 148.509C127.523 148.949 126.858 149.167 126.032 149.164L127.144 154.522L125.627 154.068L124.634 148.946L124.542 148.918L122.427 148.285L121.243 152.754L119.956 152.369ZM122.697 147.264L124.782 147.888C125.61 148.136 126.266 148.116 126.75 147.827C127.235 147.538 127.56 147.079 127.727 146.45C127.896 145.811 127.841 145.249 127.561 144.764C127.295 144.273 126.737 143.9 125.889 143.646L123.82 143.026L122.697 147.264ZM131.869 156.138C131.144 155.921 130.544 155.563 130.069 155.065C129.597 154.556 129.277 153.954 129.108 153.258C128.95 152.565 128.979 151.811 129.195 150.996C129.408 150.192 129.752 149.539 130.227 149.035C130.705 148.522 131.268 148.184 131.918 148.023C132.58 147.854 133.284 147.881 134.03 148.105C134.766 148.325 135.354 148.685 135.795 149.185C136.25 149.677 136.547 150.239 136.689 150.871C136.83 151.503 136.817 152.134 136.651 152.763C136.621 152.876 136.586 152.988 136.545 153.099C136.515 153.212 136.481 153.341 136.443 153.485L130.389 151.671C130.264 152.268 130.267 152.798 130.398 153.26C130.542 153.715 130.767 154.094 131.073 154.397C131.389 154.703 131.751 154.918 132.16 155.04C132.691 155.199 133.169 155.209 133.592 155.068C134.015 154.928 134.364 154.671 134.64 154.297L135.912 154.678C135.519 155.329 134.969 155.804 134.261 156.103C133.565 156.396 132.768 156.408 131.869 156.138ZM133.709 149.194C133.095 149.01 132.498 149.037 131.917 149.275C131.349 149.505 130.933 149.97 130.67 150.671L135.452 152.103C135.605 151.403 135.513 150.792 135.178 150.268C134.842 149.745 134.352 149.387 133.709 149.194ZM140.626 158.762C139.87 158.535 139.252 158.161 138.773 157.639C138.304 157.12 137.991 156.509 137.836 155.806C137.69 155.105 137.72 154.369 137.925 153.595C138.13 152.822 138.47 152.184 138.945 151.681C139.423 151.167 139.988 150.824 140.64 150.653C141.295 150.47 142.005 150.494 142.772 150.724C143.395 150.91 143.913 151.205 144.324 151.606C144.736 152.008 145.014 152.481 145.157 153.024L146.414 148.276L147.702 148.662L144.752 159.798L143.587 159.449L143.801 158.144C143.457 158.441 143.016 158.671 142.477 158.832C141.938 158.993 141.321 158.97 140.626 158.762ZM141.063 157.674C141.574 157.827 142.055 157.843 142.506 157.722C142.97 157.594 143.367 157.346 143.696 156.977C144.035 156.611 144.282 156.14 144.435 155.562C144.588 154.985 144.609 154.446 144.499 153.946C144.399 153.448 144.181 153.021 143.846 152.665C143.523 152.301 143.106 152.043 142.595 151.889C142.094 151.739 141.612 151.729 141.148 151.857C140.697 151.977 140.302 152.221 139.962 152.586C139.633 152.955 139.392 153.428 139.239 154.006C139.086 154.583 139.059 155.121 139.159 155.618C139.269 156.118 139.486 156.55 139.808 156.914C140.144 157.271 140.562 157.524 141.063 157.674ZM149.576 161.443C148.677 161.174 148.034 160.686 147.647 159.98C147.263 159.264 147.223 158.334 147.526 157.19L148.714 152.704L150.002 153.09L148.85 157.436C148.427 159.034 148.864 160.028 150.162 160.417C150.826 160.616 151.436 160.542 151.99 160.197C152.558 159.844 152.959 159.224 153.194 158.337L154.247 154.362L155.535 154.748L153.503 162.419L152.338 162.07L152.61 160.666C152.247 161.08 151.794 161.356 151.25 161.494C150.716 161.634 150.158 161.618 149.576 161.443ZM159.067 164.287C158.342 164.069 157.732 163.708 157.236 163.204C156.754 162.692 156.424 162.087 156.245 161.388C156.079 160.681 156.103 159.926 156.316 159.122C156.529 158.318 156.878 157.666 157.364 157.165C157.862 156.658 158.441 156.325 159.101 156.167C159.773 156.001 160.472 156.027 161.198 156.244C162.097 156.513 162.79 156.977 163.277 157.635C163.775 158.296 164.001 159.048 163.954 159.891L162.636 159.496C162.659 158.991 162.506 158.55 162.176 158.173C161.848 157.786 161.419 157.512 160.887 157.353C160.458 157.224 160.026 157.212 159.59 157.315C159.155 157.418 158.762 157.651 158.413 158.014C158.063 158.377 157.803 158.878 157.634 159.517C157.465 160.156 157.44 160.728 157.561 161.231C157.681 161.734 157.9 162.156 158.218 162.496C158.539 162.826 158.914 163.055 159.343 163.184C159.874 163.343 160.373 163.353 160.84 163.215C161.309 163.066 161.659 162.765 161.89 162.311L163.208 162.706C162.85 163.433 162.295 163.946 161.543 164.244C160.792 164.542 159.966 164.556 159.067 164.287ZM167.732 166.882C167.006 166.665 166.406 166.307 165.932 165.809C165.46 165.3 165.14 164.698 164.971 164.002C164.813 163.309 164.841 162.555 165.057 161.741C165.27 160.936 165.614 160.283 166.089 159.78C166.567 159.266 167.131 158.929 167.78 158.767C168.443 158.598 169.147 158.626 169.893 158.849C170.628 159.069 171.217 159.429 171.658 159.929C172.112 160.421 172.41 160.983 172.551 161.615C172.693 162.248 172.68 162.878 172.513 163.507C172.483 163.621 172.448 163.732 172.408 163.843C172.378 163.956 172.344 164.085 172.306 164.23L166.251 162.416C166.126 163.013 166.13 163.542 166.261 164.004C166.405 164.459 166.63 164.838 166.936 165.141C167.252 165.448 167.614 165.662 168.023 165.784C168.554 165.944 169.031 165.953 169.454 165.813C169.878 165.672 170.227 165.415 170.502 165.041L171.774 165.423C171.382 166.073 170.831 166.548 170.123 166.848C169.428 167.14 168.631 167.152 167.732 166.882ZM169.571 159.938C168.958 159.754 168.361 159.781 167.78 160.019C167.211 160.249 166.796 160.715 166.533 161.415L171.315 162.848C171.467 162.148 171.376 161.536 171.04 161.012C170.705 160.489 170.215 160.131 169.571 159.938ZM175.952 169.345C175.043 169.073 174.348 168.614 173.868 167.97C173.388 167.325 173.202 166.59 173.31 165.766L174.628 166.161C174.604 166.587 174.72 167.001 174.978 167.401C175.249 167.794 175.676 168.077 176.258 168.252C176.8 168.414 177.228 168.42 177.544 168.27C177.862 168.109 178.064 167.869 178.148 167.549C178.271 167.085 178.185 166.725 177.888 166.47C177.602 166.217 177.174 165.939 176.604 165.634C176.217 165.429 175.84 165.188 175.472 164.911C175.105 164.634 174.82 164.315 174.617 163.954C174.418 163.583 174.38 163.165 174.503 162.701C174.68 162.031 175.07 161.558 175.673 161.282C176.288 160.999 177.02 160.984 177.868 161.238C178.675 161.48 179.28 161.884 179.681 162.449C180.096 163.008 180.244 163.675 180.127 164.453L178.854 164.071C178.907 163.664 178.819 163.31 178.59 163.007C178.375 162.698 178.032 162.473 177.562 162.332C177.102 162.194 176.718 162.185 176.411 162.304C176.114 162.427 175.923 162.648 175.838 162.967C175.756 163.277 175.851 163.567 176.121 163.837C176.401 164.11 176.801 164.391 177.32 164.68C177.763 164.924 178.173 165.186 178.551 165.466C178.942 165.739 179.231 166.065 179.417 166.444C179.617 166.815 179.643 167.279 179.495 167.836C179.322 168.53 178.91 169.024 178.259 169.318C177.62 169.606 176.851 169.615 175.952 169.345ZM184.211 171.619L191.033 161.977L192.397 162.386L193.469 174.393L192.104 173.984L191.861 170.906L187.294 169.538L185.56 172.023L184.211 171.619ZM187.955 168.601L191.756 169.74L191.273 163.819L187.955 168.601ZM197.967 175.941C197.211 175.714 196.593 175.34 196.114 174.818C195.645 174.299 195.333 173.688 195.177 172.985C195.031 172.285 195.061 171.548 195.266 170.774C195.471 170.001 195.811 169.363 196.286 168.86C196.764 168.346 197.329 168.004 197.981 167.832C198.636 167.65 199.347 167.673 200.113 167.903C200.736 168.09 201.254 168.384 201.666 168.785C202.078 169.187 202.355 169.66 202.498 170.203L203.756 165.455L205.043 165.841L202.093 176.977L200.928 176.628L201.142 175.323C200.798 175.62 200.357 175.85 199.818 176.011C199.279 176.172 198.662 176.149 197.967 175.941ZM198.404 174.853C198.915 175.006 199.396 175.022 199.847 174.901C200.311 174.773 200.708 174.525 201.037 174.156C201.377 173.79 201.623 173.319 201.776 172.741C201.929 172.164 201.95 171.625 201.84 171.125C201.74 170.627 201.523 170.2 201.187 169.844C200.864 169.48 200.447 169.222 199.936 169.069C199.436 168.919 198.953 168.908 198.489 169.036C198.038 169.157 197.643 169.4 197.303 169.766C196.974 170.134 196.733 170.607 196.58 171.185C196.427 171.762 196.401 172.3 196.5 172.797C196.611 173.297 196.827 173.73 197.15 174.093C197.485 174.45 197.904 174.703 198.404 174.853ZM204.192 177.605L206.224 169.934L207.389 170.283L207.186 171.424C207.54 171.085 207.952 170.863 208.421 170.759C208.89 170.655 209.379 170.679 209.89 170.832C210.493 171.013 210.976 171.291 211.34 171.667C211.714 172.046 211.951 172.524 212.053 173.099C212.441 172.715 212.901 172.457 213.432 172.327C213.973 172.2 214.514 172.217 215.056 172.38C215.965 172.652 216.617 173.148 217.011 173.867C217.408 174.576 217.454 175.502 217.151 176.647L215.963 181.132L214.691 180.751L215.842 176.405C216.053 175.611 216.053 174.965 215.842 174.468C215.632 173.971 215.231 173.634 214.638 173.456C214.025 173.273 213.45 173.362 212.913 173.724C212.389 174.079 212.009 174.7 211.774 175.587L210.721 179.562L209.434 179.176L210.585 174.83C210.795 174.036 210.795 173.39 210.585 172.893C210.375 172.396 209.973 172.059 209.381 171.881C208.778 171.701 208.208 171.792 207.671 172.154C207.147 172.509 206.767 173.13 206.532 174.016L205.48 177.991L204.192 177.605ZM221.167 172.574C220.911 172.498 220.719 172.351 220.589 172.134C220.472 171.91 220.447 171.669 220.515 171.411C220.581 171.164 220.717 170.982 220.925 170.866C221.142 170.753 221.378 170.735 221.634 170.811C221.879 170.885 222.067 171.03 222.197 171.247C222.327 171.464 222.359 171.696 222.293 171.944C222.225 172.201 222.081 172.392 221.861 172.515C221.643 172.628 221.412 172.648 221.167 172.574ZM218.04 181.754L220.072 174.083L221.36 174.469L219.328 182.14L218.04 181.754ZM221.57 182.812L223.602 175.14L224.766 175.489L224.478 176.889C224.852 176.478 225.306 176.202 225.839 176.061C226.373 175.92 226.931 175.937 227.513 176.112C228.412 176.381 229.054 176.874 229.438 177.59C229.834 178.299 229.881 179.225 229.578 180.37L228.39 184.855L227.103 184.469L228.254 180.123C228.677 178.525 228.235 177.53 226.927 177.138C226.273 176.942 225.662 177.021 225.094 177.374C224.54 177.719 224.145 178.336 223.91 179.222L222.857 183.197L221.57 182.812ZM233.605 176.301C233.35 176.224 233.157 176.078 233.027 175.861C232.91 175.636 232.885 175.395 232.954 175.137C233.019 174.89 233.156 174.708 233.363 174.592C233.58 174.479 233.817 174.461 234.072 174.538C234.317 174.611 234.505 174.756 234.635 174.973C234.765 175.19 234.797 175.423 234.732 175.67C234.663 175.928 234.519 176.118 234.299 176.242C234.082 176.355 233.85 176.374 233.605 176.301ZM230.479 185.481L232.511 177.809L233.798 178.195L231.766 185.866L230.479 185.481ZM236.871 187.596C235.961 187.324 235.267 186.865 234.787 186.221C234.307 185.576 234.121 184.841 234.229 184.017L235.547 184.412C235.522 184.838 235.639 185.252 235.897 185.652C236.168 186.044 236.594 186.328 237.177 186.503C237.718 186.665 238.147 186.671 238.463 186.521C238.781 186.36 238.982 186.12 239.067 185.8C239.19 185.336 239.103 184.976 238.807 184.721C238.521 184.468 238.093 184.189 237.523 183.885C237.136 183.68 236.759 183.439 236.391 183.162C236.023 182.885 235.738 182.566 235.536 182.205C235.337 181.833 235.298 181.416 235.421 180.952C235.599 180.282 235.989 179.808 236.591 179.533C237.207 179.25 237.938 179.235 238.786 179.489C239.594 179.731 240.198 180.135 240.6 180.7C241.014 181.258 241.163 181.926 241.045 182.703L239.773 182.322C239.826 181.915 239.738 181.56 239.509 181.258C239.293 180.949 238.95 180.724 238.48 180.583C238.02 180.445 237.637 180.436 237.33 180.555C237.032 180.678 236.841 180.899 236.757 181.218C236.675 181.528 236.769 181.817 237.039 182.088C237.32 182.361 237.72 182.642 238.239 182.931C238.681 183.175 239.092 183.437 239.47 183.717C239.861 183.99 240.149 184.316 240.336 184.694C240.535 185.066 240.561 185.53 240.414 186.087C240.241 186.781 239.829 187.275 239.177 187.569C238.539 187.857 237.77 187.866 236.871 187.596ZM244.331 189.631C243.636 189.423 243.135 189.089 242.826 188.629C242.518 188.17 242.481 187.496 242.716 186.61L243.834 182.387L242.516 181.992L242.807 180.894L244.125 181.289L244.781 179.499L245.9 179.834L245.413 181.675L247.65 182.345L247.36 183.443L245.122 182.773L244.003 186.995C243.875 187.48 243.885 187.839 244.032 188.072C244.183 188.296 244.503 188.481 244.994 188.627L245.791 188.866L245.496 189.98L244.331 189.631ZM247.254 190.507L249.286 182.835L250.451 183.184L250.169 184.686C250.538 184.251 251.002 183.956 251.562 183.801C252.121 183.646 252.753 183.674 253.458 183.885L253.098 185.246L252.745 185.14C252.296 185.006 251.86 184.964 251.438 185.016C251.019 185.057 250.647 185.235 250.321 185.549C249.995 185.863 249.743 186.355 249.566 187.026L248.542 190.892L247.254 190.507ZM255.302 193.118C254.668 192.928 254.171 192.662 253.809 192.32C253.448 191.978 253.213 191.596 253.104 191.174C252.995 190.752 252.997 190.329 253.109 189.907C253.316 189.123 253.772 188.609 254.477 188.363C255.181 188.118 256.045 188.149 257.066 188.455L259.12 189.07L259.145 188.977C259.322 188.307 259.283 187.75 259.025 187.306C258.771 186.851 258.352 186.536 257.77 186.362C257.269 186.212 256.801 186.211 256.365 186.358C255.941 186.498 255.62 186.797 255.399 187.254L254.081 186.859C254.28 186.318 254.588 185.904 255.006 185.617C255.434 185.334 255.914 185.166 256.446 185.114C256.981 185.051 257.519 185.101 258.061 185.264C259.123 185.582 259.844 186.11 260.222 186.846C260.614 187.575 260.684 188.414 260.432 189.363L259.183 194.08L258.033 193.736L258.321 192.337C257.992 192.705 257.577 192.982 257.076 193.165C256.588 193.342 255.997 193.326 255.302 193.118ZM255.792 192.08C256.282 192.227 256.736 192.223 257.151 192.069C257.577 191.919 257.937 191.665 258.23 191.308C258.523 190.95 258.73 190.545 258.85 190.091L258.854 190.076L256.907 189.492C256.151 189.266 255.579 189.239 255.192 189.412C254.817 189.578 254.578 189.857 254.474 190.249C254.367 190.651 254.424 191.019 254.645 191.352C254.878 191.678 255.261 191.92 255.792 192.08ZM263.909 195.496C263.214 195.288 262.712 194.954 262.404 194.495C262.096 194.035 262.059 193.362 262.294 192.475L263.412 188.253L262.094 187.858L262.385 186.76L263.703 187.154L264.359 185.364L265.478 185.7L264.991 187.54L267.228 188.211L266.937 189.309L264.7 188.638L263.581 192.861C263.453 193.345 263.463 193.704 263.61 193.938C263.761 194.161 264.081 194.346 264.572 194.493L265.369 194.732L265.074 195.845L263.909 195.496ZM270.096 187.233C269.841 187.157 269.648 187.01 269.518 186.793C269.401 186.569 269.377 186.328 269.445 186.07C269.51 185.823 269.647 185.641 269.854 185.525C270.071 185.412 270.308 185.394 270.563 185.47C270.808 185.544 270.996 185.689 271.126 185.906C271.256 186.123 271.288 186.355 271.223 186.603C271.155 186.86 271.01 187.051 270.79 187.174C270.573 187.287 270.341 187.307 270.096 187.233ZM266.97 196.413L269.002 188.742L270.289 189.128L268.257 196.799L266.97 196.413ZM272.691 198.127L271.841 189.593L273.19 189.997L273.774 197.1L277.773 191.37L279.091 191.765L274.177 198.573L272.691 198.127ZM281.471 200.958C280.746 200.741 280.146 200.383 279.671 199.885C279.199 199.376 278.879 198.774 278.711 198.078C278.552 197.385 278.581 196.631 278.797 195.817C279.01 195.012 279.354 194.359 279.829 193.855C280.307 193.342 280.871 193.004 281.52 192.843C282.182 192.674 282.886 192.701 283.632 192.925C284.368 193.145 284.956 193.505 285.398 194.005C285.852 194.497 286.15 195.059 286.291 195.691C286.432 196.323 286.42 196.954 286.253 197.583C286.223 197.696 286.188 197.808 286.148 197.919C286.118 198.032 286.083 198.161 286.045 198.305L279.991 196.492C279.866 197.088 279.869 197.618 280 198.08C280.144 198.535 280.369 198.914 280.675 199.217C280.991 199.523 281.353 199.738 281.762 199.86C282.294 200.019 282.771 200.029 283.194 199.888C283.617 199.748 283.966 199.491 284.242 199.117L285.514 199.498C285.121 200.149 284.571 200.624 283.863 200.923C283.168 201.216 282.371 201.228 281.471 200.958ZM283.311 194.014C282.698 193.83 282.101 193.857 281.519 194.095C280.951 194.325 280.535 194.79 280.273 195.491L285.055 196.923C285.207 196.223 285.115 195.612 284.78 195.088C284.444 194.565 283.955 194.207 283.311 194.014ZM290.962 203.601L293.829 192.775L297.6 193.904C298.356 194.131 298.946 194.441 299.371 194.836C299.809 195.223 300.095 195.664 300.228 196.161C300.364 196.647 300.364 197.147 300.227 197.663C300.041 198.364 299.706 198.859 299.222 199.148C298.747 199.44 298.229 199.585 297.667 199.584C298.046 199.775 298.367 200.044 298.628 200.389C298.89 200.734 299.063 201.12 299.149 201.547C299.245 201.976 299.234 202.412 299.116 202.856C298.972 203.402 298.706 203.863 298.32 204.237C297.937 204.6 297.45 204.838 296.858 204.95C296.268 205.052 295.601 204.991 294.855 204.768L290.962 203.601ZM293.863 197.893L296.254 198.609C296.939 198.814 297.507 198.812 297.96 198.603C298.415 198.383 298.719 197.985 298.872 197.407C299.017 196.861 298.949 196.367 298.669 195.927C298.398 195.49 297.901 195.163 297.175 194.945L294.83 194.243L293.863 197.893ZM292.536 202.904L295.004 203.644C295.739 203.864 296.351 203.864 296.84 203.643C297.331 203.412 297.659 202.987 297.823 202.368C297.984 201.76 297.903 201.212 297.58 200.726C297.259 200.229 296.741 199.874 296.026 199.659L293.589 198.929L292.536 202.904ZM302.83 207.357C301.931 207.088 301.288 206.6 300.901 205.895C300.518 205.179 300.477 204.248 300.78 203.104L301.969 198.619L303.256 199.004L302.105 203.35C301.681 204.949 302.119 205.942 303.416 206.331C304.08 206.53 304.69 206.456 305.245 206.111C305.812 205.758 306.214 205.138 306.449 204.251L307.502 200.276L308.789 200.662L306.757 208.333L305.592 207.984L305.865 206.58C305.501 206.995 305.048 207.27 304.504 207.408C303.971 207.549 303.413 207.532 302.83 207.357ZM308.876 208.968L310.908 201.297L312.073 201.646L311.791 203.147C312.16 202.712 312.624 202.417 313.184 202.262C313.743 202.107 314.375 202.135 315.08 202.346L314.72 203.708L314.367 203.602C313.918 203.467 313.482 203.426 313.06 203.477C312.641 203.519 312.269 203.697 311.943 204.011C311.617 204.325 311.365 204.817 311.188 205.487L310.164 209.354L308.876 208.968ZM317.559 211.77C316.803 211.543 316.185 211.169 315.706 210.647C315.237 210.128 314.924 209.517 314.769 208.814C314.623 208.114 314.653 207.377 314.858 206.604C315.063 205.83 315.403 205.192 315.878 204.689C316.356 204.175 316.921 203.833 317.573 203.661C318.228 203.479 318.938 203.502 319.705 203.732C320.328 203.919 320.846 204.213 321.258 204.615C321.67 205.016 321.947 205.489 322.09 206.032L323.348 201.284L324.635 201.67L321.685 212.806L320.52 212.457L320.734 211.152C320.39 211.45 319.949 211.679 319.41 211.84C318.871 212.002 318.254 211.978 317.559 211.77ZM317.996 210.682C318.507 210.835 318.988 210.851 319.439 210.731C319.903 210.603 320.3 210.354 320.629 209.985C320.969 209.62 321.215 209.148 321.368 208.571C321.521 207.993 321.542 207.454 321.432 206.954C321.332 206.457 321.115 206.03 320.779 205.673C320.456 205.309 320.039 205.051 319.528 204.898C319.028 204.748 318.545 204.737 318.081 204.865C317.63 204.986 317.235 205.229 316.895 205.595C316.566 205.963 316.325 206.437 316.172 207.014C316.019 207.591 315.993 208.129 316.092 208.626C316.203 209.127 316.419 209.559 316.742 209.922C317.077 210.279 317.496 210.532 317.996 210.682ZM327.153 214.644C326.427 214.427 325.827 214.069 325.353 213.571C324.881 213.062 324.561 212.46 324.392 211.764C324.234 211.071 324.262 210.317 324.478 209.502C324.691 208.698 325.035 208.044 325.51 207.541C325.988 207.028 326.552 206.69 327.201 206.529C327.864 206.36 328.568 206.387 329.314 206.611C330.049 206.831 330.638 207.191 331.079 207.691C331.533 208.183 331.831 208.745 331.972 209.377C332.114 210.009 332.101 210.64 331.934 211.269C331.904 211.382 331.869 211.494 331.829 211.605C331.799 211.718 331.765 211.847 331.727 211.991L325.672 210.177C325.547 210.774 325.551 211.304 325.682 211.766C325.826 212.221 326.051 212.6 326.357 212.903C326.673 213.209 327.035 213.424 327.444 213.546C327.975 213.705 328.452 213.715 328.875 213.574C329.299 213.434 329.648 213.177 329.923 212.803L331.195 213.184C330.803 213.835 330.252 214.31 329.544 214.609C328.849 214.902 328.052 214.914 327.153 214.644ZM328.992 207.7C328.379 207.516 327.782 207.543 327.201 207.781C326.632 208.011 326.217 208.476 325.954 209.177L330.736 210.609C330.888 209.909 330.797 209.298 330.461 208.774C330.126 208.251 329.636 207.893 328.992 207.7ZM332.51 216.049L334.542 208.377L335.707 208.726L335.419 210.126C335.793 209.715 336.246 209.439 336.78 209.298C337.313 209.158 337.871 209.175 338.454 209.349C339.353 209.618 339.994 210.111 340.378 210.827C340.775 211.536 340.822 212.462 340.519 213.607L339.331 218.092L338.043 217.707L339.194 213.36C339.618 211.762 339.175 210.767 337.868 210.375C337.214 210.179 336.603 210.258 336.035 210.611C335.48 210.957 335.085 211.573 334.851 212.46L333.798 216.435L332.51 216.049Z" fill="#0F2423"/>
</svg>
