<svg width="125" height="32" viewBox="0 0 125 32" fill="none" xmlns="http://www.w3.org/2000/svg">
<path d="M39.6338 24.8949L41.131 21.3956C42.7702 22.6096 44.9082 23.2521 47.0468 23.2521C48.615 23.2521 49.6127 22.6454 49.6127 21.7171C49.577 19.1461 40.1685 21.1457 40.0969 14.6819C40.0612 11.3968 42.9838 8.86157 47.1184 8.86157C49.577 8.86157 52.0365 9.46879 53.7826 10.8616L52.3836 14.4355C50.7771 13.4025 48.7929 12.6823 46.9042 12.6823C45.6213 12.6823 44.7656 13.289 44.7656 14.0751C44.8014 16.6104 54.282 15.2175 54.3888 21.3956C54.3888 24.7523 51.5372 27.1091 47.4742 27.1091C44.4809 27.1091 41.7367 26.3951 39.6333 24.8949H39.6338ZM99.2466 20.1285C98.8687 20.8 98.319 21.3588 97.6538 21.7478C96.9887 22.1367 96.2321 22.3417 95.4616 22.3417C93.0603 22.3417 91.1139 20.3913 91.1139 17.9853C91.1139 15.5794 93.0603 13.6289 95.4616 13.6289C96.2321 13.629 96.9887 13.834 97.6538 14.2229C98.319 14.6118 98.8687 15.1707 99.2466 15.8421L103.409 13.5318C101.85 10.7456 98.876 8.86157 95.4616 8.86157C90.4325 8.86157 86.3557 12.9461 86.3557 17.9853C86.3557 23.0241 90.4325 27.1091 95.4616 27.1091C98.876 27.1091 101.85 25.2251 103.409 22.4389L99.2466 20.1285ZM57.0896 26.7518H62.293V1.2666H57.0901L57.0896 26.7518ZM106.036 1.2666V26.7518H111.24V19.1165L117.406 26.7518H124.057L116.216 17.6812L123.486 9.21732H117.12L111.24 16.2541V1.2666H106.036ZM78.3237 9.21834V11.29C77.4686 9.86135 75.3658 8.86157 73.1562 8.86157C68.5943 8.86157 64.9949 12.897 64.9949 17.9674C64.9949 23.0379 68.5943 27.1091 73.1562 27.1091C75.3658 27.1091 77.4686 26.1093 78.3237 24.6807V26.7518H83.5271V9.21834H78.3237ZM78.3237 20.1638C77.5754 21.4135 76.0073 22.3412 74.2612 22.3412C71.8594 22.3412 69.913 20.3913 69.913 17.9853C69.913 15.5794 71.8594 13.6289 74.2612 13.6289C76.0073 13.6289 77.5754 14.5929 78.3237 15.8779V20.1638Z" fill="black"/>
<path d="M12.1545 0.703613C10.4683 0.703613 9.10147 2.07346 9.10147 3.76276C9.10107 4.16409 9.17972 4.56157 9.33293 4.93251C9.48614 5.30344 9.71091 5.64057 9.99441 5.92463C10.2779 6.2087 10.6146 6.43415 10.9852 6.5881C11.3558 6.74206 11.7532 6.8215 12.1545 6.82191H15.208V3.76276C15.2087 2.95219 14.8874 2.17454 14.3147 1.60086C13.7421 1.02717 12.9651 0.704426 12.1545 0.703613ZM12.1545 8.86134H4.01261C2.32637 8.86134 0.959595 10.2312 0.959595 11.921C0.959595 13.6103 2.32637 14.9801 4.01261 14.9801H12.155C13.8407 14.9801 15.208 13.6103 15.208 11.921C15.208 10.2312 13.8407 8.86134 12.1545 8.86134Z" fill="#36C5F0"/>
<path d="M31.4917 11.921C31.4917 10.2312 30.1244 8.86134 28.4382 8.86134C26.7519 8.86134 25.3851 10.2312 25.3851 11.921V14.9801H28.4382C29.2487 14.9793 30.0258 14.6566 30.5984 14.0829C31.1711 13.5092 31.4924 12.7316 31.4917 11.921ZM23.3498 11.921V3.76276C23.3505 2.95219 23.0292 2.17454 22.4565 1.60086C21.8839 1.02717 21.1069 0.704426 20.2963 0.703613C18.61 0.703613 17.2433 2.07346 17.2433 3.76276V11.9205C17.2433 13.6108 18.61 14.9807 20.2963 14.9807C21.1069 14.9798 21.8839 14.6571 22.4565 14.0834C23.0292 13.5097 23.3505 12.7321 23.3498 11.9215" fill="#2EB67D"/>
<path d="M20.2963 31.2961C21.1069 31.2952 21.8839 30.9725 22.4565 30.3988C23.0292 29.8251 23.3505 29.0475 23.3498 28.2369C23.3505 27.4263 23.0292 26.6487 22.4565 26.075C21.8839 25.5013 21.1069 25.1786 20.2963 25.1778H17.2433V28.2369C17.2433 29.9262 18.61 31.2961 20.2963 31.2961ZM20.2963 23.1383H28.4387C30.1244 23.1383 31.4917 21.7685 31.4917 20.0787C31.4924 19.2681 31.1711 18.4905 30.5984 17.9168C30.0258 17.3431 29.2487 17.0203 28.4382 17.0195H20.2963C18.61 17.0195 17.2433 18.3894 17.2433 20.0787C17.2429 20.48 17.3215 20.8775 17.4747 21.2484C17.6279 21.6194 17.8527 21.9565 18.1362 22.2406C18.4197 22.5246 18.7564 22.7501 19.127 22.904C19.4976 23.058 19.895 23.1374 20.2963 23.1378" fill="#ECB22E"/>
<path d="M0.959428 20.0789C0.959025 20.4803 1.03767 20.8777 1.19088 21.2487C1.34409 21.6196 1.56887 21.9567 1.85236 22.2408C2.13586 22.5249 2.47254 22.7503 2.84316 22.9043C3.21379 23.0582 3.61111 23.1377 4.01244 23.1381C4.82301 23.1373 5.60007 22.8145 6.1727 22.2408C6.74533 21.6671 7.06664 20.8895 7.06597 20.0789V17.0198H4.01244C2.32621 17.0198 0.959428 18.3896 0.959428 20.0789ZM9.10131 20.0789V28.2366C9.10131 29.9265 10.4681 31.2963 12.1543 31.2963C12.9649 31.2955 13.7419 30.9727 14.3146 30.3991C14.8872 29.8254 15.2085 29.0477 15.2078 28.2372V20.0789C15.2082 19.6775 15.1296 19.28 14.9763 18.9091C14.8231 18.5381 14.5983 18.2009 14.3147 17.9169C14.0312 17.6328 13.6944 17.4074 13.3238 17.2534C12.9531 17.0995 12.5557 17.0201 12.1543 17.0198C10.4681 17.0198 9.10131 18.3896 9.10131 20.0789Z" fill="#E01E5A"/>
</svg>
