<svg width="398" height="315" viewBox="0 0 398 315" fill="none" xmlns="http://www.w3.org/2000/svg">
<rect x="0.5" y="0.5" width="397" height="314" rx="9.5" stroke="#E4E4E7"/>
<mask id="path-2-inside-1_929_57313" fill="white">
<path d="M20 20H378V66H20V20Z"/>
</mask>
<path d="M378 65H20V67H378V65Z" fill="#E4E4E7" mask="url(#path-2-inside-1_929_57313)"/>
<path d="M35.94 50.24C34.9133 50.24 34.02 50.0533 33.26 49.68C32.5 49.3067 31.9133 48.7867 31.5 48.12C31.0867 47.4533 30.88 46.68 30.88 45.8H32.64C32.64 46.3467 32.7667 46.8533 33.02 47.32C33.2733 47.7733 33.64 48.14 34.12 48.42C34.6133 48.6867 35.22 48.82 35.94 48.82C36.8867 48.82 37.62 48.5933 38.14 48.14C38.66 47.6867 38.92 47.12 38.92 46.44C38.92 45.88 38.8 45.4333 38.56 45.1C38.32 44.7533 37.9933 44.4733 37.58 44.26C37.18 44.0467 36.7133 43.86 36.18 43.7C35.66 43.54 35.1133 43.36 34.54 43.16C33.46 42.7867 32.66 42.3267 32.14 41.78C31.62 41.22 31.36 40.4933 31.36 39.6C31.3467 38.8533 31.52 38.1933 31.88 37.62C32.24 37.0333 32.7467 36.58 33.4 36.26C34.0667 35.9267 34.8533 35.76 35.76 35.76C36.6533 35.76 37.4267 35.9267 38.08 36.26C38.7467 36.5933 39.26 37.0533 39.62 37.64C39.9933 38.2267 40.1867 38.8933 40.2 39.64H38.44C38.44 39.2533 38.34 38.8733 38.14 38.5C37.94 38.1133 37.6333 37.8 37.22 37.56C36.82 37.32 36.3133 37.2 35.7 37.2C34.94 37.1867 34.3133 37.38 33.82 37.78C33.34 38.18 33.1 38.7333 33.1 39.44C33.1 40.04 33.2667 40.5 33.6 40.82C33.9467 41.14 34.4267 41.4067 35.04 41.62C35.6533 41.82 36.36 42.0533 37.16 42.32C37.8267 42.56 38.4267 42.84 38.96 43.16C39.4933 43.48 39.9067 43.8933 40.2 44.4C40.5067 44.9067 40.66 45.5533 40.66 46.34C40.66 47.0067 40.4867 47.64 40.14 48.24C39.7933 48.8267 39.2667 49.3067 38.56 49.68C37.8667 50.0533 36.9933 50.24 35.94 50.24ZM46.8625 50C45.9558 50 45.2425 49.78 44.7225 49.34C44.2025 48.9 43.9425 48.1067 43.9425 46.96V41.5H42.2225V40.08H43.9425L44.1625 37.7H45.6225V40.08H48.5425V41.5H45.6225V46.96C45.6225 47.5867 45.7492 48.0133 46.0025 48.24C46.2558 48.4533 46.7025 48.56 47.3425 48.56H48.3825V50H46.8625ZM53.9769 50.24C53.1502 50.24 52.4635 50.1 51.9169 49.82C51.3702 49.54 50.9635 49.1667 50.6969 48.7C50.4302 48.2333 50.2969 47.7267 50.2969 47.18C50.2969 46.1667 50.6835 45.3867 51.4569 44.84C52.2302 44.2933 53.2835 44.02 54.6169 44.02H57.2969V43.9C57.2969 43.0333 57.0702 42.38 56.6169 41.94C56.1635 41.4867 55.5569 41.26 54.7969 41.26C54.1435 41.26 53.5769 41.4267 53.0969 41.76C52.6302 42.08 52.3369 42.5533 52.2169 43.18H50.4969C50.5635 42.46 50.8035 41.8533 51.2169 41.36C51.6435 40.8667 52.1702 40.4933 52.7969 40.24C53.4235 39.9733 54.0902 39.84 54.7969 39.84C56.1835 39.84 57.2235 40.2133 57.9169 40.96C58.6235 41.6933 58.9769 42.6733 58.9769 43.9V50H57.4769L57.3769 48.22C57.0969 48.78 56.6835 49.26 56.1369 49.66C55.6035 50.0467 54.8835 50.24 53.9769 50.24ZM54.2369 48.82C54.8769 48.82 55.4235 48.6533 55.8769 48.32C56.3435 47.9867 56.6969 47.5533 56.9369 47.02C57.1769 46.4867 57.2969 45.9267 57.2969 45.34V45.32H54.7569C53.7702 45.32 53.0702 45.4933 52.6569 45.84C52.2569 46.1733 52.0569 46.5933 52.0569 47.1C52.0569 47.62 52.2435 48.04 52.6169 48.36C53.0035 48.6667 53.5435 48.82 54.2369 48.82ZM66.7972 50.24C65.9839 50.24 65.2572 50.0733 64.6172 49.74C63.9905 49.4067 63.5105 48.94 63.1772 48.34L63.0172 50H61.4972V35.6H63.1772V41.72C63.4972 41.24 63.9505 40.8067 64.5372 40.42C65.1372 40.0333 65.8972 39.84 66.8172 39.84C67.8039 39.84 68.6639 40.0667 69.3972 40.52C70.1305 40.9733 70.6972 41.5933 71.0972 42.38C71.5105 43.1667 71.7172 44.06 71.7172 45.06C71.7172 46.06 71.5105 46.9533 71.0972 47.74C70.6972 48.5133 70.1239 49.1267 69.3772 49.58C68.6439 50.02 67.7839 50.24 66.7972 50.24ZM66.6172 48.78C67.2839 48.78 67.8705 48.6267 68.3772 48.32C68.8839 48 69.2839 47.56 69.5772 47C69.8705 46.44 70.0172 45.7867 70.0172 45.04C70.0172 44.2933 69.8705 43.64 69.5772 43.08C69.2839 42.52 68.8839 42.0867 68.3772 41.78C67.8705 41.46 67.2839 41.3 66.6172 41.3C65.9505 41.3 65.3639 41.46 64.8572 41.78C64.3505 42.0867 63.9505 42.52 63.6572 43.08C63.3639 43.64 63.2172 44.2933 63.2172 45.04C63.2172 45.7867 63.3639 46.44 63.6572 47C63.9505 47.56 64.3505 48 64.8572 48.32C65.3639 48.6267 65.9505 48.78 66.6172 48.78ZM75.0758 37.88C74.7424 37.88 74.4624 37.7733 74.2358 37.56C74.0224 37.3333 73.9158 37.0533 73.9158 36.72C73.9158 36.4 74.0224 36.1333 74.2358 35.92C74.4624 35.7067 74.7424 35.6 75.0758 35.6C75.3958 35.6 75.6691 35.7067 75.8958 35.92C76.1224 36.1333 76.2358 36.4 76.2358 36.72C76.2358 37.0533 76.1224 37.3333 75.8958 37.56C75.6691 37.7733 75.3958 37.88 75.0758 37.88ZM74.2358 50V40.08H75.9158V50H74.2358ZM78.8409 50V35.6H80.5209V50H78.8409ZM84.2945 37.88C83.9612 37.88 83.6812 37.7733 83.4545 37.56C83.2412 37.3333 83.1345 37.0533 83.1345 36.72C83.1345 36.4 83.2412 36.1333 83.4545 35.92C83.6812 35.7067 83.9612 35.6 84.2945 35.6C84.6145 35.6 84.8879 35.7067 85.1145 35.92C85.3412 36.1333 85.4545 36.4 85.4545 36.72C85.4545 37.0533 85.3412 37.3333 85.1145 37.56C84.8879 37.7733 84.6145 37.88 84.2945 37.88ZM83.4545 50V40.08H85.1345V50H83.4545ZM87.3797 50V48.62L92.8997 41.48H87.4797V40.08H94.7797V41.46L89.2597 48.6H94.8797V50H87.3797ZM101.563 50.24C100.616 50.24 99.776 50.0267 99.0427 49.6C98.3093 49.16 97.7293 48.5533 97.3027 47.78C96.8893 47.0067 96.6827 46.0933 96.6827 45.04C96.6827 44 96.8893 43.0933 97.3027 42.32C97.716 41.5333 98.2893 40.9267 99.0227 40.5C99.7693 40.06 100.629 39.84 101.603 39.84C102.563 39.84 103.389 40.06 104.083 40.5C104.789 40.9267 105.329 41.4933 105.703 42.2C106.076 42.9067 106.263 43.6667 106.263 44.48C106.263 44.6267 106.256 44.7733 106.243 44.92C106.243 45.0667 106.243 45.2333 106.243 45.42H98.3427C98.3827 46.18 98.556 46.8133 98.8627 47.32C99.1827 47.8133 99.576 48.1867 100.043 48.44C100.523 48.6933 101.029 48.82 101.563 48.82C102.256 48.82 102.836 48.66 103.303 48.34C103.769 48.02 104.109 47.5867 104.323 47.04H105.983C105.716 47.96 105.203 48.7267 104.443 49.34C103.696 49.94 102.736 50.24 101.563 50.24ZM101.563 41.26C100.763 41.26 100.049 41.5067 99.4227 42C98.8093 42.48 98.456 43.1867 98.3627 44.12H104.603C104.563 43.2267 104.256 42.5267 103.683 42.02C103.109 41.5133 102.403 41.26 101.563 41.26ZM117.082 50.24C116.256 50.24 115.569 50.1 115.022 49.82C114.476 49.54 114.069 49.1667 113.802 48.7C113.536 48.2333 113.402 47.7267 113.402 47.18C113.402 46.1667 113.789 45.3867 114.562 44.84C115.336 44.2933 116.389 44.02 117.722 44.02H120.402V43.9C120.402 43.0333 120.176 42.38 119.722 41.94C119.269 41.4867 118.662 41.26 117.902 41.26C117.249 41.26 116.682 41.4267 116.202 41.76C115.736 42.08 115.442 42.5533 115.322 43.18H113.602C113.669 42.46 113.909 41.8533 114.322 41.36C114.749 40.8667 115.276 40.4933 115.902 40.24C116.529 39.9733 117.196 39.84 117.902 39.84C119.289 39.84 120.329 40.2133 121.022 40.96C121.729 41.6933 122.082 42.6733 122.082 43.9V50H120.582L120.482 48.22C120.202 48.78 119.789 49.26 119.242 49.66C118.709 50.0467 117.989 50.24 117.082 50.24ZM117.342 48.82C117.982 48.82 118.529 48.6533 118.982 48.32C119.449 47.9867 119.802 47.5533 120.042 47.02C120.282 46.4867 120.402 45.9267 120.402 45.34V45.32H117.862C116.876 45.32 116.176 45.4933 115.762 45.84C115.362 46.1733 115.162 46.5933 115.162 47.1C115.162 47.62 115.349 48.04 115.722 48.36C116.109 48.6667 116.649 48.82 117.342 48.82ZM124.603 50V40.08H126.123L126.223 41.86C126.543 41.2333 127.003 40.74 127.603 40.38C128.203 40.02 128.883 39.84 129.643 39.84C130.816 39.84 131.749 40.2 132.443 40.92C133.149 41.6267 133.503 42.72 133.503 44.2V50H131.823V44.38C131.823 42.3133 130.969 41.28 129.263 41.28C128.409 41.28 127.696 41.5933 127.123 42.22C126.563 42.8333 126.283 43.7133 126.283 44.86V50H124.603ZM140.548 50.24C139.561 50.24 138.695 50.0133 137.948 49.56C137.215 49.1067 136.641 48.4867 136.228 47.7C135.828 46.9133 135.628 46.02 135.628 45.02C135.628 44.02 135.835 43.1333 136.248 42.36C136.661 41.5733 137.235 40.96 137.968 40.52C138.701 40.0667 139.568 39.84 140.568 39.84C141.381 39.84 142.101 40.0067 142.728 40.34C143.355 40.6733 143.841 41.14 144.188 41.74V35.6H145.868V50H144.348L144.188 48.36C143.868 48.84 143.408 49.2733 142.808 49.66C142.208 50.0467 141.455 50.24 140.548 50.24ZM140.728 48.78C141.395 48.78 141.981 48.6267 142.488 48.32C143.008 48 143.408 47.56 143.688 47C143.981 46.44 144.128 45.7867 144.128 45.04C144.128 44.2933 143.981 43.64 143.688 43.08C143.408 42.52 143.008 42.0867 142.488 41.78C141.981 41.46 141.395 41.3 140.728 41.3C140.075 41.3 139.488 41.46 138.968 41.78C138.461 42.0867 138.061 42.52 137.768 43.08C137.488 43.64 137.348 44.2933 137.348 45.04C137.348 45.7867 137.488 46.44 137.768 47C138.061 47.56 138.461 48 138.968 48.32C139.488 48.6267 140.075 48.78 140.728 48.78ZM160.02 50.24C158.713 50.24 157.566 49.94 156.58 49.34C155.593 48.7267 154.826 47.88 154.28 46.8C153.733 45.7067 153.46 44.4467 153.46 43.02C153.46 41.5933 153.733 40.3333 154.28 39.24C154.84 38.1467 155.626 37.2933 156.64 36.68C157.666 36.0667 158.873 35.76 160.26 35.76C161.833 35.76 163.14 36.14 164.18 36.9C165.233 37.66 165.913 38.7067 166.22 40.04H164.28C164.093 39.2 163.646 38.5333 162.94 38.04C162.246 37.5467 161.353 37.3 160.26 37.3C159.233 37.3 158.34 37.5333 157.58 38C156.82 38.4533 156.226 39.1067 155.8 39.96C155.386 40.8133 155.18 41.8333 155.18 43.02C155.18 44.2067 155.386 45.2267 155.8 46.08C156.213 46.9333 156.786 47.5933 157.52 48.06C158.253 48.5133 159.106 48.74 160.08 48.74C161.573 48.74 162.7 48.3067 163.46 47.44C164.22 46.56 164.653 45.36 164.76 43.84H160.72V42.52H166.48V50H164.94L164.8 47.7C164.293 48.5133 163.673 49.14 162.94 49.58C162.206 50.02 161.233 50.24 160.02 50.24ZM169.036 50V40.08H170.556L170.696 41.98C171.003 41.3267 171.47 40.8067 172.096 40.42C172.723 40.0333 173.496 39.84 174.416 39.84V41.6H173.956C173.37 41.6 172.83 41.7067 172.336 41.92C171.843 42.12 171.45 42.4667 171.156 42.96C170.863 43.4533 170.716 44.1333 170.716 45V50H169.036ZM180.451 50.24C179.517 50.24 178.677 50.0267 177.931 49.6C177.184 49.1733 176.591 48.5733 176.151 47.8C175.724 47.0133 175.511 46.0933 175.511 45.04C175.511 43.9867 175.731 43.0733 176.171 42.3C176.611 41.5133 177.204 40.9067 177.951 40.48C178.711 40.0533 179.557 39.84 180.491 39.84C181.424 39.84 182.264 40.0533 183.011 40.48C183.757 40.9067 184.344 41.5133 184.771 42.3C185.211 43.0733 185.431 43.9867 185.431 45.04C185.431 46.0933 185.211 47.0133 184.771 47.8C184.331 48.5733 183.731 49.1733 182.971 49.6C182.224 50.0267 181.384 50.24 180.451 50.24ZM180.451 48.8C181.024 48.8 181.557 48.66 182.051 48.38C182.544 48.1 182.944 47.68 183.251 47.12C183.557 46.56 183.711 45.8667 183.711 45.04C183.711 44.2133 183.557 43.52 183.251 42.96C182.957 42.4 182.564 41.98 182.071 41.7C181.577 41.42 181.051 41.28 180.491 41.28C179.917 41.28 179.384 41.42 178.891 41.7C178.397 41.98 177.997 42.4 177.691 42.96C177.384 43.52 177.231 44.2133 177.231 45.04C177.231 45.8667 177.384 46.56 177.691 47.12C177.997 47.68 178.391 48.1 178.871 48.38C179.364 48.66 179.891 48.8 180.451 48.8ZM189.396 50L186.496 40.08H188.176L190.276 47.86L192.596 40.08H194.496L196.836 47.86L198.916 40.08H200.616L197.716 50H195.996L193.556 41.82L191.116 50H189.396ZM211.347 50V44.68L206.787 36H208.687L212.187 43.08L215.687 36H217.567L213.027 44.68V50H211.347ZM222.13 50.24C221.197 50.24 220.357 50.0267 219.61 49.6C218.864 49.1733 218.27 48.5733 217.83 47.8C217.404 47.0133 217.19 46.0933 217.19 45.04C217.19 43.9867 217.41 43.0733 217.85 42.3C218.29 41.5133 218.884 40.9067 219.63 40.48C220.39 40.0533 221.237 39.84 222.17 39.84C223.104 39.84 223.944 40.0533 224.69 40.48C225.437 40.9067 226.024 41.5133 226.45 42.3C226.89 43.0733 227.11 43.9867 227.11 45.04C227.11 46.0933 226.89 47.0133 226.45 47.8C226.01 48.5733 225.41 49.1733 224.65 49.6C223.904 50.0267 223.064 50.24 222.13 50.24ZM222.13 48.8C222.704 48.8 223.237 48.66 223.73 48.38C224.224 48.1 224.624 47.68 224.93 47.12C225.237 46.56 225.39 45.8667 225.39 45.04C225.39 44.2133 225.237 43.52 224.93 42.96C224.637 42.4 224.244 41.98 223.75 41.7C223.257 41.42 222.73 41.28 222.17 41.28C221.597 41.28 221.064 41.42 220.57 41.7C220.077 41.98 219.677 42.4 219.37 42.96C219.064 43.52 218.91 44.2133 218.91 45.04C218.91 45.8667 219.064 46.56 219.37 47.12C219.677 47.68 220.07 48.1 220.55 48.38C221.044 48.66 221.57 48.8 222.13 48.8ZM233.066 50.24C231.893 50.24 230.96 49.8867 230.266 49.18C229.573 48.46 229.226 47.36 229.226 45.88V40.08H230.906V45.7C230.906 47.7667 231.753 48.8 233.446 48.8C234.313 48.8 235.026 48.4933 235.586 47.88C236.16 47.2533 236.446 46.3667 236.446 45.22V40.08H238.126V50H236.606L236.486 48.22C236.18 48.8467 235.72 49.34 235.106 49.7C234.506 50.06 233.826 50.24 233.066 50.24ZM240.892 50V40.08H242.412L242.552 41.98C242.858 41.3267 243.325 40.8067 243.952 40.42C244.578 40.0333 245.352 39.84 246.272 39.84V41.6H245.812C245.225 41.6 244.685 41.7067 244.192 41.92C243.698 42.12 243.305 42.4667 243.012 42.96C242.718 43.4533 242.572 44.1333 242.572 45V50H240.892ZM253.55 50V36H258.07C259.164 36 260.057 36.18 260.75 36.54C261.444 36.9 261.957 37.3933 262.29 38.02C262.624 38.6467 262.79 39.34 262.79 40.1C262.79 40.98 262.55 41.7733 262.07 42.48C261.604 43.1867 260.87 43.6867 259.87 43.98L262.93 50H260.95L258.11 44.22H257.99H255.23V50H253.55ZM255.23 42.9H257.95C259.03 42.9 259.817 42.64 260.31 42.12C260.804 41.6 261.05 40.9333 261.05 40.12C261.05 39.2933 260.804 38.64 260.31 38.16C259.83 37.6667 259.037 37.42 257.93 37.42H255.23V42.9ZM269.16 50.24C268.214 50.24 267.374 50.0267 266.64 49.6C265.907 49.16 265.327 48.5533 264.9 47.78C264.487 47.0067 264.28 46.0933 264.28 45.04C264.28 44 264.487 43.0933 264.9 42.32C265.314 41.5333 265.887 40.9267 266.62 40.5C267.367 40.06 268.227 39.84 269.2 39.84C270.16 39.84 270.987 40.06 271.68 40.5C272.387 40.9267 272.927 41.4933 273.3 42.2C273.674 42.9067 273.86 43.6667 273.86 44.48C273.86 44.6267 273.854 44.7733 273.84 44.92C273.84 45.0667 273.84 45.2333 273.84 45.42H265.94C265.98 46.18 266.154 46.8133 266.46 47.32C266.78 47.8133 267.174 48.1867 267.64 48.44C268.12 48.6933 268.627 48.82 269.16 48.82C269.854 48.82 270.434 48.66 270.9 48.34C271.367 48.02 271.707 47.5867 271.92 47.04H273.58C273.314 47.96 272.8 48.7267 272.04 49.34C271.294 49.94 270.334 50.24 269.16 50.24ZM269.16 41.26C268.36 41.26 267.647 41.5067 267.02 42C266.407 42.48 266.054 43.1867 265.96 44.12H272.2C272.16 43.2267 271.854 42.5267 271.28 42.02C270.707 41.5133 270 41.26 269.16 41.26ZM278.556 50L274.796 40.08H276.556L279.536 48.38L282.536 40.08H284.256L280.496 50H278.556ZM290.078 50.24C289.132 50.24 288.292 50.0267 287.558 49.6C286.825 49.16 286.245 48.5533 285.818 47.78C285.405 47.0067 285.198 46.0933 285.198 45.04C285.198 44 285.405 43.0933 285.818 42.32C286.232 41.5333 286.805 40.9267 287.538 40.5C288.285 40.06 289.145 39.84 290.118 39.84C291.078 39.84 291.905 40.06 292.598 40.5C293.305 40.9267 293.845 41.4933 294.218 42.2C294.592 42.9067 294.778 43.6667 294.778 44.48C294.778 44.6267 294.772 44.7733 294.758 44.92C294.758 45.0667 294.758 45.2333 294.758 45.42H286.858C286.898 46.18 287.072 46.8133 287.378 47.32C287.698 47.8133 288.092 48.1867 288.558 48.44C289.038 48.6933 289.545 48.82 290.078 48.82C290.772 48.82 291.352 48.66 291.818 48.34C292.285 48.02 292.625 47.5867 292.838 47.04H294.498C294.232 47.96 293.718 48.7267 292.958 49.34C292.212 49.94 291.252 50.24 290.078 50.24ZM290.078 41.26C289.278 41.26 288.565 41.5067 287.938 42C287.325 42.48 286.972 43.1867 286.878 44.12H293.118C293.078 43.2267 292.772 42.5267 292.198 42.02C291.625 41.5133 290.918 41.26 290.078 41.26ZM297.005 50V40.08H298.525L298.625 41.86C298.945 41.2333 299.405 40.74 300.005 40.38C300.605 40.02 301.285 39.84 302.045 39.84C303.218 39.84 304.152 40.2 304.845 40.92C305.552 41.6267 305.905 42.72 305.905 44.2V50H304.225V44.38C304.225 42.3133 303.372 41.28 301.665 41.28C300.812 41.28 300.098 41.5933 299.525 42.22C298.965 42.8333 298.685 43.7133 298.685 44.86V50H297.005ZM312.07 50.24C310.897 50.24 309.964 49.8867 309.27 49.18C308.577 48.46 308.23 47.36 308.23 45.88V40.08H309.91V45.7C309.91 47.7667 310.757 48.8 312.45 48.8C313.317 48.8 314.03 48.4933 314.59 47.88C315.164 47.2533 315.45 46.3667 315.45 45.22V40.08H317.13V50H315.61L315.49 48.22C315.184 48.8467 314.724 49.34 314.11 49.7C313.51 50.06 312.83 50.24 312.07 50.24ZM324.356 50.24C323.409 50.24 322.569 50.0267 321.836 49.6C321.102 49.16 320.522 48.5533 320.096 47.78C319.682 47.0067 319.476 46.0933 319.476 45.04C319.476 44 319.682 43.0933 320.096 42.32C320.509 41.5333 321.082 40.9267 321.816 40.5C322.562 40.06 323.422 39.84 324.396 39.84C325.356 39.84 326.182 40.06 326.876 40.5C327.582 40.9267 328.122 41.4933 328.496 42.2C328.869 42.9067 329.056 43.6667 329.056 44.48C329.056 44.6267 329.049 44.7733 329.036 44.92C329.036 45.0667 329.036 45.2333 329.036 45.42H321.136C321.176 46.18 321.349 46.8133 321.656 47.32C321.976 47.8133 322.369 48.1867 322.836 48.44C323.316 48.6933 323.822 48.82 324.356 48.82C325.049 48.82 325.629 48.66 326.096 48.34C326.562 48.02 326.902 47.5867 327.116 47.04H328.776C328.509 47.96 327.996 48.7267 327.236 49.34C326.489 49.94 325.529 50.24 324.356 50.24ZM324.356 41.26C323.556 41.26 322.842 41.5067 322.216 42C321.602 42.48 321.249 43.1867 321.156 44.12H327.396C327.356 43.2267 327.049 42.5267 326.476 42.02C325.902 41.5133 325.196 41.26 324.356 41.26Z" fill="#042F12"/>
<rect x="28.5403" y="121.183" width="186" height="50" rx="25" transform="rotate(-4.82444 28.5403 121.183)" fill="#FDF0FC"/>
<rect x="28.5403" y="121.183" width="186" height="50" rx="25" transform="rotate(-4.82444 28.5403 121.183)" stroke="#DF42E2"/>
<path d="M60.2698 149.306C59.4514 149.375 58.7267 149.287 58.0957 149.04C57.4648 148.794 56.9621 148.419 56.5878 147.915C56.2134 147.411 55.9966 146.809 55.9374 146.107L57.3404 145.989C57.3772 146.425 57.5123 146.82 57.7456 147.175C57.9781 147.519 58.295 147.787 58.6965 147.978C59.1077 148.157 59.6003 148.223 60.1743 148.174C60.9289 148.111 61.4983 147.881 61.8823 147.484C62.2663 147.088 62.4354 146.619 62.3897 146.077C62.352 145.63 62.2263 145.282 62.0126 145.033C61.7979 144.772 61.5187 144.571 61.1748 144.429C60.8416 144.286 60.457 144.168 60.0211 144.077C59.5958 143.984 59.1479 143.877 58.6774 143.757C57.7914 143.532 57.1227 143.219 56.6714 142.818C56.2192 142.407 55.963 141.845 55.9029 141.133C55.842 140.538 55.9358 140.001 56.1842 139.519C56.4317 139.027 56.8051 138.632 57.3044 138.333C57.8134 138.022 58.4293 137.836 59.1521 137.775C59.8642 137.715 60.4919 137.796 61.0351 138.018C61.589 138.239 62.0292 138.571 62.3556 139.014C62.6927 139.457 62.8917 139.975 62.9525 140.57L61.5495 140.688C61.5235 140.38 61.4182 140.084 61.2337 139.8C61.0482 139.505 60.7827 139.276 60.437 139.112C60.102 138.948 59.6901 138.886 59.2011 138.927C58.5944 138.968 58.1078 139.164 57.7415 139.516C57.3858 139.867 57.2317 140.325 57.2792 140.888C57.3196 141.366 57.4834 141.722 57.7706 141.954C58.0685 142.186 58.4691 142.367 58.9724 142.495C59.4748 142.613 60.0538 142.752 60.7095 142.911C61.2571 143.057 61.7542 143.24 62.2009 143.459C62.6476 143.678 63.0049 143.98 63.2728 144.364C63.5514 144.748 63.7171 145.253 63.77 145.88C63.8149 146.411 63.7193 146.928 63.4833 147.429C63.2465 147.92 62.8589 148.338 62.3207 148.684C61.7931 149.028 61.1095 149.235 60.2698 149.306ZM68.9607 148.38C68.2379 148.441 67.6545 148.314 67.2104 147.998C66.7662 147.682 66.5056 147.067 66.4284 146.153L66.0611 141.801L64.69 141.916L64.5944 140.784L65.9655 140.669L65.9808 138.757L67.1446 138.658L67.3048 140.556L69.6325 140.359L69.728 141.491L67.4003 141.688L67.7677 146.04C67.8098 146.54 67.9395 146.871 68.1567 147.035C68.373 147.188 68.7363 147.243 69.2465 147.2L70.0755 147.13L70.1724 148.278L68.9607 148.38ZM74.6482 148.093C73.9892 148.148 73.4324 148.083 72.9778 147.897C72.5231 147.71 72.1738 147.44 71.9299 147.086C71.6859 146.732 71.5455 146.337 71.5087 145.901C71.4406 145.093 71.6963 144.445 72.276 143.958C72.8557 143.47 73.677 143.181 74.7399 143.091L76.8763 142.911L76.8682 142.815C76.8099 142.124 76.5852 141.619 76.1943 141.299C75.8024 140.968 75.3035 140.828 74.6977 140.879C74.1769 140.923 73.7363 141.094 73.3761 141.392C73.0256 141.678 72.8237 142.076 72.7702 142.583L71.399 142.699C71.4037 142.12 71.5542 141.621 71.8505 141.2C72.1575 140.778 72.5522 140.445 73.0347 140.2C73.5163 139.946 74.0388 139.795 74.6021 139.747C75.7075 139.654 76.5617 139.881 77.1646 140.43C77.7773 140.967 78.1249 141.724 78.2074 142.702L78.6179 147.565L77.4221 147.666L77.2226 146.254C77.0371 146.719 76.7399 147.129 76.331 147.485C75.9319 147.829 75.371 148.032 74.6482 148.093ZM74.7599 146.943C75.2701 146.9 75.6947 146.731 76.0336 146.434C76.3832 146.137 76.6357 145.768 76.7911 145.327C76.9466 144.885 77.0046 144.431 76.9651 143.963L76.9637 143.947L74.9389 144.118C74.1524 144.185 73.6061 144.37 73.2999 144.674C73.0034 144.967 72.8723 145.315 72.9064 145.719C72.9413 146.133 73.1184 146.456 73.4376 146.686C73.7664 146.904 74.2072 146.99 74.7599 146.943ZM84.8681 147.23C84.2197 147.285 83.6293 147.201 83.0966 146.978C82.5747 146.755 82.1606 146.415 81.8545 145.959L81.8387 147.293L80.627 147.395L79.6581 135.916L80.9973 135.803L81.4091 140.682C81.6319 140.278 81.9641 139.902 82.4058 139.554C82.8581 139.205 83.4509 139 84.1843 138.938C84.9708 138.872 85.6717 138.995 86.2867 139.307C86.9018 139.619 87.3953 140.075 87.7671 140.675C88.1495 141.274 88.3744 141.973 88.4416 142.77C88.5089 143.567 88.4043 144.293 88.1277 144.948C87.8609 145.591 87.4451 146.119 86.8804 146.53C86.3254 146.931 85.6546 147.164 84.8681 147.23ZM84.6264 146.078C85.1578 146.034 85.6152 145.872 85.9984 145.593C86.3808 145.304 86.6701 144.926 86.8662 144.46C87.0624 143.994 87.1353 143.463 87.0851 142.868C87.0349 142.273 86.874 141.762 86.6025 141.335C86.331 140.909 85.9829 140.59 85.5584 140.38C85.133 140.159 84.6545 140.071 84.1231 140.116C83.5917 140.16 83.1348 140.328 82.7524 140.617C82.3691 140.895 82.0794 141.268 81.8833 141.734C81.6871 142.2 81.6141 142.731 81.6644 143.326C81.7146 143.921 81.8755 144.432 82.147 144.859C82.4185 145.285 82.767 145.609 83.1924 145.83C83.6169 146.041 84.0949 146.123 84.6264 146.078ZM90.6359 136.82C90.3702 136.843 90.1398 136.776 89.9448 136.622C89.7594 136.455 89.6556 136.239 89.6331 135.974C89.6116 135.718 89.6787 135.499 89.8344 135.314C90.0007 135.129 90.2168 135.025 90.4825 135.003C90.7376 134.981 90.9627 135.048 91.1577 135.203C91.3527 135.357 91.461 135.562 91.4826 135.817C91.505 136.083 91.4335 136.314 91.268 136.51C91.1017 136.695 90.891 136.799 90.6359 136.82ZM90.7817 146.538L90.1143 138.63L91.4535 138.517L92.121 146.425L90.7817 146.538ZM94.4528 146.229L93.4839 134.749L94.8232 134.636L95.7921 146.115L94.4528 146.229ZM97.9848 136.2C97.719 136.222 97.4887 136.156 97.2936 136.001C97.1083 135.835 97.0044 135.619 96.982 135.353C96.9605 135.098 97.0276 134.878 97.1833 134.694C97.3496 134.509 97.5656 134.405 97.8314 134.382C98.0865 134.361 98.3115 134.428 98.5066 134.582C98.7016 134.737 98.8099 134.942 98.8314 135.197C98.8539 135.463 98.7824 135.694 98.6169 135.89C98.4506 136.075 98.2399 136.178 97.9848 136.2ZM98.1306 145.918L97.4632 138.01L98.8024 137.897L99.4699 145.805L98.1306 145.918ZM101.26 145.654L101.167 144.554L105.087 138.491L100.766 138.855L100.672 137.739L106.491 137.248L106.584 138.348L102.664 144.411L107.144 144.033L107.238 145.149L101.26 145.654ZM112.582 144.891C111.827 144.955 111.143 144.841 110.53 144.55C109.916 144.249 109.413 143.804 109.02 143.217C108.639 142.628 108.413 141.914 108.342 141.074C108.272 140.245 108.376 139.508 108.653 138.864C108.93 138.209 109.346 137.687 109.902 137.298C110.467 136.897 111.138 136.663 111.914 136.598C112.679 136.533 113.353 136.653 113.935 136.957C114.528 137.25 114.996 137.665 115.341 138.203C115.686 138.742 115.886 139.335 115.941 139.983C115.951 140.1 115.955 140.217 115.955 140.335C115.965 140.452 115.976 140.585 115.988 140.734L109.691 141.265C109.774 141.869 109.955 142.362 110.233 142.745C110.521 143.117 110.86 143.388 111.249 143.558C111.649 143.728 112.061 143.795 112.486 143.759C113.039 143.712 113.491 143.546 113.841 143.259C114.192 142.973 114.434 142.605 114.567 142.154L115.89 142.043C115.739 142.794 115.382 143.44 114.817 143.98C114.262 144.508 113.517 144.812 112.582 144.891ZM111.978 137.733C111.34 137.786 110.788 138.031 110.322 138.466C109.865 138.89 109.631 139.477 109.619 140.228L114.594 139.808C114.502 139.098 114.21 138.561 113.719 138.196C113.228 137.83 112.647 137.676 111.978 137.733ZM121.133 144.169C120.187 144.249 119.38 144.076 118.713 143.651C118.045 143.226 117.624 142.608 117.448 141.799L118.82 141.683C118.94 142.09 119.188 142.433 119.565 142.712C119.951 142.979 120.447 143.087 121.053 143.036C121.617 142.988 122.021 142.837 122.267 142.58C122.512 142.313 122.621 142.015 122.593 141.686C122.553 141.207 122.351 140.903 121.986 140.774C121.633 140.643 121.137 140.54 120.499 140.466C120.067 140.416 119.631 140.33 119.193 140.206C118.754 140.083 118.379 139.89 118.068 139.627C117.756 139.354 117.58 138.978 117.539 138.5C117.481 137.809 117.689 137.224 118.162 136.745C118.645 136.255 119.328 135.972 120.21 135.898C121.05 135.827 121.753 135.982 122.32 136.362C122.898 136.731 123.261 137.299 123.412 138.068L122.089 138.18C122.001 137.78 121.799 137.482 121.483 137.284C121.176 137.074 120.778 136.99 120.29 137.031C119.811 137.071 119.448 137.204 119.199 137.428C118.961 137.652 118.856 137.928 118.884 138.258C118.911 138.576 119.096 138.812 119.441 138.965C119.797 139.117 120.267 139.233 120.851 139.312C121.349 139.377 121.823 139.471 122.272 139.593C122.731 139.704 123.112 139.902 123.414 140.187C123.726 140.461 123.906 140.884 123.955 141.458C124.026 142.17 123.804 142.782 123.291 143.297C122.788 143.8 122.068 144.09 121.133 144.169ZM130.358 143.198L129.416 132.038L133.02 131.734C133.891 131.66 134.615 131.743 135.192 131.984C135.769 132.224 136.212 132.583 136.519 133.06C136.827 133.537 137.007 134.079 137.058 134.684C137.117 135.386 136.979 136.034 136.644 136.63C136.32 137.225 135.769 137.673 134.991 137.974L137.836 142.567L136.257 142.7L133.604 138.284L133.509 138.292L131.309 138.477L131.698 143.085L130.358 143.198ZM131.22 137.425L133.388 137.242C134.249 137.169 134.859 136.909 135.217 136.462C135.575 136.014 135.727 135.466 135.672 134.817C135.617 134.158 135.376 133.654 134.95 133.305C134.535 132.944 133.886 132.801 133.003 132.875L130.851 133.057L131.22 137.425ZM142.818 142.339C142.064 142.403 141.38 142.289 140.766 141.998C140.152 141.697 139.649 141.252 139.257 140.665C138.875 140.076 138.649 139.362 138.578 138.522C138.508 137.693 138.612 136.956 138.889 136.312C139.166 135.657 139.582 135.135 140.138 134.746C140.704 134.345 141.374 134.111 142.15 134.046C142.916 133.981 143.589 134.101 144.172 134.405C144.764 134.698 145.232 135.113 145.577 135.651C145.923 136.19 146.123 136.783 146.177 137.431C146.187 137.548 146.192 137.665 146.191 137.783C146.201 137.9 146.212 138.033 146.225 138.182L139.927 138.713C140.01 139.317 140.191 139.81 140.469 140.193C140.758 140.565 141.096 140.836 141.485 141.006C141.885 141.176 142.297 141.243 142.723 141.207C143.275 141.16 143.727 140.994 144.077 140.707C144.428 140.421 144.67 140.053 144.803 139.602L146.126 139.491C145.976 140.242 145.618 140.888 145.053 141.428C144.499 141.956 143.754 142.26 142.818 142.339ZM142.214 135.181C141.576 135.234 141.024 135.479 140.558 135.914C140.101 136.338 139.867 136.925 139.855 137.676L144.83 137.256C144.738 136.546 144.446 136.009 143.955 135.644C143.464 135.278 142.884 135.124 142.214 135.181ZM150.292 141.516L146.627 133.861L148.031 133.742L150.965 140.158L152.798 133.34L154.169 133.224L151.839 141.385L150.292 141.516ZM159.493 140.932C158.739 140.995 158.055 140.882 157.441 140.591C156.827 140.29 156.324 139.845 155.932 139.257C155.55 138.669 155.324 137.954 155.253 137.115C155.183 136.286 155.287 135.549 155.564 134.905C155.841 134.25 156.257 133.728 156.813 133.338C157.379 132.937 158.05 132.704 158.825 132.638C159.591 132.574 160.264 132.694 160.847 132.998C161.439 133.29 161.907 133.706 162.253 134.244C162.598 134.782 162.798 135.375 162.852 136.024C162.862 136.141 162.867 136.258 162.866 136.376C162.876 136.493 162.887 136.626 162.9 136.774L156.602 137.306C156.685 137.909 156.866 138.402 157.144 138.786C157.433 139.157 157.771 139.428 158.16 139.599C158.56 139.769 158.973 139.836 159.398 139.8C159.95 139.753 160.402 139.586 160.752 139.3C161.103 139.013 161.345 138.645 161.478 138.195L162.801 138.083C162.651 138.835 162.293 139.48 161.729 140.02C161.174 140.549 160.429 140.853 159.493 140.932ZM158.889 133.773C158.251 133.827 157.699 134.072 157.233 134.507C156.776 134.931 156.542 135.518 156.531 136.268L161.505 135.848C161.413 135.139 161.121 134.602 160.63 134.236C160.139 133.871 159.559 133.717 158.889 133.773ZM164.999 140.274L164.331 132.366L165.543 132.264L165.743 133.676C165.956 133.155 166.289 132.731 166.743 132.404C167.197 132.076 167.727 131.887 168.333 131.836C169.268 131.757 170.037 131.981 170.638 132.509C171.249 133.024 171.604 133.872 171.703 135.052L172.094 139.675L170.754 139.789L170.376 135.308C170.237 133.661 169.487 132.895 168.127 133.009C167.447 133.067 166.899 133.365 166.484 133.903C166.079 134.429 165.915 135.15 165.992 136.064L166.338 140.161L164.999 140.274ZM177.025 139.452C176.089 139.531 175.321 139.312 174.721 138.795C174.12 138.268 173.77 137.415 173.67 136.235L173.28 131.611L174.619 131.498L174.997 135.978C175.136 137.626 175.881 138.392 177.231 138.279C177.921 138.22 178.469 137.928 178.875 137.401C179.29 136.863 179.458 136.137 179.381 135.223L179.035 131.125L180.375 131.012L181.042 138.92L179.83 139.022L179.615 137.612C179.413 138.132 179.079 138.556 178.614 138.884C178.16 139.212 177.63 139.401 177.025 139.452ZM186.818 138.625C186.063 138.689 185.379 138.576 184.766 138.285C184.152 137.983 183.649 137.539 183.257 136.951C182.875 136.362 182.649 135.648 182.578 134.808C182.508 133.979 182.612 133.243 182.889 132.598C183.166 131.944 183.582 131.421 184.138 131.032C184.703 130.631 185.374 130.398 186.15 130.332C186.915 130.268 187.589 130.387 188.172 130.691C188.764 130.984 189.232 131.399 189.577 131.938C189.922 132.476 190.122 133.069 190.177 133.718C190.187 133.834 190.192 133.952 190.191 134.07C190.201 134.187 190.212 134.319 190.224 134.468L183.927 135C184.01 135.603 184.191 136.096 184.469 136.479C184.757 136.851 185.096 137.122 185.485 137.293C185.885 137.462 186.297 137.529 186.722 137.493C187.275 137.447 187.727 137.28 188.077 136.994C188.428 136.707 188.67 136.339 188.803 135.889L190.126 135.777C189.975 136.528 189.618 137.174 189.053 137.714C188.498 138.243 187.753 138.546 186.818 138.625ZM186.214 131.467C185.576 131.521 185.024 131.765 184.558 132.201C184.101 132.625 183.867 133.212 183.855 133.962L188.83 133.542C188.738 132.833 188.446 132.295 187.955 131.93C187.464 131.565 186.883 131.41 186.214 131.467Z" fill="#2E042F"/>
<rect x="203.367" y="163.561" width="174" height="50" rx="25" transform="rotate(7.43812 203.367 163.561)" fill="#F0FDF3"/>
<rect x="203.367" y="163.561" width="174" height="50" rx="25" transform="rotate(7.43812 203.367 163.561)" stroke="#42E26F"/>
<path d="M224.886 197.129L226.336 186.023L229.985 186.5C230.852 186.613 231.548 186.849 232.071 187.208C232.594 187.566 232.956 188.006 233.157 188.527C233.369 189.05 233.435 189.618 233.354 190.231C233.276 190.834 233.072 191.362 232.744 191.814C232.416 192.266 231.953 192.603 231.354 192.826C230.756 193.038 230.018 193.087 229.14 192.973L226.824 192.67L226.219 197.303L224.886 197.129ZM226.971 191.544L229.255 191.842C230.144 191.958 230.797 191.855 231.216 191.533C231.646 191.202 231.904 190.709 231.99 190.053C232.077 189.387 231.954 188.844 231.622 188.424C231.301 187.995 230.697 187.722 229.808 187.606L227.524 187.308L226.971 191.544ZM233.995 198.318L235.022 190.449L236.228 190.606L236.142 192.128C236.453 191.642 236.877 191.277 237.414 191.036C237.951 190.794 238.585 190.72 239.315 190.816L239.132 192.212L238.767 192.164C238.302 192.103 237.863 192.132 237.449 192.25C237.037 192.358 236.689 192.592 236.405 192.953C236.122 193.314 235.935 193.838 235.845 194.526L235.327 198.492L233.995 198.318ZM243.024 199.691C242.284 199.594 241.64 199.338 241.092 198.922C240.544 198.506 240.135 197.969 239.866 197.31C239.609 196.642 239.535 195.89 239.644 195.054C239.753 194.218 240.022 193.517 240.452 192.949C240.882 192.37 241.416 191.951 242.052 191.689C242.699 191.43 243.393 191.348 244.133 191.445C244.874 191.541 245.518 191.798 246.066 192.213C246.614 192.629 247.017 193.171 247.274 193.839C247.543 194.499 247.623 195.246 247.513 196.081C247.404 196.917 247.135 197.624 246.704 198.202C246.275 198.77 245.737 199.184 245.09 199.444C244.453 199.705 243.765 199.787 243.024 199.691ZM243.174 198.548C243.628 198.608 244.066 198.552 244.486 198.381C244.907 198.21 245.267 197.918 245.569 197.506C245.87 197.093 246.063 196.559 246.149 195.903C246.235 195.247 246.185 194.682 246 194.206C245.825 193.731 245.556 193.357 245.194 193.084C244.832 192.811 244.428 192.645 243.984 192.587C243.529 192.528 243.092 192.584 242.671 192.755C242.251 192.926 241.89 193.217 241.589 193.63C241.288 194.042 241.094 194.576 241.009 195.232C240.923 195.888 240.973 196.454 241.158 196.93C241.343 197.406 241.612 197.78 241.964 198.052C242.326 198.325 242.729 198.49 243.174 198.548ZM250.719 200.502L248.763 192.243L250.16 192.425L251.664 199.318L254.903 193.044L256.268 193.223L252.258 200.702L250.719 200.502ZM258.788 191.777C258.523 191.742 258.312 191.629 258.155 191.436C258.009 191.234 257.953 191.001 257.988 190.736C258.021 190.483 258.133 190.282 258.324 190.135C258.526 189.989 258.76 189.934 259.024 189.968C259.278 190.001 259.484 190.114 259.641 190.307C259.799 190.5 259.861 190.723 259.828 190.977C259.794 191.241 259.675 191.451 259.471 191.608C259.27 191.754 259.042 191.81 258.788 191.777ZM256.866 201.304L257.894 193.435L259.226 193.609L258.199 201.478L256.866 201.304ZM264.064 202.437C263.282 202.335 262.618 202.066 262.072 201.629C261.537 201.193 261.147 200.642 260.9 199.975C260.665 199.31 260.598 198.58 260.702 197.787C260.806 196.994 261.061 196.312 261.469 195.741C261.879 195.16 262.397 194.733 263.024 194.46C263.653 194.176 264.364 194.086 265.157 194.19C265.802 194.274 266.356 194.481 266.819 194.81C267.281 195.139 267.619 195.56 267.832 196.072L268.468 191.201L269.801 191.375L268.309 202.798L267.104 202.641L267.146 201.323C266.843 201.671 266.433 201.967 265.917 202.211C265.401 202.456 264.784 202.531 264.064 202.437ZM264.358 201.298C264.887 201.367 265.368 201.306 265.802 201.115C266.248 200.915 266.611 200.608 266.891 200.192C267.181 199.779 267.365 199.276 267.443 198.683C267.52 198.091 267.471 197.557 267.297 197.083C267.133 196.61 266.86 196.224 266.479 195.927C266.111 195.621 265.662 195.433 265.133 195.364C264.615 195.297 264.133 195.363 263.687 195.563C263.253 195.754 262.891 196.056 262.601 196.47C262.32 196.885 262.142 197.389 262.064 197.981C261.987 198.573 262.03 199.106 262.195 199.579C262.369 200.054 262.641 200.444 263.01 200.751C263.391 201.048 263.84 201.23 264.358 201.298ZM273.995 203.734C273.244 203.636 272.6 203.38 272.062 202.965C271.526 202.54 271.129 201.999 270.87 201.341C270.623 200.685 270.553 199.939 270.662 199.104C270.77 198.279 271.028 197.581 271.436 197.01C271.845 196.429 272.363 196.007 272.989 195.744C273.627 195.473 274.332 195.387 275.104 195.488C275.865 195.588 276.498 195.848 277.003 196.269C277.519 196.68 277.889 197.186 278.112 197.785C278.335 198.384 278.404 199.006 278.32 199.651C278.305 199.768 278.284 199.883 278.258 199.998C278.243 200.115 278.226 200.247 278.207 200.395L271.94 199.577C271.893 200.184 271.965 200.704 272.155 201.138C272.358 201.562 272.632 201.899 272.976 202.149C273.33 202.399 273.719 202.552 274.142 202.608C274.692 202.679 275.169 202.612 275.572 202.407C275.975 202.201 276.29 201.893 276.516 201.481L277.833 201.653C277.526 202.355 277.039 202.91 276.373 203.318C275.718 203.717 274.926 203.855 273.995 203.734ZM274.925 196.61C274.29 196.528 273.699 196.649 273.151 196.976C272.614 197.293 272.261 197.817 272.09 198.548L277.04 199.194C277.101 198.481 276.93 197.894 276.528 197.433C276.126 196.972 275.591 196.697 274.925 196.61ZM282.504 204.845C281.563 204.722 280.811 204.382 280.249 203.824C279.687 203.267 279.407 202.574 279.407 201.746L280.772 201.924C280.802 202.348 280.972 202.735 281.281 203.088C281.602 203.431 282.064 203.642 282.667 203.72C283.228 203.794 283.655 203.731 283.95 203.533C284.246 203.324 284.416 203.056 284.459 202.728C284.521 202.252 284.388 201.912 284.059 201.708C283.742 201.505 283.279 201.299 282.671 201.091C282.259 200.951 281.852 200.774 281.45 200.56C281.047 200.346 280.722 200.078 280.474 199.755C280.227 199.422 280.135 199.017 280.197 198.541C280.286 197.854 280.613 197.326 281.178 196.959C281.754 196.582 282.481 196.451 283.359 196.566C284.195 196.675 284.849 196.976 285.323 197.468C285.808 197.951 286.043 198.584 286.027 199.367L284.71 199.195C284.71 198.786 284.576 198.451 284.309 198.19C284.053 197.921 283.683 197.754 283.196 197.69C282.72 197.628 282.337 197.68 282.046 197.847C281.766 198.015 281.605 198.262 281.562 198.59C281.52 198.908 281.652 199.178 281.956 199.4C282.271 199.624 282.706 199.837 283.261 200.038C283.733 200.208 284.176 200.4 284.589 200.615C285.014 200.821 285.344 201.096 285.579 201.438C285.826 201.772 285.912 202.224 285.837 202.795C285.756 203.505 285.409 204.057 284.798 204.451C284.2 204.835 283.435 204.966 282.504 204.845ZM291.725 205.855L293.175 194.749L294.508 194.923L293.058 206.029L291.725 205.855ZM295.333 206.326L296.361 198.457L297.566 198.614L297.461 200.037C297.78 199.573 298.196 199.229 298.709 199.006C299.223 198.782 299.781 198.71 300.384 198.789C301.314 198.91 302.018 199.292 302.493 199.935C302.98 200.569 303.147 201.473 302.994 202.647L302.393 207.248L301.061 207.074L301.643 202.616C301.857 200.976 301.287 200.068 299.933 199.891C299.256 199.803 298.658 199.978 298.138 200.416C297.63 200.844 297.317 201.513 297.198 202.423L296.666 206.5L295.333 206.326ZM307.402 208.095C306.461 207.973 305.709 207.632 305.147 207.075C304.585 206.517 304.305 205.825 304.305 204.996L305.67 205.175C305.7 205.598 305.87 205.986 306.179 206.338C306.5 206.681 306.962 206.892 307.565 206.971C308.126 207.044 308.553 206.982 308.848 206.784C309.144 206.575 309.314 206.306 309.357 205.979C309.419 205.503 309.286 205.163 308.957 204.958C308.64 204.755 308.177 204.55 307.57 204.341C307.157 204.202 306.75 204.025 306.348 203.811C305.946 203.597 305.62 203.329 305.372 203.006C305.125 202.672 305.033 202.268 305.095 201.792C305.185 201.104 305.512 200.577 306.076 200.209C306.652 199.833 307.379 199.702 308.257 199.816C309.093 199.926 309.747 200.226 310.221 200.718C310.706 201.201 310.941 201.834 310.925 202.617L309.608 202.445C309.608 202.037 309.474 201.702 309.207 201.441C308.952 201.171 308.581 201.004 308.094 200.941C307.618 200.879 307.235 200.931 306.944 201.097C306.664 201.265 306.503 201.513 306.46 201.841C306.418 202.158 306.55 202.428 306.854 202.651C307.169 202.875 307.604 203.087 308.159 203.289C308.631 203.458 309.074 203.65 309.487 203.866C309.912 204.072 310.242 204.346 310.477 204.689C310.724 205.022 310.81 205.475 310.736 206.046C310.654 206.756 310.307 207.308 309.696 207.701C309.098 208.085 308.333 208.217 307.402 208.095ZM314.41 199.038C314.145 199.004 313.934 198.89 313.776 198.698C313.631 198.496 313.575 198.262 313.61 197.998C313.643 197.744 313.755 197.544 313.946 197.397C314.148 197.251 314.381 197.195 314.646 197.23C314.9 197.263 315.105 197.376 315.263 197.568C315.421 197.761 315.483 197.984 315.45 198.238C315.415 198.503 315.296 198.713 315.093 198.869C314.891 199.015 314.663 199.071 314.41 199.038ZM312.488 208.566L313.515 200.697L314.848 200.871L313.821 208.74L312.488 208.566ZM319.574 206.974C319.13 206.916 318.73 206.804 318.375 206.64L317.484 207.282C317.59 207.382 317.723 207.474 317.884 207.56C318.057 207.636 318.304 207.722 318.625 207.818C318.947 207.903 319.401 208.011 319.986 208.141C321.034 208.353 321.759 208.695 322.16 209.167C322.561 209.639 322.718 210.208 322.631 210.874C322.571 211.329 322.388 211.746 322.08 212.125C321.783 212.506 321.358 212.795 320.805 212.992C320.263 213.19 319.59 213.236 318.786 213.131C318.077 213.039 317.461 212.862 316.935 212.599C316.409 212.348 316.017 212.012 315.76 211.591C315.502 211.181 315.41 210.69 315.484 210.119C315.523 209.823 315.644 209.51 315.849 209.182C316.052 208.864 316.39 208.58 316.863 208.33C316.643 208.205 316.455 208.078 316.3 207.95C316.156 207.813 316.025 207.667 315.905 207.511L315.953 207.146L317.476 205.99C316.921 205.379 316.7 204.641 316.813 203.773C316.881 203.255 317.064 202.8 317.362 202.409C317.661 202.018 318.059 201.731 318.556 201.548C319.054 201.355 319.637 201.302 320.303 201.389C320.758 201.448 321.162 201.566 321.516 201.741L324.419 202.12L324.289 203.12L322.805 202.99C323.053 203.475 323.14 204.008 323.064 204.589C322.996 205.108 322.808 205.562 322.499 205.952C322.2 206.343 321.802 206.635 321.303 206.828C320.817 207.012 320.24 207.061 319.574 206.974ZM319.717 205.879C320.277 205.952 320.74 205.867 321.105 205.625C321.483 205.373 321.707 204.972 321.779 204.422C321.849 203.882 321.734 203.448 321.433 203.118C321.143 202.779 320.719 202.573 320.158 202.5C319.587 202.425 319.113 202.514 318.736 202.766C318.37 203.009 318.153 203.4 318.082 203.939C318.01 204.489 318.119 204.934 318.408 205.272C318.71 205.602 319.146 205.804 319.717 205.879ZM316.802 210.162C316.733 210.69 316.904 211.111 317.315 211.423C317.725 211.745 318.263 211.95 318.929 212.037C319.585 212.122 320.127 212.048 320.556 211.813C320.995 211.58 321.246 211.226 321.308 210.75C321.352 210.411 321.253 210.097 321.011 209.808C320.768 209.528 320.279 209.319 319.544 209.18C318.968 209.062 318.472 208.944 318.057 208.825C317.593 209.001 317.275 209.212 317.103 209.459C316.93 209.716 316.829 209.95 316.802 210.162ZM324.895 210.186L326.386 198.762L327.719 198.936L327.079 203.839C327.407 203.387 327.831 203.06 328.352 202.859C328.875 202.648 329.422 202.58 329.993 202.654C330.903 202.773 331.595 203.154 332.07 203.797C332.547 204.429 332.709 205.332 332.556 206.506L331.955 211.107L330.638 210.935L331.22 206.477C331.434 204.838 330.88 203.932 329.558 203.759C328.871 203.669 328.262 203.843 327.732 204.279C327.203 204.705 326.879 205.373 326.76 206.282L326.228 210.36L324.895 210.186ZM337.084 211.777C336.365 211.683 335.822 211.435 335.455 211.032C335.088 210.629 334.964 209.973 335.082 209.063L335.648 204.732L334.283 204.554L334.43 203.427L335.795 203.605L336.216 201.74L337.374 201.891L337.128 203.779L339.444 204.082L339.297 205.208L336.98 204.906L336.415 209.237C336.35 209.734 336.406 210.086 336.584 210.292C336.763 210.487 337.106 210.618 337.614 210.684L338.439 210.792L338.29 211.934L337.084 211.777ZM343.099 212.756C342.158 212.633 341.406 212.293 340.844 211.735C340.282 211.178 340.002 210.485 340.002 209.657L341.367 209.835C341.398 210.258 341.567 210.646 341.876 210.999C342.197 211.342 342.659 211.553 343.262 211.631C343.823 211.705 344.25 211.642 344.545 211.444C344.841 211.235 345.011 210.967 345.054 210.639C345.116 210.163 344.983 209.823 344.654 209.619C344.337 209.416 343.874 209.21 343.267 209.002C342.855 208.862 342.447 208.685 342.045 208.471C341.643 208.257 341.317 207.989 341.069 207.666C340.822 207.333 340.73 206.928 340.792 206.452C340.882 205.765 341.209 205.237 341.773 204.87C342.349 204.493 343.076 204.362 343.954 204.477C344.79 204.586 345.444 204.887 345.918 205.379C346.404 205.862 346.638 206.495 346.622 207.278L345.305 207.106C345.305 206.697 345.171 206.362 344.904 206.101C344.649 205.831 344.278 205.665 343.791 205.601C343.315 205.539 342.932 205.591 342.641 205.758C342.361 205.925 342.2 206.173 342.157 206.501C342.116 206.818 342.247 207.088 342.551 207.311C342.866 207.535 343.301 207.748 343.856 207.949C344.329 208.119 344.771 208.311 345.184 208.526C345.609 208.732 345.939 209.007 346.174 209.349C346.421 209.683 346.507 210.135 346.433 210.706C346.351 211.416 346.004 211.968 345.394 212.361C344.795 212.746 344.03 212.877 343.099 212.756Z" fill="#042F12"/>
<rect x="29.5" y="226.5" width="192" height="50" rx="25" fill="#F6F6F9"/>
<rect x="29.5" y="226.5" width="192" height="50" rx="25" stroke="#8582AE"/>
<path d="M55.184 257V245.8H56.528V257H55.184ZM58.8228 257V249.064H60.0388L60.1348 250.216C60.3908 249.789 60.7321 249.459 61.1588 249.224C61.5854 248.989 62.0654 248.872 62.5988 248.872C63.2281 248.872 63.7668 249 64.2148 249.256C64.6734 249.512 65.0254 249.901 65.2708 250.424C65.5481 249.944 65.9268 249.565 66.4068 249.288C66.8974 249.011 67.4254 248.872 67.9908 248.872C68.9401 248.872 69.6974 249.16 70.2628 249.736C70.8281 250.301 71.1108 251.176 71.1108 252.36V257H69.7828V252.504C69.7828 251.683 69.6174 251.064 69.2868 250.648C68.9561 250.232 68.4814 250.024 67.8628 250.024C67.2228 250.024 66.6894 250.275 66.2628 250.776C65.8468 251.267 65.6388 251.971 65.6388 252.888V257H64.2948V252.504C64.2948 251.683 64.1294 251.064 63.7988 250.648C63.4681 250.232 62.9934 250.024 62.3748 250.024C61.7454 250.024 61.2174 250.275 60.7908 250.776C60.3748 251.267 60.1668 251.971 60.1668 252.888V257H58.8228ZM73.1353 260.52V249.064H74.3513L74.4793 250.376C74.7353 249.992 75.0979 249.645 75.5673 249.336C76.0473 249.027 76.6553 248.872 77.3913 248.872C78.1806 248.872 78.8686 249.053 79.4553 249.416C80.0419 249.779 80.4953 250.275 80.8153 250.904C81.1459 251.533 81.3113 252.248 81.3113 253.048C81.3113 253.848 81.1459 254.563 80.8153 255.192C80.4953 255.811 80.0366 256.301 79.4393 256.664C78.8526 257.016 78.1646 257.192 77.3753 257.192C76.7246 257.192 76.1433 257.059 75.6313 256.792C75.1299 256.525 74.7459 256.152 74.4793 255.672V260.52H73.1353ZM77.2313 256.024C77.7646 256.024 78.2339 255.901 78.6393 255.656C79.0446 255.4 79.3646 255.048 79.5993 254.6C79.8339 254.152 79.9513 253.629 79.9513 253.032C79.9513 252.435 79.8339 251.912 79.5993 251.464C79.3646 251.016 79.0446 250.669 78.6393 250.424C78.2339 250.168 77.7646 250.04 77.2313 250.04C76.6979 250.04 76.2286 250.168 75.8233 250.424C75.4179 250.669 75.0979 251.016 74.8633 251.464C74.6286 251.912 74.5113 252.435 74.5113 253.032C74.5113 253.629 74.6286 254.152 74.8633 254.6C75.0979 255.048 75.4179 255.4 75.8233 255.656C76.2286 255.901 76.6979 256.024 77.2313 256.024ZM83.1821 257V249.064H84.3981L84.5101 250.584C84.7555 250.061 85.1288 249.645 85.6301 249.336C86.1315 249.027 86.7501 248.872 87.4861 248.872V250.28H87.1181C86.6488 250.28 86.2168 250.365 85.8221 250.536C85.4275 250.696 85.1128 250.973 84.8781 251.368C84.6435 251.763 84.5261 252.307 84.5261 253V257H83.1821ZM92.3138 257.192C91.5671 257.192 90.8951 257.021 90.2978 256.68C89.7004 256.339 89.2258 255.859 88.8738 255.24C88.5324 254.611 88.3618 253.875 88.3618 253.032C88.3618 252.189 88.5378 251.459 88.8898 250.84C89.2418 250.211 89.7164 249.725 90.3138 249.384C90.9218 249.043 91.5991 248.872 92.3458 248.872C93.0924 248.872 93.7644 249.043 94.3618 249.384C94.9591 249.725 95.4284 250.211 95.7698 250.84C96.1218 251.459 96.2978 252.189 96.2978 253.032C96.2978 253.875 96.1218 254.611 95.7698 255.24C95.4178 255.859 94.9378 256.339 94.3298 256.68C93.7324 257.021 93.0604 257.192 92.3138 257.192ZM92.3138 256.04C92.7724 256.04 93.1991 255.928 93.5938 255.704C93.9884 255.48 94.3084 255.144 94.5538 254.696C94.7991 254.248 94.9218 253.693 94.9218 253.032C94.9218 252.371 94.7991 251.816 94.5538 251.368C94.3191 250.92 94.0044 250.584 93.6098 250.36C93.2151 250.136 92.7938 250.024 92.3458 250.024C91.8871 250.024 91.4604 250.136 91.0658 250.36C90.6711 250.584 90.3511 250.92 90.1058 251.368C89.8604 251.816 89.7378 252.371 89.7378 253.032C89.7378 253.693 89.8604 254.248 90.1058 254.696C90.3511 255.144 90.6658 255.48 91.0498 255.704C91.4444 255.928 91.8658 256.04 92.3138 256.04ZM100.048 257L97.0403 249.064H98.4483L100.832 255.704L103.232 249.064H104.608L101.6 257H100.048ZM109.266 257.192C108.508 257.192 107.836 257.021 107.25 256.68C106.663 256.328 106.199 255.843 105.858 255.224C105.527 254.605 105.362 253.875 105.362 253.032C105.362 252.2 105.527 251.475 105.858 250.856C106.188 250.227 106.647 249.741 107.234 249.4C107.831 249.048 108.519 248.872 109.298 248.872C110.066 248.872 110.727 249.048 111.282 249.4C111.847 249.741 112.279 250.195 112.578 250.76C112.876 251.325 113.026 251.933 113.026 252.584C113.026 252.701 113.02 252.819 113.01 252.936C113.01 253.053 113.01 253.187 113.01 253.336H106.69C106.722 253.944 106.86 254.451 107.106 254.856C107.362 255.251 107.676 255.549 108.05 255.752C108.434 255.955 108.839 256.056 109.266 256.056C109.82 256.056 110.284 255.928 110.658 255.672C111.031 255.416 111.303 255.069 111.474 254.632H112.802C112.588 255.368 112.178 255.981 111.57 256.472C110.972 256.952 110.204 257.192 109.266 257.192ZM109.266 250.008C108.626 250.008 108.055 250.205 107.554 250.6C107.063 250.984 106.78 251.549 106.706 252.296H111.698C111.666 251.581 111.42 251.021 110.962 250.616C110.503 250.211 109.938 250.008 109.266 250.008ZM117.847 257.192C116.898 257.192 116.108 256.952 115.479 256.472C114.85 255.992 114.482 255.341 114.375 254.52H115.751C115.836 254.936 116.055 255.299 116.407 255.608C116.77 255.907 117.255 256.056 117.863 256.056C118.428 256.056 118.844 255.939 119.111 255.704C119.378 255.459 119.511 255.171 119.511 254.84C119.511 254.36 119.335 254.04 118.983 253.88C118.642 253.72 118.156 253.576 117.527 253.448C117.1 253.363 116.674 253.24 116.247 253.08C115.82 252.92 115.463 252.696 115.175 252.408C114.887 252.109 114.743 251.72 114.743 251.24C114.743 250.547 114.999 249.981 115.511 249.544C116.034 249.096 116.738 248.872 117.623 248.872C118.466 248.872 119.154 249.085 119.687 249.512C120.231 249.928 120.546 250.525 120.631 251.304H119.303C119.25 250.899 119.074 250.584 118.775 250.36C118.487 250.125 118.098 250.008 117.607 250.008C117.127 250.008 116.754 250.109 116.487 250.312C116.231 250.515 116.103 250.781 116.103 251.112C116.103 251.432 116.268 251.683 116.599 251.864C116.94 252.045 117.399 252.2 117.975 252.328C118.466 252.435 118.93 252.568 119.367 252.728C119.815 252.877 120.178 253.107 120.455 253.416C120.743 253.715 120.887 254.152 120.887 254.728C120.898 255.443 120.626 256.035 120.071 256.504C119.527 256.963 118.786 257.192 117.847 257.192ZM127.122 257V245.8H130.738C131.612 245.8 132.327 245.944 132.882 246.232C133.436 246.52 133.847 246.915 134.114 247.416C134.38 247.917 134.514 248.472 134.514 249.08C134.514 249.784 134.322 250.419 133.938 250.984C133.564 251.549 132.978 251.949 132.178 252.184L134.626 257H133.042L130.77 252.376H130.674H128.466V257H127.122ZM128.466 251.32H130.641C131.506 251.32 132.135 251.112 132.53 250.696C132.924 250.28 133.122 249.747 133.122 249.096C133.122 248.435 132.924 247.912 132.53 247.528C132.146 247.133 131.511 246.936 130.626 246.936H128.466V251.32ZM139.61 257.192C138.852 257.192 138.18 257.021 137.594 256.68C137.007 256.328 136.543 255.843 136.202 255.224C135.871 254.605 135.706 253.875 135.706 253.032C135.706 252.2 135.871 251.475 136.202 250.856C136.532 250.227 136.991 249.741 137.578 249.4C138.175 249.048 138.863 248.872 139.641 248.872C140.41 248.872 141.071 249.048 141.626 249.4C142.191 249.741 142.623 250.195 142.922 250.76C143.22 251.325 143.37 251.933 143.37 252.584C143.37 252.701 143.364 252.819 143.354 252.936C143.354 253.053 143.354 253.187 143.354 253.336H137.034C137.066 253.944 137.204 254.451 137.45 254.856C137.706 255.251 138.02 255.549 138.394 255.752C138.778 255.955 139.183 256.056 139.61 256.056C140.164 256.056 140.628 255.928 141.002 255.672C141.375 255.416 141.647 255.069 141.818 254.632H143.146C142.932 255.368 142.522 255.981 141.914 256.472C141.316 256.952 140.548 257.192 139.61 257.192ZM139.61 250.008C138.97 250.008 138.399 250.205 137.898 250.6C137.407 250.984 137.124 251.549 137.049 252.296H142.042C142.01 251.581 141.764 251.021 141.306 250.616C140.847 250.211 140.282 250.008 139.61 250.008ZM148.021 257C147.296 257 146.725 256.824 146.309 256.472C145.893 256.12 145.685 255.485 145.685 254.568V250.2H144.309V249.064H145.685L145.861 247.16H147.029V249.064H149.365V250.2H147.029V254.568C147.029 255.069 147.131 255.411 147.333 255.592C147.536 255.763 147.893 255.848 148.405 255.848H149.237V257H148.021ZM154.422 257.192C153.665 257.192 152.993 257.021 152.406 256.68C151.819 256.328 151.355 255.843 151.014 255.224C150.683 254.605 150.518 253.875 150.518 253.032C150.518 252.2 150.683 251.475 151.014 250.856C151.345 250.227 151.803 249.741 152.39 249.4C152.987 249.048 153.675 248.872 154.454 248.872C155.222 248.872 155.883 249.048 156.438 249.4C157.003 249.741 157.435 250.195 157.734 250.76C158.033 251.325 158.182 251.933 158.182 252.584C158.182 252.701 158.177 252.819 158.166 252.936C158.166 253.053 158.166 253.187 158.166 253.336H151.846C151.878 253.944 152.017 254.451 152.262 254.856C152.518 255.251 152.833 255.549 153.206 255.752C153.59 255.955 153.995 256.056 154.422 256.056C154.977 256.056 155.441 255.928 155.814 255.672C156.187 255.416 156.459 255.069 156.63 254.632H157.958C157.745 255.368 157.334 255.981 156.726 256.472C156.129 256.952 155.361 257.192 154.422 257.192ZM154.422 250.008C153.782 250.008 153.211 250.205 152.71 250.6C152.219 250.984 151.937 251.549 151.862 252.296H156.854C156.822 251.581 156.577 251.021 156.118 250.616C155.659 250.211 155.094 250.008 154.422 250.008ZM159.963 257V249.064H161.179L161.259 250.488C161.515 249.987 161.883 249.592 162.363 249.304C162.843 249.016 163.387 248.872 163.995 248.872C164.934 248.872 165.681 249.16 166.235 249.736C166.801 250.301 167.083 251.176 167.083 252.36V257H165.739V252.504C165.739 250.851 165.057 250.024 163.691 250.024C163.009 250.024 162.438 250.275 161.979 250.776C161.531 251.267 161.307 251.971 161.307 252.888V257H159.963ZM172.256 257C171.53 257 170.96 256.824 170.544 256.472C170.128 256.12 169.92 255.485 169.92 254.568V250.2H168.544V249.064H169.92L170.096 247.16H171.264V249.064H173.6V250.2H171.264V254.568C171.264 255.069 171.365 255.411 171.568 255.592C171.77 255.763 172.128 255.848 172.64 255.848H173.472V257H172.256ZM176.123 247.304C175.856 247.304 175.632 247.219 175.451 247.048C175.28 246.867 175.195 246.643 175.195 246.376C175.195 246.12 175.28 245.907 175.451 245.736C175.632 245.565 175.856 245.48 176.123 245.48C176.379 245.48 176.598 245.565 176.779 245.736C176.96 245.907 177.051 246.12 177.051 246.376C177.051 246.643 176.96 246.867 176.779 247.048C176.598 247.219 176.379 247.304 176.123 247.304ZM175.451 257V249.064H176.795V257H175.451ZM182.751 257.192C182.005 257.192 181.333 257.021 180.735 256.68C180.138 256.339 179.663 255.859 179.311 255.24C178.97 254.611 178.799 253.875 178.799 253.032C178.799 252.189 178.975 251.459 179.327 250.84C179.679 250.211 180.154 249.725 180.751 249.384C181.359 249.043 182.037 248.872 182.783 248.872C183.53 248.872 184.202 249.043 184.799 249.384C185.397 249.725 185.866 250.211 186.207 250.84C186.559 251.459 186.735 252.189 186.735 253.032C186.735 253.875 186.559 254.611 186.207 255.24C185.855 255.859 185.375 256.339 184.767 256.68C184.17 257.021 183.498 257.192 182.751 257.192ZM182.751 256.04C183.21 256.04 183.637 255.928 184.031 255.704C184.426 255.48 184.746 255.144 184.991 254.696C185.237 254.248 185.359 253.693 185.359 253.032C185.359 252.371 185.237 251.816 184.991 251.368C184.757 250.92 184.442 250.584 184.047 250.36C183.653 250.136 183.231 250.024 182.783 250.024C182.325 250.024 181.898 250.136 181.503 250.36C181.109 250.584 180.789 250.92 180.543 251.368C180.298 251.816 180.175 252.371 180.175 253.032C180.175 253.693 180.298 254.248 180.543 254.696C180.789 255.144 181.103 255.48 181.487 255.704C181.882 255.928 182.303 256.04 182.751 256.04ZM188.604 257V249.064H189.82L189.9 250.488C190.156 249.987 190.524 249.592 191.004 249.304C191.484 249.016 192.028 248.872 192.636 248.872C193.575 248.872 194.321 249.16 194.876 249.736C195.441 250.301 195.724 251.176 195.724 252.36V257H194.38V252.504C194.38 250.851 193.697 250.024 192.332 250.024C191.649 250.024 191.079 250.275 190.62 250.776C190.172 251.267 189.948 251.971 189.948 252.888V257H188.604Z" fill="#0E0D13"/>
</svg>
