<svg width="97" height="40" viewBox="0 0 97 40" fill="none" xmlns="http://www.w3.org/2000/svg">
<g clip-path="url(#clip0_292_17038)">
<path d="M33.9323 3H6.73228C4.85451 3 3.33228 4.52223 3.33228 6.4V33.6C3.33228 35.4778 4.85451 37 6.73228 37H33.9323C35.81 37 37.3323 35.4778 37.3323 33.6V6.4C37.3323 4.52223 35.81 3 33.9323 3Z" fill="#6772E5"/>
<path fill-rule="evenodd" clip-rule="evenodd" d="M18.8136 15.7159C18.8136 14.8319 19.5389 14.4919 20.7403 14.4919C22.4629 14.4919 24.6389 15.0132 26.3616 15.9426V10.6159C24.4803 9.86791 22.6216 9.57324 20.7403 9.57324C16.1389 9.57324 13.0789 11.9759 13.0789 15.9879C13.0789 22.2439 21.6923 21.2466 21.6923 23.9439C21.6923 24.9866 20.7856 25.3266 19.5163 25.3266C17.6349 25.3266 15.2323 24.5559 13.3283 23.5132V28.9079C15.4363 29.8146 17.5669 30.1999 19.5163 30.1999C24.2309 30.1999 27.4723 27.8652 27.4723 23.8079C27.4496 17.0532 18.8136 18.2546 18.8136 15.7159Z" fill="white"/>
</g>
<path d="M57.9573 17.4205C57.8967 16.8826 57.6467 16.4659 57.2073 16.1705C56.7679 15.8712 56.2149 15.7216 55.5482 15.7216C55.0709 15.7216 54.658 15.7973 54.3095 15.9489C53.9611 16.0966 53.6902 16.3011 53.497 16.5625C53.3077 16.8201 53.213 17.1136 53.213 17.4432C53.213 17.7197 53.2774 17.9583 53.4061 18.1591C53.5387 18.3598 53.7111 18.5284 53.9232 18.6648C54.1391 18.7973 54.3702 18.9091 54.6164 19C54.8626 19.0871 55.0993 19.1591 55.3266 19.2159L56.463 19.5114C56.8342 19.6023 57.2149 19.7254 57.605 19.8807C57.9952 20.036 58.3569 20.2405 58.6902 20.4943C59.0236 20.7481 59.2925 21.0625 59.497 21.4375C59.7054 21.8125 59.8095 22.2614 59.8095 22.7841C59.8095 23.4432 59.6391 24.0284 59.2982 24.5398C58.9611 25.0511 58.4705 25.4545 57.8266 25.75C57.1864 26.0455 56.4118 26.1932 55.5027 26.1932C54.6315 26.1932 53.8777 26.0549 53.2414 25.7784C52.605 25.5019 52.1069 25.1098 51.747 24.6023C51.3872 24.0909 51.1883 23.4848 51.1505 22.7841H52.9118C52.9459 23.2045 53.0823 23.5549 53.3209 23.8352C53.5633 24.1117 53.872 24.3182 54.247 24.4545C54.6258 24.5871 55.0406 24.6534 55.4914 24.6534C55.9876 24.6534 56.4289 24.5758 56.8152 24.4205C57.2054 24.2614 57.5122 24.0417 57.7357 23.7614C57.9592 23.4773 58.0709 23.1458 58.0709 22.767C58.0709 22.4223 57.9724 22.1402 57.7755 21.9205C57.5823 21.7008 57.319 21.5189 56.9857 21.375C56.6561 21.2311 56.283 21.1042 55.8664 20.9943L54.4914 20.6193C53.5595 20.3655 52.8209 19.9924 52.2755 19.5C51.7338 19.0076 51.463 18.3561 51.463 17.5455C51.463 16.875 51.6448 16.2898 52.0084 15.7898C52.372 15.2898 52.8645 14.9015 53.4857 14.625C54.1069 14.3447 54.8077 14.2045 55.588 14.2045C56.3758 14.2045 57.0709 14.3428 57.6732 14.6193C58.2792 14.8958 58.7565 15.2765 59.105 15.7614C59.4535 16.2424 59.6353 16.7955 59.6505 17.4205H57.9573ZM65.8451 17.2727V18.6364H61.078V17.2727H65.8451ZM62.3564 15.1818H64.0553V23.4375C64.0553 23.767 64.1045 24.0152 64.203 24.1818C64.3015 24.3447 64.4284 24.4564 64.5837 24.517C64.7428 24.5739 64.9151 24.6023 65.1007 24.6023C65.2371 24.6023 65.3564 24.5928 65.4587 24.5739C65.561 24.5549 65.6405 24.5398 65.6973 24.5284L66.0042 25.9318C65.9057 25.9697 65.7655 26.0076 65.5837 26.0455C65.4019 26.0871 65.1746 26.1098 64.9019 26.1136C64.4549 26.1212 64.0382 26.0417 63.6519 25.875C63.2655 25.7083 62.953 25.4508 62.7144 25.1023C62.4757 24.7538 62.3564 24.3163 62.3564 23.7898V15.1818ZM67.7243 26V17.2727H69.3664V18.6591H69.4573C69.6164 18.1894 69.8967 17.8201 70.2982 17.5511C70.7035 17.2784 71.1618 17.142 71.6732 17.142C71.7792 17.142 71.9042 17.1458 72.0482 17.1534C72.1959 17.161 72.3114 17.1705 72.3948 17.1818V18.8068C72.3266 18.7879 72.2054 18.767 72.0311 18.7443C71.8569 18.7178 71.6827 18.7045 71.5084 18.7045C71.1069 18.7045 70.7489 18.7898 70.4345 18.9602C70.1239 19.1269 69.8777 19.3598 69.6959 19.6591C69.5141 19.9545 69.4232 20.2917 69.4232 20.6705V26H67.7243ZM73.8649 26V17.2727H75.5638V26H73.8649ZM74.7229 15.9261C74.4274 15.9261 74.1737 15.8277 73.9615 15.6307C73.7532 15.4299 73.649 15.1913 73.649 14.9148C73.649 14.6345 73.7532 14.3958 73.9615 14.1989C74.1737 13.9981 74.4274 13.8977 74.7229 13.8977C75.0184 13.8977 75.2702 13.9981 75.4786 14.1989C75.6907 14.3958 75.7968 14.6345 75.7968 14.9148C75.7968 15.1913 75.6907 15.4299 75.4786 15.6307C75.2702 15.8277 75.0184 15.9261 74.7229 15.9261ZM77.8493 29.2727V17.2727H79.5084V18.6875H79.6505C79.7489 18.5057 79.891 18.2955 80.0766 18.0568C80.2622 17.8182 80.5198 17.6098 80.8493 17.4318C81.1789 17.25 81.6145 17.1591 82.1561 17.1591C82.8607 17.1591 83.4895 17.3371 84.0425 17.6932C84.5955 18.0492 85.0292 18.5625 85.3436 19.233C85.6618 19.9034 85.8209 20.7102 85.8209 21.6534C85.8209 22.5966 85.6637 23.4053 85.3493 24.0795C85.0349 24.75 84.6031 25.267 84.0539 25.6307C83.5046 25.9905 82.8777 26.1705 82.1732 26.1705C81.6429 26.1705 81.2092 26.0814 80.872 25.9034C80.5387 25.7254 80.2774 25.517 80.088 25.2784C79.8986 25.0398 79.7527 24.8277 79.6505 24.642H79.5482V29.2727H77.8493ZM79.5141 21.6364C79.5141 22.25 79.6031 22.7879 79.7811 23.25C79.9592 23.7121 80.2167 24.0739 80.5539 24.3352C80.891 24.5928 81.3039 24.7216 81.7925 24.7216C82.3001 24.7216 82.7243 24.5871 83.0652 24.3182C83.4061 24.0455 83.6637 23.6761 83.838 23.2102C84.016 22.7443 84.105 22.2197 84.105 21.6364C84.105 21.0606 84.0179 20.5436 83.8436 20.0852C83.6732 19.6269 83.4156 19.2652 83.0709 19C82.73 18.7348 82.3039 18.6023 81.7925 18.6023C81.3001 18.6023 80.8834 18.7292 80.5425 18.983C80.2054 19.2367 79.9497 19.5909 79.7755 20.0455C79.6012 20.5 79.5141 21.0303 79.5141 21.6364ZM91.4857 26.1761C90.6258 26.1761 89.8853 25.9924 89.2641 25.625C88.6467 25.2538 88.1694 24.733 87.8323 24.0625C87.4989 23.3883 87.3323 22.5985 87.3323 21.6932C87.3323 20.7992 87.4989 20.0114 87.8323 19.3295C88.1694 18.6477 88.6391 18.1155 89.2414 17.733C89.8474 17.3504 90.5558 17.1591 91.3664 17.1591C91.8588 17.1591 92.3361 17.2405 92.7982 17.4034C93.2603 17.5663 93.6751 17.822 94.0425 18.1705C94.4099 18.5189 94.6997 18.9716 94.9118 19.5284C95.1239 20.0814 95.23 20.7538 95.23 21.5455V22.1477H88.2925V20.875H93.5652C93.5652 20.428 93.4743 20.0322 93.2925 19.6875C93.1107 19.339 92.855 19.0644 92.5255 18.8636C92.1997 18.6629 91.8171 18.5625 91.3777 18.5625C90.9005 18.5625 90.4838 18.6799 90.1277 18.9148C89.7755 19.1458 89.5027 19.4489 89.3095 19.8239C89.1202 20.1951 89.0255 20.5985 89.0255 21.0341V22.0284C89.0255 22.6117 89.1277 23.108 89.3323 23.517C89.5406 23.9261 89.8304 24.2386 90.2016 24.4545C90.5728 24.6667 91.0065 24.7727 91.5027 24.7727C91.8247 24.7727 92.1183 24.7273 92.3834 24.6364C92.6486 24.5417 92.8777 24.4015 93.0709 24.2159C93.2641 24.0303 93.4118 23.8011 93.5141 23.5284L95.122 23.8182C94.9933 24.2917 94.7622 24.7064 94.4289 25.0625C94.0993 25.4148 93.6845 25.6894 93.1845 25.8864C92.6883 26.0795 92.122 26.1761 91.4857 26.1761Z" fill="#160042"/>
<defs>
<clipPath id="clip0_292_17038">
<rect width="34" height="34" fill="white" transform="translate(3.33228 3)"/>
</clipPath>
</defs>
</svg>
